<?xml version="1.0" encoding="UTF-8" standalone="no"?>
<!-- Created with Inkscape (http://www.inkscape.org/) -->

<svg
   xmlns:dc="http://purl.org/dc/elements/1.1/"
   xmlns:cc="http://creativecommons.org/ns#"
   xmlns:rdf="http://www.w3.org/1999/02/22-rdf-syntax-ns#"
   xmlns:svg="http://www.w3.org/2000/svg"
   xmlns="http://www.w3.org/2000/svg"
   xmlns:sodipodi="http://sodipodi.sourceforge.net/DTD/sodipodi-0.dtd"
   xmlns:inkscape="http://www.inkscape.org/namespaces/inkscape"
   width="483.17444"
   height="102.00004"
   id="svg2"
   version="1.1"
   inkscape:version="0.48.4 r9939"
   sodipodi:docname="header.svg"
   inkscape:export-filename="C:\Users\Evan\Work\Lemma\Web\output\graphics\header.png"
   inkscape:export-xdpi="89.970001"
   inkscape:export-ydpi="89.970001">
  <defs
     id="defs4" />
  <sodipodi:namedview
     id="base"
     pagecolor="#ffffff"
     bordercolor="#666666"
     borderopacity="1.0"
     inkscape:pageopacity="0.0"
     inkscape:pageshadow="2"
     inkscape:zoom="2.1190911"
     inkscape:cx="90.162759"
     inkscape:cy="91.214363"
     inkscape:document-units="px"
     inkscape:current-layer="layer1"
     showgrid="true"
     fit-margin-top="0"
     fit-margin-left="0"
     fit-margin-right="0"
     fit-margin-bottom="0"
     inkscape:window-width="1920"
     inkscape:window-height="1057"
     inkscape:window-x="-8"
     inkscape:window-y="-8"
     inkscape:window-maximized="1" />
  <metadata
     id="metadata7">
    <rdf:RDF>
      <cc:Work
         rdf:about="">
        <dc:format>image/svg+xml</dc:format>
        <dc:type
           rdf:resource="http://purl.org/dc/dcmitype/StillImage" />
        <dc:title />
      </cc:Work>
    </rdf:RDF>
  </metadata>
  <g
     inkscape:label="Layer 1"
     inkscape:groupmode="layer"
     id="layer1"
     transform="translate(-116.86336,-508.63692)">
    <g
       id="g3822"
       clip-path="none">
      <rect
         transform="matrix(-0.70710678,0.70710678,-0.70710678,-0.70710678,0,0)"
         y="-511.98019"
         x="244.22095"
         height="32.536343"
         width="32.536343"
         id="use3102"
         style="fill:#5bafcd;fill-opacity:1;stroke:none"
         inkscape:tile-x0="34.441723"
         inkscape:tile-y0="316.09942" />
      <rect
         transform="matrix(-0.70710678,0.70710678,-0.70710678,-0.70710678,0,0)"
         y="-511.98019"
         x="281.63776"
         height="32.536343"
         width="32.536343"
         id="use3104"
         style="fill:#5bafcd;fill-opacity:1;stroke:none"
         inkscape:tile-x0="34.441723"
         inkscape:tile-y0="316.09942" />
      <rect
         transform="matrix(-0.70710678,0.70710678,-0.70710678,-0.70710678,0,0)"
         y="-549.39697"
         x="244.22095"
         height="32.536343"
         width="32.536343"
         id="use3106"
         style="fill:#5bafcd;fill-opacity:1;stroke:none"
         inkscape:tile-x0="34.441723"
         inkscape:tile-y0="316.09942" />
      <rect
         transform="matrix(-0.70710678,0.70710678,-0.70710678,-0.70710678,0,0)"
         y="-549.39697"
         x="281.63776"
         height="32.536343"
         width="32.536343"
         id="use3108"
         style="fill:#5bafcd;fill-opacity:1;stroke:none"
         inkscape:tile-x0="34.441723"
         inkscape:tile-y0="316.09942" />
      <path
         inkscape:export-filename="C:\Users\Evan\Code\Lemma\Lemma\Content\Images\logo.png"
         style="fill:#ffffff;fill-opacity:1;stroke:none"
         d="m 161.38371,576.67863 -3.77663,5.03369 0.39608,0.69293 c 0,0 -1.38473,0.37273 -1.8264,0.70514 0,0 -0.52071,0.43457 -1.22186,1.11946 l -1.47108,0.89979 c -1.44225,0.88218 -1.01612,1.48119 -1.01612,1.48119 l 0.0744,1.14398 1.5123,2.17139 3.54828,2.16852 -0.8513,1.15586 0.36891,1.29741 3.42877,1.64998 c 0,0 1.40696,0.97558 2.19725,1.51974 0.84483,0.58172 2.65796,1.32707 3.09975,1.6789 0.73947,0.58885 2.42743,1.05025 4.17487,1.99189 1.26949,0.68409 4.11077,0.89148 4.11077,0.89148 0.19925,-0.59293 0.69196,-0.61195 0.74049,-1.03277 0.10481,-0.90945 -0.16297,-1.8339 -0.71155,-2.56698 -0.46805,-0.62585 -1.39674,-2.025 -1.39674,-2.025 l -2.48113,-1.93277 -0.0397,-0.57445 -0.39572,-0.56336 -0.099,-0.91096 -0.53319,-0.50186 0.10707,-0.72643 -0.67731,-1.35138 0.49047,-0.33058 c 0,0 -0.0818,-2.98097 0.46221,-4.52802 1.05493,-2.99945 5.11186,-8.05328 5.11186,-8.05328 0,0 3.92862,-2.67121 5.92944,-3.95086 0.94862,-0.60668 1.89167,-1.22583 2.87946,-1.76633 1.15921,-0.63431 2.48487,-0.9708 3.5676,-1.72826 0.73799,-0.51627 1.53756,-1.07483 1.94018,-1.88048 0.37884,-0.75812 0.47191,-1.68882 0.31908,-2.52244 -0.12728,-0.69444 -0.45338,-1.41616 -0.99391,-1.87035 -0.54054,-0.45419 -1.32561,-0.49852 -2.01365,-0.65678 -0.35716,-0.0821 -1.08919,-0.15002 -1.08919,-0.15002 0,0 0.26822,-0.85487 0.29569,-1.10183 0.0274,-0.24695 0.09,-1.54906 -0.28676,-2.17632 -0.45087,-0.7507 -1.32406,-1.20366 -2.13806,-1.52646 -1.099,-0.43584 -2.33231,-0.46347 -3.5145,-0.47759 l -2.97507,-0.57057 -7.29632,0.58169 c 0,0 1.67532,-1.16426 2.31268,-1.24818 0.51585,-0.068 1.08639,-0.1678 1.46215,-0.307 0.78342,-0.29016 1.55367,-0.71184 2.13636,-1.31051 1.00896,-1.0366 1.75329,-2.1504 2.39449,-3.44707 0.88567,-1.7911 1.0577,-2.56877 1.71055,-4.21734 l 0.70991,-1.69014 0.74876,-1.5935 0.16899,-0.463 c 0,0 2.17517,-0.42092 2.98802,-0.22617 0.87406,0.20942 2.43642,3.25943 3.18768,3.63586 0.61178,0.30655 1.3403,0.29873 1.3403,0.29873 l 0.80901,-0.24317 0.67923,-0.5432 c 0,0 0.302,0.10171 0.45821,0.0986 0.13971,-0.003 0.28777,-0.0298 0.40601,-0.10429 0.0824,-0.0519 0.1881,-0.22386 0.1881,-0.22386 0,0 0.36063,0.032 0.51495,-0.0447 0.19656,-0.0976 0.44189,-0.48802 0.44189,-0.48802 l 0.21945,-0.26117 c 0,0 0.37664,0.2431 0.58206,0.32994 0.20433,0.0864 0.41892,0.21609 0.6388,0.18666 0.20366,-0.0273 0.39514,-0.16343 0.52545,-0.32231 0.2737,-0.33373 0.28328,-0.81593 0.44795,-1.2149 0.18645,-0.45171 0.34348,-0.92363 0.61068,-1.3328 0.1555,-0.23811 0.34114,-0.46481 0.56728,-0.63725 0.45117,-0.34406 1.07009,-0.41667 1.52555,-0.75503 0.60724,-0.45109 1.10851,-1.04304 1.55106,-1.65656 0.45101,-0.62525 1.10333,-2.03275 1.10333,-2.03275 l 0.18977,-1.40003 c 0,0 0.0695,-1.98101 -0.18466,-2.92401 -0.29244,-1.08538 -0.88923,-2.07772 -1.50707,-3.01677 -0.47122,-0.71615 -1.01726,-1.39648 -1.65799,-1.96598 -0.5256,-0.46719 -2.53151,-1.64112 -3.1608,-1.95497 -0.79114,-0.39455 -2.40875,-0.81456 -2.40875,-0.81456 0,0 -0.11742,-0.48974 -0.52167,-0.99074 -0.63769,-0.79031 -0.45851,-1.38611 -1.40826,-1.74556 -0.82384,-0.3118 -2.61166,-0.40308 -2.61166,-0.40308 l -2.66422,-1.00406 c 0,0 -11.86975,-5.7986 -12.49913,-5.55117 -0.67949,0.26713 -1.09967,1.07456 -1.81336,1.22854 -1.10112,0.23756 -3.3304,-0.57334 -3.3304,-0.57334 l 2.07475,1.98801 c 0,0 -0.42682,1.82681 0.15678,1.83867 4.16516,0.0849 11.24792,2.79774 11.24792,2.79774 l 2.84868,1.41944 c 0,0 0.78246,1.00715 1.91929,1.03398 1.56208,0.0368 1.91723,0.91664 1.91723,0.91664 l 0.832,0.53391 c 0,0 -0.98118,0.79295 -1.79824,1.92094 -0.6078,0.83912 -0.66762,1.85216 -0.9342,2.4574 -0.22988,0.52192 -0.46478,1.32946 -0.85215,1.99575 -0.38737,0.66632 -0.33462,0.90775 -0.94226,1.45392 l -1.26462,0.64683 -0.0222,-0.27755 c 0,0 -4.82687,-3.08079 -5.63519,-3.2021 -0.87185,-0.13084 -3.20525,-0.26579 -3.20525,-0.26579 0,0 -0.52884,-0.54455 -0.85813,-0.72106 -1.53218,-0.82132 -4.57935,-1.97387 -4.57935,-1.97387 l -2.30232,-1.19773 -0.51752,0.73029 -2.26237,-0.90729 -5.64817,-3.08057 -3.9174,-2.30141 -4.51264,-2.39649 -4.5359,-2.10096 -3.33076,-1.17836 -5.18392,-2.24039 -3.24409,-1.87069 -4.02932,-1.90038 -3.04366,-1.2522 -2.7989,-0.68644 -0.46862,0.23635 -0.54768,0.11463 -0.12993,0.49553 0.44774,0.37619 0.57012,0.19264 -0.29704,0.16415 0.0223,0.65524 0.34771,0.41948 0.9119,0.54344 2.27008,1.04814 1.34173,0.71365 0.88948,0.68375 0.34773,0.41948 0.16259,0.67765 -0.73883,-0.1434 -1.85966,-0.70329 -1.0448,-0.0822 -0.44786,0.41934 0.004,0.44928 0.33281,0.24783 0.92536,0.30014 1.0149,0.5345 1.78349,1.02121 2.12238,0.54211 1.34783,-0.0132 1.07174,-0.40433 0.79256,-0.0344 1.97758,0.866 2.80732,1.6587 3.38785,2.36926 2.80434,1.62436 2.67752,1.35867 4.19543,1.71114 1.21788,0.48229 1.50886,1.04505 1.1447,0.83452 2.08794,1.34067 2.15959,1.36902 -2.01499,-0.10182 -1.79411,0.0519 -3.12857,0.61747 -3.46879,-0.11396 -2.37915,-0.31232 -2.3702,-0.20931 -3.61958,0.14126 c 0,0 -0.29016,0.16029 -0.31945,0.30443 -0.0362,0.17798 0.21634,0.50006 0.21634,0.50006 0,0 -0.29725,0.10907 -0.35975,0.23874 -0.0848,0.17592 -0.0598,0.42266 0.0506,0.58363 0.11375,0.16563 0.78863,0.43612 0.78863,0.43612 0,0 -0.55856,0.16328 -0.57978,0.37588 -0.0178,0.17744 0.0618,0.37133 0.18202,0.50303 0.17002,0.18625 0.68505,0.32101 0.68505,0.32101 l 1.95527,0.21075 1.42244,0.0495 -2.45688,0.38621 c 0,0 -0.67104,0.0677 -0.83738,0.31481 -0.1091,0.16236 -0.10867,0.43615 0.0164,0.58659 0.19971,0.24031 0.91642,0.19716 0.91642,0.19716 l 2.10307,-0.0788 1.33889,-0.11623 c 0,0 0.22483,0.43142 0.22313,0.66534 -0.002,0.21688 0.0165,0.16844 0.0165,0.16844 0,0 -0.98923,0.18491 -1.41505,0.43412 -0.2539,0.14861 -0.53488,0.3337 -0.63892,0.60887 -0.0609,0.16118 -0.0794,0.39544 0.0447,0.51497 0.35414,0.34112 1.36495,-0.0532 1.36495,-0.0532 0.75765,0.0529 1.7773,-0.15614 1.7773,-0.15614 0,0 1.05779,-0.46599 1.45474,-0.75446 0.43446,-0.31571 0.56883,-0.5187 0.91096,-0.93266 0.2024,-0.2449 0.32342,-0.32923 0.32342,-0.32923 0,0 0.59344,-0.24998 0.90905,-0.28643 0.56652,-0.0654 1.70601,0.12861 1.70601,0.12861 l 3.15528,0.48707 2.26724,0.21826 2.14037,-0.0474 1.97626,-0.34449 1.21788,0.4823 0.91189,0.54342 -2.11846,3.08937 -1.22872,2.182 -1.47513,2.92975 -1.34365,2.0536 -1.73247,0.92157 -2.96714,1.12216 c 0,0 -2.71618,0.19333 -3.68966,1.04713 -0.64382,0.56466 0.80008,1.6679 0.36057,2.17342 -0.19691,0.2265 -2.29794,1.80401 -2.29794,1.80401 l -0.19678,-0.21882 c 0,0 -0.56176,0.51502 -0.73452,0.65134 -0.6365,0.50234 -1.23689,1.06522 -1.73488,1.70511 -0.91622,1.17733 -1.17586,1.98461 -1.77224,3.35204 -0.4546,1.04239 -0.81836,2.14091 -0.98836,3.26534 -0.10481,0.69364 -0.0411,1.40356 -0.0129,2.10451 0.0392,0.97386 -0.0639,1.99128 0.25287,2.91302 0.28104,0.81782 0.81204,1.55355 1.41184,2.17649 0.83959,0.87201 1.90278,1.51827 2.96965,2.09019 1.03724,0.55606 2.16191,0.94631 3.29062,1.27967 1.0893,0.32174 2.2129,0.52704 3.33715,0.68863 0.76658,0.11021 2.31558,0.19033 2.31558,0.19033 0,0 1.71403,0.57876 2.60469,0.7033 1.16805,0.16335 3.53791,0.0501 3.53791,0.0501 z"
         id="path3110"
         inkscape:connector-curvature="0"
         sodipodi:nodetypes="cccccscccccccsssssscccccccccscssssssscssscccssssccccsscccsscsccssssssssccsssscssccssccsccsccsszcccscscccccccccccccccccccccccccccccccccccccccccccccccccccccccccccscsscssccccsscccscsssscsscscccccccccccccssccsssssssssscscc"
         inkscape:export-xdpi="400.17322"
         inkscape:export-ydpi="400.17322" />
    </g>
    <path
       inkscape:connector-curvature="0"
       id="path2990-3"
       style="font-size:144px;font-style:normal;font-variant:normal;font-weight:normal;font-stretch:normal;line-height:125%;letter-spacing:0px;word-spacing:0px;fill:#ffffff;fill-opacity:1;stroke:none;font-family:NeoRetroFill;-inkscape-font-specification:NeoRetroFill"
       d="m 261.79674,594.14255 c -0.52282,1.92296 -0.7842,3.05913 -0.78411,3.40851 -9e-5,0.4374 0.0866,0.9188 0.26002,1.44422 l -0.78411,0.78411 c -1.66166,0.088 -4.24069,0.13202 -7.73715,0.13201 -4.36871,1e-5 -10.98835,-0.17468 -19.85896,-0.52407 -8.87068,-0.34938 -15.53434,-0.52407 -19.99098,-0.52408 -2.01098,10e-6 -5.02609,0.088 -9.04535,0.26404 -0.52542,-6.37961 -0.78813,-14.28878 -0.78812,-23.72753 -1e-5,-3.93389 0.066,-9.83342 0.19803,-17.69865 0.13201,-7.86512 0.19801,-13.76465 0.19803,-17.69863 -2e-5,-5.59276 -0.13203,-11.18559 -0.39606,-16.77851 1.92295,-0.69867 3.7152,-1.04806 5.3768,-1.04814 0.87478,8e-5 1.70425,0.13076 2.48838,0.39204 l 0.6561,1.04817 1.18017,65.15369 c 1.04815,1.13621 3.0151,1.70428 5.90088,1.70426 l 42.2103,0 c 0.6987,0.69879 1.04809,1.48558 1.04814,2.36037 -5e-5,0.52275 -0.0441,0.95881 -0.13201,1.30819 z" />
    <path
       inkscape:connector-curvature="0"
       id="path2992-3"
       style="font-size:144px;font-style:normal;font-variant:normal;font-weight:normal;font-stretch:normal;line-height:125%;letter-spacing:0px;word-spacing:0px;fill:#ffffff;fill-opacity:1;stroke:none;font-family:NeoRetroFill;-inkscape-font-specification:NeoRetroFill"
       d="m 342.07815,596.37087 c -7e-5,0.61344 0.044,1.09485 0.13203,1.44423 l -0.78811,0.7881 c -1.13625,10e-6 -2.88317,10e-6 -5.24078,0 -2.36042,0.0854 -4.1527,0.12804 -5.3768,0.12803 -4.36872,10e-6 -10.90102,-0.0873 -19.59693,-0.26203 -8.69599,-0.17469 -15.2283,-0.26204 -19.59693,-0.26206 -5.5075,2e-5 -11.10166,0.13204 -16.7825,0.39606 -0.52274,-2.01094 -0.78412,-4.0219 -0.78411,-6.03288 -10e-6,-1.74692 0.21803,-4.36864 0.65409,-7.86518 0.43607,-3.4965 0.65409,-6.11821 0.65411,-7.86517 -2e-5,-1.39751 -0.0874,-3.45116 -0.26204,-6.16093 -0.1747,-2.7097 -0.26206,-4.76332 -0.26205,-6.16091 -10e-6,-2.53366 0.10934,-6.35689 0.32806,-11.46972 0.21869,-5.11269 0.32804,-8.93726 0.32805,-11.4737 -10e-6,-3.6698 -0.21872,-7.20901 -0.65611,-10.61759 -0.52274,-4.10719 -0.78412,-5.72344 -0.78411,-4.84871 -10e-6,-1.48547 0.78544,-2.22825 2.35635,-2.22834 0.35205,9e-5 0.89946,0.0434 1.64224,0.13003 0.74277,0.0867 1.33153,0.1301 1.76627,0.13002 0.87478,8e-5 1.57489,-0.21862 2.10031,-0.6561 4.89404,0.70151 11.36033,1.05224 19.3989,1.05215 3.05909,9e-5 7.64776,-0.0659 13.76604,-0.19803 6.11819,-0.13194 10.70687,-0.19794 13.76606,-0.19802 0.87207,8e-5 2.13892,8e-5 3.80057,0 1.74686,0.0881 3.01371,0.1321 3.80055,0.13201 0.61337,-0.17328 0.87607,-0.25995 0.78813,-0.26004 0.26129,-0.26396 0.56668,-0.39596 0.91613,-0.39605 0.52533,9e-5 0.91874,0.21877 1.18018,0.65609 l -1.04815,7.47313 c -6.20633,0.69884 -14.29018,1.04822 -24.25162,1.04814 -2.27238,8e-5 -5.68089,-0.0439 -10.22553,-0.13203 -4.5447,9e-5 -7.9532,9e-5 -10.22552,0 -2.88311,9e-5 -5.02477,0.0441 -6.42496,0.13203 l -1.96429,2.09632 c 0.26134,1.31227 0.39205,2.66712 0.39206,4.0646 -1e-5,1.13624 -0.17472,2.94984 -0.52407,5.44081 -0.34942,2.4911 -0.4801,4.43539 -0.39207,5.83287 l 0.13203,1.70425 1.44021,1.44422 c 2.1843,0.52279 4.98072,0.78417 8.38924,0.78411 7.95316,6e-5 10.92426,-0.044 8.91333,-0.13201 3.49649,0.088 6.42492,0.56946 8.78531,1.44421 l 0,6.42496 c -2.88313,0.26143 -5.72356,0.3921 -8.52127,0.39205 -9.35076,5e-5 -15.46899,0.34944 -18.35474,1.04816 l -0.65208,0.78812 0.39205,23.46349 1.70426,1.70426 c 2.01093,-0.088 4.98204,-0.13199 8.91332,-0.13201 4.10724,2e-5 10.24682,0.15337 18.41875,0.46006 8.17183,0.30672 14.31141,0.46009 18.41875,0.46007 4.01919,2e-5 7.03431,-0.044 9.04535,-0.13202 0.52534,0.61078 0.78803,1.39756 0.7881,2.36036 -7e-5,0.52276 -0.0661,1.22153 -0.19803,2.0963 -0.13209,0.87482 -0.1981,1.52958 -0.19803,1.96429 z" />
    <path
       id="path2996-5"
       style="font-size:144px;font-style:normal;font-variant:normal;font-weight:normal;font-stretch:normal;line-height:125%;letter-spacing:0px;word-spacing:0px;fill:#5bafcd;fill-opacity:1;stroke:none;font-family:NeoRetroFill;-inkscape-font-specification:NeoRetroFill"
       d="m 422.82334,584.5257 -0.39207,-1.30819 c -0.1761,-0.34938 -0.30812,-0.69876 -0.39605,-1.04815 -9e-5,-0.87479 0.0439,-2.18565 0.13201,-3.93259 -7e-5,-1.74959 -7e-5,-3.06045 0,-3.93259 -7e-5,-3.14711 -0.0874,0.91509 -0.26203,-5.33387 -0.37569,-2.43125 -0.26212,-5.81596 -0.26205,-7.46862 -7e-5,-4.19525 0.13061,-8.30253 0.39207,-12.32185 -0.17344,-0.6987 -0.56683,-1.0481 -1.18018,-1.04815 l -0.52407,0 c -2.18441,4.10734 -5.7676,10.09355 -10.74961,17.95867 -0.43747,0.52546 -0.3993,2.00651 -1.18602,3.14264 -0.26143,0.6108 -1.30374,0.87799 -1.82643,2.10215 -1.05088,2.27237 -3.23654,6.07427 -6.55698,11.4057 -2.97116,4.71805 -4.72025,8.33025 -6.29293,8.16429 -1.97852,0.14201 -2.75112,-0.5618 -4.0606,-3.44758 -1.05087,-2.44569 -2.10036,-4.89271 -3.14848,-7.34111 -5.24347,-10.48686 -10.66162,-19.61887 -16.25442,-27.39607 -1.2242,-0.34934 -2.36037,-1.13612 -3.40851,-2.36035 -0.17604,0.87484 -0.26406,1.52962 -0.26404,1.96429 -2e-5,0.78683 0.13133,1.94501 0.39406,3.47452 0.26268,1.5296 0.39404,2.68777 0.39406,3.47452 -2e-5,-0.0879 -0.39342,13.23933 -1.18017,39.98195 -1.30954,0.70145 -2.7951,1.05216 -4.45667,1.05215 -1.22419,10e-6 -3.05914,-0.17602 -5.50482,-0.52807 -0.78679,-6.37961 -1.18017,-13.85137 -1.18017,-22.41534 0,-4.28328 1.10605,-10.77224 1.36744,-19.4669 0.26136,-8.69458 -0.58334,-15.22754 -0.58333,-19.59893 -10e-6,-6.29152 -0.1307,-11.05356 -0.39207,-14.28613 1.04816,9e-5 2.57772,-0.0439 4.5887,-0.13202 2.01094,9e-5 3.4965,9e-5 4.45667,0 1.13615,9e-5 2.01027,0.54617 2.62237,1.63824 0.61208,1.09225 1.11482,2.09707 1.50824,3.01446 0.39337,0.91755 1.20082,2.38175 2.42236,4.39264 2.2723,3.75798 5.8555,10.35629 10.7496,19.79497 4.54463,8.47597 8.25986,14.98627 11.14566,19.53089 1.57352,-0.43735 3.40845,-2.53498 5.50482,-6.29292 1.0481,-1.92292 4.4611,-7.02627 11.53956,-18.56138 5.07002,-8.2145 9.43549,-16.83183 11.79592,-22.60076 0.87205,-0.96006 2.0509,-1.44013 3.53652,-1.44022 0.61335,9e-5 1.51014,0.10944 2.69041,0.32806 l 3.6722,0.19602 c 1.13614,9e-5 2.01026,0.54617 2.62239,1.63824 0.61206,1.09225 1.1148,2.09707 1.50821,3.01446 0.39338,0.91755 1.20082,2.38175 2.42237,4.39264 2.27231,3.75798 5.85551,10.35629 10.7496,19.79497 4.54464,8.47597 8.25985,14.98627 11.14566,19.53089 1.57353,-0.43735 3.40846,-2.53498 5.50482,-6.29292 1.0481,-1.92292 4.78624,-9.62729 11.86469,-21.1624 5.07001,-8.21449 9.11036,-14.23081 11.47078,-19.99974 0.87206,-0.96006 2.0509,-1.44013 3.53652,-1.44022 0.61335,9e-5 1.51016,0.10944 2.69043,0.32806 1.18007,0.21878 2.07554,0.32813 2.68638,0.32804 l 1.04817,0 c 0.52533,3.58196 0.78803,8.08261 0.78811,13.50201 -8e-5,5.68091 0.54082,13.85438 0.32221,25.17068 -0.21879,11.31639 -0.97839,20.14011 -0.97832,25.82093 -7e-5,1.31221 0.0439,3.27916 0.13204,5.90087 -9e-5,2.62175 -9e-5,4.58871 0,5.90088 -0.87489,0.43475 -1.96839,0.65211 -3.28049,0.6521 -1.57099,10e-6 -3.53662,-0.39338 -5.89688,-1.18017 l -0.39207,-1.30819 c -0.1761,-0.34939 -0.30811,-0.69876 -0.39607,-1.04817 -6e-5,-0.87478 0.044,-2.18564 0.13204,-3.93258 -7e-5,-1.74959 -7e-5,-3.06044 0,-3.93258 -7e-5,-3.14711 -0.0874,-7.84515 -0.26205,-14.09412 -0.17476,-6.24888 -0.26209,-10.90289 -0.26202,-13.96206 -7e-5,-4.19525 0.1306,-8.30253 0.39203,-12.32185 -0.17342,-0.6987 -0.56681,-1.0481 -1.18016,-1.04815 l -0.52409,0 c -2.18438,4.10734 -5.76758,10.09355 -10.74958,17.95867 -0.43746,0.52546 -1.04956,1.35625 -1.83628,2.49238 -0.26144,0.61079 -0.6535,1.52825 -1.17618,2.75241 -1.05088,2.27237 -3.23653,6.07427 -6.55698,11.4057 -2.97116,4.71805 -4.48787,8.38834 -6.35102,8.62904 -1.97853,0.142 -2.69303,-1.02655 -4.00252,-3.91233 -1.05087,-2.44569 -8.27778,-13.9963 -9.32589,-16.44469 -4.7558,-7.88583 -1.88318,-4.50043 -7.47598,-12.27764 -1.22421,-0.34933 -4.96139,-7.15097 -6.00952,-8.3752 -0.17605,0.87484 -0.26407,1.52962 -0.26405,1.96429 -2e-5,0.78683 0.13133,1.94501 0.39406,3.47452 0.26268,1.5296 0.39404,2.68777 0.39406,3.47452 -2e-5,-0.0879 -1.18018,24.72827 -1.18018,24.72827 -1.30955,0.70144 -2.7951,1.05216 -4.45667,1.05215 z"
       inkscape:connector-curvature="0"
       sodipodi:nodetypes="ccccccccccccccccccccccccccssscccccccccccccccccccccccccccccccccccccccccccccccccccccccc" />
    <path
       inkscape:connector-curvature="0"
       id="path2998-3"
       style="font-size:144px;font-style:normal;font-variant:normal;font-weight:normal;font-stretch:normal;line-height:125%;letter-spacing:0px;word-spacing:0px;fill:#ffffff;fill-opacity:1;stroke:none;font-family:NeoRetroFill;-inkscape-font-specification:NeoRetroFill"
       d="m 581.70971,599.65136 c -0.52549,1e-5 -1.35628,-0.044 -2.49236,-0.13201 -1.04824,10e-6 -1.8777,10e-6 -2.48838,0 -1.22426,-1.57356 -2.44845,-4.0646 -3.67254,-7.47312 -0.96022,-2.6217 -1.87769,-5.28743 -2.75242,-7.99719 -2.53377,-6.37958 -6.46635,-9.5694 -11.79776,-9.56942 -0.17607,2e-5 -0.52547,2e-5 -1.04815,0 -0.43745,0.088 -0.78684,0.13205 -1.04816,0.13201 -1.48561,4e-5 -3.75794,-0.10931 -6.81702,-0.32804 -3.05917,-0.21867 -5.37551,-0.32802 -6.94902,-0.32805 -0.87484,3e-5 -2.16437,0.13139 -3.86859,0.39406 -1.70429,0.26273 -2.90579,0.39408 -3.60454,0.39406 -0.61079,2e-5 -1.35356,-0.13199 -2.22832,-0.39606 -1.13621,-0.26135 -1.87898,-0.39203 -2.22835,-0.39206 -1.39757,2.09901 -3.80058,6.38098 -7.20908,12.84592 -2.88576,5.41948 -5.50749,9.57076 -7.86515,12.45385 -1.66159,0.26405 -3.32185,0.39606 -4.98075,0.39605 -1.92296,1e-5 -3.49653,-0.39337 -4.7207,-1.18016 5.41946,-10.9243 13.94073,-27.18002 25.56381,-48.76727 0.69874,-1.13612 1.70289,-2.84037 3.01244,-5.11277 0.52539,-1.22412 1.35617,-3.01572 2.49238,-5.3748 1.13614,-2.35895 2.27231,-4.67463 3.40851,-6.94703 1.3975,-2.79768 2.35897,-5.24471 2.88443,-7.3411 0.69873,-0.96272 1.74688,-1.44413 3.14447,-1.44421 0.69872,8e-5 1.6822,0.13143 2.95043,0.39406 1.26815,0.26278 2.20762,0.39414 2.81842,0.39405 l 0.39206,0 c 1.13612,2.01105 2.75369,5.02617 4.85273,9.04535 -6e-5,8e-5 0.8734,2.1844 2.62039,6.55297 2.97104,7.4305 7.34103,17.30664 13.10995,29.62843 6.72892,14.24481 11.2296,24.03293 13.50201,29.36437 -1.39763,0.52541 -3.05787,0.78812 -4.98074,0.78811 z M 555.4898,554.81669 c -0.34943,-1.04811 -0.91752,-2.66434 -1.70425,-4.84873 -1.22424,-2.27227 -2.9725,-5.68078 -5.24478,-10.22553 -0.17341,-0.0879 -0.43478,-0.13194 -0.78412,-0.13202 -0.43743,8e-5 -0.74282,0.0441 -0.91612,0.13202 -0.61348,1.39761 -2.79914,5.3742 -6.55699,11.92979 -2.79513,4.89411 -4.45536,9.08807 -4.98074,12.58187 2.62168,-0.0853 6.16087,-0.0413 10.61758,0.13203 5.15539,0.2614 8.69457,0.39209 10.61758,0.39205 1.31214,4e-5 2.31763,-0.0426 3.01646,-0.12801 -0.34946,-0.96277 -1.70432,-4.2406 -4.06462,-9.83347 z" />
  </g>
</svg>
