<?xml version="1.0" encoding="UTF-8" standalone="no"?>
<!-- Created with Inkscape (http://www.inkscape.org/) -->

<svg
   xmlns:dc="http://purl.org/dc/elements/1.1/"
   xmlns:cc="http://creativecommons.org/ns#"
   xmlns:rdf="http://www.w3.org/1999/02/22-rdf-syntax-ns#"
   xmlns:svg="http://www.w3.org/2000/svg"
   xmlns="http://www.w3.org/2000/svg"
   xmlns:sodipodi="http://sodipodi.sourceforge.net/DTD/sodipodi-0.dtd"
   xmlns:inkscape="http://www.inkscape.org/namespaces/inkscape"
   width="477.40778"
   height="102.03814"
   id="svg2"
   version="1.1"
   inkscape:version="0.48.4 r9939"
   sodipodi:docname="header.svg"
   inkscape:export-filename="C:\Users\Evan\Code\Lemma\Web\output\graphics\header.png"
   inkscape:export-xdpi="89.966316"
   inkscape:export-ydpi="89.966316">
  <defs
     id="defs4" />
  <sodipodi:namedview
     id="base"
     pagecolor="#ffffff"
     bordercolor="#666666"
     borderopacity="1.0"
     inkscape:pageopacity="0.0"
     inkscape:pageshadow="2"
     inkscape:zoom="2.593171"
     inkscape:cx="238.70389"
     inkscape:cy="51.01907"
     inkscape:document-units="px"
     inkscape:current-layer="layer1"
     showgrid="true"
     fit-margin-top="0"
     fit-margin-left="0"
     fit-margin-right="0"
     fit-margin-bottom="0"
     inkscape:window-width="1680"
     inkscape:window-height="1031"
     inkscape:window-x="-8"
     inkscape:window-y="-8"
     inkscape:window-maximized="1" />
  <metadata
     id="metadata7">
    <rdf:RDF>
      <cc:Work
         rdf:about="">
        <dc:format>image/svg+xml</dc:format>
        <dc:type
           rdf:resource="http://purl.org/dc/dcmitype/StillImage" />
        <dc:title></dc:title>
      </cc:Work>
    </rdf:RDF>
  </metadata>
  <g
     inkscape:label="Layer 1"
     inkscape:groupmode="layer"
     id="layer1"
     transform="translate(-116.53183,-508.77278)">
    <path
       inkscape:connector-curvature="0"
       id="path2990-3"
       style="font-size:144px;font-style:normal;font-variant:normal;font-weight:normal;font-stretch:normal;line-height:125%;letter-spacing:0px;word-spacing:0px;fill:#ffffff;fill-opacity:1;stroke:none;font-family:NeoRetroFill;-inkscape-font-specification:NeoRetroFill"
       d="m 269.04591,594.14255 c -0.52282,1.92296 -0.7842,3.05913 -0.78411,3.40851 -9e-5,0.4374 0.0866,0.9188 0.26002,1.44422 l -0.78411,0.78411 c -1.66166,0.088 -4.24069,0.13202 -7.73715,0.13201 -4.36871,1e-5 -10.98835,-0.17468 -19.85896,-0.52407 -8.87068,-0.34938 -15.53434,-0.52407 -19.99098,-0.52408 -2.01098,10e-6 -5.02609,0.088 -9.04535,0.26404 -0.52542,-6.37961 -0.78813,-14.28878 -0.78812,-23.72753 -1e-5,-3.93389 0.066,-9.83342 0.19803,-17.69865 0.13201,-7.86512 0.19801,-13.76465 0.19803,-17.69863 -2e-5,-5.59276 -0.13203,-11.18559 -0.39606,-16.77851 1.92295,-0.69867 3.7152,-1.04806 5.3768,-1.04814 0.87478,8e-5 1.70425,0.13076 2.48838,0.39204 l 0.6561,1.04817 1.18017,65.15369 c 1.04815,1.13621 3.0151,1.70428 5.90088,1.70426 l 42.2103,0 c 0.6987,0.69879 1.04809,1.48558 1.04814,2.36037 -5e-5,0.52275 -0.0441,0.95881 -0.13201,1.30819 z" />
    <path
       inkscape:connector-curvature="0"
       id="path2992-3"
       style="font-size:144px;font-style:normal;font-variant:normal;font-weight:normal;font-stretch:normal;line-height:125%;letter-spacing:0px;word-spacing:0px;fill:#ffffff;fill-opacity:1;stroke:none;font-family:NeoRetroFill;-inkscape-font-specification:NeoRetroFill"
       d="m 349.32732,596.37087 c -7e-5,0.61344 0.044,1.09485 0.13203,1.44423 l -0.78811,0.7881 c -1.13625,10e-6 -2.88317,10e-6 -5.24078,0 -2.36042,0.0854 -4.1527,0.12804 -5.3768,0.12803 -4.36872,10e-6 -10.90102,-0.0873 -19.59693,-0.26203 -8.69599,-0.17469 -15.2283,-0.26204 -19.59693,-0.26206 -5.5075,2e-5 -11.10166,0.13204 -16.7825,0.39606 -0.52274,-2.01094 -0.78412,-4.0219 -0.78411,-6.03288 -10e-6,-1.74692 0.21803,-4.36864 0.65409,-7.86518 0.43607,-3.4965 0.65409,-6.11821 0.65411,-7.86517 -2e-5,-1.39751 -0.0874,-3.45116 -0.26204,-6.16093 -0.1747,-2.7097 -0.26206,-4.76332 -0.26205,-6.16091 -10e-6,-2.53366 0.10934,-6.35689 0.32806,-11.46972 0.21869,-5.11269 0.32804,-8.93726 0.32805,-11.4737 -10e-6,-3.6698 -0.21872,-7.20901 -0.65611,-10.61759 -0.52274,-4.10719 -0.78412,-5.72344 -0.78411,-4.84871 -10e-6,-1.48547 0.78544,-2.22825 2.35635,-2.22834 0.35205,9e-5 0.89946,0.0434 1.64224,0.13003 0.74277,0.0867 1.33153,0.1301 1.76627,0.13002 0.87478,8e-5 1.57489,-0.21862 2.10031,-0.6561 4.89404,0.70151 11.36033,1.05224 19.3989,1.05215 3.05909,9e-5 7.64776,-0.0659 13.76604,-0.19803 6.11819,-0.13194 10.70687,-0.19794 13.76606,-0.19802 0.87207,8e-5 2.13892,8e-5 3.80057,0 1.74686,0.0881 3.01371,0.1321 3.80055,0.13201 0.61337,-0.17328 0.87607,-0.25995 0.78813,-0.26004 0.26129,-0.26396 0.56668,-0.39596 0.91613,-0.39605 0.52533,9e-5 0.91874,0.21877 1.18018,0.65609 l -1.04815,7.47313 c -6.20633,0.69884 -14.29018,1.04822 -24.25162,1.04814 -2.27238,8e-5 -5.68089,-0.0439 -10.22553,-0.13203 -4.5447,9e-5 -7.9532,9e-5 -10.22552,0 -2.88311,9e-5 -5.02477,0.0441 -6.42496,0.13203 l -1.96429,2.09632 c 0.26134,1.31227 0.39205,2.66712 0.39206,4.0646 -10e-6,1.13624 -0.17472,2.94984 -0.52407,5.44081 -0.34942,2.4911 -0.4801,4.43539 -0.39207,5.83287 l 0.13203,1.70425 1.44021,1.44422 c 2.1843,0.52279 4.98072,0.78417 8.38924,0.78411 7.95316,6e-5 10.92426,-0.044 8.91333,-0.13201 3.49649,0.088 6.42492,0.56946 8.78531,1.44421 l 0,6.42496 c -2.88313,0.26143 -5.72356,0.3921 -8.52127,0.39205 -9.35076,5e-5 -15.46899,0.34944 -18.35474,1.04816 l -0.65208,0.78812 0.39205,23.46349 1.70426,1.70426 c 2.01093,-0.088 4.98204,-0.13199 8.91332,-0.13201 4.10724,2e-5 10.24682,0.15337 18.41875,0.46006 8.17183,0.30672 14.31141,0.46009 18.41875,0.46007 4.01919,2e-5 7.03431,-0.044 9.04535,-0.13202 0.52534,0.61078 0.78803,1.39756 0.7881,2.36036 -7e-5,0.52276 -0.0661,1.22153 -0.19803,2.0963 -0.13209,0.87482 -0.1981,1.52958 -0.19803,1.96429 z" />
    <path
       id="path2996-5"
       style="font-size:144px;font-style:normal;font-variant:normal;font-weight:normal;font-stretch:normal;line-height:125%;letter-spacing:0px;word-spacing:0px;fill:#ffffff;fill-opacity:1;stroke:none;font-family:NeoRetroFill;-inkscape-font-specification:NeoRetroFill"
       d="m 430.07251,584.5257 -0.39207,-1.30819 c -0.1761,-0.34938 -0.30812,-0.69876 -0.39605,-1.04815 -9e-5,-0.87479 0.0439,-2.18565 0.13201,-3.93259 -7e-5,-1.74959 -7e-5,-3.06045 0,-3.93259 -7e-5,-3.14711 -0.0874,0.91509 -0.26203,-5.33387 -0.37569,-2.43125 -0.26212,-5.81596 -0.26205,-7.46862 -7e-5,-4.19525 0.13061,-8.30253 0.39207,-12.32185 -0.17344,-0.6987 -0.56683,-1.0481 -1.18018,-1.04815 l -0.52407,0 c -2.18441,4.10734 -5.7676,10.09355 -10.74961,17.95867 -0.43747,0.52546 -0.3993,2.00651 -1.18602,3.14264 -0.26143,0.6108 -1.30374,0.87799 -1.82643,2.10215 -1.05088,2.27237 -3.23654,6.07427 -6.55698,11.4057 -2.97116,4.71805 -4.72025,8.33025 -6.29293,8.16429 -1.97852,0.14201 -2.75112,-0.5618 -4.0606,-3.44758 -1.05087,-2.44569 -2.10036,-4.89271 -3.14848,-7.34111 -5.24347,-10.48686 -10.66162,-19.61887 -16.25442,-27.39607 -1.2242,-0.34934 -2.36037,-1.13612 -3.40851,-2.36035 -0.17604,0.87484 -0.26406,1.52962 -0.26404,1.96429 -2e-5,0.78683 0.13133,1.94501 0.39406,3.47452 0.26268,1.5296 0.39404,2.68777 0.39406,3.47452 -2e-5,-0.0879 -0.39342,13.23933 -1.18017,39.98195 -1.30954,0.70145 -2.7951,1.05216 -4.45667,1.05215 -1.22419,10e-6 -3.05914,-0.17602 -5.50482,-0.52807 -0.78679,-6.37961 -1.18017,-13.85137 -1.18017,-22.41534 0,-4.28328 1.10605,-10.77224 1.36744,-19.4669 0.26136,-8.69458 -0.58334,-15.22754 -0.58333,-19.59893 -10e-6,-6.29152 -0.1307,-11.05356 -0.39207,-14.28613 1.04816,9e-5 2.57772,-0.0439 4.5887,-0.13202 2.01094,9e-5 3.4965,9e-5 4.45667,0 1.13615,9e-5 2.01027,0.54617 2.62237,1.63824 0.61208,1.09225 1.11482,2.09707 1.50824,3.01446 0.39337,0.91755 1.20082,2.38175 2.42236,4.39264 2.2723,3.75798 5.8555,10.35629 10.7496,19.79497 4.54463,8.47597 8.25986,14.98627 11.14566,19.53089 1.57352,-0.43735 3.40845,-2.53498 5.50482,-6.29292 1.0481,-1.92292 4.4611,-7.02627 11.53956,-18.56138 5.07002,-8.2145 9.43549,-16.83183 11.79592,-22.60076 0.87205,-0.96006 2.0509,-1.44013 3.53652,-1.44022 0.61335,9e-5 1.51014,0.10944 2.69041,0.32806 l 3.6722,0.19602 c 1.13614,9e-5 2.01026,0.54617 2.62239,1.63824 0.61206,1.09225 1.1148,2.09707 1.50821,3.01446 0.39338,0.91755 1.20082,2.38175 2.42237,4.39264 2.27231,3.75798 5.85551,10.35629 10.7496,19.79497 4.54464,8.47597 8.25985,14.98627 11.14566,19.53089 1.57353,-0.43735 3.40846,-2.53498 5.50482,-6.29292 1.0481,-1.92292 4.78624,-9.62729 11.86469,-21.1624 5.07001,-8.21449 9.11036,-14.23081 11.47078,-19.99974 0.87206,-0.96006 2.0509,-1.44013 3.53652,-1.44022 0.61335,9e-5 1.51016,0.10944 2.69043,0.32806 1.18007,0.21878 2.07554,0.32813 2.68638,0.32804 l 1.04817,0 c 0.52533,3.58196 0.78803,8.08261 0.78811,13.50201 -8e-5,5.68091 0.54082,13.85438 0.32221,25.17068 -0.21879,11.31639 -0.97839,20.14011 -0.97832,25.82093 -7e-5,1.31221 0.0439,3.27916 0.13204,5.90087 -9e-5,2.62175 -9e-5,4.58871 0,5.90088 -0.87489,0.43475 -1.96839,0.65211 -3.28049,0.6521 -1.57099,10e-6 -3.53662,-0.39338 -5.89688,-1.18017 l -0.39207,-1.30819 c -0.1761,-0.34939 -0.30811,-0.69876 -0.39607,-1.04817 -6e-5,-0.87478 0.044,-2.18564 0.13204,-3.93258 -7e-5,-1.74959 -7e-5,-3.06044 0,-3.93258 -7e-5,-3.14711 -0.0874,-7.84515 -0.26205,-14.09412 -0.17476,-6.24888 -0.26209,-10.90289 -0.26202,-13.96206 -7e-5,-4.19525 0.1306,-8.30253 0.39203,-12.32185 -0.17342,-0.6987 -0.56681,-1.0481 -1.18016,-1.04815 l -0.52409,0 c -2.18438,4.10734 -5.76758,10.09355 -10.74958,17.95867 -0.43746,0.52546 -1.04956,1.35625 -1.83628,2.49238 -0.26144,0.61079 -0.6535,1.52825 -1.17618,2.75241 -1.05088,2.27237 -3.23653,6.07427 -6.55698,11.4057 -2.97116,4.71805 -4.48787,8.38834 -6.35102,8.62904 -1.97853,0.142 -2.69303,-1.02655 -4.00252,-3.91233 -1.05087,-2.44569 -8.27778,-13.9963 -9.32589,-16.44469 -4.7558,-7.88583 -1.88318,-4.50043 -7.47598,-12.27764 -1.22421,-0.34933 -4.96139,-7.15097 -6.00952,-8.3752 -0.17605,0.87484 -0.26407,1.52962 -0.26405,1.96429 -2e-5,0.78683 0.13133,1.94501 0.39406,3.47452 0.26268,1.5296 0.39404,2.68777 0.39406,3.47452 -2e-5,-0.0879 -1.18018,24.72827 -1.18018,24.72827 -1.30955,0.70144 -2.7951,1.05216 -4.45667,1.05215 z"
       inkscape:connector-curvature="0"
       sodipodi:nodetypes="ccccccccccccccccccccccccccssscccccccccccccccccccccccccccccccccccccccccccccccccccccccc" />
    <path
       inkscape:connector-curvature="0"
       id="path2998-3"
       style="font-size:144px;font-style:normal;font-variant:normal;font-weight:normal;font-stretch:normal;line-height:125%;letter-spacing:0px;word-spacing:0px;fill:#ffffff;fill-opacity:1;stroke:none;font-family:NeoRetroFill;-inkscape-font-specification:NeoRetroFill"
       d="m 588.95888,599.65136 c -0.52549,1e-5 -1.35628,-0.044 -2.49236,-0.13201 -1.04824,10e-6 -1.8777,10e-6 -2.48838,0 -1.22426,-1.57356 -2.44845,-4.0646 -3.67254,-7.47312 -0.96022,-2.6217 -1.87769,-5.28743 -2.75242,-7.99719 -2.53377,-6.37958 -6.46635,-9.5694 -11.79776,-9.56942 -0.17607,2e-5 -0.52547,2e-5 -1.04815,0 -0.43745,0.088 -0.78684,0.13205 -1.04816,0.13201 -1.48561,4e-5 -3.75794,-0.10931 -6.81702,-0.32804 -3.05917,-0.21867 -5.37551,-0.32802 -6.94902,-0.32805 -0.87484,3e-5 -2.16437,0.13139 -3.86859,0.39406 -1.70429,0.26273 -2.90579,0.39408 -3.60454,0.39406 -0.61079,2e-5 -1.35356,-0.13199 -2.22832,-0.39606 -1.13621,-0.26135 -1.87898,-0.39203 -2.22835,-0.39206 -1.39757,2.09901 -3.80058,6.38098 -7.20908,12.84592 -2.88576,5.41948 -5.50749,9.57076 -7.86515,12.45385 -1.66159,0.26405 -3.32185,0.39606 -4.98075,0.39605 -1.92296,1e-5 -3.49653,-0.39337 -4.7207,-1.18016 5.41946,-10.9243 13.94073,-27.18002 25.56381,-48.76727 0.69874,-1.13612 1.70289,-2.84037 3.01244,-5.11277 0.52539,-1.22412 1.35617,-3.01572 2.49238,-5.3748 1.13614,-2.35895 2.27231,-4.67463 3.40851,-6.94703 1.3975,-2.79768 2.35897,-5.24471 2.88443,-7.3411 0.69873,-0.96272 1.74688,-1.44413 3.14447,-1.44421 0.69872,8e-5 1.6822,0.13143 2.95043,0.39406 1.26815,0.26278 2.20762,0.39414 2.81842,0.39405 l 0.39206,0 c 1.13612,2.01105 2.75369,5.02617 4.85273,9.04535 -6e-5,8e-5 0.8734,2.1844 2.62039,6.55297 2.97104,7.4305 7.34103,17.30664 13.10995,29.62843 6.72892,14.24481 11.2296,24.03293 13.50201,29.36437 -1.39763,0.52541 -3.05787,0.78812 -4.98074,0.78811 z m -26.21991,-44.83467 c -0.34943,-1.04811 -0.91752,-2.66434 -1.70425,-4.84873 -1.22424,-2.27227 -2.9725,-5.68078 -5.24478,-10.22553 -0.17341,-0.0879 -0.43478,-0.13194 -0.78412,-0.13202 -0.43743,8e-5 -0.74282,0.0441 -0.91612,0.13202 -0.61348,1.39761 -2.79914,5.3742 -6.55699,11.92979 -2.79513,4.89411 -4.45536,9.08807 -4.98074,12.58187 2.62168,-0.0853 6.16087,-0.0413 10.61758,0.13203 5.15539,0.2614 8.69457,0.39209 10.61758,0.39205 1.31214,4e-5 2.31763,-0.0426 3.01646,-0.12801 -0.34946,-0.96277 -1.70432,-4.2406 -4.06462,-9.83347 z" />
    <path
       style="fill:#5bafcd;fill-opacity:1;stroke:none"
       d="m 164.34814,565.01684 13.61817,0 2.18779,0.39778 2.08833,-0.39778 4.60751,0 c 1.18132,0 1.89211,0.39985 2.85602,0.92875 0.74826,0.41056 1.80712,0.85937 2.3474,1.51168 -0.42513,0.8693 1.54711,2.66864 1.54711,4.31011 l -0.49722,14.15837 0.49722,8.34342 c 0.0989,1.6598 -0.48528,3.1781 -1.49339,4.35262 -0.55496,0.64656 -2.2829,1.1271 -2.00761,1.57307 -0.97588,0.50292 -2.08885,0.78995 -3.24953,0.82484 l -16.54088,0.49722 -5.96092,-0.49722 c -1.37824,-0.11496 -2.75976,-0.85499 -3.72887,-1.25684 -2.01093,-0.83386 -3.05769,-3.13748 -3.02166,-5.49369 l 0.18382,-12.02275 0.51229,-2.48624 -0.69611,-7.9928 c -0.21888,-2.51319 0.27607,-4.31588 2.31565,-5.47477 0.98402,-0.55911 3.21779,-1.27577 4.43488,-1.27577 z"
       id="rect2992"
       inkscape:connector-curvature="0"
       sodipodi:nodetypes="scccsscscsscscsssccscs" />
    <path
       style="fill:#5bafcd;fill-opacity:1;stroke:none"
       d="m 164.34814,523.66978 10.63987,0.97523 8.34832,-0.67689 3.51361,-0.29834 c 1.41717,-0.12033 2.72112,0.25756 3.79197,0.97782 0.77654,0.52231 0.93326,1.02577 1.41891,1.84873 0.60561,1.02625 1.44672,2.43896 1.4402,3.7251 l -0.0666,13.14273 0.4306,1.78943 -0.37191,1.58894 0.10734,6.17957 c 0.065,3.73924 -3.01074,6.75055 -6.75053,6.75055 l -10.87253,-0.49722 -11.62927,0.49722 c -1.82966,0.0782 -3.14821,-1.83568 -4.42905,-1.83717 -1.12751,-1.24516 -1.73411,-3.00765 -1.82426,-4.91338 l -0.38639,-8.16786 -0.40168,-7.35591 0.34047,-2.69253 -0.0496,-4.28548 c -0.0433,-3.73955 3.01075,-6.75054 6.75054,-6.75054 z"
       id="rect2994-1"
       inkscape:connector-curvature="0"
       sodipodi:nodetypes="cccsssscccsscscscccssc" />
    <path
       style="fill:#5bafcd;fill-opacity:1;stroke:none"
       d="m 123.28236,565.01684 10.6299,0.895 11.8719,-0.895 c 3.72921,-0.28114 6.75053,3.01074 6.75053,6.75054 l 0,6.20279 0.49722,2.38667 -0.49722,2.08834 0,11.82399 c 0,1.47798 -0.47023,2.84209 -1.26987,3.9515 -0.63417,0.87985 -1.67441,3.09116 -2.45379,2.08867 -0.90944,0.45476 -3.131,1.04 -4.2202,1.00869 l -10.38024,-0.29833 -2.58556,-0.39778 -2.98334,0.39778 -5.35933,0 c -2.14497,0 -4.84567,-1.28876 -5.28491,-2.54076 -0.48785,-1.39056 -1.46562,-2.61495 -1.46562,-4.20977 l 0,-6.25507 0.49722,-1.59113 -0.49722,-2.18778 0.71228,-6.86465 -0.11561,-5.40428 c -0.0248,-1.1617 -0.25403,-2.64967 0.63107,-3.25163 0.74002,-0.5033 1.1012,-1.8638 1.93603,-2.50402 0.97783,-0.74989 2.19618,-1.19377 3.58676,-1.19377 z"
       id="rect2998"
       inkscape:connector-curvature="0"
       sodipodi:nodetypes="scsscccsscscccsssccccssss" />
    <path
       style="fill:#5bafcd;fill-opacity:1;stroke:none"
       d="m 135.90116,523.66978 3.18223,0.39778 3.59356,-0.46443 3.10721,0.0667 c 1.10455,0.0237 2.14563,0.29614 3.06434,0.76473 0.60001,1.91314 3.85461,0.46949 3.68619,5.98581 l -0.47115,4.79015 0.6191,6.16492 -0.84406,11.84505 c -0.14236,1.99774 -0.46571,2.90151 -1.84222,4.13568 -1.19382,1.07037 -2.48262,2.42974 -4.2122,2.31653 l -7.59577,-0.49723 -9.04694,0.67412 -5.85909,-0.1769 c -1.2816,-0.0387 -2.77624,0.29136 -3.49675,-1.01988 -1.95287,-1.17902 -3.25378,-3.27305 -3.25378,-5.73066 l 0,-22.50179 c 0,-3.7398 1.88335,-5.25286 5.45775,-6.35275 1.38809,-0.30232 3.90668,0.24082 5.34871,0.17362 3.20387,-0.14933 5.3994,-0.57143 8.56287,-0.57143 z"
       id="rect3000"
       inkscape:connector-curvature="0"
       sodipodi:nodetypes="cccscsccsssccscsscsc" />
    <path
       style="fill:#ffffff;fill-opacity:1;stroke:none"
       d="m 148.37024,608.80994 c 0,0 0.0532,1.32709 1.22092,1.69867 1.16784,0.37158 6.58238,0.63701 8.8119,-0.69008 2.22951,-1.3271 1.53942,-2.54803 2.70726,-3.34429 1.16784,-0.79625 2.86653,-0.95549 4.5652,-2.22951 1.69869,-1.27401 2.28261,-1.85792 1.85794,-3.07885 -0.42467,-1.22094 -1.11476,-1.9641 -1.11476,-1.9641 0,0 0.21233,-0.9555 0.58391,-1.3271 0.3716,-0.37158 0.84935,-0.79625 0.84935,-0.79625 l 1.59251,0.58391 c 0,0 1.69868,-2.44185 1.85792,-3.13193 0.15927,-0.69009 1.32711,-2.49494 1.32711,-2.49494 0,0 -0.42468,-4.51211 -0.74318,-5.2022 -0.31851,-0.69009 -0.74317,-0.58392 -0.69009,-1.11476 0.0531,-0.53084 0.26543,-1.11476 0.10616,-1.43327 -0.15924,-0.31848 -3.29117,-2.54802 -3.50351,-2.81343 -0.21233,-0.26541 -0.0531,-0.63702 -0.69009,-0.69008 -0.63701,-0.0531 -1.48635,0.47774 -1.48635,0.47774 0,0 0.15925,-1.16783 0.26541,-2.17643 0.10618,-1.00859 -0.58392,-1.91101 -0.58392,-1.91101 0,0 0.90243,-1.38019 1.48635,-1.53944 0.58393,-0.15924 2.54802,0.0531 3.71586,-0.74316 1.16784,-0.79626 5.89231,-3.66278 8.06873,-6.84781 2.17643,-3.18503 1.85793,-4.72444 1.85793,-4.72444 0,0 -0.0531,-4.67137 -0.79626,-5.94538 -0.74316,-1.27401 -1.32708,-1.38019 -1.48635,-2.54802 -0.15923,-1.16785 0.31851,-1.06168 0,-1.85793 -0.31848,-0.79626 -0.79624,-1.75178 -2.38875,-2.65419 -1.59252,-0.90241 -2.01719,-1.85794 -2.86651,-2.01718 -0.84935,-0.15925 -1.48637,-0.3185 -2.60111,-1.32709 -1.11476,-1.00859 -3.2912,-2.60112 -3.2912,-2.60112 0,0 6.63546,-5.89227 7.4848,-6.58237 0.84935,-0.69009 6.8478,-5.57379 7.75023,-6.26388 0.90244,-0.69009 1.80486,-1.22092 2.97269,-2.12336 1.16784,-0.90242 2.33569,-1.06167 3.87512,-2.2826 1.53942,-1.22092 1.69868,-2.2826 1.69868,-2.2826 0,0 0.58392,0 1.00857,-0.21233 0.42468,-0.21234 0.53085,-0.58392 0.53085,-0.58392 0,0 0.637,0.42467 1.27401,-0.0531 0.63699,-0.47775 0.58392,-1.0086 0.58392,-1.0086 l 3.29118,-0.63699 0.21235,-0.21234 c 0,0 0.74317,0.15925 1.06167,0.10617 0.3185,-0.0532 0.637,-0.3185 0.84934,-0.3185 0.21234,0 0.95551,0.15924 1.59252,0 0.637,-0.15925 1.06167,-0.42467 1.06167,-0.42467 0,0 1.43326,0.10616 2.01719,-0.31851 0.58392,-0.42467 0.79624,-0.69008 0.47774,-1.22094 -0.31849,-0.53081 -0.79625,-0.42467 -1.69867,-0.42467 -0.90243,0 -3.66279,0.58393 -3.87511,-0.5839 -0.21235,-1.16785 -0.21235,-1.06168 1.00858,-1.69867 1.22092,-0.63703 5.41454,-2.91963 5.83922,-3.18503 0.42467,-0.26542 0.69008,-0.84935 0.37159,-1.22093 -0.3185,-0.3716 -1.16786,-0.58392 -1.9641,0 -0.79626,0.58391 -3.02579,2.22951 -3.66278,1.5925 -0.63702,-0.63699 3.39734,-2.81343 3.82202,-3.07884 0.42468,-0.26544 1.16784,-0.95551 0.69009,-1.43327 -0.47775,-0.47775 -1.59251,-0.42466 -1.59251,-0.42466 0,0 0.0531,-0.42468 -0.37159,-0.6901 -0.42466,-0.26542 -3.82202,1.48634 -3.82202,1.48634 0,0 0.47775,-0.84933 -0.15925,-1.11475 -0.63702,-0.26543 -1.22092,0.10615 -1.80486,0.58393 -0.58392,0.47775 -1.69867,1.16783 -1.69867,1.16783 l -1.43326,2.38876 -0.90243,1.38019 -0.26541,-0.31851 -2.6542,2.65419 c 0,0 -0.42466,-0.3185 -1.06167,0.10616 -0.63701,0.42467 -0.90242,1.0086 -0.90242,1.0086 l -4.40594,2.65418 -4.83063,3.02577 c 0,0 -3.66279,2.07026 -4.1936,2.70728 -0.53085,0.63699 -0.90244,0.90242 -1.59253,1.32709 -0.69007,0.42467 -0.53083,0.79625 -1.16783,1.16784 -0.63702,0.37159 -0.95551,-0.26542 -1.96411,0.42467 -1.00859,0.6901 -2.07027,2.17643 -2.49493,2.49494 -0.42467,0.31851 -1.22092,0.74317 -1.9641,1.53943 -0.74318,0.79624 -0.637,0.9555 -1.32709,1.48634 -0.69009,0.53083 -0.79626,-0.15926 -1.48635,0.47775 -0.69009,0.637 -1.22093,0.84935 -1.22093,0.84935 0,0 0.0531,-0.47776 -0.53083,-0.47776 -0.58392,0 -1.06167,0.26541 -1.06167,-0.31851 0,-0.58391 1.06167,-1.43326 1.32708,-1.6456 0.26542,-0.21233 0.47776,-0.74316 0.10617,-1.00858 -0.37158,-0.26542 -2.12334,1.3271 -2.60109,0.95551 -0.47776,-0.37159 0.58391,-1.69868 0.84934,-2.07026 0.26541,-0.37159 0.3185,-0.74318 -0.0532,-0.90243 -0.37158,-0.15924 -2.44186,2.70726 -2.44186,2.70726 l -1.11474,0.47776 c 0,0 -0.15927,-0.637 -0.53084,-0.90242 -0.37159,-0.26542 -0.58393,-0.26542 -0.58393,-0.26542 0,0 -0.53084,-2.01718 -1.80484,-1.80484 -1.27401,0.21233 -3.9282,1.53942 -3.9282,1.53942 0,0 -2.28261,0.47775 -3.2381,0.9555 -0.95553,0.47776 -2.17644,0.79626 -3.02579,1.11476 -0.84933,0.31851 -2.44184,0.58392 -3.76893,1.48635 -1.3271,0.90244 -2.44185,2.07026 -2.44185,2.07026 0,0 -1.38019,0.63701 -2.07028,1.48636 -0.69008,0.84934 -0.9555,1.69867 -0.9555,1.69867 0,0 -3.30714,-1.8873 -7.24422,-1.73364 -3.02064,0.11789 -8.30932,8.36911 -6.98222,11.6603 1.32708,3.29119 1.9641,2.76035 2.9196,3.76895 0.95551,1.00858 1.22093,1.80483 1.80485,2.17642 0.58393,0.3716 1.6456,0.53084 1.6456,0.53084 0,0 1.22093,3.23812 2.12335,3.2912 0.90242,0.0532 1.06167,-1.00859 1.06167,-1.00859 0,0 0.95552,0.95551 1.38018,0.95551 0.42467,0 0.53083,-0.10618 0.53083,-0.10618 0,0 0,0.53084 0.53084,0.47775 0.53083,-0.0531 1.48634,-0.637 1.91101,-0.637 0.42469,0 1.69869,0.47775 2.49493,0.37159 0.79627,-0.10616 2.12336,0.26541 3.29121,0.0532 1.16784,-0.21233 2.44184,-0.74317 2.44184,-0.74317 l -3.29119,3.07886 c 0,0 -1.85793,1.48636 -2.86652,2.28261 -1.00859,0.79626 -3.13195,3.66277 -3.02578,4.51211 0.10617,0.84934 1.11477,3.50353 1.96411,4.72446 0.84932,1.22092 6.42312,7.85638 8.1218,9.4489 1.69869,1.59251 6.63548,7.80332 6.63548,7.80332 0,0 0.74317,1.38017 0.74317,2.17641 0,0.79626 -0.3185,1.80485 -0.3185,1.80485 l 1.22092,0.63701 0.31851,0.90242 0.74316,0.21234 c 0,0 -1.11475,2.12335 -1.53942,3.39737 -0.42467,1.27401 -1.16784,2.28259 -1.69869,3.07885 -0.53083,0.79625 -2.86652,3.34427 -2.01719,4.03436 0.84935,0.69009 1.38019,0.26543 1.38019,0.26543 z"
       id="path3777"
       inkscape:connector-curvature="0"
       sodipodi:nodetypes="csssssccccccscccccsccssccccscscscssccccccccsccssscscccscscccsscccccscccccssscsscsscccscccccccssscscsssccccsccsscccsssscsccccscscc" />
  </g>
</svg>
