<?xml version="1.0" encoding="UTF-8" standalone="no"?>
<!-- Created with Inkscape (http://www.inkscape.org/) -->

<svg
   xmlns:dc="http://purl.org/dc/elements/1.1/"
   xmlns:cc="http://creativecommons.org/ns#"
   xmlns:rdf="http://www.w3.org/1999/02/22-rdf-syntax-ns#"
   xmlns:svg="http://www.w3.org/2000/svg"
   xmlns="http://www.w3.org/2000/svg"
   xmlns:sodipodi="http://sodipodi.sourceforge.net/DTD/sodipodi-0.dtd"
   xmlns:inkscape="http://www.inkscape.org/namespaces/inkscape"
   width="483.4194"
   height="101.78682"
   id="svg2"
   version="1.1"
   inkscape:version="0.48.4 r9939"
   sodipodi:docname="header.svg"
   inkscape:export-filename="C:\Users\Evan\Code\Lemma\Web\output\graphics\header.png"
   inkscape:export-xdpi="89.966316"
   inkscape:export-ydpi="89.966316">
  <defs
     id="defs4" />
  <sodipodi:namedview
     id="base"
     pagecolor="#ffffff"
     bordercolor="#666666"
     borderopacity="1.0"
     inkscape:pageopacity="0.0"
     inkscape:pageshadow="2"
     inkscape:zoom="3.0573866"
     inkscape:cx="241.7097"
     inkscape:cy="50.89341"
     inkscape:document-units="px"
     inkscape:current-layer="layer1"
     showgrid="true"
     fit-margin-top="0"
     fit-margin-left="0"
     fit-margin-right="0"
     fit-margin-bottom="0"
     inkscape:window-width="1920"
     inkscape:window-height="1057"
     inkscape:window-x="-8"
     inkscape:window-y="-8"
     inkscape:window-maximized="1" />
  <metadata
     id="metadata7">
    <rdf:RDF>
      <cc:Work
         rdf:about="">
        <dc:format>image/svg+xml</dc:format>
        <dc:type
           rdf:resource="http://purl.org/dc/dcmitype/StillImage" />
        <dc:title></dc:title>
      </cc:Work>
    </rdf:RDF>
  </metadata>
  <g
     inkscape:label="Layer 1"
     inkscape:groupmode="layer"
     id="layer1"
     transform="translate(-116.6184,-508.85016)">
    <path
       inkscape:connector-curvature="0"
       id="path2990-3"
       style="font-size:144px;font-style:normal;font-variant:normal;font-weight:normal;font-stretch:normal;line-height:125%;letter-spacing:0px;word-spacing:0px;fill:#ffffff;fill-opacity:1;stroke:none;font-family:NeoRetroFill;-inkscape-font-specification:NeoRetroFill"
       d="m 275.1441,594.14255 c -0.52282,1.92296 -0.7842,3.05913 -0.78411,3.40851 -9e-5,0.4374 0.0866,0.9188 0.26002,1.44422 l -0.78411,0.78411 c -1.66166,0.088 -4.24069,0.13202 -7.73715,0.13201 -4.36871,1e-5 -10.98835,-0.17468 -19.85896,-0.52407 -8.87068,-0.34938 -15.53434,-0.52407 -19.99098,-0.52408 -2.01098,10e-6 -5.02609,0.088 -9.04535,0.26404 -0.52542,-6.37961 -0.78813,-14.28878 -0.78812,-23.72753 -10e-6,-3.93389 0.066,-9.83342 0.19803,-17.69865 0.13201,-7.86512 0.19801,-13.76465 0.19803,-17.69863 -2e-5,-5.59276 -0.13203,-11.18559 -0.39606,-16.77851 1.92295,-0.69867 3.7152,-1.04806 5.3768,-1.04814 0.87478,8e-5 1.70425,0.13076 2.48838,0.39204 l 0.6561,1.04817 1.18017,65.15369 c 1.04815,1.13621 3.0151,1.70428 5.90088,1.70426 l 42.2103,0 c 0.6987,0.69879 1.04809,1.48558 1.04814,2.36037 -5e-5,0.52275 -0.0441,0.95881 -0.13201,1.30819 z" />
    <path
       inkscape:connector-curvature="0"
       id="path2992-3"
       style="font-size:144px;font-style:normal;font-variant:normal;font-weight:normal;font-stretch:normal;line-height:125%;letter-spacing:0px;word-spacing:0px;fill:#ffffff;fill-opacity:1;stroke:none;font-family:NeoRetroFill;-inkscape-font-specification:NeoRetroFill"
       d="m 355.42551,596.37087 c -7e-5,0.61344 0.044,1.09485 0.13203,1.44423 l -0.78811,0.7881 c -1.13625,10e-6 -2.88317,10e-6 -5.24078,0 -2.36042,0.0854 -4.1527,0.12804 -5.3768,0.12803 -4.36872,10e-6 -10.90102,-0.0873 -19.59693,-0.26203 -8.69599,-0.17469 -15.2283,-0.26204 -19.59693,-0.26206 -5.5075,2e-5 -11.10166,0.13204 -16.7825,0.39606 -0.52274,-2.01094 -0.78412,-4.0219 -0.78411,-6.03288 -1e-5,-1.74692 0.21803,-4.36864 0.65409,-7.86518 0.43607,-3.4965 0.65409,-6.11821 0.65411,-7.86517 -2e-5,-1.39751 -0.0874,-3.45116 -0.26204,-6.16093 -0.1747,-2.7097 -0.26206,-4.76332 -0.26205,-6.16091 -1e-5,-2.53366 0.10934,-6.35689 0.32806,-11.46972 0.21869,-5.11269 0.32804,-8.93726 0.32805,-11.4737 -10e-6,-3.6698 -0.21872,-7.20901 -0.65611,-10.61759 -0.52274,-4.10719 -0.78412,-5.72344 -0.78411,-4.84871 -1e-5,-1.48547 0.78544,-2.22825 2.35635,-2.22834 0.35205,9e-5 0.89946,0.0434 1.64224,0.13003 0.74277,0.0867 1.33153,0.1301 1.76627,0.13002 0.87478,8e-5 1.57489,-0.21862 2.10031,-0.6561 4.89404,0.70151 11.36033,1.05224 19.3989,1.05215 3.05909,9e-5 7.64776,-0.0659 13.76604,-0.19803 6.11819,-0.13194 10.70687,-0.19794 13.76606,-0.19802 0.87207,8e-5 2.13892,8e-5 3.80057,0 1.74686,0.0881 3.01371,0.1321 3.80055,0.13201 0.61337,-0.17328 0.87607,-0.25995 0.78813,-0.26004 0.26129,-0.26396 0.56668,-0.39596 0.91613,-0.39605 0.52533,9e-5 0.91874,0.21877 1.18018,0.65609 l -1.04815,7.47313 c -6.20633,0.69884 -14.29018,1.04822 -24.25162,1.04814 -2.27238,8e-5 -5.68089,-0.0439 -10.22553,-0.13203 -4.5447,9e-5 -7.9532,9e-5 -10.22552,0 -2.88311,9e-5 -5.02477,0.0441 -6.42496,0.13203 l -1.96429,2.09632 c 0.26134,1.31227 0.39205,2.66712 0.39206,4.0646 -10e-6,1.13624 -0.17472,2.94984 -0.52407,5.44081 -0.34942,2.4911 -0.4801,4.43539 -0.39207,5.83287 l 0.13203,1.70425 1.44021,1.44422 c 2.1843,0.52279 4.98072,0.78417 8.38924,0.78411 7.95316,6e-5 10.92426,-0.044 8.91333,-0.13201 3.49649,0.088 6.42492,0.56946 8.78531,1.44421 l 0,6.42496 c -2.88313,0.26143 -5.72356,0.3921 -8.52127,0.39205 -9.35076,5e-5 -15.46899,0.34944 -18.35474,1.04816 l -0.65208,0.78812 0.39205,23.46349 1.70426,1.70426 c 2.01093,-0.088 4.98204,-0.13199 8.91332,-0.13201 4.10724,2e-5 10.24682,0.15337 18.41875,0.46006 8.17183,0.30672 14.31141,0.46009 18.41875,0.46007 4.01919,2e-5 7.03431,-0.044 9.04535,-0.13202 0.52534,0.61078 0.78803,1.39756 0.7881,2.36036 -7e-5,0.52276 -0.0661,1.22153 -0.19803,2.0963 -0.13209,0.87482 -0.1981,1.52958 -0.19803,1.96429 z" />
    <path
       id="path2996-5"
       style="font-size:144px;font-style:normal;font-variant:normal;font-weight:normal;font-stretch:normal;line-height:125%;letter-spacing:0px;word-spacing:0px;fill:#ffffff;fill-opacity:1;stroke:none;font-family:NeoRetroFill;-inkscape-font-specification:NeoRetroFill"
       d="m 436.1707,584.5257 -0.39207,-1.30819 c -0.1761,-0.34938 -0.30812,-0.69876 -0.39605,-1.04815 -9e-5,-0.87479 0.0439,-2.18565 0.13201,-3.93259 -7e-5,-1.74959 -7e-5,-3.06045 0,-3.93259 -7e-5,-3.14711 -0.0874,0.91509 -0.26203,-5.33387 -0.37569,-2.43125 -0.26212,-5.81596 -0.26205,-7.46862 -7e-5,-4.19525 0.13061,-8.30253 0.39207,-12.32185 -0.17344,-0.6987 -0.56683,-1.0481 -1.18018,-1.04815 l -0.52407,0 c -2.18441,4.10734 -5.7676,10.09355 -10.74961,17.95867 -0.43747,0.52546 -0.3993,2.00651 -1.18602,3.14264 -0.26143,0.6108 -1.30374,0.87799 -1.82643,2.10215 -1.05088,2.27237 -3.23654,6.07427 -6.55698,11.4057 -2.97116,4.71805 -4.72025,8.33025 -6.29293,8.16429 -1.97852,0.14201 -2.75112,-0.5618 -4.0606,-3.44758 -1.05087,-2.44569 -2.10036,-4.89271 -3.14848,-7.34111 -5.24347,-10.48686 -10.66162,-19.61887 -16.25442,-27.39607 -1.2242,-0.34934 -2.36037,-1.13612 -3.40851,-2.36035 -0.17604,0.87484 -0.26406,1.52962 -0.26404,1.96429 -2e-5,0.78683 0.13133,1.94501 0.39406,3.47452 0.26268,1.5296 0.39404,2.68777 0.39406,3.47452 -2e-5,-0.0879 -0.39342,13.23933 -1.18017,39.98195 -1.30954,0.70145 -2.7951,1.05216 -4.45667,1.05215 -1.22419,10e-6 -3.05914,-0.17602 -5.50482,-0.52807 -0.78679,-6.37961 -1.18017,-13.85137 -1.18017,-22.41534 0,-4.28328 1.10605,-10.77224 1.36744,-19.4669 0.26136,-8.69458 -0.58334,-15.22754 -0.58333,-19.59893 -10e-6,-6.29152 -0.1307,-11.05356 -0.39207,-14.28613 1.04816,9e-5 2.57772,-0.0439 4.5887,-0.13202 2.01094,9e-5 3.4965,9e-5 4.45667,0 1.13615,9e-5 2.01027,0.54617 2.62237,1.63824 0.61208,1.09225 1.11482,2.09707 1.50824,3.01446 0.39337,0.91755 1.20082,2.38175 2.42236,4.39264 2.2723,3.75798 5.8555,10.35629 10.7496,19.79497 4.54463,8.47597 8.25986,14.98627 11.14566,19.53089 1.57352,-0.43735 3.40845,-2.53498 5.50482,-6.29292 1.0481,-1.92292 4.4611,-7.02627 11.53956,-18.56138 5.07002,-8.2145 9.43549,-16.83183 11.79592,-22.60076 0.87205,-0.96006 2.0509,-1.44013 3.53652,-1.44022 0.61335,9e-5 1.51014,0.10944 2.69041,0.32806 l 3.6722,0.19602 c 1.13614,9e-5 2.01026,0.54617 2.62239,1.63824 0.61206,1.09225 1.1148,2.09707 1.50821,3.01446 0.39338,0.91755 1.20082,2.38175 2.42237,4.39264 2.27231,3.75798 5.85551,10.35629 10.7496,19.79497 4.54464,8.47597 8.25985,14.98627 11.14566,19.53089 1.57353,-0.43735 3.40846,-2.53498 5.50482,-6.29292 1.0481,-1.92292 4.78624,-9.62729 11.86469,-21.1624 5.07001,-8.21449 9.11036,-14.23081 11.47078,-19.99974 0.87206,-0.96006 2.0509,-1.44013 3.53652,-1.44022 0.61335,9e-5 1.51016,0.10944 2.69043,0.32806 1.18007,0.21878 2.07554,0.32813 2.68638,0.32804 l 1.04817,0 c 0.52533,3.58196 0.78803,8.08261 0.78811,13.50201 -8e-5,5.68091 0.54082,13.85438 0.32221,25.17068 -0.21879,11.31639 -0.97839,20.14011 -0.97832,25.82093 -7e-5,1.31221 0.0439,3.27916 0.13204,5.90087 -9e-5,2.62175 -9e-5,4.58871 0,5.90088 -0.87489,0.43475 -1.96839,0.65211 -3.28049,0.6521 -1.57099,10e-6 -3.53662,-0.39338 -5.89688,-1.18017 l -0.39207,-1.30819 c -0.1761,-0.34939 -0.30811,-0.69876 -0.39607,-1.04817 -6e-5,-0.87478 0.044,-2.18564 0.13204,-3.93258 -7e-5,-1.74959 -7e-5,-3.06044 0,-3.93258 -7e-5,-3.14711 -0.0874,-7.84515 -0.26205,-14.09412 -0.17476,-6.24888 -0.26209,-10.90289 -0.26202,-13.96206 -7e-5,-4.19525 0.1306,-8.30253 0.39203,-12.32185 -0.17342,-0.6987 -0.56681,-1.0481 -1.18016,-1.04815 l -0.52409,0 c -2.18438,4.10734 -5.76758,10.09355 -10.74958,17.95867 -0.43746,0.52546 -1.04956,1.35625 -1.83628,2.49238 -0.26144,0.61079 -0.6535,1.52825 -1.17618,2.75241 -1.05088,2.27237 -3.23653,6.07427 -6.55698,11.4057 -2.97116,4.71805 -4.48787,8.38834 -6.35102,8.62904 -1.97853,0.142 -2.69303,-1.02655 -4.00252,-3.91233 -1.05087,-2.44569 -8.27778,-13.9963 -9.32589,-16.44469 -4.7558,-7.88583 -1.88318,-4.50043 -7.47598,-12.27764 -1.22421,-0.34933 -4.96139,-7.15097 -6.00952,-8.3752 -0.17605,0.87484 -0.26407,1.52962 -0.26405,1.96429 -2e-5,0.78683 0.13133,1.94501 0.39406,3.47452 0.26268,1.5296 0.39404,2.68777 0.39406,3.47452 -2e-5,-0.0879 -1.18018,24.72827 -1.18018,24.72827 -1.30955,0.70144 -2.7951,1.05216 -4.45667,1.05215 z"
       inkscape:connector-curvature="0"
       sodipodi:nodetypes="ccccccccccccccccccccccccccssscccccccccccccccccccccccccccccccccccccccccccccccccccccccc" />
    <path
       inkscape:connector-curvature="0"
       id="path2998-3"
       style="font-size:144px;font-style:normal;font-variant:normal;font-weight:normal;font-stretch:normal;line-height:125%;letter-spacing:0px;word-spacing:0px;fill:#ffffff;fill-opacity:1;stroke:none;font-family:NeoRetroFill;-inkscape-font-specification:NeoRetroFill"
       d="m 595.05707,599.65136 c -0.52549,1e-5 -1.35628,-0.044 -2.49236,-0.13201 -1.04824,10e-6 -1.8777,10e-6 -2.48838,0 -1.22426,-1.57356 -2.44845,-4.0646 -3.67254,-7.47312 -0.96022,-2.6217 -1.87769,-5.28743 -2.75242,-7.99719 -2.53377,-6.37958 -6.46635,-9.5694 -11.79776,-9.56942 -0.17607,2e-5 -0.52547,2e-5 -1.04815,0 -0.43745,0.088 -0.78684,0.13205 -1.04816,0.13201 -1.48561,4e-5 -3.75794,-0.10931 -6.81702,-0.32804 -3.05917,-0.21867 -5.37551,-0.32802 -6.94902,-0.32805 -0.87484,3e-5 -2.16437,0.13139 -3.86859,0.39406 -1.70429,0.26273 -2.90579,0.39408 -3.60454,0.39406 -0.61079,2e-5 -1.35356,-0.13199 -2.22832,-0.39606 -1.13621,-0.26135 -1.87898,-0.39203 -2.22835,-0.39206 -1.39757,2.09901 -3.80058,6.38098 -7.20908,12.84592 -2.88576,5.41948 -5.50749,9.57076 -7.86515,12.45385 -1.66159,0.26405 -3.32185,0.39606 -4.98075,0.39605 -1.92296,1e-5 -3.49653,-0.39337 -4.7207,-1.18016 5.41946,-10.9243 13.94073,-27.18002 25.56381,-48.76727 0.69874,-1.13612 1.70289,-2.84037 3.01244,-5.11277 0.52539,-1.22412 1.35617,-3.01572 2.49238,-5.3748 1.13614,-2.35895 2.27231,-4.67463 3.40851,-6.94703 1.3975,-2.79768 2.35897,-5.24471 2.88443,-7.3411 0.69873,-0.96272 1.74688,-1.44413 3.14447,-1.44421 0.69872,8e-5 1.6822,0.13143 2.95043,0.39406 1.26815,0.26278 2.20762,0.39414 2.81842,0.39405 l 0.39206,0 c 1.13612,2.01105 2.75369,5.02617 4.85273,9.04535 -6e-5,8e-5 0.8734,2.1844 2.62039,6.55297 2.97104,7.4305 7.34103,17.30664 13.10995,29.62843 6.72892,14.24481 11.2296,24.03293 13.50201,29.36437 -1.39763,0.52541 -3.05787,0.78812 -4.98074,0.78811 z m -26.21991,-44.83467 c -0.34943,-1.04811 -0.91752,-2.66434 -1.70425,-4.84873 -1.22424,-2.27227 -2.9725,-5.68078 -5.24478,-10.22553 -0.17341,-0.0879 -0.43478,-0.13194 -0.78412,-0.13202 -0.43743,8e-5 -0.74282,0.0441 -0.91612,0.13202 -0.61348,1.39761 -2.79914,5.3742 -6.55699,11.92979 -2.79513,4.89411 -4.45536,9.08807 -4.98074,12.58187 2.62168,-0.0853 6.16087,-0.0413 10.61758,0.13203 5.15539,0.2614 8.69457,0.39209 10.61758,0.39205 1.31214,4e-5 2.31763,-0.0426 3.01646,-0.12801 -0.34946,-0.96277 -1.70432,-4.2406 -4.06462,-9.83347 z" />
    <path
       inkscape:export-ydpi="400.17322"
       inkscape:export-xdpi="400.17322"
       inkscape:export-filename="C:\Users\Evan\Code\Lemma\Lemma\Content\Images\logo.png"
       sodipodi:nodetypes="scccsscscsscscsssccscs"
       inkscape:connector-curvature="0"
       id="rect2992"
       d="m 156.85454,561.72827 -13.87756,0 -2.22947,0.40537 -2.12813,-0.40537 -4.69526,0 c -1.20383,0 -1.92815,0.40748 -2.91042,0.94645 -0.76251,0.41839 -1.84154,0.87574 -2.39212,1.54047 0.43322,0.88587 -1.57659,2.71949 -1.57659,4.39222 l 0.5067,14.42807 -0.5067,8.50235 c -0.10078,1.69142 0.49452,3.23864 1.52185,4.43553 0.56552,0.65888 2.32637,1.14857 2.04585,1.60304 0.99446,0.5125 2.12864,0.80499 3.31143,0.84055 l 16.85596,0.50669 6.07446,-0.50669 c 1.4045,-0.11716 2.81234,-0.87127 3.7999,-1.28078 2.04924,-0.84974 3.11594,-3.19725 3.07923,-5.59834 l -0.18733,-12.25178 -0.52205,-2.53358 0.70938,-8.14506 c 0.22305,-2.56107 -0.28133,-4.39811 -2.35977,-5.57905 -1.00275,-0.56977 -3.27907,-1.30009 -4.51936,-1.30009 z"
       style="fill:#5bafcd;fill-opacity:1;stroke:none" />
    <path
       inkscape:export-ydpi="400.17322"
       inkscape:export-xdpi="400.17322"
       inkscape:export-filename="C:\Users\Evan\Code\Lemma\Lemma\Content\Images\logo.png"
       sodipodi:nodetypes="cccsssscccsscscscccssc"
       inkscape:connector-curvature="0"
       id="rect2994-1"
       d="m 156.85454,519.59361 -10.84254,0.9938 -8.50734,-0.68978 -3.58054,-0.30402 c -1.44417,-0.12262 -2.77295,0.26247 -3.86421,0.99645 -0.79133,0.53225 -0.95104,1.0453 -1.44594,1.88394 -0.61714,1.04581 -1.47427,2.48543 -1.46763,3.79606 l 0.0679,13.39308 -0.43881,1.82353 0.37899,1.6192 -0.10938,6.29728 c -0.0663,3.81047 3.06809,6.87913 6.87913,6.87913 l 11.07964,-0.50669 11.85078,0.50669 c 1.86452,0.0797 3.20818,-1.87064 4.51342,-1.87217 1.149,-1.26887 1.76714,-3.06492 1.85902,-5.00696 l 0.39375,-8.32345 0.40933,-7.49603 -0.34697,-2.74383 0.0505,-4.36711 c 0.0441,-3.81077 -3.06809,-6.87912 -6.87912,-6.87912 z"
       style="fill:#5bafcd;fill-opacity:1;stroke:none" />
    <path
       inkscape:export-ydpi="400.17322"
       inkscape:export-xdpi="400.17322"
       inkscape:export-filename="C:\Users\Evan\Code\Lemma\Lemma\Content\Images\logo.png"
       sodipodi:nodetypes="scsscccsscscccsssccccssss"
       inkscape:connector-curvature="0"
       id="rect2998"
       d="m 198.70257,561.72827 -10.83238,0.91205 -12.09804,-0.91205 c -3.80025,-0.28648 -6.87913,3.0681 -6.87913,6.87914 l 0,6.32095 -0.50669,2.43213 0.50669,2.12812 0,12.04922 c 0,1.50613 0.47919,2.89623 1.29406,4.02677 0.64626,0.89661 1.7063,3.15004 2.50054,2.12846 0.92677,0.46342 3.19064,1.0598 4.30059,1.0279 l 10.57796,-0.30401 2.63482,-0.40536 3.04017,0.40536 5.46141,0 c 2.18583,0 4.93797,-1.31331 5.38558,-2.58917 0.49715,-1.41704 1.49355,-2.66475 1.49355,-4.28995 l 0,-6.37422 -0.50669,-1.62144 0.50669,-2.22946 -0.72586,-6.99541 0.11782,-5.50722 c 0.0253,-1.18384 0.25887,-2.70015 -0.64309,-3.31357 -0.75412,-0.51288 -1.12217,-1.8993 -1.9729,-2.55172 -0.99646,-0.76418 -2.23802,-1.21652 -3.6551,-1.21652 z"
       style="fill:#5bafcd;fill-opacity:1;stroke:none" />
    <path
       inkscape:export-ydpi="400.17322"
       inkscape:export-xdpi="400.17322"
       inkscape:export-filename="C:\Users\Evan\Code\Lemma\Lemma\Content\Images\logo.png"
       sodipodi:nodetypes="cccscsccsssccscsscsc"
       inkscape:connector-curvature="0"
       id="rect3000"
       d="m 185.84341,519.59361 -3.24285,0.40536 -3.66202,-0.47328 -3.16639,0.068 c -1.12559,0.0242 -2.1865,0.30179 -3.12271,0.7793 -0.61145,1.94958 -3.92804,0.47843 -3.75642,6.09982 l 0.48013,4.88141 -0.6309,6.28235 0.86015,12.07068 c 0.14506,2.03579 0.47457,2.95678 1.87732,4.21446 1.21655,1.09075 2.5299,2.47603 4.29243,2.36066 l 7.74046,-0.50669 9.21927,0.68695 5.97069,-0.18026 c 1.30602,-0.0395 2.82913,0.2969 3.56337,-1.03931 1.99006,-1.20148 3.31576,-3.3354 3.31576,-5.83983 l 0,-22.93042 c 0,-3.81103 -1.91924,-5.35292 -5.56172,-6.47376 -1.41453,-0.30807 -3.98109,0.24541 -5.4506,0.17693 -3.26489,-0.15217 -5.50224,-0.58232 -8.72597,-0.58232 z"
       style="fill:#5bafcd;fill-opacity:1;stroke:none" />
    <path
       inkscape:export-ydpi="400.17322"
       inkscape:export-xdpi="400.17322"
       sodipodi:nodetypes="cccccscccccccsssssscccccccccscssssssscssscccssssccccsscccsscsccssssssssccsssscssccssccsccsccsszcccscscccccccccccccccccccccccccccccccccccccccccccccccccccccccccccscsscssccccsscccscsssscsscscccccccccccccssccsssssssssscscc"
       inkscape:connector-curvature="0"
       id="path3012-7"
       d="m 160.93142,582.8092 -4.10508,5.47145 0.43053,0.75319 c 0,0 -1.50516,0.40514 -1.98523,0.76646 0,0 -0.566,0.47236 -1.32813,1.21682 l -1.599,0.97804 c -1.56768,0.95889 -1.10448,1.61 -1.10448,1.61 l 0.081,1.24346 1.64381,2.36023 3.85685,2.3571 -0.92532,1.25638 0.40099,1.41024 3.72695,1.79348 c 0,0 1.52932,1.06041 2.38833,1.6519 0.91831,0.6323 2.88912,1.44248 3.36933,1.8249 0.80377,0.64007 2.63852,1.14159 4.53795,2.16511 1.37988,0.74358 4.46825,0.96902 4.46825,0.96902 0.21658,-0.64449 0.75213,-0.66517 0.80488,-1.12258 0.11397,-0.98853 -0.17713,-1.99339 -0.77343,-2.79023 -0.50876,-0.68027 -1.51821,-2.2011 -1.51821,-2.2011 l -2.69688,-2.10085 -0.0431,-0.62441 -0.43014,-0.61235 -0.10764,-0.99019 -0.57955,-0.54551 0.11632,-0.78958 -0.73622,-1.46891 0.53313,-0.35933 c 0,0 -0.089,-3.24022 0.50241,-4.9218 1.14667,-3.26031 5.55641,-8.75364 5.55641,-8.75364 0,0 4.27026,-2.90351 6.4451,-4.29444 1.0311,-0.65945 2.05618,-1.33244 3.12987,-1.91996 1.26002,-0.68945 2.70097,-1.05522 3.87787,-1.87855 0.80216,-0.56117 1.67127,-1.16828 2.10889,-2.04401 0.41178,-0.82405 0.51295,-1.83568 0.34684,-2.7418 -0.13835,-0.75483 -0.49281,-1.53932 -1.08036,-2.03301 -0.58754,-0.49368 -1.44088,-0.54187 -2.18878,-0.71388 -0.38821,-0.0892 -1.18389,-0.16308 -1.18389,-0.16308 0,0 0.29153,-0.9292 0.32139,-1.19765 0.0299,-0.26844 0.0979,-1.68377 -0.31168,-2.36559 -0.49009,-0.81597 -1.4392,-1.30832 -2.324,-1.65921 -1.19457,-0.47374 -2.53515,-0.50377 -3.82014,-0.51912 l -3.2338,-0.62019 -7.93085,0.63229 c 0,0 1.82102,-1.26553 2.5138,-1.35674 0.56071,-0.0739 1.18087,-0.18239 1.58931,-0.3337 0.85156,-0.31539 1.68879,-0.77375 2.32216,-1.42448 1.0967,-1.12675 1.90576,-2.3374 2.60272,-3.74685 0.96269,-1.94686 1.14969,-2.79216 1.85931,-4.5841 l 0.77165,-1.83713 0.81388,-1.73206 0.18368,-0.50328 c 0,0 2.36433,-0.45753 3.24788,-0.24583 0.95006,0.22764 2.6483,3.54289 3.46489,3.95206 0.66498,0.3332 1.45686,0.32469 1.45686,0.32469 l 0.87938,-0.26431 0.73828,-0.59042 c 0,0 0.32827,0.1105 0.49806,0.10714 0.15186,-0.003 0.3128,-0.0323 0.44131,-0.1134 0.0896,-0.0565 0.20447,-0.24332 0.20447,-0.24332 0,0 0.39198,0.0347 0.55974,-0.0486 0.21364,-0.10611 0.48031,-0.53047 0.48031,-0.53047 l 0.23852,-0.28388 c 0,0 0.40941,0.26424 0.63269,0.35864 0.22209,0.0939 0.45536,0.23487 0.69436,0.20289 0.22137,-0.0297 0.42951,-0.17765 0.57114,-0.35034 0.2975,-0.36276 0.30792,-0.88689 0.48691,-1.32056 0.20266,-0.49099 0.37335,-1.00395 0.66378,-1.4487 0.16901,-0.25882 0.37081,-0.50524 0.61661,-0.69268 0.49041,-0.37397 1.16316,-0.4529 1.65824,-0.82068 0.66003,-0.49033 1.20491,-1.13375 1.68593,-1.80062 0.49024,-0.67963 1.19929,-2.20953 1.19929,-2.20953 l 0.20626,-1.52177 c 0,0 0.0755,-2.15331 -0.20071,-3.17832 -0.31788,-1.17977 -0.96655,-2.2584 -1.63813,-3.27912 -0.5122,-0.77843 -1.10573,-1.51792 -1.80218,-2.13695 -0.57131,-0.50782 -2.75166,-1.78385 -3.43568,-2.12498 -0.85994,-0.42887 -2.61823,-0.8854 -2.61823,-0.8854 0,0 -0.12763,-0.53234 -0.56703,-1.07691 -0.69315,-0.85903 -0.49839,-1.50664 -1.53072,-1.89735 -0.89548,-0.33892 -2.83879,-0.43815 -2.83879,-0.43815 l -2.89592,-1.09137 c 0,0 -12.90201,-6.30288 -13.58612,-6.03393 -0.73858,0.29036 -1.19529,1.16801 -1.97106,1.33538 -1.19688,0.25822 -3.62002,-0.62319 -3.62002,-0.62319 l 2.25518,2.16089 c 0,0 -0.46393,1.98568 0.17041,1.99857 4.52739,0.0923 12.22609,3.04105 12.22609,3.04105 l 3.09642,1.54289 c 0,0 0.8505,1.09473 2.08621,1.12389 1.69792,0.0401 2.08396,0.99636 2.08396,0.99636 l 0.90435,0.58034 c 0,0 -1.06652,0.86191 -1.95462,2.088 -0.66066,0.91208 -0.72568,2.01322 -1.01544,2.6711 -0.24987,0.5673 -0.5052,1.44508 -0.92626,2.16931 -0.42107,0.72427 -0.36372,0.98668 -1.02421,1.58035 l -1.37459,0.70309 -0.0242,-0.3017 c 0,0 -5.24663,-3.34869 -6.12524,-3.48056 -0.94768,-0.14221 -3.48399,-0.28891 -3.48399,-0.28891 0,0 -0.57485,-0.59189 -0.93277,-0.78375 -1.66543,-0.89277 -4.9776,-2.14555 -4.9776,-2.14555 l -2.50254,-1.30188 -0.56252,0.79379 -2.45912,-0.98618 -6.13937,-3.34846 -4.25808,-2.50156 -4.90507,-2.6049 -4.93037,-2.28368 -3.62041,-1.28083 -5.63474,-2.43523 -3.52622,-2.03338 -4.37973,-2.06564 -3.30835,-1.36109 -3.0423,-0.74615 -0.50939,0.25692 -0.5953,0.12459 -0.14123,0.53862 0.48667,0.40891 0.61971,0.2094 -0.32287,0.17842 0.0243,0.71222 0.37794,0.45596 0.9912,0.5907 2.46751,1.1393 1.45841,0.77571 0.96683,0.74321 0.37798,0.45595 0.17672,0.73659 -0.80307,-0.15587 -2.02138,-0.76445 -1.13568,-0.0893 -0.4868,0.4558 0.005,0.48836 0.36176,0.26937 1.00585,0.32625 1.10315,0.58098 1.93859,1.11002 2.30695,0.58927 1.46505,-0.0144 1.16494,-0.4395 0.86149,-0.0373 2.14955,0.94131 3.05146,1.80295 3.68247,2.5753 3.04823,1.76563 2.91037,1.47683 4.56028,1.85992 1.3238,0.52424 1.64007,1.13594 1.24425,0.90711 2.26953,1.45726 2.34738,1.48808 -2.19022,-0.11065 -1.95014,0.0565 -3.40063,0.67117 -3.77045,-0.12387 -2.58606,-0.33947 -2.57634,-0.22752 -3.93434,0.15355 c 0,0 -0.31539,0.17422 -0.34724,0.3309 -0.0394,0.19346 0.23517,0.54354 0.23517,0.54354 0,0 -0.32311,0.11857 -0.39104,0.25952 -0.0921,0.1912 -0.0652,0.45941 0.055,0.63438 0.12363,0.18003 0.85719,0.47403 0.85719,0.47403 0,0 -0.60713,0.17749 -0.63019,0.40858 -0.0192,0.19287 0.0672,0.40363 0.19785,0.54678 0.1848,0.20244 0.74463,0.34893 0.74463,0.34893 l 2.1253,0.22907 1.54615,0.0538 -2.67054,0.4198 c 0,0 -0.72939,0.0736 -0.91021,0.34219 -0.11859,0.17648 -0.11811,0.47408 0.0178,0.63761 0.21707,0.2612 0.99612,0.2143 0.99612,0.2143 l 2.28597,-0.0856 1.45533,-0.12634 c 0,0 0.24436,0.46894 0.24252,0.7232 -0.002,0.23574 0.0179,0.18308 0.0179,0.18308 0,0 -1.07525,0.20099 -1.53811,0.47187 -0.27598,0.16153 -0.58139,0.36273 -0.69447,0.66184 -0.0663,0.17518 -0.0863,0.42981 0.0486,0.55974 0.38495,0.37078 1.48366,-0.0578 1.48366,-0.0578 0.82354,0.0575 1.93185,-0.16973 1.93185,-0.16973 0,0 1.14978,-0.50652 1.58125,-0.82006 0.47224,-0.34317 0.61831,-0.56382 0.9902,-1.01378 0.22,-0.26619 0.35153,-0.35785 0.35153,-0.35785 0,0 0.64507,-0.27172 0.9881,-0.31135 0.6158,-0.0711 1.85439,0.1398 1.85439,0.1398 l 3.42967,0.52943 2.46441,0.23723 2.32652,-0.0516 2.14811,-0.37446 1.32381,0.52423 0.99119,0.59069 -2.30269,3.35803 -1.33558,2.37177 -1.60341,3.18453 -1.4605,2.23219 -1.88315,1.00172 -3.22518,1.21974 c 0,0 -2.95237,0.21015 -4.01053,1.13821 -0.69981,0.61375 0.86966,1.81294 0.39194,2.36243 -0.21404,0.24618 -2.49779,1.96088 -2.49779,1.96088 l -0.21388,-0.23783 c 0,0 -0.61063,0.55979 -0.79841,0.70798 -0.69185,0.54602 -1.34445,1.15786 -1.88575,1.85339 -0.99589,1.27971 -1.27812,2.1572 -1.92636,3.64355 -0.49415,1.13304 -0.88954,2.32709 -1.07433,3.54931 -0.11396,0.75396 -0.0447,1.52561 -0.0141,2.28753 0.0426,1.05856 -0.0695,2.16445 0.27485,3.16634 0.3055,0.88895 0.88266,1.68866 1.53463,2.36577 0.9126,0.94785 2.06825,1.65031 3.2279,2.27198 1.12745,0.6044 2.34993,1.0286 3.57679,1.39095 1.18404,0.34972 2.40534,0.57287 3.62737,0.74852 0.83325,0.11978 2.51695,0.20687 2.51695,0.20687 0,0 1.8631,0.6291 2.8312,0.76448 1.26963,0.17754 3.84559,0.0544 3.84559,0.0544 z"
       style="fill:#ffffff;fill-opacity:1;stroke:none"
       inkscape:export-filename="C:\Users\Evan\Code\Lemma\Lemma\Content\Images\logo.png" />
  </g>
</svg>
