<?xml version="1.0" encoding="UTF-8" standalone="no"?>
<!-- Created with Inkscape (http://www.inkscape.org/) -->

<svg
   xmlns:dc="http://purl.org/dc/elements/1.1/"
   xmlns:cc="http://creativecommons.org/ns#"
   xmlns:rdf="http://www.w3.org/1999/02/22-rdf-syntax-ns#"
   xmlns:svg="http://www.w3.org/2000/svg"
   xmlns="http://www.w3.org/2000/svg"
   xmlns:sodipodi="http://sodipodi.sourceforge.net/DTD/sodipodi-0.dtd"
   xmlns:inkscape="http://www.inkscape.org/namespaces/inkscape"
   width="477.40778"
   height="102.03814"
   id="svg2"
   version="1.1"
   inkscape:version="0.48.4 r9939"
   sodipodi:docname="header.svg"
   inkscape:export-filename="C:\Users\Evan\Code\Lemma\Web\output\graphics\header.png"
   inkscape:export-xdpi="89.966316"
   inkscape:export-ydpi="89.966316">
  <defs
     id="defs4" />
  <sodipodi:namedview
     id="base"
     pagecolor="#ffffff"
     bordercolor="#666666"
     borderopacity="1.0"
     inkscape:pageopacity="0.0"
     inkscape:pageshadow="2"
     inkscape:zoom="3.2467004"
     inkscape:cx="238.70389"
     inkscape:cy="51.01907"
     inkscape:document-units="px"
     inkscape:current-layer="layer1"
     showgrid="true"
     fit-margin-top="0"
     fit-margin-left="0"
     fit-margin-right="0"
     fit-margin-bottom="0"
     inkscape:window-width="1680"
     inkscape:window-height="1031"
     inkscape:window-x="-8"
     inkscape:window-y="-8"
     inkscape:window-maximized="1" />
  <metadata
     id="metadata7">
    <rdf:RDF>
      <cc:Work
         rdf:about="">
        <dc:format>image/svg+xml</dc:format>
        <dc:type
           rdf:resource="http://purl.org/dc/dcmitype/StillImage" />
        <dc:title></dc:title>
      </cc:Work>
    </rdf:RDF>
  </metadata>
  <g
     inkscape:label="Layer 1"
     inkscape:groupmode="layer"
     id="layer1"
     transform="translate(-116.53183,-508.77278)">
    <path
       inkscape:connector-curvature="0"
       id="path2990-3"
       style="font-size:144px;font-style:normal;font-variant:normal;font-weight:normal;font-stretch:normal;line-height:125%;letter-spacing:0px;word-spacing:0px;fill:#ffffff;fill-opacity:1;stroke:none;font-family:NeoRetroFill;-inkscape-font-specification:NeoRetroFill"
       d="m 269.04591,594.14255 c -0.52282,1.92296 -0.7842,3.05913 -0.78411,3.40851 -9e-5,0.4374 0.0866,0.9188 0.26002,1.44422 l -0.78411,0.78411 c -1.66166,0.088 -4.24069,0.13202 -7.73715,0.13201 -4.36871,1e-5 -10.98835,-0.17468 -19.85896,-0.52407 -8.87068,-0.34938 -15.53434,-0.52407 -19.99098,-0.52408 -2.01098,10e-6 -5.02609,0.088 -9.04535,0.26404 -0.52542,-6.37961 -0.78813,-14.28878 -0.78812,-23.72753 -1e-5,-3.93389 0.066,-9.83342 0.19803,-17.69865 0.13201,-7.86512 0.19801,-13.76465 0.19803,-17.69863 -2e-5,-5.59276 -0.13203,-11.18559 -0.39606,-16.77851 1.92295,-0.69867 3.7152,-1.04806 5.3768,-1.04814 0.87478,8e-5 1.70425,0.13076 2.48838,0.39204 l 0.6561,1.04817 1.18017,65.15369 c 1.04815,1.13621 3.0151,1.70428 5.90088,1.70426 l 42.2103,0 c 0.6987,0.69879 1.04809,1.48558 1.04814,2.36037 -5e-5,0.52275 -0.0441,0.95881 -0.13201,1.30819 z" />
    <path
       inkscape:connector-curvature="0"
       id="path2992-3"
       style="font-size:144px;font-style:normal;font-variant:normal;font-weight:normal;font-stretch:normal;line-height:125%;letter-spacing:0px;word-spacing:0px;fill:#ffffff;fill-opacity:1;stroke:none;font-family:NeoRetroFill;-inkscape-font-specification:NeoRetroFill"
       d="m 349.32732,596.37087 c -7e-5,0.61344 0.044,1.09485 0.13203,1.44423 l -0.78811,0.7881 c -1.13625,10e-6 -2.88317,10e-6 -5.24078,0 -2.36042,0.0854 -4.1527,0.12804 -5.3768,0.12803 -4.36872,10e-6 -10.90102,-0.0873 -19.59693,-0.26203 -8.69599,-0.17469 -15.2283,-0.26204 -19.59693,-0.26206 -5.5075,2e-5 -11.10166,0.13204 -16.7825,0.39606 -0.52274,-2.01094 -0.78412,-4.0219 -0.78411,-6.03288 -10e-6,-1.74692 0.21803,-4.36864 0.65409,-7.86518 0.43607,-3.4965 0.65409,-6.11821 0.65411,-7.86517 -2e-5,-1.39751 -0.0874,-3.45116 -0.26204,-6.16093 -0.1747,-2.7097 -0.26206,-4.76332 -0.26205,-6.16091 -10e-6,-2.53366 0.10934,-6.35689 0.32806,-11.46972 0.21869,-5.11269 0.32804,-8.93726 0.32805,-11.4737 -10e-6,-3.6698 -0.21872,-7.20901 -0.65611,-10.61759 -0.52274,-4.10719 -0.78412,-5.72344 -0.78411,-4.84871 -10e-6,-1.48547 0.78544,-2.22825 2.35635,-2.22834 0.35205,9e-5 0.89946,0.0434 1.64224,0.13003 0.74277,0.0867 1.33153,0.1301 1.76627,0.13002 0.87478,8e-5 1.57489,-0.21862 2.10031,-0.6561 4.89404,0.70151 11.36033,1.05224 19.3989,1.05215 3.05909,9e-5 7.64776,-0.0659 13.76604,-0.19803 6.11819,-0.13194 10.70687,-0.19794 13.76606,-0.19802 0.87207,8e-5 2.13892,8e-5 3.80057,0 1.74686,0.0881 3.01371,0.1321 3.80055,0.13201 0.61337,-0.17328 0.87607,-0.25995 0.78813,-0.26004 0.26129,-0.26396 0.56668,-0.39596 0.91613,-0.39605 0.52533,9e-5 0.91874,0.21877 1.18018,0.65609 l -1.04815,7.47313 c -6.20633,0.69884 -14.29018,1.04822 -24.25162,1.04814 -2.27238,8e-5 -5.68089,-0.0439 -10.22553,-0.13203 -4.5447,9e-5 -7.9532,9e-5 -10.22552,0 -2.88311,9e-5 -5.02477,0.0441 -6.42496,0.13203 l -1.96429,2.09632 c 0.26134,1.31227 0.39205,2.66712 0.39206,4.0646 -10e-6,1.13624 -0.17472,2.94984 -0.52407,5.44081 -0.34942,2.4911 -0.4801,4.43539 -0.39207,5.83287 l 0.13203,1.70425 1.44021,1.44422 c 2.1843,0.52279 4.98072,0.78417 8.38924,0.78411 7.95316,6e-5 10.92426,-0.044 8.91333,-0.13201 3.49649,0.088 6.42492,0.56946 8.78531,1.44421 l 0,6.42496 c -2.88313,0.26143 -5.72356,0.3921 -8.52127,0.39205 -9.35076,5e-5 -15.46899,0.34944 -18.35474,1.04816 l -0.65208,0.78812 0.39205,23.46349 1.70426,1.70426 c 2.01093,-0.088 4.98204,-0.13199 8.91332,-0.13201 4.10724,2e-5 10.24682,0.15337 18.41875,0.46006 8.17183,0.30672 14.31141,0.46009 18.41875,0.46007 4.01919,2e-5 7.03431,-0.044 9.04535,-0.13202 0.52534,0.61078 0.78803,1.39756 0.7881,2.36036 -7e-5,0.52276 -0.0661,1.22153 -0.19803,2.0963 -0.13209,0.87482 -0.1981,1.52958 -0.19803,1.96429 z" />
    <path
       id="path2996-5"
       style="font-size:144px;font-style:normal;font-variant:normal;font-weight:normal;font-stretch:normal;line-height:125%;letter-spacing:0px;word-spacing:0px;fill:#ffffff;fill-opacity:1;stroke:none;font-family:NeoRetroFill;-inkscape-font-specification:NeoRetroFill"
       d="m 430.07251,584.5257 -0.39207,-1.30819 c -0.1761,-0.34938 -0.30812,-0.69876 -0.39605,-1.04815 -9e-5,-0.87479 0.0439,-2.18565 0.13201,-3.93259 -7e-5,-1.74959 -7e-5,-3.06045 0,-3.93259 -7e-5,-3.14711 -0.0874,0.91509 -0.26203,-5.33387 -0.37569,-2.43125 -0.26212,-5.81596 -0.26205,-7.46862 -7e-5,-4.19525 0.13061,-8.30253 0.39207,-12.32185 -0.17344,-0.6987 -0.56683,-1.0481 -1.18018,-1.04815 l -0.52407,0 c -2.18441,4.10734 -5.7676,10.09355 -10.74961,17.95867 -0.43747,0.52546 -0.3993,2.00651 -1.18602,3.14264 -0.26143,0.6108 -1.30374,0.87799 -1.82643,2.10215 -1.05088,2.27237 -3.23654,6.07427 -6.55698,11.4057 -2.97116,4.71805 -4.72025,8.33025 -6.29293,8.16429 -1.97852,0.14201 -2.75112,-0.5618 -4.0606,-3.44758 -1.05087,-2.44569 -2.10036,-4.89271 -3.14848,-7.34111 -5.24347,-10.48686 -10.66162,-19.61887 -16.25442,-27.39607 -1.2242,-0.34934 -2.36037,-1.13612 -3.40851,-2.36035 -0.17604,0.87484 -0.26406,1.52962 -0.26404,1.96429 -2e-5,0.78683 0.13133,1.94501 0.39406,3.47452 0.26268,1.5296 0.39404,2.68777 0.39406,3.47452 -2e-5,-0.0879 -0.39342,13.23933 -1.18017,39.98195 -1.30954,0.70145 -2.7951,1.05216 -4.45667,1.05215 -1.22419,10e-6 -3.05914,-0.17602 -5.50482,-0.52807 -0.78679,-6.37961 -1.18017,-13.85137 -1.18017,-22.41534 0,-4.28328 1.10605,-10.77224 1.36744,-19.4669 0.26136,-8.69458 -0.58334,-15.22754 -0.58333,-19.59893 -10e-6,-6.29152 -0.1307,-11.05356 -0.39207,-14.28613 1.04816,9e-5 2.57772,-0.0439 4.5887,-0.13202 2.01094,9e-5 3.4965,9e-5 4.45667,0 1.13615,9e-5 2.01027,0.54617 2.62237,1.63824 0.61208,1.09225 1.11482,2.09707 1.50824,3.01446 0.39337,0.91755 1.20082,2.38175 2.42236,4.39264 2.2723,3.75798 5.8555,10.35629 10.7496,19.79497 4.54463,8.47597 8.25986,14.98627 11.14566,19.53089 1.57352,-0.43735 3.40845,-2.53498 5.50482,-6.29292 1.0481,-1.92292 4.4611,-7.02627 11.53956,-18.56138 5.07002,-8.2145 9.43549,-16.83183 11.79592,-22.60076 0.87205,-0.96006 2.0509,-1.44013 3.53652,-1.44022 0.61335,9e-5 1.51014,0.10944 2.69041,0.32806 l 3.6722,0.19602 c 1.13614,9e-5 2.01026,0.54617 2.62239,1.63824 0.61206,1.09225 1.1148,2.09707 1.50821,3.01446 0.39338,0.91755 1.20082,2.38175 2.42237,4.39264 2.27231,3.75798 5.85551,10.35629 10.7496,19.79497 4.54464,8.47597 8.25985,14.98627 11.14566,19.53089 1.57353,-0.43735 3.40846,-2.53498 5.50482,-6.29292 1.0481,-1.92292 4.78624,-9.62729 11.86469,-21.1624 5.07001,-8.21449 9.11036,-14.23081 11.47078,-19.99974 0.87206,-0.96006 2.0509,-1.44013 3.53652,-1.44022 0.61335,9e-5 1.51016,0.10944 2.69043,0.32806 1.18007,0.21878 2.07554,0.32813 2.68638,0.32804 l 1.04817,0 c 0.52533,3.58196 0.78803,8.08261 0.78811,13.50201 -8e-5,5.68091 0.54082,13.85438 0.32221,25.17068 -0.21879,11.31639 -0.97839,20.14011 -0.97832,25.82093 -7e-5,1.31221 0.0439,3.27916 0.13204,5.90087 -9e-5,2.62175 -9e-5,4.58871 0,5.90088 -0.87489,0.43475 -1.96839,0.65211 -3.28049,0.6521 -1.57099,10e-6 -3.53662,-0.39338 -5.89688,-1.18017 l -0.39207,-1.30819 c -0.1761,-0.34939 -0.30811,-0.69876 -0.39607,-1.04817 -6e-5,-0.87478 0.044,-2.18564 0.13204,-3.93258 -7e-5,-1.74959 -7e-5,-3.06044 0,-3.93258 -7e-5,-3.14711 -0.0874,-7.84515 -0.26205,-14.09412 -0.17476,-6.24888 -0.26209,-10.90289 -0.26202,-13.96206 -7e-5,-4.19525 0.1306,-8.30253 0.39203,-12.32185 -0.17342,-0.6987 -0.56681,-1.0481 -1.18016,-1.04815 l -0.52409,0 c -2.18438,4.10734 -5.76758,10.09355 -10.74958,17.95867 -0.43746,0.52546 -1.04956,1.35625 -1.83628,2.49238 -0.26144,0.61079 -0.6535,1.52825 -1.17618,2.75241 -1.05088,2.27237 -3.23653,6.07427 -6.55698,11.4057 -2.97116,4.71805 -4.48787,8.38834 -6.35102,8.62904 -1.97853,0.142 -2.69303,-1.02655 -4.00252,-3.91233 -1.05087,-2.44569 -8.27778,-13.9963 -9.32589,-16.44469 -4.7558,-7.88583 -1.88318,-4.50043 -7.47598,-12.27764 -1.22421,-0.34933 -4.96139,-7.15097 -6.00952,-8.3752 -0.17605,0.87484 -0.26407,1.52962 -0.26405,1.96429 -2e-5,0.78683 0.13133,1.94501 0.39406,3.47452 0.26268,1.5296 0.39404,2.68777 0.39406,3.47452 -2e-5,-0.0879 -1.18018,24.72827 -1.18018,24.72827 -1.30955,0.70144 -2.7951,1.05216 -4.45667,1.05215 z"
       inkscape:connector-curvature="0"
       sodipodi:nodetypes="ccccccccccccccccccccccccccssscccccccccccccccccccccccccccccccccccccccccccccccccccccccc" />
    <path
       inkscape:connector-curvature="0"
       id="path2998-3"
       style="font-size:144px;font-style:normal;font-variant:normal;font-weight:normal;font-stretch:normal;line-height:125%;letter-spacing:0px;word-spacing:0px;fill:#ffffff;fill-opacity:1;stroke:none;font-family:NeoRetroFill;-inkscape-font-specification:NeoRetroFill"
       d="m 588.95888,599.65136 c -0.52549,1e-5 -1.35628,-0.044 -2.49236,-0.13201 -1.04824,10e-6 -1.8777,10e-6 -2.48838,0 -1.22426,-1.57356 -2.44845,-4.0646 -3.67254,-7.47312 -0.96022,-2.6217 -1.87769,-5.28743 -2.75242,-7.99719 -2.53377,-6.37958 -6.46635,-9.5694 -11.79776,-9.56942 -0.17607,2e-5 -0.52547,2e-5 -1.04815,0 -0.43745,0.088 -0.78684,0.13205 -1.04816,0.13201 -1.48561,4e-5 -3.75794,-0.10931 -6.81702,-0.32804 -3.05917,-0.21867 -5.37551,-0.32802 -6.94902,-0.32805 -0.87484,3e-5 -2.16437,0.13139 -3.86859,0.39406 -1.70429,0.26273 -2.90579,0.39408 -3.60454,0.39406 -0.61079,2e-5 -1.35356,-0.13199 -2.22832,-0.39606 -1.13621,-0.26135 -1.87898,-0.39203 -2.22835,-0.39206 -1.39757,2.09901 -3.80058,6.38098 -7.20908,12.84592 -2.88576,5.41948 -5.50749,9.57076 -7.86515,12.45385 -1.66159,0.26405 -3.32185,0.39606 -4.98075,0.39605 -1.92296,1e-5 -3.49653,-0.39337 -4.7207,-1.18016 5.41946,-10.9243 13.94073,-27.18002 25.56381,-48.76727 0.69874,-1.13612 1.70289,-2.84037 3.01244,-5.11277 0.52539,-1.22412 1.35617,-3.01572 2.49238,-5.3748 1.13614,-2.35895 2.27231,-4.67463 3.40851,-6.94703 1.3975,-2.79768 2.35897,-5.24471 2.88443,-7.3411 0.69873,-0.96272 1.74688,-1.44413 3.14447,-1.44421 0.69872,8e-5 1.6822,0.13143 2.95043,0.39406 1.26815,0.26278 2.20762,0.39414 2.81842,0.39405 l 0.39206,0 c 1.13612,2.01105 2.75369,5.02617 4.85273,9.04535 -6e-5,8e-5 0.8734,2.1844 2.62039,6.55297 2.97104,7.4305 7.34103,17.30664 13.10995,29.62843 6.72892,14.24481 11.2296,24.03293 13.50201,29.36437 -1.39763,0.52541 -3.05787,0.78812 -4.98074,0.78811 z m -26.21991,-44.83467 c -0.34943,-1.04811 -0.91752,-2.66434 -1.70425,-4.84873 -1.22424,-2.27227 -2.9725,-5.68078 -5.24478,-10.22553 -0.17341,-0.0879 -0.43478,-0.13194 -0.78412,-0.13202 -0.43743,8e-5 -0.74282,0.0441 -0.91612,0.13202 -0.61348,1.39761 -2.79914,5.3742 -6.55699,11.92979 -2.79513,4.89411 -4.45536,9.08807 -4.98074,12.58187 2.62168,-0.0853 6.16087,-0.0413 10.61758,0.13203 5.15539,0.2614 8.69457,0.39209 10.61758,0.39205 1.31214,4e-5 2.31763,-0.0426 3.01646,-0.12801 -0.34946,-0.96277 -1.70432,-4.2406 -4.06462,-9.83347 z" />
    <path
       style="fill:#5bafcd;fill-opacity:1;stroke:none"
       d="m 164.34814,565.04828 13.61817,0 2.18779,0.39778 2.08833,-0.39778 4.60751,0 c 1.18132,0 1.89211,0.39985 2.85602,0.92875 0.74826,0.41057 1.80712,0.85938 2.3474,1.51169 -0.42513,0.8693 1.54711,2.66864 1.54711,4.3101 l -0.49722,14.15838 0.49722,8.34341 c 0.0989,1.6598 -0.48528,3.17811 -1.49339,4.35263 -0.55496,0.64656 -2.2829,1.1271 -2.00761,1.57306 -0.97588,0.50292 -2.08885,0.78996 -3.24953,0.82485 l -16.54088,0.49721 -5.96092,-0.49721 c -1.37824,-0.11497 -2.75976,-0.85499 -3.72887,-1.25685 -2.01093,-0.83385 -3.05769,-3.13747 -3.02166,-5.49369 l 0.18382,-12.02275 0.51229,-2.48624 -0.69611,-7.9928 c -0.21888,-2.51318 0.27607,-4.31588 2.31565,-5.47476 0.98402,-0.55911 3.21779,-1.27578 4.43488,-1.27578 z"
       id="rect2992-1"
       inkscape:connector-curvature="0"
       sodipodi:nodetypes="scccsscscsscscsssccscs"
       inkscape:export-filename="C:\Users\Evan\Code\Lemma\Assets\path3012.png"
       inkscape:export-xdpi="400.17322"
       inkscape:export-ydpi="400.17322" />
    <path
       style="fill:#5bafcd;fill-opacity:1;stroke:none"
       d="m 164.34814,523.70123 10.63987,0.97522 8.34832,-0.67689 3.51361,-0.29833 c 1.41717,-0.12033 2.72112,0.25756 3.79197,0.97781 0.77654,0.52231 0.93326,1.02577 1.41891,1.84873 0.60561,1.02625 1.44672,2.43896 1.4402,3.72511 l -0.0666,13.14272 0.4306,1.78944 -0.37191,1.58894 0.10734,6.17957 c 0.065,3.73923 -3.01074,6.75054 -6.75053,6.75054 l -10.87253,-0.49722 -11.62927,0.49722 c -1.82966,0.0782 -3.1482,-1.83567 -4.42905,-1.83717 -1.12751,-1.24516 -1.73411,-3.00764 -1.82426,-4.91337 l -0.38639,-8.16787 -0.40168,-7.3559 0.34048,-2.69254 -0.0496,-4.28548 c -0.0433,-3.73954 3.01074,-6.75053 6.75053,-6.75053 z"
       id="rect2994"
       inkscape:connector-curvature="0"
       sodipodi:nodetypes="cccsssscccsscscscccssc"
       inkscape:export-filename="C:\Users\Evan\Code\Lemma\Assets\path3012.png"
       inkscape:export-xdpi="400.17322"
       inkscape:export-ydpi="400.17322" />
    <path
       style="fill:#5bafcd;fill-opacity:1;stroke:none"
       d="m 123.28236,565.04828 10.6299,0.895 11.8719,-0.895 c 3.72921,-0.28114 6.75053,3.01074 6.75053,6.75054 l 0,6.20279 0.49722,2.38667 -0.49722,2.08835 0,11.82398 c 0,1.47798 -0.47023,2.8421 -1.26987,3.95151 -0.63417,0.87984 -1.67441,3.09115 -2.45379,2.08867 -0.90944,0.45476 -3.131,1.04 -4.2202,1.00869 l -10.38024,-0.29833 -2.58556,-0.39779 -2.98334,0.39779 -5.35933,0 c -2.14497,0 -4.84567,-1.28876 -5.28491,-2.54077 -0.48785,-1.39055 -1.46562,-2.61495 -1.46562,-4.20977 l 0,-6.25507 0.49722,-1.59112 -0.49722,-2.18778 0.71228,-6.86466 -0.11561,-5.40427 c -0.0248,-1.16171 -0.25403,-2.64967 0.63107,-3.25164 0.74002,-0.50329 1.1012,-1.86379 1.93603,-2.50402 0.97783,-0.74989 2.19618,-1.19377 3.58676,-1.19377 z"
       id="rect2998-7"
       inkscape:connector-curvature="0"
       sodipodi:nodetypes="scsscccsscscccsssccccssss"
       inkscape:export-filename="C:\Users\Evan\Code\Lemma\Assets\path3012.png"
       inkscape:export-xdpi="400.17322"
       inkscape:export-ydpi="400.17322" />
    <path
       style="fill:#5bafcd;fill-opacity:1;stroke:none"
       d="m 135.90116,523.70123 3.18223,0.39778 3.59356,-0.46443 3.10721,0.0667 c 1.10455,0.0237 2.14563,0.29614 3.06434,0.76472 0.60001,1.91314 3.85461,0.46949 3.68619,5.98581 l -0.47115,4.79016 0.6191,6.16491 -0.84406,11.84505 c -0.14236,1.99774 -0.46571,2.90151 -1.84222,4.13568 -1.19382,1.07037 -2.48262,2.42975 -4.2122,2.31653 l -7.59577,-0.49722 -9.04694,0.67412 -5.85909,-0.1769 c -1.2816,-0.0387 -2.77624,0.29136 -3.49675,-1.01988 -1.95287,-1.17902 -3.25378,-3.27305 -3.25378,-5.73067 l 0,-22.50178 c 0,-3.7398 1.88335,-5.25287 5.45775,-6.35276 1.38809,-0.30231 3.90668,0.24083 5.34871,0.17362 3.20387,-0.14933 5.3994,-0.57142 8.56287,-0.57142 z"
       id="rect3000-4"
       inkscape:connector-curvature="0"
       sodipodi:nodetypes="cccscsccsssccscsscsc"
       inkscape:export-filename="C:\Users\Evan\Code\Lemma\Assets\path3012.png"
       inkscape:export-xdpi="400.17322"
       inkscape:export-ydpi="400.17322" />
    <path
       style="fill:#ffffff;fill-opacity:1;stroke:none"
       d="m 162.41927,585.48971 3.96964,5.14582 c 0,0 3.28636,1.64687 4.70474,2.79345 1.40242,1.13368 3.6756,3.96962 3.6756,3.96962 l -3.12187,2.36333 -3.78825,2.34144 1.02918,1.76428 c 0,0 -5.91324,4.38198 -9.11547,6.17498 -3.00455,1.68232 -9.4095,4.2637 -9.4095,4.2637 -0.41155,0.18648 -0.79177,-0.58647 -0.88214,-1.02917 -0.19531,-0.95675 0.40883,-1.93936 0.88214,-2.79346 1.06155,-1.91557 4.26368,-4.9988 4.26368,-4.9988 l 1.31353,-5.0695 -0.55169,-0.30604 c 0,0 -0.18795,-3.17529 -0.90886,-4.76907 -1.39771,-3.09006 -6.17499,-8.08629 -6.17499,-8.08629 0,0 -4.42114,-2.47618 -6.66537,-3.65142 -1.064,-0.5572 -2.12325,-1.12815 -3.2228,-1.6114 -1.29034,-0.56709 -2.7301,-0.80239 -3.95054,-1.50743 -0.83183,-0.48055 -1.73303,-1.00034 -2.23517,-1.81932 -0.47252,-0.77068 -0.65727,-1.75109 -0.57178,-2.65103 0.0712,-0.74969 0.35117,-1.54673 0.88367,-2.07923 0.5325,-0.5325 1.36267,-0.65202 2.07923,-0.88366 0.37196,-0.12025 1.14357,-0.2599 1.14357,-0.2599 0,0 -0.36386,-0.88368 -0.41585,-1.14358 -0.052,-0.2599 -0.23853,-1.63781 0.10397,-2.33912 0.40989,-0.83931 1.29597,-1.4012 2.13121,-1.81933 1.12765,-0.56451 2.43568,-0.70764 3.69063,-0.8317 l 10.91593,-0.93564 c 0,0 -1.93759,0.0452 -2.85894,-0.20793 -0.85928,-0.23607 -1.71667,-0.61313 -2.3911,-1.19555 -1.1678,-1.00847 -1.85004,-2.4758 -2.65102,-3.79459 -1.10638,-1.82161 -2.9629,-5.6659 -2.9629,-5.6659 l -1.26272,-1.73055 -1.34137,-1.02617 -4.54614,0.61614 -1.92423,3.10043 -1.39672,0.44107 -0.88214,-0.18377 -0.77187,-0.51459 c 0,0 -0.31156,0.13591 -0.47783,0.14703 -0.14872,0.01 -0.30854,-0.005 -0.44108,-0.0734 -0.0924,-0.0476 -0.22053,-0.22054 -0.22053,-0.22054 0,0 -0.38028,0.0672 -0.55134,0 -0.21788,-0.0856 -0.51458,-0.47782 -0.51458,-0.47782 l -0.2573,-0.2573 c 0,0 -0.37781,0.29307 -0.58809,0.40431 -0.20915,0.11066 -0.42524,0.26826 -0.6616,0.25729 -0.21893,-0.0102 -0.43497,-0.13723 -0.58809,-0.29404 -0.32164,-0.3294 -0.3763,-0.84092 -0.58809,-1.2497 -0.2398,-0.46281 -0.4502,-0.94981 -0.77188,-1.35996 -0.18721,-0.2387 -0.40539,-0.46247 -0.66161,-0.62486 -0.51118,-0.324 -1.17556,-0.34406 -1.69077,-0.6616 -0.68689,-0.42334 -1.27419,-1.00615 -1.80104,-1.61726 -0.53696,-0.62283 -1.35997,-2.05833 -1.35997,-2.05833 l -0.3308,-1.47024 c 0,0 -0.25652,-2.09874 -0.0735,-3.12425 0.21064,-1.18036 0.75326,-2.28991 1.32321,-3.34478 0.43466,-0.80448 0.95216,-1.57781 1.5805,-2.24211 0.51544,-0.54493 1.12452,-1.00517 1.76429,-1.39672 0.80432,-0.49225 2.57291,-1.17618 2.57291,-1.17618 0,0 0.16798,-1.41514 0.55134,-1.98482 0.60473,-0.89865 1.59681,-1.51524 2.57291,-1.98483 0.84668,-0.40732 2.73809,-0.66924 2.73809,-0.66924 l 2.73853,-1.31272 c 0,0 12.07851,-7.2568 12.77014,-7.05193 0.74671,0.22118 1.26769,1.04045 2.0403,1.13824 1.19203,0.15087 3.48616,-0.91648 3.48616,-0.91648 l -2.02136,2.30395 c 0,0 0.62207,1.90188 0.003,1.96832 -4.41824,0.47451 -11.6945,4.01059 -11.6945,4.01059 l -2.89622,1.77114 c 0,0 -0.73857,1.14242 -1.94416,1.2758 -1.65655,0.18326 -3.89733,0.97414 -3.89733,0.97414 l 1.28646,2.05833 c 0,0 1.35653,0.86213 1.91131,1.43348 0.49143,0.5061 0.8803,1.1111 1.21941,1.72967 0.29241,0.5334 0.48028,1.11834 0.69189,1.68863 0.0809,0.21795 0.0919,0.46799 0.22053,0.66161 0.32197,0.48449 1.31262,1.15002 1.31262,1.15002 l 3.19776,-1.32321 3.89612,-1.72752 1.94806,-0.44107 1.4335,-0.73512 c 0,0 0.51173,-0.62743 0.84537,-0.84538 1.55241,-1.01413 5.18258,-2.02158 5.18258,-2.02158 l 4.77541,-2.42804 5.71787,-3.79458 3.95052,-2.80696 4.57431,-2.96289 4.62628,-2.65101 3.43072,-1.55942 5.30203,-2.85894 3.27479,-2.28715 4.10646,-2.39111 3.11884,-1.6114 2.91092,-0.98764 0.5198,0.20792 0.59255,0.0713 0.18378,0.51458 -0.44107,0.44107 -0.5881,0.25729 0.3308,0.14702 0.0367,0.69837 -0.3308,0.47782 -0.91889,0.66161 -2.31563,1.32322 -1.35995,0.88213 -0.88214,0.80863 -0.33083,0.47783 -0.11025,0.73511 0.77188,-0.22053 1.91129,-0.9189 1.10268,-0.18377 0.51459,0.4043 0.0367,0.47783 -0.33081,0.29406 -0.95565,0.40431 -1.02917,0.6616 -1.80103,1.24971 -2.20535,0.77186 -1.43349,0.11027 -1.17618,-0.3308 -0.84538,0.0367 -2.02158,1.10267 -2.8302,2.02158 -3.38155,2.8302 -2.83019,1.98482 -2.71994,1.69077 -4.30044,2.20534 -1.2497,0.62486 -1.50698,1.2497 -1.13944,0.99241 -2.09508,1.61726 -2.1686,1.654 2.13184,-0.29404 1.9113,-0.11026 3.38154,0.36756 3.67559,-0.44107 2.4994,-0.55134 2.49939,-0.44107 3.85937,-0.18378 c 0,0 0.32313,0.14357 0.36756,0.29404 0.0549,0.18579 -0.18378,0.55134 -0.18378,0.55134 0,0 0.32595,0.0885 0.40432,0.22053 0.10632,0.17911 0.10262,0.44361 0,0.62485 -0.1056,0.18651 -0.7978,0.53619 -0.7978,0.53619 0,0 0.60862,0.122 0.65078,0.34596 0.0352,0.18692 -0.0314,0.4003 -0.14703,0.55133 -0.16349,0.2136 -0.69836,0.40432 -0.69836,0.40432 l -2.05832,0.40431 -1.507,0.18378 2.64643,0.18378 c 0,0 0.71932,0.01 0.91889,0.25729 0.13091,0.16246 0.1557,0.45345 0.0367,0.62485 -0.19005,0.27378 -0.95565,0.29404 -0.95565,0.29404 l -2.24211,0.11028 -1.43349,0 c 0,0 -0.19911,0.47919 -0.17573,0.7276 0.0216,0.23033 -0.002,0.1805 -0.002,0.1805 0,0 1.06827,0.10525 1.54375,0.3308 0.28353,0.13449 0.59918,0.30526 0.73512,0.58809 0.0796,0.16564 0.12084,0.41287 0,0.55134 -0.34487,0.39516 -1.45536,0.0694 -1.45536,0.0694 -0.80025,0.12605 -1.90306,-0.002 -1.90306,-0.002 0,0 -1.16704,-0.39761 -1.61547,-0.66753 -0.4908,-0.2954 -0.65232,-0.49872 -1.05407,-0.90706 -0.23767,-0.24156 -0.37406,-0.32001 -0.37406,-0.32001 0,0 -0.65368,-0.21091 -0.99241,-0.22053 -0.60805,-0.0173 -1.80104,0.29404 -1.80104,0.29404 l -3.30803,0.80864 -2.38914,0.44107 -2.27885,0.14702 -2.13185,-0.18379 -1.24969,0.62487 -0.9189,0.66159 2.53615,3.0875 1.50699,2.20535 1.8378,2.97724 1.61725,2.05832 1.80104,1.50699 3.38155,1.54375 c 0,0 2.50929,1.1556 3.7491,1.76428 1.06243,0.52158 2.17198,0.96712 3.161,1.61725 0.72271,0.47509 1.41263,1.01786 2.00085,1.65191 1.08222,1.16656 1.9951,2.50046 2.75497,3.89856 0.57925,1.06576 1.06713,2.19954 1.3515,3.37874 0.17542,0.72742 0.17323,1.4877 0.20792,2.23517 0.0482,1.03849 0.25159,2.11012 0,3.11884 -0.22322,0.89498 -0.71961,1.72578 -1.29952,2.44309 -0.81176,1.00408 -1.88195,1.78891 -2.96289,2.49508 -1.05095,0.68657 -2.21009,1.20501 -3.37875,1.66338 -1.12786,0.44237 -2.30291,0.76419 -3.4827,1.03961 -0.80445,0.1878 -2.44309,0.41585 -2.44309,0.41585 0,0 -1.76803,0.77312 -2.703,0.98763 -1.22616,0.28131 -3.75494,0.37956 -3.75494,0.37956 z"
       id="path3012"
       inkscape:connector-curvature="0"
       sodipodi:nodetypes="ccsccccsssscccscssssssscsssccsssccccccccsscsccssssssssccsssscssccssccsccsccsssscccccscccccccccccccccccccccccccccccccccccccccccccccccccccccccccscsscssccccsscccscsssscsscscccccccccccccssssssssssscsc"
       inkscape:export-xdpi="400.17322"
       inkscape:export-ydpi="400.17322" />
  </g>
</svg>
