<?xml version="1.0" encoding="UTF-8" standalone="no"?>
<!-- Created with Inkscape (http://www.inkscape.org/) -->

<svg
   xmlns:dc="http://purl.org/dc/elements/1.1/"
   xmlns:cc="http://creativecommons.org/ns#"
   xmlns:rdf="http://www.w3.org/1999/02/22-rdf-syntax-ns#"
   xmlns:svg="http://www.w3.org/2000/svg"
   xmlns="http://www.w3.org/2000/svg"
   xmlns:sodipodi="http://sodipodi.sourceforge.net/DTD/sodipodi-0.dtd"
   xmlns:inkscape="http://www.inkscape.org/namespaces/inkscape"
   width="526.58484"
   height="135.70395"
   id="svg2"
   version="1.1"
   inkscape:version="0.48.4 r9939"
   sodipodi:docname="header.svg"
   inkscape:export-filename="C:\Users\Evan\Work\Lemma\Assets\header.png"
   inkscape:export-xdpi="89.970001"
   inkscape:export-ydpi="89.970001">
  <defs
     id="defs4" />
  <sodipodi:namedview
     id="base"
     pagecolor="#ffffff"
     bordercolor="#666666"
     borderopacity="1.0"
     inkscape:pageopacity="0.0"
     inkscape:pageshadow="2"
     inkscape:zoom="2.7497943"
     inkscape:cx="263.29242"
     inkscape:cy="67.851974"
     inkscape:document-units="px"
     inkscape:current-layer="layer1"
     showgrid="true"
     fit-margin-top="0"
     fit-margin-left="0"
     fit-margin-right="0"
     fit-margin-bottom="0"
     inkscape:window-width="1920"
     inkscape:window-height="1057"
     inkscape:window-x="-8"
     inkscape:window-y="-8"
     inkscape:window-maximized="1" />
  <metadata
     id="metadata7">
    <rdf:RDF>
      <cc:Work
         rdf:about="">
        <dc:format>image/svg+xml</dc:format>
        <dc:type
           rdf:resource="http://purl.org/dc/dcmitype/StillImage" />
        <dc:title></dc:title>
      </cc:Work>
    </rdf:RDF>
  </metadata>
  <g
     inkscape:label="Layer 1"
     inkscape:groupmode="layer"
     id="layer1"
     transform="translate(-95.155937,-491.78497)">
    <rect
       style="fill:#000000;fill-opacity:1;stroke:none"
       id="rect2993"
       width="526.58484"
       height="135.70395"
       x="95.155937"
       y="491.78497" />
    <g
       id="g3009">
      <g
         clip-path="none"
         id="g3003"
         transform="matrix(0.39709882,0,0,0.39709882,24.765813,344.05904)">
        <rect
           inkscape:tile-y0="316.09942"
           inkscape:tile-x0="34.441723"
           style="fill:#5bafcd;fill-opacity:1;stroke:none"
           id="use3102-1"
           width="81.923599"
           height="81.923599"
           x="46.482937"
           y="-632.52484"
           transform="matrix(-0.70710678,0.70710678,-0.70710678,-0.70710678,0,0)" />
        <rect
           inkscape:tile-y0="316.09942"
           inkscape:tile-x0="34.441723"
           style="fill:#5bafcd;fill-opacity:1;stroke:none"
           id="use3104-7"
           width="81.923599"
           height="81.923599"
           x="140.69513"
           y="-632.52484"
           transform="matrix(-0.70710678,0.70710678,-0.70710678,-0.70710678,0,0)" />
        <rect
           inkscape:tile-y0="316.09942"
           inkscape:tile-x0="34.441723"
           style="fill:#5bafcd;fill-opacity:1;stroke:none"
           id="use3106-4"
           width="81.923599"
           height="81.923599"
           x="46.482937"
           y="-726.737"
           transform="matrix(-0.70710678,0.70710678,-0.70710678,-0.70710678,0,0)" />
        <rect
           inkscape:tile-y0="316.09942"
           inkscape:tile-x0="34.441723"
           style="fill:#5bafcd;fill-opacity:1;stroke:none"
           id="use3108-0"
           width="81.923599"
           height="81.923599"
           x="140.69513"
           y="-726.737"
           transform="matrix(-0.70710678,0.70710678,-0.70710678,-0.70710678,0,0)" />
      </g>
      <path
         inkscape:export-filename="C:\Users\Evan\Code\Lemma\Lemma\Content\Images\logo.png"
         style="fill:#ffffff;fill-opacity:1;stroke:none"
         d="m 161.37457,576.67625 -3.77613,5.03299 0.39602,0.69283 c 0,0 -1.38452,0.37267 -1.82613,0.70505 0,0 -0.52064,0.43449 -1.22169,1.1193 l -1.47088,0.89966 c -1.44203,0.88205 -1.01598,1.48098 -1.01598,1.48098 l 0.0745,1.14381 c 0,0 0.68666,1.3936 1.51207,2.1711 0.8254,0.7775 3.54776,2.16821 3.54776,2.16821 0,0 -0.76859,0.6991 -0.85114,1.1557 -0.0826,0.45658 0.36886,1.29723 0.36886,1.29723 l 3.42828,1.64974 c 0,0 1.40675,0.97544 2.19694,1.51952 0.84472,0.58164 2.65758,1.32689 3.09932,1.67867 0.73935,0.58878 2.42707,1.0501 4.17427,1.99161 1.26932,0.68398 4.1102,0.89136 4.1102,0.89136 0.19919,-0.59284 0.69186,-0.61187 0.74035,-1.03262 0.10481,-0.90933 -0.16292,-1.83365 -0.71143,-2.56663 -0.46799,-0.62576 -1.39657,-2.02471 -1.39657,-2.02471 l -2.48075,-1.9325 -0.0398,-0.57438 -0.39567,-0.56327 -0.099,-0.91084 -0.53312,-0.50179 0.10697,-0.72632 -0.67721,-1.35118 0.49041,-0.33055 c 0,0 -0.0818,-2.98055 0.46215,-4.52738 1.05478,-2.99903 5.11114,-8.05215 5.11114,-8.05215 0,0 3.92806,-2.67083 5.92861,-3.9503 0.94847,-0.60661 1.89138,-1.22566 2.87904,-1.76609 1.15905,-0.63421 2.48453,-0.97066 3.56709,-1.72801 0.73789,-0.5162 1.53734,-1.07467 1.93992,-1.88021 0.37878,-0.75801 0.47183,-1.68858 0.31902,-2.52209 -0.12723,-0.69434 -0.45333,-1.41596 -0.99377,-1.8701 -0.54045,-0.4541 -1.32539,-0.49844 -2.01337,-0.65667 -0.35711,-0.0821 -1.08901,-0.15001 -1.08901,-0.15001 0,0 0.26817,-0.85473 0.29565,-1.10166 0.0274,-0.24693 0.0899,-1.54885 -0.28671,-2.17602 -0.45083,-0.75058 -1.32388,-1.20348 -2.13778,-1.52625 -1.09886,-0.43577 -2.33201,-0.4634 -3.51401,-0.47752 l -2.97467,-0.57049 -7.29526,0.58162 c 0,0 1.67508,-1.16411 2.31235,-1.24802 0.51575,-0.068 1.08622,-0.16777 1.46192,-0.30695 0.78331,-0.29012 1.55348,-0.71174 2.13608,-1.31033 1.00882,-1.03646 1.75302,-2.15009 2.39414,-3.44659 0.88556,-1.79085 1.05755,-2.56841 1.71031,-4.21674 l 0.70981,-1.6899 0.74865,-1.59328 0.16896,-0.46295 c 0,0 2.17488,-0.42084 2.98762,-0.22611 0.87393,0.20938 2.43608,3.25896 3.18723,3.63534 0.61169,0.30651 1.34012,0.29868 1.34012,0.29868 l 0.80889,-0.24313 0.67912,-0.54312 c 0,0 0.30196,0.10163 0.45813,0.0986 0.13971,-0.003 0.28775,-0.0297 0.40596,-0.1043 0.0824,-0.052 0.18811,-0.22384 0.18811,-0.22384 0,0 0.36057,0.032 0.51488,-0.0447 0.19652,-0.0976 0.44181,-0.48796 0.44181,-0.48796 l 0.2194,-0.26113 c 0,0 0.37661,0.24307 0.58198,0.3299 0.20431,0.0864 0.41887,0.21605 0.63875,0.18663 0.20362,-0.0273 0.39507,-0.16341 0.52535,-0.32226 0.27368,-0.33368 0.28326,-0.81581 0.44789,-1.21473 0.18644,-0.45166 0.34345,-0.92351 0.61062,-1.33262 0.15547,-0.23807 0.34106,-0.46475 0.56717,-0.63717 0.4511,-0.344 1.06994,-0.4166 1.52534,-0.75491 0.60717,-0.45103 1.10834,-1.0429 1.55083,-1.65632 0.45095,-0.62518 1.10318,-2.03247 1.10318,-2.03247 l 0.18974,-1.39983 c 0,0 0.0695,-1.98074 -0.18462,-2.92361 -0.29242,-1.08523 -0.8891,-2.07743 -1.50687,-3.01634 -0.47116,-0.71605 -1.01709,-1.39627 -1.65776,-1.96571 -0.52553,-0.46712 -2.53115,-1.64089 -3.16035,-1.95469 -0.79103,-0.3945 -2.40841,-0.81444 -2.40841,-0.81444 0,0 -0.11738,-0.48968 -0.52159,-0.99061 -0.63759,-0.7902 -0.45845,-1.38591 -1.40807,-1.74531 -0.8237,-0.31176 -2.61129,-0.40303 -2.61129,-0.40303 l -2.66385,-1.00392 c 0,0 -11.86806,-5.79778 -12.49738,-5.55038 -0.67939,0.26708 -1.09949,1.07441 -1.81307,1.22837 -1.101,0.23752 -3.32996,-0.57327 -3.32996,-0.57327 l 2.07449,1.98774 c 0,0 -0.42676,1.82654 0.15673,1.83841 4.16458,0.085 11.24636,2.79735 11.24636,2.79735 l 2.84827,1.41924 c 0,0 0.78232,1.007 1.91902,1.03383 1.56187,0.0368 1.91696,0.91652 1.91696,0.91652 l 0.83188,0.53382 c 0,0 -0.98103,0.79284 -1.79799,1.92068 -0.60772,0.839 -0.66752,1.85189 -0.93405,2.45705 -0.22984,0.52184 -0.46472,1.32927 -0.85206,1.99547 -0.38733,0.66622 -0.33456,0.90761 -0.94211,1.45371 l -1.26445,0.64674 -0.0222,-0.27751 c 0,0 -4.82618,-3.08036 -5.6344,-3.20165 -0.87174,-0.13082 -3.20479,-0.26575 -3.20479,-0.26575 0,0 -0.52876,-0.54447 -0.85804,-0.72095 -1.53193,-0.82122 -4.57867,-1.97361 -4.57867,-1.97361 l -2.30203,-1.19755 -0.51741,0.73018 -2.26207,-0.90716 -5.64739,-3.08014 -3.91682,-2.30107 -4.51204,-2.39617 -4.53526,-2.10066 -3.33026,-1.1782 -5.18318,-2.24007 -3.24367,-1.87043 -4.02876,-1.90011 -3.04321,-1.25202 c 0,0 -2.37095,-0.6885 -2.79852,-0.68635 -0.42755,0.003 -0.46857,0.23632 -0.46857,0.23632 0,0 -0.41814,-0.009 -0.54756,0.11459 -0.12945,0.1231 -0.12993,0.49546 -0.12993,0.49546 0,0 0.27531,0.27921 0.44765,0.37614 0.17238,0.0969 0.57008,0.19262 0.57008,0.19262 0,0 -0.21519,0.0199 -0.29703,0.16411 -0.0818,0.14423 0.0222,0.65516 0.0222,0.65516 0,0 0.14435,0.24532 0.34767,0.41942 0.20335,0.1741 0.91178,0.54335 0.91178,0.54335 l 2.26976,1.04801 1.34153,0.71354 0.88939,0.68366 0.34766,0.41942 0.16257,0.67756 -0.73873,-0.14339 -1.85937,-0.70318 c 0,0 -0.78337,-0.17377 -1.04469,-0.0822 -0.2613,0.0916 -0.44778,0.41927 -0.44778,0.41927 0,0 -0.0607,0.32084 0.004,0.44923 0.0653,0.12837 0.33277,0.24779 0.33277,0.24779 l 0.92525,0.30009 1.01474,0.53442 1.78325,1.02108 c 0,0 1.53666,0.47135 2.12206,0.54204 0.5854,0.0706 0.93926,0.0634 1.34764,-0.0132 0.40841,-0.0765 1.07161,-0.40427 1.07161,-0.40427 0,0 0.30886,-0.12475 0.79245,-0.0343 0.48358,0.0903 1.97727,0.86588 1.97727,0.86588 l 2.80694,1.65847 3.38737,2.36892 2.80396,1.62413 2.67715,1.35848 4.19483,1.71089 1.21771,0.48223 1.50866,1.04491 1.14452,0.8344 2.08766,1.34049 2.15927,1.36881 -2.01468,-0.10175 -1.7939,0.052 -3.12811,0.61739 -3.4683,-0.11396 -2.37881,-0.31228 -2.3699,-0.20927 -3.61903,0.14124 c 0,0 -0.29012,0.16026 -0.31943,0.30439 -0.0361,0.17795 0.21634,0.49998 0.21634,0.49998 0,0 -0.29723,0.10913 -0.35973,0.23872 -0.0847,0.17589 -0.0598,0.42259 0.0507,0.58355 0.1137,0.16559 0.78852,0.43605 0.78852,0.43605 0,0 -0.55848,0.16326 -0.57968,0.37582 -0.0179,0.17743 0.0617,0.37129 0.18199,0.50296 0.17,0.18622 0.68496,0.32098 0.68496,0.32098 l 1.95499,0.2107 1.42221,0.0495 -2.45653,0.38616 c 0,0 -0.67094,0.0677 -0.83725,0.31476 -0.10912,0.16234 -0.10861,0.43609 0.0163,0.58652 0.19967,0.24027 0.91631,0.19713 0.91631,0.19713 l 2.10276,-0.0788 1.3387,-0.11624 c 0,0 0.22479,0.43136 0.22308,0.66525 0,0.21684 0.0166,0.1684 0.0166,0.1684 0,0 -0.9891,0.18489 -1.41482,0.43407 -0.25386,0.14859 -0.53481,0.33365 -0.63886,0.60879 -0.061,0.16115 -0.0794,0.39537 0.0447,0.51489 0.35409,0.34107 1.36474,-0.0531 1.36474,-0.0531 0.75755,0.0528 1.77703,-0.15613 1.77703,-0.15613 0,0 1.05767,-0.46593 1.45457,-0.75435 0.43439,-0.31566 0.56872,-0.51863 0.91082,-0.93253 0.20237,-0.24486 0.32336,-0.32917 0.32336,-0.32917 0,0 0.59338,-0.24995 0.90892,-0.28642 0.56646,-0.0654 1.70577,0.12861 1.70577,0.12861 l 3.15484,0.48701 2.26692,0.21821 2.14008,-0.0474 1.97597,-0.34445 1.21774,0.48223 0.91173,0.54334 -2.11815,3.08895 -1.22856,2.18168 -1.4749,2.92935 -1.34346,2.05331 -1.73223,0.92143 -2.96672,1.122 c 0,0 -2.7158,0.19331 -3.68917,1.047 -0.6437,0.56457 0.8,1.66767 0.36053,2.17311 -0.19689,0.22646 -2.29761,1.80375 -2.29761,1.80375 l -0.19677,-0.21878 c 0,0 -0.56166,0.51494 -0.7344,0.65124 -0.63642,0.50227 -1.23672,1.06508 -1.73464,1.70488 -0.91606,1.17716 -1.1757,1.98432 -1.77197,3.35156 -0.45456,1.04224 -0.81827,2.1406 -0.98822,3.26488 -0.10481,0.69354 -0.0412,1.40337 -0.0131,2.10422 0.0393,0.97373 -0.0639,1.99099 0.25284,2.9126 0.28099,0.81772 0.8119,1.55333 1.41164,2.17619 0.83947,0.87189 1.90251,1.51806 2.96923,2.0899 1.0371,0.55598 2.16161,0.94618 3.29016,1.27948 1.08913,0.32171 2.21256,0.52698 3.33667,0.68855 0.76647,0.11014 2.31524,0.1903 2.31524,0.1903 0,0 1.7138,0.57867 2.60434,0.7032 1.16787,0.16332 3.53738,0.0501 3.53738,0.0501 z"
         id="path3110-9"
         inkscape:connector-curvature="0"
         sodipodi:nodetypes="cccccscczczccsssssscccccccccscssssssscssscccssssccccsscccsscsccssssssssccsssscssccssccsccsccsszcccscsccccccccccccczczczczczcccccccczczcccczzczccccccccccccccccccscsscssccccsscccscsssscsscscccccccccccccssccsssssssssscscc"
         inkscape:export-xdpi="400.17322"
         inkscape:export-ydpi="400.17322" />
    </g>
    <path
       inkscape:connector-curvature="0"
       id="path2990-3"
       style="font-size:144px;font-style:normal;font-variant:normal;font-weight:normal;font-stretch:normal;line-height:125%;letter-spacing:0px;word-spacing:0px;fill:#ffffff;fill-opacity:1;stroke:none;font-family:NeoRetroFill;-inkscape-font-specification:NeoRetroFill"
       d="m 261.79674,594.14255 c -0.52282,1.92296 -0.7842,3.05913 -0.78411,3.40851 -9e-5,0.4374 0.0866,0.9188 0.26002,1.44422 l -0.78411,0.78411 c -1.66166,0.088 -4.24069,0.13202 -7.73715,0.13201 -4.36871,1e-5 -10.98835,-0.17468 -19.85896,-0.52407 -8.87068,-0.34938 -15.53434,-0.52407 -19.99098,-0.52408 -2.01098,10e-6 -5.02609,0.088 -9.04535,0.26404 -0.52542,-6.37961 -0.78813,-14.28878 -0.78812,-23.72753 -1e-5,-3.93389 0.066,-9.83342 0.19803,-17.69865 0.13201,-7.86512 0.19801,-13.76465 0.19803,-17.69863 -2e-5,-5.59276 -0.13203,-11.18559 -0.39606,-16.77851 1.92295,-0.69867 3.7152,-1.04806 5.3768,-1.04814 0.87478,8e-5 1.70425,0.13076 2.48838,0.39204 l 0.6561,1.04817 1.18017,65.15369 c 1.04815,1.13621 3.0151,1.70428 5.90088,1.70426 l 42.2103,0 c 0.6987,0.69879 1.04809,1.48558 1.04814,2.36037 -5e-5,0.52275 -0.0441,0.95881 -0.13201,1.30819 z" />
    <path
       inkscape:connector-curvature="0"
       id="path2992-3"
       style="font-size:144px;font-style:normal;font-variant:normal;font-weight:normal;font-stretch:normal;line-height:125%;letter-spacing:0px;word-spacing:0px;fill:#ffffff;fill-opacity:1;stroke:none;font-family:NeoRetroFill;-inkscape-font-specification:NeoRetroFill"
       d="m 342.07815,596.37087 c -7e-5,0.61344 0.044,1.09485 0.13203,1.44423 l -0.78811,0.7881 c -1.13625,10e-6 -2.88317,10e-6 -5.24078,0 -2.36042,0.0854 -4.1527,0.12804 -5.3768,0.12803 -4.36872,10e-6 -10.90102,-0.0873 -19.59693,-0.26203 -8.69599,-0.17469 -15.2283,-0.26204 -19.59693,-0.26206 -5.5075,2e-5 -11.10166,0.13204 -16.7825,0.39606 -0.52274,-2.01094 -0.78412,-4.0219 -0.78411,-6.03288 -10e-6,-1.74692 0.21803,-4.36864 0.65409,-7.86518 0.43607,-3.4965 0.65409,-6.11821 0.65411,-7.86517 -2e-5,-1.39751 -0.0874,-3.45116 -0.26204,-6.16093 -0.1747,-2.7097 -0.26206,-4.76332 -0.26205,-6.16091 -10e-6,-2.53366 0.10934,-6.35689 0.32806,-11.46972 0.21869,-5.11269 0.32804,-8.93726 0.32805,-11.4737 -10e-6,-3.6698 -0.21872,-7.20901 -0.65611,-10.61759 -0.52274,-4.10719 -0.78412,-5.72344 -0.78411,-4.84871 -10e-6,-1.48547 0.78544,-2.22825 2.35635,-2.22834 0.35205,9e-5 0.89946,0.0434 1.64224,0.13003 0.74277,0.0867 1.33153,0.1301 1.76627,0.13002 0.87478,8e-5 1.57489,-0.21862 2.10031,-0.6561 4.89404,0.70151 11.36033,1.05224 19.3989,1.05215 3.05909,9e-5 7.64776,-0.0659 13.76604,-0.19803 6.11819,-0.13194 10.70687,-0.19794 13.76606,-0.19802 0.87207,8e-5 2.13892,8e-5 3.80057,0 1.74686,0.0881 3.01371,0.1321 3.80055,0.13201 0.61337,-0.17328 0.87607,-0.25995 0.78813,-0.26004 0.26129,-0.26396 0.56668,-0.39596 0.91613,-0.39605 0.52533,9e-5 0.91874,0.21877 1.18018,0.65609 l -1.04815,7.47313 c -6.20633,0.69884 -14.29018,1.04822 -24.25162,1.04814 -2.27238,8e-5 -5.68089,-0.0439 -10.22553,-0.13203 -4.5447,9e-5 -7.9532,9e-5 -10.22552,0 -2.88311,9e-5 -5.02477,0.0441 -6.42496,0.13203 l -1.96429,2.09632 c 0.26134,1.31227 0.39205,2.66712 0.39206,4.0646 -1e-5,1.13624 -0.17472,2.94984 -0.52407,5.44081 -0.34942,2.4911 -0.4801,4.43539 -0.39207,5.83287 l 0.13203,1.70425 1.44021,1.44422 c 2.1843,0.52279 4.98072,0.78417 8.38924,0.78411 7.95316,6e-5 10.92426,-0.044 8.91333,-0.13201 3.49649,0.088 6.42492,0.56946 8.78531,1.44421 l 0,6.42496 c -2.88313,0.26143 -5.72356,0.3921 -8.52127,0.39205 -9.35076,5e-5 -15.46899,0.34944 -18.35474,1.04816 l -0.65208,0.78812 0.39205,23.46349 1.70426,1.70426 c 2.01093,-0.088 4.98204,-0.13199 8.91332,-0.13201 4.10724,2e-5 10.24682,0.15337 18.41875,0.46006 8.17183,0.30672 14.31141,0.46009 18.41875,0.46007 4.01919,2e-5 7.03431,-0.044 9.04535,-0.13202 0.52534,0.61078 0.78803,1.39756 0.7881,2.36036 -7e-5,0.52276 -0.0661,1.22153 -0.19803,2.0963 -0.13209,0.87482 -0.1981,1.52958 -0.19803,1.96429 z" />
    <path
       id="path2996-5"
       style="font-size:144px;font-style:normal;font-variant:normal;font-weight:normal;font-stretch:normal;line-height:125%;letter-spacing:0px;word-spacing:0px;fill:#5bafcd;fill-opacity:1;stroke:none;font-family:NeoRetroFill;-inkscape-font-specification:NeoRetroFill"
       d="m 422.82334,584.5257 -0.39207,-1.30819 c -0.1761,-0.34938 -0.30812,-0.69876 -0.39605,-1.04815 -9e-5,-0.87479 0.0439,-2.18565 0.13201,-3.93259 -7e-5,-1.74959 -7e-5,-3.06045 0,-3.93259 -7e-5,-3.14711 -0.0874,0.91509 -0.26203,-5.33387 -0.37569,-2.43125 -0.26212,-5.81596 -0.26205,-7.46862 -7e-5,-4.19525 0.13061,-8.30253 0.39207,-12.32185 -0.17344,-0.6987 -0.56683,-1.0481 -1.18018,-1.04815 l -0.52407,0 c -2.18441,4.10734 -5.7676,10.09355 -10.74961,17.95867 -0.43747,0.52546 -0.3993,2.00651 -1.18602,3.14264 -0.26143,0.6108 -1.30374,0.87799 -1.82643,2.10215 -1.05088,2.27237 -3.23654,6.07427 -6.55698,11.4057 -2.97116,4.71805 -4.72025,8.33025 -6.29293,8.16429 -1.97852,0.14201 -2.75112,-0.5618 -4.0606,-3.44758 -1.05087,-2.44569 -2.10036,-4.89271 -3.14848,-7.34111 -5.24347,-10.48686 -10.66162,-19.61887 -16.25442,-27.39607 -1.2242,-0.34934 -2.36037,-1.13612 -3.40851,-2.36035 -0.17604,0.87484 -0.26406,1.52962 -0.26404,1.96429 -2e-5,0.78683 0.13133,1.94501 0.39406,3.47452 0.26268,1.5296 0.39404,2.68777 0.39406,3.47452 -2e-5,-0.0879 -0.39342,13.23933 -1.18017,39.98195 -1.30954,0.70145 -2.7951,1.05216 -4.45667,1.05215 -1.22419,10e-6 -3.05914,-0.17602 -5.50482,-0.52807 -0.78679,-6.37961 -1.18017,-13.85137 -1.18017,-22.41534 0,-4.28328 1.10605,-10.77224 1.36744,-19.4669 0.26136,-8.69458 -0.58334,-15.22754 -0.58333,-19.59893 -10e-6,-6.29152 -0.1307,-11.05356 -0.39207,-14.28613 1.04816,9e-5 2.57772,-0.0439 4.5887,-0.13202 2.01094,9e-5 3.4965,9e-5 4.45667,0 1.13615,9e-5 2.01027,0.54617 2.62237,1.63824 0.61208,1.09225 1.11482,2.09707 1.50824,3.01446 0.39337,0.91755 1.20082,2.38175 2.42236,4.39264 2.2723,3.75798 5.8555,10.35629 10.7496,19.79497 4.54463,8.47597 8.25986,14.98627 11.14566,19.53089 1.57352,-0.43735 3.40845,-2.53498 5.50482,-6.29292 1.0481,-1.92292 4.4611,-7.02627 11.53956,-18.56138 5.07002,-8.2145 9.43549,-16.83183 11.79592,-22.60076 0.87205,-0.96006 2.0509,-1.44013 3.53652,-1.44022 0.61335,9e-5 1.51014,0.10944 2.69041,0.32806 l 3.6722,0.19602 c 1.13614,9e-5 2.01026,0.54617 2.62239,1.63824 0.61206,1.09225 1.1148,2.09707 1.50821,3.01446 0.39338,0.91755 1.20082,2.38175 2.42237,4.39264 2.27231,3.75798 5.85551,10.35629 10.7496,19.79497 4.54464,8.47597 8.25985,14.98627 11.14566,19.53089 1.57353,-0.43735 3.40846,-2.53498 5.50482,-6.29292 1.0481,-1.92292 4.78624,-9.62729 11.86469,-21.1624 5.07001,-8.21449 9.11036,-14.23081 11.47078,-19.99974 0.87206,-0.96006 2.0509,-1.44013 3.53652,-1.44022 0.61335,9e-5 1.51016,0.10944 2.69043,0.32806 1.18007,0.21878 2.07554,0.32813 2.68638,0.32804 l 1.04817,0 c 0.52533,3.58196 0.78803,8.08261 0.78811,13.50201 -8e-5,5.68091 0.54082,13.85438 0.32221,25.17068 -0.21879,11.31639 -0.97839,20.14011 -0.97832,25.82093 -7e-5,1.31221 0.0439,3.27916 0.13204,5.90087 -9e-5,2.62175 -9e-5,4.58871 0,5.90088 -0.87489,0.43475 -1.96839,0.65211 -3.28049,0.6521 -1.57099,10e-6 -3.53662,-0.39338 -5.89688,-1.18017 l -0.39207,-1.30819 c -0.1761,-0.34939 -0.30811,-0.69876 -0.39607,-1.04817 -6e-5,-0.87478 0.044,-2.18564 0.13204,-3.93258 -7e-5,-1.74959 -7e-5,-3.06044 0,-3.93258 -7e-5,-3.14711 -0.0874,-7.84515 -0.26205,-14.09412 -0.17476,-6.24888 -0.26209,-10.90289 -0.26202,-13.96206 -7e-5,-4.19525 0.1306,-8.30253 0.39203,-12.32185 -0.17342,-0.6987 -0.56681,-1.0481 -1.18016,-1.04815 l -0.52409,0 c -2.18438,4.10734 -5.76758,10.09355 -10.74958,17.95867 -0.43746,0.52546 -1.04956,1.35625 -1.83628,2.49238 -0.26144,0.61079 -0.6535,1.52825 -1.17618,2.75241 -1.05088,2.27237 -3.23653,6.07427 -6.55698,11.4057 -2.97116,4.71805 -4.48787,8.38834 -6.35102,8.62904 -1.97853,0.142 -2.69303,-1.02655 -4.00252,-3.91233 -1.05087,-2.44569 -8.27778,-13.9963 -9.32589,-16.44469 -4.7558,-7.88583 -1.88318,-4.50043 -7.47598,-12.27764 -1.22421,-0.34933 -4.96139,-7.15097 -6.00952,-8.3752 -0.17605,0.87484 -0.26407,1.52962 -0.26405,1.96429 -2e-5,0.78683 0.13133,1.94501 0.39406,3.47452 0.26268,1.5296 0.39404,2.68777 0.39406,3.47452 -2e-5,-0.0879 -1.18018,24.72827 -1.18018,24.72827 -1.30955,0.70144 -2.7951,1.05216 -4.45667,1.05215 z"
       inkscape:connector-curvature="0"
       sodipodi:nodetypes="ccccccccccccccccccccccccccssscccccccccccccccccccccccccccccccccccccccccccccccccccccccc" />
    <path
       inkscape:connector-curvature="0"
       id="path2998-3"
       style="font-size:144px;font-style:normal;font-variant:normal;font-weight:normal;font-stretch:normal;line-height:125%;letter-spacing:0px;word-spacing:0px;fill:#ffffff;fill-opacity:1;stroke:none;font-family:NeoRetroFill;-inkscape-font-specification:NeoRetroFill"
       d="m 581.70971,599.65136 c -0.52549,1e-5 -1.35628,-0.044 -2.49236,-0.13201 -1.04824,10e-6 -1.8777,10e-6 -2.48838,0 -1.22426,-1.57356 -2.44845,-4.0646 -3.67254,-7.47312 -0.96022,-2.6217 -1.87769,-5.28743 -2.75242,-7.99719 -2.53377,-6.37958 -6.46635,-9.5694 -11.79776,-9.56942 -0.17607,2e-5 -0.52547,2e-5 -1.04815,0 -0.43745,0.088 -0.78684,0.13205 -1.04816,0.13201 -1.48561,4e-5 -3.75794,-0.10931 -6.81702,-0.32804 -3.05917,-0.21867 -5.37551,-0.32802 -6.94902,-0.32805 -0.87484,3e-5 -2.16437,0.13139 -3.86859,0.39406 -1.70429,0.26273 -2.90579,0.39408 -3.60454,0.39406 -0.61079,2e-5 -1.35356,-0.13199 -2.22832,-0.39606 -1.13621,-0.26135 -1.87898,-0.39203 -2.22835,-0.39206 -1.39757,2.09901 -3.80058,6.38098 -7.20908,12.84592 -2.88576,5.41948 -5.50749,9.57076 -7.86515,12.45385 -1.66159,0.26405 -3.32185,0.39606 -4.98075,0.39605 -1.92296,1e-5 -3.49653,-0.39337 -4.7207,-1.18016 5.41946,-10.9243 13.94073,-27.18002 25.56381,-48.76727 0.69874,-1.13612 1.70289,-2.84037 3.01244,-5.11277 0.52539,-1.22412 1.35617,-3.01572 2.49238,-5.3748 1.13614,-2.35895 2.27231,-4.67463 3.40851,-6.94703 1.3975,-2.79768 2.35897,-5.24471 2.88443,-7.3411 0.69873,-0.96272 1.74688,-1.44413 3.14447,-1.44421 0.69872,8e-5 1.6822,0.13143 2.95043,0.39406 1.26815,0.26278 2.20762,0.39414 2.81842,0.39405 l 0.39206,0 c 1.13612,2.01105 2.75369,5.02617 4.85273,9.04535 -6e-5,8e-5 0.8734,2.1844 2.62039,6.55297 2.97104,7.4305 7.34103,17.30664 13.10995,29.62843 6.72892,14.24481 11.2296,24.03293 13.50201,29.36437 -1.39763,0.52541 -3.05787,0.78812 -4.98074,0.78811 z M 555.4898,554.81669 c -0.34943,-1.04811 -0.91752,-2.66434 -1.70425,-4.84873 -1.22424,-2.27227 -2.9725,-5.68078 -5.24478,-10.22553 -0.17341,-0.0879 -0.43478,-0.13194 -0.78412,-0.13202 -0.43743,8e-5 -0.74282,0.0441 -0.91612,0.13202 -0.61348,1.39761 -2.79914,5.3742 -6.55699,11.92979 -2.79513,4.89411 -4.45536,9.08807 -4.98074,12.58187 2.62168,-0.0853 6.16087,-0.0413 10.61758,0.13203 5.15539,0.2614 8.69457,0.39209 10.61758,0.39205 1.31214,4e-5 2.31763,-0.0426 3.01646,-0.12801 -0.34946,-0.96277 -1.70432,-4.2406 -4.06462,-9.83347 z" />
  </g>
</svg>
