<?xml version="1.0" encoding="UTF-8" standalone="no"?>
<!-- Created with Inkscape (http://www.inkscape.org/) -->

<svg
   xmlns:dc="http://purl.org/dc/elements/1.1/"
   xmlns:cc="http://creativecommons.org/ns#"
   xmlns:rdf="http://www.w3.org/1999/02/22-rdf-syntax-ns#"
   xmlns:svg="http://www.w3.org/2000/svg"
   xmlns="http://www.w3.org/2000/svg"
   xmlns:sodipodi="http://sodipodi.sourceforge.net/DTD/sodipodi-0.dtd"
   xmlns:inkscape="http://www.inkscape.org/namespaces/inkscape"
   width="1280"
   height="720"
   id="svg2"
   version="1.1"
   inkscape:version="0.48.4 r9939"
   sodipodi:docname="lemma-video-title.svg"
   inkscape:export-filename="C:\Users\Evan\Desktop\lemma-video-title.png"
   inkscape:export-xdpi="90"
   inkscape:export-ydpi="90">
  <defs
     id="defs4" />
  <sodipodi:namedview
     id="base"
     pagecolor="#ffffff"
     bordercolor="#666666"
     borderopacity="1.0"
     inkscape:pageopacity="0.0"
     inkscape:pageshadow="2"
     inkscape:zoom="0.85626212"
     inkscape:cx="774.77173"
     inkscape:cy="333.29792"
     inkscape:document-units="px"
     inkscape:current-layer="layer1"
     showgrid="true"
     fit-margin-top="0"
     fit-margin-left="0"
     fit-margin-right="0"
     fit-margin-bottom="0"
     inkscape:window-width="1680"
     inkscape:window-height="1031"
     inkscape:window-x="-8"
     inkscape:window-y="-8"
     inkscape:window-maximized="1" />
  <metadata
     id="metadata7">
    <rdf:RDF>
      <cc:Work
         rdf:about="">
        <dc:format>image/svg+xml</dc:format>
        <dc:type
           rdf:resource="http://purl.org/dc/dcmitype/StillImage" />
        <dc:title />
      </cc:Work>
    </rdf:RDF>
  </metadata>
  <g
     inkscape:label="Layer 1"
     inkscape:groupmode="layer"
     id="layer1"
     transform="translate(-99.190315,-105.61072)">
    <rect
       style="fill:#000000;fill-opacity:1;stroke:none"
       id="rect3858"
       width="1280"
       height="720"
       x="99.190315"
       y="105.61072" />
    <g
       id="g3860"
       transform="matrix(2.1397579,0,0,2.1397579,-84.516285,-776.94859)">
      <path
         d="m 284.30581,604.94839 c -0.61084,2.24671 -0.91622,3.57416 -0.91612,3.98236 -10e-5,0.51104 0.1012,1.07349 0.3038,1.68736 l -0.91612,0.91612 c -1.94141,0.10283 -4.95464,0.15425 -9.03975,0.15424 -5.10421,10e-6 -12.83832,-0.20409 -23.20235,-0.6123 -10.36412,-0.4082 -18.14965,-0.6123 -23.35659,-0.61231 -2.34954,1e-5 -5.87227,0.10283 -10.56819,0.30849 -0.61388,-7.45366 -0.92082,-16.69439 -0.92081,-27.72222 -1e-5,-4.59618 0.0771,-11.48894 0.23137,-20.67833 0.15424,-9.18926 0.23135,-16.08202 0.23137,-20.67831 -2e-5,-6.53433 -0.15426,-13.06875 -0.46274,-19.60328 2.24669,-0.8163 4.34068,-1.22451 6.28202,-1.2246 1.02206,9e-5 1.99117,0.15278 2.90731,0.45804 l 0.76656,1.22464 1.37886,76.12274 c 1.22461,1.32749 3.52271,1.9912 6.89433,1.99118 l 49.31668,0 c 0.81633,0.81644 1.22454,1.73569 1.22461,2.75775 -7e-5,0.61076 -0.0515,1.12024 -0.15424,1.52843 z"
         style="font-size:144px;font-style:normal;font-variant:normal;font-weight:normal;font-stretch:normal;line-height:125%;letter-spacing:0px;word-spacing:0px;fill:#ffffff;fill-opacity:1;stroke:none;font-family:NeoRetroFill;-inkscape-font-specification:NeoRetroFill"
         id="path2990-3"
         inkscape:connector-curvature="0" />
      <path
         d="m 378.10312,607.55187 c -8e-5,0.71671 0.0514,1.27917 0.15425,1.68737 l -0.92079,0.92079 c -1.32754,10e-6 -3.36857,10e-6 -6.1231,0 -2.75781,0.0998 -4.85183,0.14959 -6.28202,0.14958 -5.10422,10e-6 -12.73628,-0.10201 -22.8962,-0.30615 -10.16002,-0.2041 -17.79208,-0.30615 -22.8962,-0.30617 -6.43472,2e-5 -12.9707,0.15426 -19.60794,0.46274 -0.61075,-2.3495 -0.91613,-4.69902 -0.91612,-7.04856 -1e-5,-2.04103 0.25473,-5.10413 0.76421,-9.18933 0.50948,-4.08516 0.76421,-7.14825 0.76423,-9.18933 -2e-5,-1.63279 -0.10213,-4.03218 -0.30615,-7.19816 -0.20412,-3.16589 -0.30618,-5.56526 -0.30617,-7.19814 -10e-6,-2.96022 0.12775,-7.42711 0.38329,-13.40072 0.25551,-5.97345 0.38327,-10.44191 0.38328,-13.40537 -10e-6,-4.28764 -0.25554,-8.4227 -0.76657,-12.40513 -0.61075,-4.79866 -0.91613,-6.68702 -0.91612,-5.66502 -1e-5,-1.73556 0.91767,-2.60339 2.75305,-2.6035 0.41132,1.1e-4 1.0509,0.0507 1.91873,0.15192 0.86782,0.10131 1.5557,0.152 2.06363,0.15191 1.02206,9e-5 1.84003,-0.25543 2.45391,-0.76656 5.71799,0.81962 13.27292,1.22939 22.66483,1.22929 3.57411,10e-5 8.93531,-0.077 16.08365,-0.23137 7.14822,-0.15415 12.50944,-0.23127 16.08366,-0.23136 1.01889,9e-5 2.49902,9e-5 4.44042,0 2.04096,0.10294 3.52109,0.15434 4.4404,0.15423 0.71663,-0.20245 1.02356,-0.30371 0.92081,-0.30381 0.30529,-0.3084 0.66209,-0.46263 1.07037,-0.46273 0.61378,1e-4 1.07342,0.2556 1.37887,0.76654 l -1.22461,8.73128 c -7.25121,0.8165 -16.69603,1.2247 -28.33454,1.22461 -2.65495,9e-5 -6.6373,-0.0513 -11.94706,-0.15426 -5.30983,1e-4 -9.29218,1e-4 -11.94705,0 -3.36851,1e-4 -5.87073,0.0515 -7.50665,0.15426 l -2.29499,2.44925 c 0.30534,1.53319 0.45805,3.11614 0.45807,4.7489 -2e-5,1.32753 -0.20414,3.44646 -0.6123,6.3568 -0.40825,2.9105 -0.56093,5.18212 -0.45808,6.81487 l 0.15425,1.99118 1.68268,1.68736 c 2.55204,0.61081 5.81926,0.91619 9.80163,0.91612 9.29212,7e-5 12.76343,-0.0514 10.41395,-0.15423 4.08514,0.10282 7.50659,0.66533 10.26437,1.68735 l 0,7.50664 c -3.36853,0.30544 -6.68716,0.45812 -9.95588,0.45806 -10.92502,6e-5 -18.0733,0.40827 -21.44488,1.22462 l -0.76187,0.92081 0.45806,27.41372 1.99118,1.99118 c 2.34949,-0.10282 5.8208,-0.15421 10.41394,-0.15424 4.79872,3e-5 11.97194,0.1792 21.51966,0.53752 9.54761,0.35836 16.72083,0.53755 21.51967,0.53752 4.69585,3e-5 8.21858,-0.0514 10.56819,-0.15424 0.61379,0.71361 0.92071,1.63285 0.92079,2.75774 -8e-5,0.61077 -0.0772,1.42718 -0.23137,2.44923 -0.15433,1.0221 -0.23145,1.78709 -0.23137,2.29499 z"
         style="font-size:144px;font-style:normal;font-variant:normal;font-weight:normal;font-stretch:normal;line-height:125%;letter-spacing:0px;word-spacing:0px;fill:#ffffff;fill-opacity:1;stroke:none;font-family:NeoRetroFill;-inkscape-font-specification:NeoRetroFill"
         id="path2992-3"
         inkscape:connector-curvature="0" />
      <path
         sodipodi:nodetypes="ccccccccccccccccccccccccccssscccccccccccccccccccccccccccccccccccccccccccccccccccccccc"
         inkscape:connector-curvature="0"
         d="m 472.44228,593.71249 -0.45807,-1.52844 c -0.20575,-0.4082 -0.36,-0.8164 -0.46273,-1.22461 -10e-5,-1.02207 0.0513,-2.55362 0.15424,-4.59467 -9e-5,-2.04414 -9e-5,-3.57569 0,-4.59466 -9e-5,-3.67695 -0.10213,1.06915 -0.30615,-6.23187 -0.43894,-2.84056 -0.30625,-6.79511 -0.30617,-8.72601 -8e-5,-4.90154 0.1526,-9.70031 0.45808,-14.39631 -0.20264,-0.81633 -0.66226,-1.22455 -1.37887,-1.22461 l -0.6123,0 c -2.55217,4.79883 -6.73862,11.79286 -12.55938,20.98213 -0.51112,0.61392 -0.46652,2.34432 -1.38569,3.67172 -0.30545,0.71363 -1.52324,1.02581 -2.13392,2.45606 -1.22781,2.65494 -3.78144,7.09691 -7.66089,13.32592 -3.47138,5.51237 -5.51494,9.73271 -7.35239,9.53881 -2.31162,0.16591 -3.21429,-0.65639 -4.74423,-4.02801 -1.22779,-2.85743 -2.45397,-5.71643 -3.67854,-8.57703 -6.12625,-12.25239 -12.45658,-22.92184 -18.99096,-32.00838 -1.43031,-0.40815 -2.75776,-1.32739 -3.98236,-2.75773 -0.20568,1.02213 -0.30851,1.78714 -0.30849,2.29499 -2e-5,0.9193 0.15344,2.27247 0.4604,4.05948 0.30691,1.78712 0.46038,3.14028 0.46041,4.05948 -3e-5,-0.10271 -0.45966,15.46826 -1.37887,46.71317 -1.53001,0.81955 -3.26567,1.2293 -5.20697,1.22929 -1.4303,10e-6 -3.57417,-0.20566 -6.4316,-0.61698 -0.91925,-7.45365 -1.37886,-16.18334 -1.37885,-26.1891 -10e-6,-5.0044 1.29226,-12.58582 1.59765,-22.74428 0.30536,-10.15837 -0.68155,-17.7912 -0.68154,-22.89854 -10e-6,-7.35074 -0.1527,-12.9145 -0.45807,-16.69129 1.22462,10e-5 3.01169,-0.0513 5.36123,-0.15425 2.3495,1.1e-4 4.08516,1.1e-4 5.20698,0 1.32743,1.1e-4 2.34871,0.63812 3.06387,1.91405 0.71513,1.27614 1.3025,2.45012 1.76216,3.52196 0.4596,1.07203 1.40298,2.78274 2.83018,5.13217 2.65486,4.39066 6.84131,12.09984 12.55936,23.12758 5.30975,9.90296 9.65046,17.50931 13.02211,22.81905 1.83843,-0.51098 3.98228,-2.96177 6.43159,-7.35238 1.22456,-2.24665 5.21216,-8.20919 13.48232,-21.68631 5.92359,-9.59746 11.02402,-19.66557 13.78184,-26.40574 1.01887,-1.12169 2.39618,-1.68259 4.13192,-1.68269 0.71661,10e-5 1.76438,0.12786 3.14335,0.38329 l 4.29044,0.22902 c 1.32742,1.1e-4 2.3487,0.63812 3.06389,1.91405 0.7151,1.27614 1.30248,2.45012 1.76213,3.52196 0.4596,1.07203 1.40298,2.78274 2.83019,5.13217 2.65487,4.39066 6.84132,12.09984 12.55936,23.12758 5.30976,9.90296 9.65045,17.50931 13.02211,22.81905 1.83844,-0.51098 3.98229,-2.96177 6.43159,-7.35238 1.22456,-2.24665 5.59204,-11.24811 13.86219,-24.72523 5.92358,-9.59745 10.64415,-16.62665 13.40196,-23.36682 1.01888,-1.12169 2.39618,-1.68259 4.13192,-1.68269 0.71661,10e-5 1.7644,0.12786 3.14337,0.38329 1.37875,0.25561 2.42498,0.38337 3.13866,0.38327 l 1.22463,0 c 0.61377,4.185 0.9207,9.44337 0.92079,15.77516 -9e-5,6.63732 0.63188,16.18685 0.37646,29.40832 -0.25562,13.22158 -1.14311,23.53083 -1.14302,30.16806 -9e-5,1.53312 0.0513,3.83122 0.15426,6.89432 -10e-5,3.06313 -10e-5,5.36124 0,6.89433 -1.02218,0.50794 -2.29978,0.76189 -3.83278,0.76188 -1.83547,10e-6 -4.13203,-0.45961 -6.88965,-1.37886 l -0.45808,-1.52843 c -0.20575,-0.40821 -0.35999,-0.8164 -0.46275,-1.22463 -8e-5,-1.02206 0.0514,-2.55361 0.15426,-4.59466 -8e-5,-2.04414 -8e-5,-3.57569 0,-4.59466 -8e-5,-3.67694 -0.10213,-9.16593 -0.30616,-16.46695 -0.20419,-7.30092 -0.30622,-12.73847 -0.30614,-16.31267 -8e-5,-4.90154 0.15259,-9.70031 0.45804,-14.39631 -0.20262,-0.81633 -0.66224,-1.22455 -1.37885,-1.22461 l -0.61232,0 c -2.55214,4.79883 -6.73859,11.79286 -12.55935,20.98213 -0.51111,0.61392 -1.22626,1.58458 -2.14543,2.91199 -0.30545,0.71362 -0.76352,1.78554 -1.37419,3.21579 -1.22781,2.65494 -3.78143,7.09691 -7.66089,13.32592 -3.47138,5.51237 -5.24344,9.80058 -7.42026,10.0818 -2.31163,0.16591 -3.14642,-1.19938 -4.67637,-4.571 -1.22779,-2.85743 -9.6714,-16.35266 -10.89596,-19.21326 -5.55648,-9.21346 -2.20023,-5.2581 -8.73461,-14.34466 -1.43032,-0.40814 -5.79668,-8.35488 -7.02127,-9.78522 -0.20569,1.02213 -0.30853,1.78714 -0.3085,2.29499 -3e-5,0.9193 0.15344,2.27247 0.4604,4.05948 0.30691,1.78712 0.46038,3.14028 0.4604,4.05948 -2e-5,-0.10271 -1.37887,28.89144 -1.37887,28.89144 -1.53002,0.81953 -3.26567,1.22929 -5.20698,1.22928 z"
         style="font-size:144px;font-style:normal;font-variant:normal;font-weight:normal;font-stretch:normal;line-height:125%;letter-spacing:0px;word-spacing:0px;fill:#5bafcd;fill-opacity:1;stroke:none;font-family:NeoRetroFill;-inkscape-font-specification:NeoRetroFill"
         id="path2996-5" />
      <path
         d="m 658.07821,611.38465 c -0.61396,1e-5 -1.58462,-0.0514 -2.91197,-0.15424 -1.22472,2e-5 -2.19382,2e-5 -2.90731,0 -1.43037,-1.83848 -2.86066,-4.7489 -4.29084,-8.73126 -1.12188,-3.06308 -2.19381,-6.17761 -3.21581,-9.34357 -2.96034,-7.45363 -7.555,-11.18047 -13.78398,-11.1805 -0.20572,3e-5 -0.61394,3e-5 -1.22462,0 -0.5111,0.10282 -0.91931,0.15428 -1.22462,0.15424 -1.73573,4e-5 -4.39062,-0.12771 -7.96471,-0.38327 -3.5742,-0.25548 -6.28051,-0.38324 -8.11894,-0.38328 -1.02212,4e-5 -2.52875,0.15351 -4.51989,0.4604 -1.99122,0.30697 -3.395,0.46043 -4.21138,0.46041 -0.71362,2e-5 -1.58145,-0.15422 -2.60348,-0.46274 -1.3275,-0.30535 -2.19532,-0.45803 -2.6035,-0.45807 -1.63286,2.45239 -4.44044,7.45526 -8.42278,15.00861 -3.3716,6.33189 -6.43471,11.18207 -9.1893,14.55054 -1.94133,0.30851 -3.8811,0.46274 -5.81929,0.46273 -2.2467,1e-5 -4.08519,-0.4596 -5.51546,-1.37885 6.33186,-12.76347 16.28774,-31.75595 29.86764,-56.97756 0.81638,-1.32739 1.98958,-3.31856 3.51961,-5.97353 0.61384,-1.43021 1.58449,-3.52344 2.91199,-6.27969 1.32741,-2.75609 2.65486,-5.46163 3.98235,-8.1166 1.63278,-3.26869 2.75612,-6.12769 3.37004,-8.57703 0.81637,-1.1248 2.04098,-1.68726 3.67386,-1.68735 0.81636,9e-5 1.96541,0.15356 3.44716,0.4604 1.48165,0.30703 2.57929,0.4605 3.29292,0.46039 l 0.45806,0 c 1.3274,2.34963 3.2173,5.87236 5.66972,10.5682 -7e-5,9e-5 1.02044,2.55216 3.06155,7.65621 3.47124,8.68147 8.57694,20.22032 15.3171,34.61656 7.86177,16.64302 13.12017,28.07903 15.77516,34.30806 -1.63293,0.61386 -3.57268,0.9208 -5.81928,0.92079 z m -30.6342,-52.38288 c -0.40826,-1.22457 -1.072,-3.1129 -1.99118,-5.66504 -1.43034,-2.65482 -3.47293,-6.63718 -6.12777,-11.94707 -0.2026,-0.1027 -0.50798,-0.15415 -0.91613,-0.15424 -0.51108,9e-5 -0.86788,0.0515 -1.07036,0.15424 -0.71676,1.63291 -3.27039,6.27898 -7.6609,13.93825 -3.2657,5.71807 -5.20545,10.61811 -5.81928,14.70011 3.06306,-0.0997 7.1981,-0.0483 12.40512,0.15426 6.02333,0.30541 10.15836,0.4581 12.40512,0.45805 1.53305,5e-5 2.70782,-0.0498 3.5243,-0.14956 -0.40829,-1.12486 -1.99125,-4.95453 -4.74892,-11.489 z"
         style="font-size:144px;font-style:normal;font-variant:normal;font-weight:normal;font-stretch:normal;line-height:125%;letter-spacing:0px;word-spacing:0px;fill:#ffffff;fill-opacity:1;stroke:none;font-family:NeoRetroFill;-inkscape-font-specification:NeoRetroFill"
         id="path2998-3"
         inkscape:connector-curvature="0" />
    </g>
    <text
       xml:space="preserve"
       style="font-size:78.19712067px;font-style:normal;font-variant:normal;font-weight:normal;font-stretch:normal;text-align:center;line-height:125%;letter-spacing:0px;word-spacing:0px;writing-mode:lr-tb;text-anchor:middle;fill:#ff0000;fill-opacity:1;stroke:none;font-family:Calibri;-inkscape-font-specification:Calibri"
       x="739.20941"
       y="681.52258"
       id="text2993"
       sodipodi:linespacing="125%"><tspan
         sodipodi:role="line"
         id="tspan2995"
         x="739.20941"
         y="681.52258">LEMMAGAME.COM</tspan></text>
    <g
       style="display:inline"
       id="g3056"
       transform="translate(0,1.2712)">
      <path
         inkscape:export-ydpi="400.17322"
         inkscape:export-xdpi="400.17322"
         inkscape:export-filename="C:\Users\Evan\Code\Lemma\Assets\path3012.png"
         sodipodi:nodetypes="scccsscscsscscsssccscs"
         inkscape:connector-curvature="0"
         id="rect2992-1"
         d="m 265.82286,440.51378 33.70754,0 5.4152,0.98458 5.16904,-0.98458 11.40444,0 c 2.92399,0 4.68333,0.98971 7.06919,2.29883 1.85209,1.01624 4.47297,2.12714 5.81026,3.74172 -1.05225,2.15169 3.82942,6.6054 3.82942,10.66832 l -1.23071,35.0447 1.23071,20.65152 c 0.2448,4.10833 -1.20116,7.86643 -3.69644,10.77359 -1.37361,1.60036 -5.65059,2.78977 -4.96923,3.89362 -2.41546,1.24483 -5.17027,1.95531 -8.0432,2.04166 l -40.9418,1.2307 -14.75442,-1.2307 c -3.41144,-0.28456 -6.83096,-2.11626 -9.22967,-3.11094 -4.97743,-2.06393 -7.56836,-7.76583 -7.4792,-13.59793 l 0.455,-29.7586 1.26803,-6.15391 -1.72303,-19.78371 c -0.54177,-6.2206 0.68335,-10.68262 5.73169,-13.55107 2.43562,-1.3839 7.96462,-3.1578 10.97718,-3.1578 z"
         style="fill:#5bafcd;fill-opacity:1;stroke:none" />
      <path
         inkscape:export-ydpi="400.17322"
         inkscape:export-xdpi="400.17322"
         inkscape:export-filename="C:\Users\Evan\Code\Lemma\Assets\path3012.png"
         sodipodi:nodetypes="cccsssscccsscscscccssc"
         inkscape:connector-curvature="0"
         id="rect2994-7"
         d="m 265.82286,338.17195 26.33571,2.41385 20.66365,-1.67543 8.69686,-0.73842 c 3.50777,-0.29784 6.73531,0.6375 9.38585,2.42028 1.92208,1.2928 2.31002,2.53896 3.5121,4.57595 1.499,2.54015 3.58088,6.03691 3.56477,9.22035 l -0.16486,32.53074 1.06583,4.42921 -0.92055,3.93292 0.26568,15.29562 c 0.16089,9.2553 -7.45215,16.70887 -16.70887,16.70887 l -26.91158,-1.23072 -28.78464,1.23072 c -4.52878,0.19356 -7.79242,-4.54364 -10.96274,-4.54735 -2.79083,-3.08201 -4.29226,-7.44448 -4.51542,-12.16152 l -0.95636,-20.21704 -0.99426,-18.20725 0.84275,-6.66455 -0.12277,-10.60738 c -0.10718,-9.25608 7.45216,-16.70885 16.70885,-16.70885 z"
         style="fill:#5bafcd;fill-opacity:1;stroke:none" />
      <path
         inkscape:export-ydpi="400.17322"
         inkscape:export-xdpi="400.17322"
         inkscape:export-filename="C:\Users\Evan\Code\Lemma\Assets\path3012.png"
         sodipodi:nodetypes="scsscccsscscccsssccccssss"
         inkscape:connector-curvature="0"
         id="rect2998-4"
         d="m 164.17722,440.51378 26.31103,2.2153 29.3852,-2.2153 c 9.23052,-0.69587 16.70887,7.45216 16.70887,16.70887 l 0,15.35309 1.23071,5.90747 -1.23071,5.16906 0,29.2666 c 0,3.65829 -1.16392,7.03475 -3.14317,9.78075 -1.5697,2.17776 -4.14448,7.65118 -6.07362,5.16985 -2.25104,1.12561 -7.7498,2.5742 -10.4458,2.4967 l -25.69305,-0.73843 -6.39976,-0.98459 -7.38436,0.98459 -13.26534,0 c -5.3092,0 -11.99396,-3.18992 -13.08115,-6.28888 -1.20755,-3.44188 -3.62772,-6.4725 -3.62772,-10.41999 l 0,-15.48249 1.23071,-3.93832 -1.23071,-5.41518 1.76305,-16.99131 -0.28618,-13.37663 c -0.0614,-2.87545 -0.62877,-6.55844 1.56204,-8.04843 1.83169,-1.24574 2.72566,-4.61323 4.79202,-6.19792 2.42032,-1.85612 5.43597,-2.95481 8.87794,-2.95481 z"
         style="fill:#5bafcd;fill-opacity:1;stroke:none" />
      <path
         inkscape:export-ydpi="400.17322"
         inkscape:export-xdpi="400.17322"
         inkscape:export-filename="C:\Users\Evan\Code\Lemma\Assets\path3012.png"
         sodipodi:nodetypes="cccscsccsssccscsscsc"
         inkscape:connector-curvature="0"
         id="rect3000-0"
         d="m 195.41113,338.17195 7.87664,0.98457 8.89474,-1.14955 7.69094,0.1651 c 2.73399,0.0586 5.31084,0.733 7.58482,1.89282 1.48516,4.7354 9.54089,1.16208 9.12405,14.81603 l -1.16622,11.85656 1.53242,15.25933 -2.08924,29.31876 c -0.35234,4.94478 -1.15269,7.18179 -4.55984,10.23659 -2.95493,2.64937 -6.14493,6.0141 -10.42599,5.73385 l -18.80099,-1.23071 -22.3929,1.66858 -14.50234,-0.43787 c -3.1722,-0.0958 -6.87172,0.72115 -8.65515,-2.5244 -4.8337,-2.9183 -8.05372,-8.10142 -8.05372,-14.1845 l 0,-55.69619 c 0,-9.25672 4.66168,-13.00185 13.50899,-15.72429 3.43577,-0.74828 9.66976,0.5961 13.23908,0.42974 7.93016,-0.36962 13.36453,-1.41437 21.19471,-1.41437 z"
         style="fill:#5bafcd;fill-opacity:1;stroke:none" />
      <path
         inkscape:export-ydpi="400.17322"
         inkscape:export-xdpi="400.17322"
         sodipodi:nodetypes="ccsccccsssscccscssssssscsssccsssccccccccsscsccssssssssccsssscssccssccsccsccsssscccccscccccccccccccccccccccccccccccccccccccccccccccccccccccccccscsscssccccsscccscsssscsscscccccccccccccssssssssssscsc"
         inkscape:connector-curvature="0"
         id="path3012"
         d="m 261.04853,491.11022 9.8256,12.73689 c 0,0 8.13439,4.07631 11.64515,6.91431 3.47124,2.80605 9.09781,9.82557 9.09781,9.82557 l -7.72725,5.84969 -9.37661,5.79551 2.5474,4.36693 c 0,0 -14.63641,10.84624 -22.56251,15.28425 -7.43686,4.16407 -23.29031,10.55347 -23.29031,10.55347 -1.01866,0.46158 -1.95978,-1.45161 -2.18349,-2.54738 -0.4834,-2.36815 1.01194,-4.8003 2.18349,-6.91436 2.62754,-4.74139 10.5534,-12.37298 10.5534,-12.37298 l 3.25126,-12.54798 -1.36557,-0.75751 c 0,0 -0.4652,-7.85944 -2.2496,-11.80435 -3.45957,-7.64849 -15.28427,-20.01511 -15.28427,-20.01511 0,0 -10.94317,-6.12901 -16.49807,-9.03796 -2.6336,-1.37918 -5.25544,-2.79236 -7.97704,-3.98852 -3.19381,-1.40366 -6.75749,-1.98607 -9.77831,-3.73118 -2.05897,-1.18945 -4.28959,-2.47603 -5.53247,-4.50318 -1.16958,-1.90756 -1.6269,-4.33427 -1.41527,-6.56179 0.17623,-1.85562 0.86922,-3.82844 2.18726,-5.14649 1.31804,-1.31804 3.37284,-1.61387 5.14646,-2.18723 0.92067,-0.29763 2.83058,-0.64329 2.83058,-0.64329 0,0 -0.90062,-2.18728 -1.02932,-2.83059 -0.1287,-0.64329 -0.5904,-4.05389 0.25733,-5.78976 1.01458,-2.07746 3.2078,-3.46825 5.27516,-4.50319 2.79114,-1.39728 6.02879,-1.75155 9.135,-2.05862 l 27.01901,-2.31588 c 0,0 -4.79588,0.11187 -7.07642,-0.51468 -2.12686,-0.58431 -4.24906,-1.51758 -5.91843,-2.95921 -2.89051,-2.49615 -4.57917,-6.12808 -6.56175,-9.39233 -2.73853,-4.50883 -7.33375,-14.02418 -7.33375,-14.02418 l -3.12547,-4.28345 -3.32015,-2.53996 -11.25256,1.52506 -4.76286,7.67416 -3.45715,1.09173 -2.18343,-0.45486 -1.91055,-1.27372 c 0,0 -0.77115,0.33641 -1.18273,0.36394 -0.36809,0.0247 -0.76367,-0.0124 -1.09173,-0.18168 -0.22871,-0.11782 -0.54585,-0.54589 -0.54585,-0.54589 0,0 -0.94127,0.16634 -1.36468,0 -0.53929,-0.21187 -1.2737,-1.18269 -1.2737,-1.18269 l -0.63685,-0.63687 c 0,0 -0.93515,0.72541 -1.45563,1.00074 -0.51771,0.27391 -1.05255,0.66401 -1.63761,0.63685 -0.54189,-0.0252 -1.07663,-0.33967 -1.45564,-0.72781 -0.79611,-0.81533 -0.93141,-2.08144 -1.45563,-3.09324 -0.59355,-1.14555 -1.11431,-2.35096 -1.91055,-3.36617 -0.46336,-0.59081 -1.00342,-1.14469 -1.63759,-1.54664 -1.26527,-0.80196 -2.90976,-0.85162 -4.185,-1.63758 -1.70018,-1.04785 -3.15384,-2.49042 -4.45789,-4.00303 -1.32909,-1.54162 -3.36619,-5.09476 -3.36619,-5.09476 l -0.81879,-3.63913 c 0,0 -0.63494,-5.19478 -0.18193,-7.73311 0.52136,-2.92161 1.86446,-5.66794 3.27519,-8.27897 1.07588,-1.99124 2.35676,-3.90538 3.91205,-5.54965 1.27579,-1.34878 2.78339,-2.48798 4.36695,-3.45714 1.99085,-1.21844 6.36842,-2.91128 6.36842,-2.91128 0,0 0.41578,-3.50273 1.36468,-4.91281 1.49684,-2.22433 3.95243,-3.7505 6.36843,-4.91282 2.09572,-1.00821 6.77732,-1.6565 6.77732,-1.6565 l 6.77839,-3.24924 c 0,0 29.89659,-17.96196 31.6085,-17.45486 1.84826,0.54745 3.13778,2.57531 5.05016,2.81735 2.95048,0.37344 8.62892,-2.26846 8.62892,-2.26846 l -5.00326,5.70271 c 0,0 1.53974,4.70752 0.007,4.87197 -10.93599,1.17451 -28.94611,9.92698 -28.94611,9.92698 l -7.1687,4.38391 c 0,0 -1.8281,2.82771 -4.81217,3.15785 -4.10028,0.4536 -9.64663,2.4112 -9.64663,2.4112 l 3.18423,5.09474 c 0,0 3.35767,2.13393 4.73083,3.54813 1.21638,1.2527 2.17891,2.75019 3.01827,4.28126 0.7238,1.32027 1.18879,2.76811 1.71259,4.17968 0.20024,0.53947 0.22746,1.15837 0.54586,1.63762 0.7969,1.1992 3.24898,2.84652 3.24898,2.84652 l 7.91506,-3.2752 9.64365,-4.27593 4.82181,-1.09175 3.54817,-1.81956 c 0,0 1.26664,-1.553 2.09247,-2.09247 3.84251,-2.51017 12.82788,-5.00379 12.82788,-5.00379 l 11.82002,-6.00987 14.15282,-9.39231 9.77832,-6.94776 11.32226,-7.33371 11.45092,-6.56176 8.49172,-3.85986 13.1235,-7.07642 8.10574,-5.66112 10.16427,-5.91847 7.71975,-3.98852 7.20505,-2.4446 1.2866,0.51464 1.46668,0.17649 0.45489,1.27368 -1.09174,1.09173 -1.45563,0.63684 0.8188,0.3639 0.0909,1.7286 -0.81882,1.18269 -2.27443,1.63762 -5.73163,3.27522 -3.36613,2.18344 -2.18347,2.00151 -0.81884,1.18272 -0.27291,1.81954 1.91055,-0.54585 4.7308,-2.27446 2.72937,-0.45486 1.27368,1.00072 0.0909,1.18272 -0.81878,0.72785 -2.36542,1.00075 -2.54742,1.63759 -4.4579,3.09326 -5.45865,1.9105 -3.54816,0.27294 -2.91127,-0.81878 -2.09249,0.0908 -5.00379,2.72932 -7.00528,5.0038 -8.36996,7.00528 -7.00528,4.91281 -6.73235,4.18498 -10.6444,5.45863 -3.09328,1.54666 -3.73006,3.09324 -2.82033,2.4564 -5.18572,4.00303 -5.3677,4.09396 5.2767,-0.72781 4.73084,-0.27291 8.36998,0.90978 9.09778,-1.09173 6.18647,-1.36467 6.1865,-1.09173 9.55267,-0.45489 c 0,0 0.79978,0.35536 0.90978,0.72781 0.13589,0.45986 -0.45492,1.36466 -0.45492,1.36466 0,0 0.80679,0.21906 1.00077,0.54586 0.26317,0.44333 0.25401,1.09801 0,1.54662 -0.26135,0.46165 -1.97468,1.32718 -1.97468,1.32718 0,0 1.50643,0.30196 1.61078,0.85631 0.0871,0.46266 -0.0777,0.99082 -0.3639,1.36465 -0.40469,0.5287 -1.72857,1.00076 -1.72857,1.00076 l -5.09477,1.00075 -3.73011,0.45489 6.55042,0.45489 c 0,0 1.78048,0.0247 2.27446,0.63684 0.32403,0.40212 0.38538,1.12237 0.0909,1.54662 -0.47041,0.67767 -2.36542,0.72781 -2.36542,0.72781 l -5.54968,0.27297 -3.54813,0 c 0,0 -0.49286,1.18609 -0.43497,1.80095 0.0534,0.57011 -0.005,0.44677 -0.005,0.44677 0,0 2.64417,0.26051 3.82108,0.81879 0.70176,0.33288 1.48308,0.75557 1.81953,1.45563 0.19703,0.41 0.29913,1.02194 0,1.36468 -0.85362,0.9781 -3.60228,0.17177 -3.60228,0.17177 -1.98078,0.312 -4.71042,-0.005 -4.71042,-0.005 0,0 -2.88867,-0.98416 -3.99862,-1.65226 -1.2148,-0.73118 -1.61462,-1.23443 -2.60903,-2.24515 -0.58828,-0.59791 -0.92587,-0.79209 -0.92587,-0.79209 0,0 -1.61795,-0.52203 -2.45639,-0.54584 -1.50504,-0.0428 -4.4579,0.72779 -4.4579,0.72779 l -8.18801,2.00155 -5.91357,1.09173 -5.64059,0.3639 -5.27674,-0.45491 -3.09324,1.54666 -2.27446,1.63757 6.27746,7.64215 3.73009,5.45866 4.54893,7.36924 4.00297,5.09473 4.45795,3.73009 8.36995,3.82108 c 0,0 6.21099,2.86033 9.27977,4.36692 2.62971,1.29102 5.37606,2.39381 7.82405,4.003 1.78887,1.17594 3.49652,2.5194 4.95248,4.0888 2.67873,2.88746 4.93828,6.18912 6.8191,9.64968 1.43376,2.63796 2.64136,5.44428 3.34519,8.36303 0.4342,1.8005 0.42881,3.68233 0.51468,5.53247 0.1193,2.57046 0.62271,5.22295 0,7.71972 -0.55252,2.21525 -1.78118,4.27163 -3.21658,6.04711 -2.00924,2.4853 -4.65817,4.4279 -7.33372,6.1758 -2.60129,1.69939 -5.47037,2.98263 -8.36304,4.11718 -2.79169,1.09496 -5.70013,1.89152 -8.62037,2.57324 -1.99113,0.46484 -6.04711,1.02931 -6.04711,1.02931 0,0 -4.37621,1.91362 -6.69041,2.44457 -3.03501,0.6963 -9.29419,0.93948 -9.29419,0.93948 z"
         style="fill:#ffffff;fill-opacity:1;stroke:none" />
    </g>
  </g>
</svg>
