<?xml version="1.0" encoding="UTF-8" standalone="no"?>
<!-- Created with Inkscape (http://www.inkscape.org/) -->

<svg
   xmlns:dc="http://purl.org/dc/elements/1.1/"
   xmlns:cc="http://creativecommons.org/ns#"
   xmlns:rdf="http://www.w3.org/1999/02/22-rdf-syntax-ns#"
   xmlns:svg="http://www.w3.org/2000/svg"
   xmlns="http://www.w3.org/2000/svg"
   xmlns:sodipodi="http://sodipodi.sourceforge.net/DTD/sodipodi-0.dtd"
   xmlns:inkscape="http://www.inkscape.org/namespaces/inkscape"
   width="512"
   height="512"
   id="svg2"
   version="1.1"
   inkscape:version="0.48.4 r9939"
   sodipodi:docname="lemma.svg"
   inkscape:export-filename="C:\Users\et1337\Desktop\lemma.png"
   inkscape:export-xdpi="180"
   inkscape:export-ydpi="180">
  <defs
     id="defs4" />
  <sodipodi:namedview
     id="base"
     pagecolor="#ffffff"
     bordercolor="#666666"
     borderopacity="1.0"
     inkscape:pageopacity="0.0"
     inkscape:pageshadow="2"
     inkscape:zoom="1.7226562"
     inkscape:cx="256.00001"
     inkscape:cy="256.00001"
     inkscape:document-units="px"
     inkscape:current-layer="g3860"
     showgrid="true"
     fit-margin-top="0"
     fit-margin-left="0"
     fit-margin-right="0"
     fit-margin-bottom="0"
     inkscape:window-width="1680"
     inkscape:window-height="1031"
     inkscape:window-x="-8"
     inkscape:window-y="-8"
     inkscape:window-maximized="1" />
  <metadata
     id="metadata7">
    <rdf:RDF>
      <cc:Work
         rdf:about="">
        <dc:format>image/svg+xml</dc:format>
        <dc:type
           rdf:resource="http://purl.org/dc/dcmitype/StillImage" />
        <dc:title></dc:title>
      </cc:Work>
    </rdf:RDF>
  </metadata>
  <g
     inkscape:label="Layer 1"
     inkscape:groupmode="layer"
     id="layer1"
     transform="translate(-99.190315,-313.61072)">
    <rect
       style="fill:#000000;fill-opacity:1;stroke:none"
       id="rect3858"
       width="512"
       height="512"
       x="99.190315"
       y="313.61072" />
    <g
       id="g3860"
       transform="matrix(0.85590314,0,0,0.85590314,25.707675,76.365319)">
      <path
         d="m 284.30581,604.94839 c -0.61084,2.24671 -0.91622,3.57416 -0.91612,3.98236 -10e-5,0.51104 0.1012,1.07349 0.3038,1.68736 l -0.91612,0.91612 c -1.94141,0.10283 -4.95464,0.15425 -9.03975,0.15424 -5.10421,10e-6 -12.83832,-0.20409 -23.20235,-0.6123 -10.36412,-0.4082 -18.14965,-0.6123 -23.35659,-0.61231 -2.34954,1e-5 -5.87227,0.10283 -10.56819,0.30849 -0.61388,-7.45366 -0.92082,-16.69439 -0.92081,-27.72222 -1e-5,-4.59618 0.0771,-11.48894 0.23137,-20.67833 0.15424,-9.18926 0.23135,-16.08202 0.23137,-20.67831 -2e-5,-6.53433 -0.15426,-13.06875 -0.46274,-19.60328 2.24669,-0.8163 4.34068,-1.22451 6.28202,-1.2246 1.02206,9e-5 1.99117,0.15278 2.90731,0.45804 l 0.76656,1.22464 1.37886,76.12274 c 1.22461,1.32749 3.52271,1.9912 6.89433,1.99118 l 49.31668,0 c 0.81633,0.81644 1.22454,1.73569 1.22461,2.75775 -7e-5,0.61076 -0.0515,1.12024 -0.15424,1.52843 z"
         style="font-size:144px;font-style:normal;font-variant:normal;font-weight:normal;font-stretch:normal;line-height:125%;letter-spacing:0px;word-spacing:0px;fill:#ffffff;fill-opacity:1;stroke:none;font-family:NeoRetroFill;-inkscape-font-specification:NeoRetroFill"
         id="path2990-3"
         inkscape:connector-curvature="0"
         inkscape:export-filename="C:\Users\Evan\Code\Lemma\Assets\path3012.png"
         inkscape:export-xdpi="400.17322"
         inkscape:export-ydpi="400.17322" />
      <path
         d="m 378.10312,607.55187 c -8e-5,0.71671 0.0514,1.27917 0.15425,1.68737 l -0.92079,0.92079 c -1.32754,10e-6 -3.36857,10e-6 -6.1231,0 -2.75781,0.0998 -4.85183,0.14959 -6.28202,0.14958 -5.10422,10e-6 -12.73628,-0.10201 -22.8962,-0.30615 -10.16002,-0.2041 -17.79208,-0.30615 -22.8962,-0.30617 -6.43472,2e-5 -12.9707,0.15426 -19.60794,0.46274 -0.61075,-2.3495 -0.91613,-4.69902 -0.91612,-7.04856 -1e-5,-2.04103 0.25473,-5.10413 0.76421,-9.18933 0.50948,-4.08516 0.76421,-7.14825 0.76423,-9.18933 -2e-5,-1.63279 -0.10213,-4.03218 -0.30615,-7.19816 -0.20412,-3.16589 -0.30618,-5.56526 -0.30617,-7.19814 -10e-6,-2.96022 0.12775,-7.42711 0.38329,-13.40072 0.25551,-5.97345 0.38327,-10.44191 0.38328,-13.40537 -10e-6,-4.28764 -0.25554,-8.4227 -0.76657,-12.40513 -0.61075,-4.79866 -0.91613,-6.68702 -0.91612,-5.66502 -1e-5,-1.73556 0.91767,-2.60339 2.75305,-2.6035 0.41132,1.1e-4 1.0509,0.0507 1.91873,0.15192 0.86782,0.10131 1.5557,0.152 2.06363,0.15191 1.02206,9e-5 1.84003,-0.25543 2.45391,-0.76656 5.71799,0.81962 13.27292,1.22939 22.66483,1.22929 3.57411,10e-5 8.93531,-0.077 16.08365,-0.23137 7.14822,-0.15415 12.50944,-0.23127 16.08366,-0.23136 1.01889,9e-5 2.49902,9e-5 4.44042,0 2.04096,0.10294 3.52109,0.15434 4.4404,0.15423 0.71663,-0.20245 1.02356,-0.30371 0.92081,-0.30381 0.30529,-0.3084 0.66209,-0.46263 1.07037,-0.46273 0.61378,1e-4 1.07342,0.2556 1.37887,0.76654 l -1.22461,8.73128 c -7.25121,0.8165 -16.69603,1.2247 -28.33454,1.22461 -2.65495,9e-5 -6.6373,-0.0513 -11.94706,-0.15426 -5.30983,1e-4 -9.29218,1e-4 -11.94705,0 -3.36851,1e-4 -5.87073,0.0515 -7.50665,0.15426 l -2.29499,2.44925 c 0.30534,1.53319 0.45805,3.11614 0.45807,4.7489 -2e-5,1.32753 -0.20414,3.44646 -0.6123,6.3568 -0.40825,2.9105 -0.56093,5.18212 -0.45808,6.81487 l 0.15425,1.99118 1.68268,1.68736 c 2.55204,0.61081 5.81926,0.91619 9.80163,0.91612 9.29212,7e-5 12.76343,-0.0514 10.41395,-0.15423 4.08514,0.10282 7.50659,0.66533 10.26437,1.68735 l 0,7.50664 c -3.36853,0.30544 -6.68716,0.45812 -9.95588,0.45806 -10.92502,6e-5 -18.0733,0.40827 -21.44488,1.22462 l -0.76187,0.92081 0.45806,27.41372 1.99118,1.99118 c 2.34949,-0.10282 5.8208,-0.15421 10.41394,-0.15424 4.79872,3e-5 11.97194,0.1792 21.51966,0.53752 9.54761,0.35836 16.72083,0.53755 21.51967,0.53752 4.69585,3e-5 8.21858,-0.0514 10.56819,-0.15424 0.61379,0.71361 0.92071,1.63285 0.92079,2.75774 -8e-5,0.61077 -0.0772,1.42718 -0.23137,2.44923 -0.15433,1.0221 -0.23145,1.78709 -0.23137,2.29499 z"
         style="font-size:144px;font-style:normal;font-variant:normal;font-weight:normal;font-stretch:normal;line-height:125%;letter-spacing:0px;word-spacing:0px;fill:#ffffff;fill-opacity:1;stroke:none;font-family:NeoRetroFill;-inkscape-font-specification:NeoRetroFill"
         id="path2992-3"
         inkscape:connector-curvature="0"
         inkscape:export-filename="C:\Users\Evan\Code\Lemma\Assets\path3012.png"
         inkscape:export-xdpi="400.17322"
         inkscape:export-ydpi="400.17322" />
      <path
         sodipodi:nodetypes="ccccccccccccccccccccccccccssscccccccccccccccccccccccccccccccccccccccccccccccccccccccc"
         inkscape:connector-curvature="0"
         d="m 472.44228,593.71249 -0.45807,-1.52844 c -0.20575,-0.4082 -0.36,-0.8164 -0.46273,-1.22461 -10e-5,-1.02207 0.0513,-2.55362 0.15424,-4.59467 -9e-5,-2.04414 -9e-5,-3.57569 0,-4.59466 -9e-5,-3.67695 -0.10213,1.06915 -0.30615,-6.23187 -0.43894,-2.84056 -0.30625,-6.79511 -0.30617,-8.72601 -8e-5,-4.90154 0.1526,-9.70031 0.45808,-14.39631 -0.20264,-0.81633 -0.66226,-1.22455 -1.37887,-1.22461 l -0.6123,0 c -2.55217,4.79883 -6.73862,11.79286 -12.55938,20.98213 -0.51112,0.61392 -0.46652,2.34432 -1.38569,3.67172 -0.30545,0.71363 -1.52324,1.02581 -2.13392,2.45606 -1.22781,2.65494 -3.78144,7.09691 -7.66089,13.32592 -3.47138,5.51237 -5.51494,9.73271 -7.35239,9.53881 -2.31162,0.16591 -3.21429,-0.65639 -4.74423,-4.02801 -1.22779,-2.85743 -2.45397,-5.71643 -3.67854,-8.57703 -6.12625,-12.25239 -12.45658,-22.92184 -18.99096,-32.00838 -1.43031,-0.40815 -2.75776,-1.32739 -3.98236,-2.75773 -0.20568,1.02213 -0.30851,1.78714 -0.30849,2.29499 -2e-5,0.9193 0.15344,2.27247 0.4604,4.05948 0.30691,1.78712 0.46038,3.14028 0.46041,4.05948 -3e-5,-0.10271 -0.45966,15.46826 -1.37887,46.71317 -1.53001,0.81955 -3.26567,1.2293 -5.20697,1.22929 -1.4303,10e-6 -3.57417,-0.20566 -6.4316,-0.61698 -0.91925,-7.45365 -1.37886,-16.18334 -1.37885,-26.1891 -10e-6,-5.0044 1.29226,-12.58582 1.59765,-22.74428 0.30536,-10.15837 -0.68155,-17.7912 -0.68154,-22.89854 -10e-6,-7.35074 -0.1527,-12.9145 -0.45807,-16.69129 1.22462,10e-5 3.01169,-0.0513 5.36123,-0.15425 2.3495,1.1e-4 4.08516,1.1e-4 5.20698,0 1.32743,1.1e-4 2.34871,0.63812 3.06387,1.91405 0.71513,1.27614 1.3025,2.45012 1.76216,3.52196 0.4596,1.07203 1.40298,2.78274 2.83018,5.13217 2.65486,4.39066 6.84131,12.09984 12.55936,23.12758 5.30975,9.90296 9.65046,17.50931 13.02211,22.81905 1.83843,-0.51098 3.98228,-2.96177 6.43159,-7.35238 1.22456,-2.24665 5.21216,-8.20919 13.48232,-21.68631 5.92359,-9.59746 11.02402,-19.66557 13.78184,-26.40574 1.01887,-1.12169 2.39618,-1.68259 4.13192,-1.68269 0.71661,10e-5 1.76438,0.12786 3.14335,0.38329 l 4.29044,0.22902 c 1.32742,1.1e-4 2.3487,0.63812 3.06389,1.91405 0.7151,1.27614 1.30248,2.45012 1.76213,3.52196 0.4596,1.07203 1.40298,2.78274 2.83019,5.13217 2.65487,4.39066 6.84132,12.09984 12.55936,23.12758 5.30976,9.90296 9.65045,17.50931 13.02211,22.81905 1.83844,-0.51098 3.98229,-2.96177 6.43159,-7.35238 1.22456,-2.24665 5.59204,-11.24811 13.86219,-24.72523 5.92358,-9.59745 10.64415,-16.62665 13.40196,-23.36682 1.01888,-1.12169 2.39618,-1.68259 4.13192,-1.68269 0.71661,10e-5 1.7644,0.12786 3.14337,0.38329 1.37875,0.25561 2.42498,0.38337 3.13866,0.38327 l 1.22463,0 c 0.61377,4.185 0.9207,9.44337 0.92079,15.77516 -9e-5,6.63732 0.63188,16.18685 0.37646,29.40832 -0.25562,13.22158 -1.14311,23.53083 -1.14302,30.16806 -9e-5,1.53312 0.0513,3.83122 0.15426,6.89432 -10e-5,3.06313 -10e-5,5.36124 0,6.89433 -1.02218,0.50794 -2.29978,0.76189 -3.83278,0.76188 -1.83547,10e-6 -4.13203,-0.45961 -6.88965,-1.37886 l -0.45808,-1.52843 c -0.20575,-0.40821 -0.35999,-0.8164 -0.46275,-1.22463 -8e-5,-1.02206 0.0514,-2.55361 0.15426,-4.59466 -8e-5,-2.04414 -8e-5,-3.57569 0,-4.59466 -8e-5,-3.67694 -0.10213,-9.16593 -0.30616,-16.46695 -0.20419,-7.30092 -0.30622,-12.73847 -0.30614,-16.31267 -8e-5,-4.90154 0.15259,-9.70031 0.45804,-14.39631 -0.20262,-0.81633 -0.66224,-1.22455 -1.37885,-1.22461 l -0.61232,0 c -2.55214,4.79883 -6.73859,11.79286 -12.55935,20.98213 -0.51111,0.61392 -1.22626,1.58458 -2.14543,2.91199 -0.30545,0.71362 -0.76352,1.78554 -1.37419,3.21579 -1.22781,2.65494 -3.78143,7.09691 -7.66089,13.32592 -3.47138,5.51237 -5.24344,9.80058 -7.42026,10.0818 -2.31163,0.16591 -3.14642,-1.19938 -4.67637,-4.571 -1.22779,-2.85743 -9.6714,-16.35266 -10.89596,-19.21326 -5.55648,-9.21346 -2.20023,-5.2581 -8.73461,-14.34466 -1.43032,-0.40814 -5.79668,-8.35488 -7.02127,-9.78522 -0.20569,1.02213 -0.30853,1.78714 -0.3085,2.29499 -3e-5,0.9193 0.15344,2.27247 0.4604,4.05948 0.30691,1.78712 0.46038,3.14028 0.4604,4.05948 -2e-5,-0.10271 -1.37887,28.89144 -1.37887,28.89144 -1.53002,0.81953 -3.26567,1.22929 -5.20698,1.22928 z"
         style="font-size:144px;font-style:normal;font-variant:normal;font-weight:normal;font-stretch:normal;line-height:125%;letter-spacing:0px;word-spacing:0px;fill:#5bafcd;fill-opacity:1;stroke:none;font-family:NeoRetroFill;-inkscape-font-specification:NeoRetroFill"
         id="path2996-5"
         inkscape:export-filename="C:\Users\Evan\Code\Lemma\Assets\path3012.png"
         inkscape:export-xdpi="400.17322"
         inkscape:export-ydpi="400.17322" />
      <path
         d="m 658.07821,611.38465 c -0.61396,1e-5 -1.58462,-0.0514 -2.91197,-0.15424 -1.22472,2e-5 -2.19382,2e-5 -2.90731,0 -1.43037,-1.83848 -2.86066,-4.7489 -4.29084,-8.73126 -1.12188,-3.06308 -2.19381,-6.17761 -3.21581,-9.34357 -2.96034,-7.45363 -7.555,-11.18047 -13.78398,-11.1805 -0.20572,3e-5 -0.61394,3e-5 -1.22462,0 -0.5111,0.10282 -0.91931,0.15428 -1.22462,0.15424 -1.73573,4e-5 -4.39062,-0.12771 -7.96471,-0.38327 -3.5742,-0.25548 -6.28051,-0.38324 -8.11894,-0.38328 -1.02212,4e-5 -2.52875,0.15351 -4.51989,0.4604 -1.99122,0.30697 -3.395,0.46043 -4.21138,0.46041 -0.71362,2e-5 -1.58145,-0.15422 -2.60348,-0.46274 -1.3275,-0.30535 -2.19532,-0.45803 -2.6035,-0.45807 -1.63286,2.45239 -4.44044,7.45526 -8.42278,15.00861 -3.3716,6.33189 -6.43471,11.18207 -9.1893,14.55054 -1.94133,0.30851 -3.8811,0.46274 -5.81929,0.46273 -2.2467,1e-5 -4.08519,-0.4596 -5.51546,-1.37885 6.33186,-12.76347 16.28774,-31.75595 29.86764,-56.97756 0.81638,-1.32739 1.98958,-3.31856 3.51961,-5.97353 0.61384,-1.43021 1.58449,-3.52344 2.91199,-6.27969 1.32741,-2.75609 2.65486,-5.46163 3.98235,-8.1166 1.63278,-3.26869 2.75612,-6.12769 3.37004,-8.57703 0.81637,-1.1248 2.04098,-1.68726 3.67386,-1.68735 0.81636,9e-5 1.96541,0.15356 3.44716,0.4604 1.48165,0.30703 2.57929,0.4605 3.29292,0.46039 l 0.45806,0 c 1.3274,2.34963 3.2173,5.87236 5.66972,10.5682 -7e-5,9e-5 1.02044,2.55216 3.06155,7.65621 3.47124,8.68147 8.57694,20.22032 15.3171,34.61656 7.86177,16.64302 13.12017,28.07903 15.77516,34.30806 -1.63293,0.61386 -3.57268,0.9208 -5.81928,0.92079 z m -30.6342,-52.38288 c -0.40826,-1.22457 -1.072,-3.1129 -1.99118,-5.66504 -1.43034,-2.65482 -3.47293,-6.63718 -6.12777,-11.94707 -0.2026,-0.1027 -0.50798,-0.15415 -0.91613,-0.15424 -0.51108,9e-5 -0.86788,0.0515 -1.07036,0.15424 -0.71676,1.63291 -3.27039,6.27898 -7.6609,13.93825 -3.2657,5.71807 -5.20545,10.61811 -5.81928,14.70011 3.06306,-0.0997 7.1981,-0.0483 12.40512,0.15426 6.02333,0.30541 10.15836,0.4581 12.40512,0.45805 1.53305,5e-5 2.70782,-0.0498 3.5243,-0.14956 -0.40829,-1.12486 -1.99125,-4.95453 -4.74892,-11.489 z"
         style="font-size:144px;font-style:normal;font-variant:normal;font-weight:normal;font-stretch:normal;line-height:125%;letter-spacing:0px;word-spacing:0px;fill:#ffffff;fill-opacity:1;stroke:none;font-family:NeoRetroFill;-inkscape-font-specification:NeoRetroFill"
         id="path2998-3"
         inkscape:connector-curvature="0"
         inkscape:export-filename="C:\Users\Evan\Code\Lemma\Assets\path3012.png"
         inkscape:export-xdpi="400.17322"
         inkscape:export-ydpi="400.17322" />
      <path
         style="fill:#5bafcd;fill-opacity:1;stroke:none"
         d="m 163.88226,568.9989 15.91087,0 2.55612,0.46475 2.43992,-0.46475 5.38321,0 c 1.3802,0 2.21066,0.46717 3.33685,1.08511 0.87423,0.47969 2.11136,1.00406 2.7426,1.76619 -0.4967,1.01565 1.80758,3.11792 1.80758,5.03574 l -0.58093,16.54203 0.58093,9.74808 c 0.11557,1.93924 -0.56698,3.71316 -1.74482,5.08542 -0.64838,0.75541 -2.66723,1.31685 -2.3456,1.8379 -1.14017,0.58759 -2.44052,0.92295 -3.79661,0.96371 l -19.32564,0.58093 -6.96448,-0.58093 c -1.61028,-0.13432 -3.22439,-0.99893 -4.35665,-1.46844 -2.34948,-0.97424 -3.57247,-3.66569 -3.53038,-6.41859 l 0.21477,-14.04686 0.59854,-2.90481 -0.81331,-9.33844 c -0.25573,-2.9363 0.32255,-5.04249 2.70551,-6.39648 1.14968,-0.65324 3.75952,-1.49056 5.18152,-1.49056 z"
         id="rect2992"
         inkscape:connector-curvature="0"
         sodipodi:nodetypes="scccsscscsscscsssccscs"
         inkscape:export-filename="C:\Users\Evan\Code\Lemma\Assets\path3012.png"
         inkscape:export-xdpi="400.17322"
         inkscape:export-ydpi="400.17322" />
      <path
         style="fill:#5bafcd;fill-opacity:1;stroke:none"
         d="m 163.88226,520.6908 12.43116,1.13941 9.75381,-0.79085 4.10515,-0.34856 c 1.65576,-0.14059 3.17924,0.30092 4.43037,1.14244 0.90728,0.61024 1.09039,1.19846 1.6578,2.15997 0.70757,1.19903 1.69028,2.84958 1.68267,4.35225 l -0.0778,15.35539 0.50309,2.0907 -0.43452,1.85645 0.12541,7.21994 c 0.0759,4.36876 -3.51762,7.88704 -7.88703,7.88704 l -12.70299,-0.58093 -13.58713,0.58093 c -2.1377,0.0914 -3.67823,-2.14472 -5.17471,-2.14647 -1.31734,-1.45479 -2.02606,-3.514 -2.13139,-5.74057 l -0.45144,-9.54298 -0.46931,-8.59432 0.3978,-3.14584 -0.058,-5.00697 c -0.0506,-4.36912 3.51762,-7.88703 7.88703,-7.88703 z"
         id="rect2994"
         inkscape:connector-curvature="0"
         sodipodi:nodetypes="cccsssscccsscscscccssc"
         inkscape:export-filename="C:\Users\Evan\Code\Lemma\Assets\path3012.png"
         inkscape:export-xdpi="400.17322"
         inkscape:export-ydpi="400.17322" />
      <path
         style="fill:#5bafcd;fill-opacity:1;stroke:none"
         d="m 115.90279,568.9989 12.41951,1.04568 13.87061,-1.04568 c 4.35705,-0.32847 7.88703,3.51762 7.88703,7.88704 l 0,7.24707 0.58093,2.78848 -0.58093,2.43993 0,13.81463 c 0,1.72681 -0.5494,3.32058 -1.48366,4.61677 -0.74094,1.02797 -1.95631,3.61157 -2.86691,2.44031 -1.06255,0.53132 -3.65812,1.21509 -4.9307,1.17851 l -12.12781,-0.34856 -3.02086,-0.46475 -3.48561,0.46475 -6.2616,0 c -2.50609,0 -5.66147,-1.50573 -6.17466,-2.96852 -0.56999,-1.62466 -1.71237,-3.05519 -1.71237,-4.91851 l 0,-7.30815 0.58093,-1.859 -0.58093,-2.55611 0.8322,-8.02036 -0.13508,-6.31412 c -0.029,-1.35729 -0.2968,-3.09576 0.73732,-3.79907 0.86461,-0.58803 1.28659,-2.17758 2.26197,-2.92559 1.14245,-0.87614 2.56592,-1.39475 4.19062,-1.39475 z"
         id="rect2998"
         inkscape:connector-curvature="0"
         sodipodi:nodetypes="scsscccsscscccsssccccssss"
         inkscape:export-filename="C:\Users\Evan\Code\Lemma\Assets\path3012.png"
         inkscape:export-xdpi="400.17322"
         inkscape:export-ydpi="400.17322" />
      <path
         style="fill:#5bafcd;fill-opacity:1;stroke:none"
         d="m 130.64604,520.6908 3.71798,0.46475 4.19856,-0.54262 3.63033,0.0779 c 1.29051,0.0277 2.50686,0.346 3.58024,0.89347 0.70103,2.23523 4.50356,0.54853 4.30679,6.99356 l -0.55048,5.59661 0.72334,7.20282 -0.98617,13.83924 c -0.16632,2.33407 -0.54411,3.39 -2.15237,4.83195 -1.39481,1.25057 -2.90058,2.83881 -4.92135,2.70653 l -8.87457,-0.58093 -10.57005,0.78761 -6.8455,-0.20668 c -1.49737,-0.0452 -3.24364,0.34041 -4.08546,-1.19158 -2.28164,-1.37752 -3.80157,-3.82409 -3.80157,-6.69546 l 0,-26.29011 c 0,-4.36942 2.20043,-6.13722 6.3766,-7.42228 1.62178,-0.35321 4.56439,0.28137 6.2492,0.20285 3.74326,-0.17447 6.30842,-0.66763 10.00448,-0.66763 z"
         id="rect3000"
         inkscape:connector-curvature="0"
         sodipodi:nodetypes="cccscsccsssccscsscsc"
         inkscape:export-filename="C:\Users\Evan\Code\Lemma\Assets\path3012.png"
         inkscape:export-xdpi="400.17322"
         inkscape:export-ydpi="400.17322" />
      <path
         style="fill:#ffffff;fill-opacity:1;stroke:none"
         d="m 161.62865,592.88178 4.63795,6.01215 c 0,0 3.83965,1.92413 5.49682,3.26374 1.63852,1.32454 4.29441,4.63794 4.29441,4.63794 l -3.64746,2.76121 -4.42602,2.73563 1.20244,2.06131 c 0,0 -6.90877,5.11971 -10.65011,7.21458 -3.51039,1.96555 -10.99365,4.98152 -10.99365,4.98152 -0.48084,0.21788 -0.92507,-0.68521 -1.03066,-1.20244 -0.22819,-1.11782 0.47766,-2.26586 1.03066,-3.26375 1.24027,-2.23807 4.98149,-5.84038 4.98149,-5.84038 l 1.53468,-5.92299 -0.64458,-0.35756 c 0,0 -0.21959,-3.70987 -1.06187,-5.57198 -1.63302,-3.61029 -7.21459,-9.44767 -7.21459,-9.44767 0,0 -5.16547,-2.89305 -7.78753,-4.26616 -1.24313,-0.651 -2.48071,-1.31807 -3.76538,-1.88268 -1.50757,-0.66257 -3.18972,-0.93748 -4.61563,-1.76122 -0.97188,-0.56145 -2.0248,-1.16875 -2.61148,-2.12562 -0.55207,-0.90042 -0.76793,-2.04589 -0.66804,-3.09734 0.0832,-0.87591 0.41029,-1.80713 1.03244,-2.42928 0.62215,-0.62215 1.59208,-0.7618 2.42928,-1.03244 0.43458,-0.14049 1.3361,-0.30365 1.3361,-0.30365 0,0 -0.42512,-1.03245 -0.48586,-1.33611 -0.0607,-0.30365 -0.27869,-1.91355 0.12147,-2.73293 0.4789,-0.98061 1.51416,-1.6371 2.49001,-2.12562 1.3175,-0.65955 2.84575,-0.82678 4.31197,-0.97172 l 12.7537,-1.09316 c 0,0 -2.26379,0.0528 -3.34026,-0.24294 -1.00394,-0.27582 -2.00568,-0.71635 -2.79366,-1.39683 -1.3644,-1.17825 -2.1615,-2.89262 -3.09733,-4.43343 -1.29265,-2.12829 -3.46172,-6.61979 -3.46172,-6.61979 l -1.47531,-2.0219 -1.5672,-1.19894 -5.31151,0.71987 -2.24819,3.62241 -1.63187,0.51533 -1.03065,-0.21471 -0.90182,-0.60122 c 0,0 -0.36401,0.15879 -0.55828,0.17178 -0.17375,0.0116 -0.36048,-0.006 -0.51533,-0.0858 -0.10801,-0.0556 -0.25766,-0.25767 -0.25766,-0.25767 0,0 -0.4443,0.0785 -0.64416,0 -0.25456,-0.1 -0.60122,-0.55827 -0.60122,-0.55827 l -0.30061,-0.30061 c 0,0 -0.44142,0.34241 -0.6871,0.47238 -0.24437,0.12928 -0.49683,0.31342 -0.77299,0.3006 -0.25579,-0.0119 -0.5082,-0.16034 -0.6871,-0.34355 -0.37579,-0.38485 -0.43965,-0.98249 -0.6871,-1.46009 -0.28017,-0.54073 -0.52599,-1.10972 -0.90183,-1.58892 -0.21872,-0.27888 -0.47364,-0.54033 -0.77299,-0.73006 -0.59724,-0.37854 -1.37348,-0.40198 -1.97543,-0.77298 -0.80253,-0.49462 -1.4887,-1.17554 -2.10425,-1.88954 -0.62736,-0.72769 -1.58893,-2.40486 -1.58893,-2.40486 l -0.38649,-1.71776 c 0,0 -0.29971,-2.45208 -0.0859,-3.65024 0.2461,-1.37908 0.88008,-2.67543 1.54598,-3.9079 0.50784,-0.93992 1.11246,-1.84344 1.84659,-2.61958 0.60221,-0.63667 1.31384,-1.1744 2.06132,-1.63187 0.93973,-0.57513 3.00607,-1.3742 3.00607,-1.3742 0,0 0.19626,-1.65339 0.64416,-2.31898 0.70655,-1.04994 1.86565,-1.77034 3.00608,-2.31898 0.98923,-0.4759 3.19907,-0.78192 3.19907,-0.78192 l 3.19958,-1.53372 c 0,0 14.112,-8.47853 14.92007,-8.23917 0.87242,0.25842 1.48111,1.21562 2.3838,1.32987 1.39271,0.17627 4.07308,-1.07077 4.07308,-1.07077 l -2.36167,2.69183 c 0,0 0.7268,2.22208 0.004,2.2997 -5.16211,0.5544 -13.66337,4.6858 -13.66337,4.6858 l -3.38382,2.06932 c 0,0 -0.86291,1.33476 -2.27147,1.49059 -1.93544,0.21411 -4.55347,1.13815 -4.55347,1.13815 l 1.50304,2.40486 c 0,0 1.58491,1.00727 2.23309,1.67481 0.57416,0.59131 1.0285,1.29816 1.4247,2.02088 0.34165,0.6232 0.56114,1.30661 0.80838,1.97292 0.0945,0.25464 0.10733,0.54678 0.25766,0.77299 0.37617,0.56606 1.53361,1.34364 1.53361,1.34364 l 3.73612,-1.54598 4.55206,-2.01836 2.27603,-0.51533 1.67483,-0.85888 c 0,0 0.59789,-0.73307 0.9877,-0.98771 1.81377,-1.18486 6.0551,-2.36192 6.0551,-2.36192 l 5.57938,-2.83682 6.68051,-4.43342 4.61562,-3.27953 5.34442,-3.46172 5.40514,-3.09732 4.00831,-1.82196 6.19466,-3.34026 3.82612,-2.6722 4.79781,-2.79368 3.64392,-1.88269 3.40099,-1.15391 0.60731,0.24293 0.69231,0.0833 0.21472,0.60121 -0.51533,0.51533 -0.6871,0.30061 0.38649,0.17177 0.0429,0.81594 -0.3865,0.55827 -1.07359,0.77299 -2.70548,1.54599 -1.58891,1.03065 -1.03065,0.94476 -0.38652,0.55828 -0.12882,0.85887 0.90183,-0.25766 2.23307,-1.0736 1.28833,-0.21471 0.60122,0.47237 0.0429,0.55828 -0.3865,0.34356 -1.11654,0.47238 -1.20244,0.77299 -2.10425,1.4601 -2.57663,0.90181 -1.67483,0.12884 -1.3742,-0.3865 -0.9877,0.0429 -2.36193,1.28831 -3.30668,2.36193 -3.95085,3.30668 -3.30668,2.31898 -3.17785,1.97542 -5.02445,2.57662 -1.4601,0.73006 -1.76069,1.4601 -1.33127,1.15949 -2.4478,1.88953 -2.5337,1.93247 2.49075,-0.34355 2.23308,-0.12882 3.95085,0.42944 4.2944,-0.51533 2.92018,-0.64416 2.92019,-0.51533 4.50912,-0.21472 c 0,0 0.37752,0.16774 0.42944,0.34355 0.0641,0.21707 -0.21473,0.64416 -0.21473,0.64416 0,0 0.38083,0.10343 0.47239,0.25766 0.12422,0.20926 0.1199,0.51829 0,0.73005 -0.12337,0.2179 -0.93211,0.62646 -0.93211,0.62646 0,0 0.71108,0.14253 0.76034,0.4042 0.0411,0.21839 -0.0367,0.46769 -0.17178,0.64415 -0.19102,0.24956 -0.81593,0.47239 -0.81593,0.47239 l -2.40486,0.47238 -1.76071,0.21472 3.09197,0.21472 c 0,0 0.84043,0.0112 1.0736,0.3006 0.15295,0.18982 0.18191,0.5298 0.0429,0.73005 -0.22205,0.31988 -1.11654,0.34355 -1.11654,0.34355 l -2.61959,0.12884 -1.67482,0 c 0,0 -0.23264,0.55987 -0.20532,0.8501 0.0253,0.26911 -0.002,0.21089 -0.002,0.21089 0,0 1.24812,0.12297 1.80365,0.38649 0.33126,0.15713 0.70006,0.35665 0.85888,0.6871 0.093,0.19353 0.14119,0.48238 0,0.64416 -0.40293,0.46169 -1.70038,0.0811 -1.70038,0.0811 -0.93498,0.14727 -2.22345,-0.002 -2.22345,-0.002 0,0 -1.36352,-0.46455 -1.88745,-0.77991 -0.57342,-0.34514 -0.76214,-0.58269 -1.23153,-1.05977 -0.27768,-0.28223 -0.43703,-0.37389 -0.43703,-0.37389 0,0 -0.76373,-0.24641 -1.15949,-0.25766 -0.71042,-0.0202 -2.10425,0.34355 -2.10425,0.34355 l -3.86496,0.94478 -2.79137,0.51532 -2.66251,0.17178 -2.49076,-0.21473 -1.46009,0.73006 -1.0736,0.77298 2.96313,3.6073 1.7607,2.57664 2.14721,3.47847 1.88952,2.40485 2.10426,1.76071 3.95085,1.80365 c 0,0 2.93175,1.35015 4.38029,2.0613 1.2413,0.6094 2.53765,1.12994 3.69317,1.88953 0.84439,0.55507 1.65046,1.18922 2.33771,1.93002 1.26442,1.36296 2.33099,2.92143 3.21879,4.5549 0.67677,1.24519 1.24679,2.56985 1.57903,3.94758 0.20495,0.84989 0.2024,1.73816 0.24293,2.61147 0.0563,1.21333 0.29394,2.46538 0,3.64392 -0.2608,1.04566 -0.84076,2.01633 -1.51831,2.8544 -0.94842,1.17312 -2.19878,2.09008 -3.46171,2.91514 -1.22788,0.80216 -2.58217,1.40788 -3.94758,1.94342 -1.31775,0.51685 -2.69062,0.89285 -4.06904,1.21464 -0.93988,0.21942 -2.8544,0.48586 -2.8544,0.48586 0,0 -2.06569,0.90328 -3.15806,1.1539 -1.4326,0.32868 -4.38711,0.44347 -4.38711,0.44347 z"
         id="path3012"
         inkscape:connector-curvature="0"
         sodipodi:nodetypes="ccsccccsssscccscssssssscsssccsssccccccccsscsccssssssssccsssscssccssccsccsccsssscccccscccccccccccccccccccccccccccccccccccccccccccccccccccccccccscsscssccccsscccscsssscsscscccccccccccccssssssssssscsc"
         inkscape:export-xdpi="400.17322"
         inkscape:export-ydpi="400.17322" />
    </g>
  </g>
</svg>
