<?xml version="1.0" encoding="UTF-8" standalone="no"?>
<!-- Created with Inkscape (http://www.inkscape.org/) -->

<svg
   xmlns:dc="http://purl.org/dc/elements/1.1/"
   xmlns:cc="http://creativecommons.org/ns#"
   xmlns:rdf="http://www.w3.org/1999/02/22-rdf-syntax-ns#"
   xmlns:svg="http://www.w3.org/2000/svg"
   xmlns="http://www.w3.org/2000/svg"
   xmlns:sodipodi="http://sodipodi.sourceforge.net/DTD/sodipodi-0.dtd"
   xmlns:inkscape="http://www.inkscape.org/namespaces/inkscape"
   width="1280"
   height="720"
   id="svg2"
   version="1.1"
   inkscape:version="0.48.4 r9939"
   sodipodi:docname="lemma-video-title.svg"
   inkscape:export-filename="C:\Users\Evan\Desktop\lemma-video-title.png"
   inkscape:export-xdpi="90"
   inkscape:export-ydpi="90">
  <defs
     id="defs4" />
  <sodipodi:namedview
     id="base"
     pagecolor="#ffffff"
     bordercolor="#666666"
     borderopacity="1.0"
     inkscape:pageopacity="0.0"
     inkscape:pageshadow="2"
     inkscape:zoom="0.89174022"
     inkscape:cx="767.80404"
     inkscape:cy="388.90371"
     inkscape:document-units="px"
     inkscape:current-layer="layer1"
     showgrid="true"
     fit-margin-top="0"
     fit-margin-left="0"
     fit-margin-right="0"
     fit-margin-bottom="0"
     inkscape:window-width="1920"
     inkscape:window-height="1057"
     inkscape:window-x="-8"
     inkscape:window-y="-8"
     inkscape:window-maximized="1" />
  <metadata
     id="metadata7">
    <rdf:RDF>
      <cc:Work
         rdf:about="">
        <dc:format>image/svg+xml</dc:format>
        <dc:type
           rdf:resource="http://purl.org/dc/dcmitype/StillImage" />
        <dc:title />
      </cc:Work>
    </rdf:RDF>
  </metadata>
  <g
     inkscape:label="Layer 1"
     inkscape:groupmode="layer"
     id="layer1"
     transform="translate(-99.190315,-105.61072)">
    <rect
       style="fill:#000000;fill-opacity:1;stroke:none"
       id="rect3858"
       width="1280"
       height="720"
       x="99.190315"
       y="105.61072" />
    <g
       id="g3860"
       transform="matrix(2.1397579,0,0,2.1397579,-84.516285,-776.94859)">
      <path
         d="m 284.30581,604.94839 c -0.61084,2.24671 -0.91622,3.57416 -0.91612,3.98236 -10e-5,0.51104 0.1012,1.07349 0.3038,1.68736 l -0.91612,0.91612 c -1.94141,0.10283 -4.95464,0.15425 -9.03975,0.15424 -5.10421,10e-6 -12.83832,-0.20409 -23.20235,-0.6123 -10.36412,-0.4082 -18.14965,-0.6123 -23.35659,-0.61231 -2.34954,1e-5 -5.87227,0.10283 -10.56819,0.30849 -0.61388,-7.45366 -0.92082,-16.69439 -0.92081,-27.72222 -1e-5,-4.59618 0.0771,-11.48894 0.23137,-20.67833 0.15424,-9.18926 0.23135,-16.08202 0.23137,-20.67831 -2e-5,-6.53433 -0.15426,-13.06875 -0.46274,-19.60328 2.24669,-0.8163 4.34068,-1.22451 6.28202,-1.2246 1.02206,9e-5 1.99117,0.15278 2.90731,0.45804 l 0.76656,1.22464 1.37886,76.12274 c 1.22461,1.32749 3.52271,1.9912 6.89433,1.99118 l 49.31668,0 c 0.81633,0.81644 1.22454,1.73569 1.22461,2.75775 -7e-5,0.61076 -0.0515,1.12024 -0.15424,1.52843 z"
         style="font-size:144px;font-style:normal;font-variant:normal;font-weight:normal;font-stretch:normal;line-height:125%;letter-spacing:0px;word-spacing:0px;fill:#ffffff;fill-opacity:1;stroke:none;font-family:NeoRetroFill;-inkscape-font-specification:NeoRetroFill"
         id="path2990-3"
         inkscape:connector-curvature="0" />
      <path
         d="m 378.10312,607.55187 c -8e-5,0.71671 0.0514,1.27917 0.15425,1.68737 l -0.92079,0.92079 c -1.32754,10e-6 -3.36857,10e-6 -6.1231,0 -2.75781,0.0998 -4.85183,0.14959 -6.28202,0.14958 -5.10422,10e-6 -12.73628,-0.10201 -22.8962,-0.30615 -10.16002,-0.2041 -17.79208,-0.30615 -22.8962,-0.30617 -6.43472,2e-5 -12.9707,0.15426 -19.60794,0.46274 -0.61075,-2.3495 -0.91613,-4.69902 -0.91612,-7.04856 -1e-5,-2.04103 0.25473,-5.10413 0.76421,-9.18933 0.50948,-4.08516 0.76421,-7.14825 0.76423,-9.18933 -2e-5,-1.63279 -0.10213,-4.03218 -0.30615,-7.19816 -0.20412,-3.16589 -0.30618,-5.56526 -0.30617,-7.19814 -10e-6,-2.96022 0.12775,-7.42711 0.38329,-13.40072 0.25551,-5.97345 0.38327,-10.44191 0.38328,-13.40537 -10e-6,-4.28764 -0.25554,-8.4227 -0.76657,-12.40513 -0.61075,-4.79866 -0.91613,-6.68702 -0.91612,-5.66502 -1e-5,-1.73556 0.91767,-2.60339 2.75305,-2.6035 0.41132,1.1e-4 1.0509,0.0507 1.91873,0.15192 0.86782,0.10131 1.5557,0.152 2.06363,0.15191 1.02206,9e-5 1.84003,-0.25543 2.45391,-0.76656 5.71799,0.81962 13.27292,1.22939 22.66483,1.22929 3.57411,10e-5 8.93531,-0.077 16.08365,-0.23137 7.14822,-0.15415 12.50944,-0.23127 16.08366,-0.23136 1.01889,9e-5 2.49902,9e-5 4.44042,0 2.04096,0.10294 3.52109,0.15434 4.4404,0.15423 0.71663,-0.20245 1.02356,-0.30371 0.92081,-0.30381 0.30529,-0.3084 0.66209,-0.46263 1.07037,-0.46273 0.61378,1e-4 1.07342,0.2556 1.37887,0.76654 l -1.22461,8.73128 c -7.25121,0.8165 -16.69603,1.2247 -28.33454,1.22461 -2.65495,9e-5 -6.6373,-0.0513 -11.94706,-0.15426 -5.30983,1e-4 -9.29218,1e-4 -11.94705,0 -3.36851,1e-4 -5.87073,0.0515 -7.50665,0.15426 l -2.29499,2.44925 c 0.30534,1.53319 0.45805,3.11614 0.45807,4.7489 -2e-5,1.32753 -0.20414,3.44646 -0.6123,6.3568 -0.40825,2.9105 -0.56093,5.18212 -0.45808,6.81487 l 0.15425,1.99118 1.68268,1.68736 c 2.55204,0.61081 5.81926,0.91619 9.80163,0.91612 9.29212,7e-5 12.76343,-0.0514 10.41395,-0.15423 4.08514,0.10282 7.50659,0.66533 10.26437,1.68735 l 0,7.50664 c -3.36853,0.30544 -6.68716,0.45812 -9.95588,0.45806 -10.92502,6e-5 -18.0733,0.40827 -21.44488,1.22462 l -0.76187,0.92081 0.45806,27.41372 1.99118,1.99118 c 2.34949,-0.10282 5.8208,-0.15421 10.41394,-0.15424 4.79872,3e-5 11.97194,0.1792 21.51966,0.53752 9.54761,0.35836 16.72083,0.53755 21.51967,0.53752 4.69585,3e-5 8.21858,-0.0514 10.56819,-0.15424 0.61379,0.71361 0.92071,1.63285 0.92079,2.75774 -8e-5,0.61077 -0.0772,1.42718 -0.23137,2.44923 -0.15433,1.0221 -0.23145,1.78709 -0.23137,2.29499 z"
         style="font-size:144px;font-style:normal;font-variant:normal;font-weight:normal;font-stretch:normal;line-height:125%;letter-spacing:0px;word-spacing:0px;fill:#ffffff;fill-opacity:1;stroke:none;font-family:NeoRetroFill;-inkscape-font-specification:NeoRetroFill"
         id="path2992-3"
         inkscape:connector-curvature="0" />
      <path
         sodipodi:nodetypes="ccccccccccccccccccccccccccssscccccccccccccccccccccccccccccccccccccccccccccccccccccccc"
         inkscape:connector-curvature="0"
         d="m 472.44228,593.71249 -0.45807,-1.52844 c -0.20575,-0.4082 -0.36,-0.8164 -0.46273,-1.22461 -10e-5,-1.02207 0.0513,-2.55362 0.15424,-4.59467 -9e-5,-2.04414 -9e-5,-3.57569 0,-4.59466 -9e-5,-3.67695 -0.10213,1.06915 -0.30615,-6.23187 -0.43894,-2.84056 -0.30625,-6.79511 -0.30617,-8.72601 -8e-5,-4.90154 0.1526,-9.70031 0.45808,-14.39631 -0.20264,-0.81633 -0.66226,-1.22455 -1.37887,-1.22461 l -0.6123,0 c -2.55217,4.79883 -6.73862,11.79286 -12.55938,20.98213 -0.51112,0.61392 -0.46652,2.34432 -1.38569,3.67172 -0.30545,0.71363 -1.52324,1.02581 -2.13392,2.45606 -1.22781,2.65494 -3.78144,7.09691 -7.66089,13.32592 -3.47138,5.51237 -5.51494,9.73271 -7.35239,9.53881 -2.31162,0.16591 -3.21429,-0.65639 -4.74423,-4.02801 -1.22779,-2.85743 -2.45397,-5.71643 -3.67854,-8.57703 -6.12625,-12.25239 -12.45658,-22.92184 -18.99096,-32.00838 -1.43031,-0.40815 -2.75776,-1.32739 -3.98236,-2.75773 -0.20568,1.02213 -0.30851,1.78714 -0.30849,2.29499 -2e-5,0.9193 0.15344,2.27247 0.4604,4.05948 0.30691,1.78712 0.46038,3.14028 0.46041,4.05948 -3e-5,-0.10271 -0.45966,15.46826 -1.37887,46.71317 -1.53001,0.81955 -3.26567,1.2293 -5.20697,1.22929 -1.4303,10e-6 -3.57417,-0.20566 -6.4316,-0.61698 -0.91925,-7.45365 -1.37886,-16.18334 -1.37885,-26.1891 -10e-6,-5.0044 1.29226,-12.58582 1.59765,-22.74428 0.30536,-10.15837 -0.68155,-17.7912 -0.68154,-22.89854 -10e-6,-7.35074 -0.1527,-12.9145 -0.45807,-16.69129 1.22462,10e-5 3.01169,-0.0513 5.36123,-0.15425 2.3495,1.1e-4 4.08516,1.1e-4 5.20698,0 1.32743,1.1e-4 2.34871,0.63812 3.06387,1.91405 0.71513,1.27614 1.3025,2.45012 1.76216,3.52196 0.4596,1.07203 1.40298,2.78274 2.83018,5.13217 2.65486,4.39066 6.84131,12.09984 12.55936,23.12758 5.30975,9.90296 9.65046,17.50931 13.02211,22.81905 1.83843,-0.51098 3.98228,-2.96177 6.43159,-7.35238 1.22456,-2.24665 5.21216,-8.20919 13.48232,-21.68631 5.92359,-9.59746 11.02402,-19.66557 13.78184,-26.40574 1.01887,-1.12169 2.39618,-1.68259 4.13192,-1.68269 0.71661,10e-5 1.76438,0.12786 3.14335,0.38329 l 4.29044,0.22902 c 1.32742,1.1e-4 2.3487,0.63812 3.06389,1.91405 0.7151,1.27614 1.30248,2.45012 1.76213,3.52196 0.4596,1.07203 1.40298,2.78274 2.83019,5.13217 2.65487,4.39066 6.84132,12.09984 12.55936,23.12758 5.30976,9.90296 9.65045,17.50931 13.02211,22.81905 1.83844,-0.51098 3.98229,-2.96177 6.43159,-7.35238 1.22456,-2.24665 5.59204,-11.24811 13.86219,-24.72523 5.92358,-9.59745 10.64415,-16.62665 13.40196,-23.36682 1.01888,-1.12169 2.39618,-1.68259 4.13192,-1.68269 0.71661,10e-5 1.7644,0.12786 3.14337,0.38329 1.37875,0.25561 2.42498,0.38337 3.13866,0.38327 l 1.22463,0 c 0.61377,4.185 0.9207,9.44337 0.92079,15.77516 -9e-5,6.63732 0.63188,16.18685 0.37646,29.40832 -0.25562,13.22158 -1.14311,23.53083 -1.14302,30.16806 -9e-5,1.53312 0.0513,3.83122 0.15426,6.89432 -10e-5,3.06313 -10e-5,5.36124 0,6.89433 -1.02218,0.50794 -2.29978,0.76189 -3.83278,0.76188 -1.83547,10e-6 -4.13203,-0.45961 -6.88965,-1.37886 l -0.45808,-1.52843 c -0.20575,-0.40821 -0.35999,-0.8164 -0.46275,-1.22463 -8e-5,-1.02206 0.0514,-2.55361 0.15426,-4.59466 -8e-5,-2.04414 -8e-5,-3.57569 0,-4.59466 -8e-5,-3.67694 -0.10213,-9.16593 -0.30616,-16.46695 -0.20419,-7.30092 -0.30622,-12.73847 -0.30614,-16.31267 -8e-5,-4.90154 0.15259,-9.70031 0.45804,-14.39631 -0.20262,-0.81633 -0.66224,-1.22455 -1.37885,-1.22461 l -0.61232,0 c -2.55214,4.79883 -6.73859,11.79286 -12.55935,20.98213 -0.51111,0.61392 -1.22626,1.58458 -2.14543,2.91199 -0.30545,0.71362 -0.76352,1.78554 -1.37419,3.21579 -1.22781,2.65494 -3.78143,7.09691 -7.66089,13.32592 -3.47138,5.51237 -5.24344,9.80058 -7.42026,10.0818 -2.31163,0.16591 -3.14642,-1.19938 -4.67637,-4.571 -1.22779,-2.85743 -9.6714,-16.35266 -10.89596,-19.21326 -5.55648,-9.21346 -2.20023,-5.2581 -8.73461,-14.34466 -1.43032,-0.40814 -5.79668,-8.35488 -7.02127,-9.78522 -0.20569,1.02213 -0.30853,1.78714 -0.3085,2.29499 -3e-5,0.9193 0.15344,2.27247 0.4604,4.05948 0.30691,1.78712 0.46038,3.14028 0.4604,4.05948 -2e-5,-0.10271 -1.37887,28.89144 -1.37887,28.89144 -1.53002,0.81953 -3.26567,1.22929 -5.20698,1.22928 z"
         style="font-size:144px;font-style:normal;font-variant:normal;font-weight:normal;font-stretch:normal;line-height:125%;letter-spacing:0px;word-spacing:0px;fill:#5bafcd;fill-opacity:1;stroke:none;font-family:NeoRetroFill;-inkscape-font-specification:NeoRetroFill"
         id="path2996-5" />
      <path
         d="m 658.07821,611.38465 c -0.61396,1e-5 -1.58462,-0.0514 -2.91197,-0.15424 -1.22472,2e-5 -2.19382,2e-5 -2.90731,0 -1.43037,-1.83848 -2.86066,-4.7489 -4.29084,-8.73126 -1.12188,-3.06308 -2.19381,-6.17761 -3.21581,-9.34357 -2.96034,-7.45363 -7.555,-11.18047 -13.78398,-11.1805 -0.20572,3e-5 -0.61394,3e-5 -1.22462,0 -0.5111,0.10282 -0.91931,0.15428 -1.22462,0.15424 -1.73573,4e-5 -4.39062,-0.12771 -7.96471,-0.38327 -3.5742,-0.25548 -6.28051,-0.38324 -8.11894,-0.38328 -1.02212,4e-5 -2.52875,0.15351 -4.51989,0.4604 -1.99122,0.30697 -3.395,0.46043 -4.21138,0.46041 -0.71362,2e-5 -1.58145,-0.15422 -2.60348,-0.46274 -1.3275,-0.30535 -2.19532,-0.45803 -2.6035,-0.45807 -1.63286,2.45239 -4.44044,7.45526 -8.42278,15.00861 -3.3716,6.33189 -6.43471,11.18207 -9.1893,14.55054 -1.94133,0.30851 -3.8811,0.46274 -5.81929,0.46273 -2.2467,1e-5 -4.08519,-0.4596 -5.51546,-1.37885 6.33186,-12.76347 16.28774,-31.75595 29.86764,-56.97756 0.81638,-1.32739 1.98958,-3.31856 3.51961,-5.97353 0.61384,-1.43021 1.58449,-3.52344 2.91199,-6.27969 1.32741,-2.75609 2.65486,-5.46163 3.98235,-8.1166 1.63278,-3.26869 2.75612,-6.12769 3.37004,-8.57703 0.81637,-1.1248 2.04098,-1.68726 3.67386,-1.68735 0.81636,9e-5 1.96541,0.15356 3.44716,0.4604 1.48165,0.30703 2.57929,0.4605 3.29292,0.46039 l 0.45806,0 c 1.3274,2.34963 3.2173,5.87236 5.66972,10.5682 -7e-5,9e-5 1.02044,2.55216 3.06155,7.65621 3.47124,8.68147 8.57694,20.22032 15.3171,34.61656 7.86177,16.64302 13.12017,28.07903 15.77516,34.30806 -1.63293,0.61386 -3.57268,0.9208 -5.81928,0.92079 z m -30.6342,-52.38288 c -0.40826,-1.22457 -1.072,-3.1129 -1.99118,-5.66504 -1.43034,-2.65482 -3.47293,-6.63718 -6.12777,-11.94707 -0.2026,-0.1027 -0.50798,-0.15415 -0.91613,-0.15424 -0.51108,9e-5 -0.86788,0.0515 -1.07036,0.15424 -0.71676,1.63291 -3.27039,6.27898 -7.6609,13.93825 -3.2657,5.71807 -5.20545,10.61811 -5.81928,14.70011 3.06306,-0.0997 7.1981,-0.0483 12.40512,0.15426 6.02333,0.30541 10.15836,0.4581 12.40512,0.45805 1.53305,5e-5 2.70782,-0.0498 3.5243,-0.14956 -0.40829,-1.12486 -1.99125,-4.95453 -4.74892,-11.489 z"
         style="font-size:144px;font-style:normal;font-variant:normal;font-weight:normal;font-stretch:normal;line-height:125%;letter-spacing:0px;word-spacing:0px;fill:#ffffff;fill-opacity:1;stroke:none;font-family:NeoRetroFill;-inkscape-font-specification:NeoRetroFill"
         id="path2998-3"
         inkscape:connector-curvature="0" />
    </g>
    <text
       xml:space="preserve"
       style="font-size:78.19712067px;font-style:normal;font-variant:normal;font-weight:normal;font-stretch:normal;text-align:center;line-height:125%;letter-spacing:0px;word-spacing:0px;writing-mode:lr-tb;text-anchor:middle;fill:#ff0000;fill-opacity:1;stroke:none;font-family:Calibri;-inkscape-font-specification:Calibri"
       x="739.20941"
       y="681.52258"
       id="text2993"
       sodipodi:linespacing="125%"><tspan
         sodipodi:role="line"
         id="tspan2995"
         x="739.20941"
         y="681.52258">LEMMAGAME.COM</tspan></text>
    <path
       inkscape:export-ydpi="400.17322"
       inkscape:export-xdpi="400.17322"
       inkscape:export-filename="C:\Users\Evan\Code\Lemma\Lemma\Content\Images\logo.png"
       sodipodi:nodetypes="scccsscscsscscsssccscs"
       inkscape:connector-curvature="0"
       id="rect2992"
       d="m 223.43985,440.66438 -33.45402,0 -5.37449,0.9772 -5.13017,-0.9772 -11.31864,0 c -2.90201,0 -4.64812,0.98229 -7.01603,2.28154 -1.83816,1.0086 -4.43936,2.11114 -5.76659,3.71359 1.04436,2.1355 -3.80059,6.55571 -3.80059,10.58811 l 1.22146,34.7811 -1.22146,20.49621 c -0.24296,4.07746 1.1921,7.80727 3.66862,10.69256 1.3633,1.58833 5.60808,2.76881 4.93184,3.86437 2.3973,1.23546 5.13143,1.94058 7.98275,2.02629 l 40.63389,1.22146 14.64343,-1.22146 c 3.38577,-0.28244 6.77958,-2.10036 9.16025,-3.08753 4.94,-2.04844 7.51147,-7.70745 7.42296,-13.49569 l -0.45157,-29.53479 -1.2585,-6.10761 1.71007,-19.63491 c 0.53772,-6.17385 -0.67819,-10.60231 -5.6886,-13.44919 -2.41727,-1.3735 -7.90469,-3.13405 -10.89461,-3.13405 z"
       style="fill:#5bafcd;fill-opacity:1;stroke:none" />
    <path
       inkscape:export-ydpi="400.17322"
       inkscape:export-xdpi="400.17322"
       inkscape:export-filename="C:\Users\Evan\Code\Lemma\Lemma\Content\Images\logo.png"
       sodipodi:nodetypes="cccsssscccsscscscccssc"
       inkscape:connector-curvature="0"
       id="rect2994"
       d="m 223.43985,339.09223 -26.13762,2.3957 -20.50825,-1.66284 -8.63145,-0.73286 c -3.48142,-0.2956 -6.68467,0.63271 -9.31529,2.40209 -1.90761,1.28307 -2.29264,2.51986 -3.48568,4.54153 -1.48771,2.52107 -3.55392,5.99151 -3.53797,9.151 l 0.16362,32.28608 -1.05783,4.3959 0.91365,3.90335 -0.26371,15.18058 c -0.15968,9.18573 7.3961,16.58321 16.58321,16.58321 l 26.70919,-1.22145 28.56815,1.22145 c 4.49473,0.19211 7.73381,-4.50945 10.88029,-4.51314 2.76984,-3.05883 4.26001,-7.38849 4.48146,-12.07007 l 0.94921,-20.06499 0.98675,-18.07032 -0.83642,-6.61442 0.12184,-10.52761 c 0.10637,-9.18646 -7.3961,-16.58319 -16.58318,-16.58319 z"
       style="fill:#5bafcd;fill-opacity:1;stroke:none" />
    <path
       inkscape:export-ydpi="400.17322"
       inkscape:export-xdpi="400.17322"
       inkscape:export-filename="C:\Users\Evan\Code\Lemma\Lemma\Content\Images\logo.png"
       sodipodi:nodetypes="scsscccsscscccsssccccssss"
       inkscape:connector-curvature="0"
       id="rect2998"
       d="m 324.32103,440.66438 -26.11311,2.19863 -29.16423,-2.19863 c -9.16112,-0.69062 -16.58322,7.39613 -16.58322,16.58324 l 0,15.23761 -1.22145,5.86304 1.22145,5.13017 0,29.04649 c 0,3.6308 1.15519,6.98184 3.11954,9.70719 1.55791,2.1614 4.11331,7.59367 6.02795,5.13097 2.2341,1.11716 7.69153,2.55484 10.36723,2.47793 l 25.49982,-0.73287 6.35165,-0.97718 7.32879,0.97718 13.16558,0 c 5.26929,0 11.90376,-3.16594 12.98278,-6.2416 1.19848,-3.41598 3.60043,-6.4238 3.60043,-10.34162 l 0,-15.36603 -1.22146,-3.90872 1.22146,-5.37445 -1.74979,-16.86353 0.28403,-13.27602 c 0.0609,-2.85383 0.62404,-6.50912 -1.55027,-7.98788 -1.81794,-1.23639 -2.70519,-4.57856 -4.75598,-6.15131 -2.40214,-1.84219 -5.39512,-2.93261 -8.81117,-2.93261 z"
       style="fill:#5bafcd;fill-opacity:1;stroke:none" />
    <path
       inkscape:export-ydpi="400.17322"
       inkscape:export-xdpi="400.17322"
       inkscape:export-filename="C:\Users\Evan\Code\Lemma\Lemma\Content\Images\logo.png"
       sodipodi:nodetypes="cccscsccsssccscsscsc"
       inkscape:connector-curvature="0"
       id="rect3000"
       d="m 293.32202,339.09223 -7.81738,0.97717 -8.82786,-1.14091 -7.63309,0.16386 c -2.71341,0.0582 -5.27091,0.7275 -7.52779,1.8786 -1.47398,4.69977 -9.46913,1.15333 -9.05543,14.7046 l 1.15745,11.76738 -1.52087,15.14456 2.07349,29.09827 c 0.3497,4.9076 1.14404,7.12777 4.52556,10.1596 2.93274,2.62945 6.09872,5.96886 10.34759,5.69074 l 18.65958,-1.22146 22.22449,1.65603 14.39327,-0.43457 c 3.14837,-0.0951 6.82005,0.71575 8.59006,-2.50541 4.79734,-2.89636 7.99315,-8.0405 7.99315,-14.07781 l 0,-55.27733 c 0,-9.18711 -4.62661,-12.90409 -13.4074,-15.60602 -3.40993,-0.74267 -9.59703,0.59159 -13.1395,0.42651 -7.87053,-0.36683 -13.26401,-1.40376 -21.03532,-1.40376 z"
       style="fill:#5bafcd;fill-opacity:1;stroke:none" />
    <path
       inkscape:export-ydpi="400.17322"
       inkscape:export-xdpi="400.17322"
       sodipodi:nodetypes="cccccscccccccsssssscccccccccscssssssscssscccssssccccsscccsscsccssssssssccsssscssccssccsccsccsszcccscscccccccccccccccccccccccccccccccccccccccccccccccccccccccccccscsscssccccsscccscsssscsscscccccccccccccssccsssssssssscscc"
       inkscape:connector-curvature="0"
       id="path3012-1"
       d="m 233.2678,491.48323 -9.89593,13.1898 1.03786,1.81566 c 0,0 -3.62841,0.97665 -4.78571,1.84768 0,0 -1.36443,1.1387 -3.20165,2.93333 l -3.85466,2.35772 c -3.77912,2.31157 -2.66252,3.88117 -2.66252,3.88117 l 0.19506,2.99754 3.96265,5.68972 9.29754,5.68215 -2.23064,3.02869 0.96667,3.39961 8.98438,4.32346 c 0,0 3.68666,2.55628 5.75745,3.98215 2.21372,1.52428 6.96467,3.47734 8.12231,4.39921 1.93761,1.543 6.36056,2.75197 10.93939,5.21935 3.32645,1.7925 10.77142,2.33597 10.77142,2.33597 0.52212,-1.55365 1.81316,-1.60351 1.9403,-2.70616 0.27475,-2.38304 -0.42697,-4.80538 -1.86443,-6.72627 -1.22648,-1.63992 -3.65992,-5.30611 -3.65992,-5.30611 l -6.50125,-5.06443 -0.1039,-1.50524 -1.03693,-1.47616 -0.25946,-2.38699 -1.39713,-1.31504 0.28041,-1.90343 -1.77475,-3.54103 1.28516,-0.86621 c 0,0 -0.21446,-7.81106 1.21115,-11.86478 2.76426,-7.85945 13.39459,-21.102 13.39459,-21.102 0,0 10.29414,-6.99937 15.53693,-10.35243 2.48564,-1.5897 4.95674,-3.21204 7.54505,-4.62834 3.03743,-1.66204 6.51106,-2.54378 9.34816,-4.52854 1.93374,-1.35279 4.02889,-2.81634 5.08383,-4.9274 0.99269,-1.98651 1.23657,-4.4252 0.8361,-6.60954 -0.33351,-1.81963 -1.18797,-3.71077 -2.60437,-4.9009 -1.41633,-1.19008 -3.47346,-1.30625 -5.27635,-1.72092 -0.93588,-0.21519 -2.85398,-0.39313 -2.85398,-0.39313 0,0 0.70281,-2.23998 0.77479,-2.88711 0.072,-0.64712 0.23582,-4.059 -0.75137,-5.70262 -1.18145,-1.96703 -3.46944,-3.15393 -5.60237,-3.99981 -2.87969,-1.142 -6.11138,-1.2144 -9.20904,-1.25139 l -7.79558,-1.49507 -19.11854,1.52422 c 0,0 4.38985,-3.05074 6.0599,-3.27063 1.35169,-0.1781 2.84669,-0.43968 3.83129,-0.80443 2.0528,-0.76031 4.07109,-1.86524 5.59791,-3.43393 2.64377,-2.7162 4.59414,-5.63466 6.27426,-9.03236 2.32073,-4.69321 2.77152,-6.73093 4.48215,-11.05067 l 1.86021,-4.4287 1.96195,-4.17541 0.4428,-1.21323 c 0,0 5.6996,-1.10293 7.82953,-0.5926 2.29024,0.54875 6.38412,8.54067 8.35264,9.52704 1.60307,0.80325 3.51201,0.78275 3.51201,0.78275 l 2.11987,-0.63717 1.77972,-1.42335 c 0,0 0.79138,0.26639 1.20067,0.25829 0.36605,-0.007 0.75407,-0.0779 1.06386,-0.27335 0.21595,-0.13608 0.49289,-0.58658 0.49289,-0.58658 0,0 0.94494,0.0838 1.34933,-0.11718 0.51504,-0.2558 1.15788,-1.27876 1.15788,-1.27876 l 0.57501,-0.68434 c 0,0 0.98693,0.63699 1.52519,0.86455 0.53538,0.2265 1.09767,0.56619 1.67386,0.48911 0.53365,-0.0715 1.03538,-0.42826 1.37681,-0.84455 0.71717,-0.8745 0.74228,-2.13799 1.17378,-3.18343 0.48853,-1.1836 0.90002,-2.42017 1.60017,-3.49231 0.40741,-0.62392 0.89387,-1.21795 1.48641,-1.66981 1.18222,-0.90152 2.80397,-1.0918 3.99743,-1.97838 1.59112,-1.182 2.90462,-2.73309 4.0642,-4.34067 1.18182,-1.63837 2.89109,-5.32643 2.89109,-5.32643 l 0.49721,-3.66847 c 0,0 0.18204,-5.1909 -0.48385,-7.66181 -0.76627,-2.84403 -2.33,-5.44424 -3.94896,-7.90485 -1.23472,-1.87649 -2.66551,-3.65917 -4.34443,-5.15145 -1.37723,-1.22417 -6.63332,-4.30022 -8.28225,-5.12258 -2.07303,-1.03385 -6.31163,-2.1344 -6.31163,-2.1344 0,0 -0.30768,-1.28329 -1.36693,-2.59605 -1.67093,-2.07085 -1.20143,-3.63201 -3.69004,-4.57388 -2.1587,-0.81701 -6.84334,-1.0562 -6.84334,-1.0562 l -6.98109,-2.63093 c 0,0 -31.10227,-15.19406 -32.75144,-14.54572 -1.78047,0.69995 -2.88146,2.81567 -4.75155,3.21914 -2.88528,0.62247 -8.72665,-1.50231 -8.72665,-1.50231 l 5.43648,5.20916 c 0,0 -1.11838,4.78678 0.41082,4.81786 10.91398,0.22257 29.47288,7.33093 29.47288,7.33093 l 7.46441,3.71936 c 0,0 2.05028,2.63903 5.02912,2.70933 4.09314,0.0966 5.02372,2.40188 5.02372,2.40188 l 2.18009,1.39898 c 0,0 -2.571,2.07778 -4.71191,5.03346 -1.59265,2.19873 -1.74938,4.85319 -2.44788,6.43913 -0.60235,1.36754 -1.2179,3.48357 -2.2329,5.22946 -1.01507,1.74593 -0.87681,2.37855 -2.46904,3.80968 l -3.31367,1.69492 -0.0582,-0.72731 c 0,0 -12.64782,-8.07257 -14.76585,-8.39042 -2.28453,-0.34285 -8.39871,-0.69647 -8.39871,-0.69647 0,0 -1.38571,-1.42685 -2.24858,-1.88938 -4.01476,-2.15214 -11.99926,-5.17217 -11.99926,-5.17217 l -6.03276,-3.13837 -1.35607,1.91354 -5.92807,-2.37734 -14.79991,-8.07199 -10.26475,-6.0304 -11.82446,-6.27953 -11.8854,-5.50515 -8.72758,-3.08766 -13.58341,-5.87047 -8.50048,-4.90178 -10.55802,-4.97955 -7.97531,-3.28113 -7.33395,-1.7987 -1.22794,0.61932 -1.43506,0.30037 -0.34046,1.29843 1.17318,0.98575 1.49393,0.50476 -0.77835,0.43011 0.0585,1.71692 0.91107,1.09918 2.38946,1.42395 5.94831,2.74648 3.51573,1.86996 2.33067,1.79163 0.91116,1.09915 0.42606,1.77566 -1.93593,-0.37576 -4.87287,-1.84282 -2.7377,-0.21544 -1.17351,1.09878 0.0123,1.17726 0.87211,0.64937 2.42471,0.78647 2.65934,1.40055 4.67329,2.67587 5.56128,1.42052 3.5317,-0.0347 2.80827,-1.05948 2.07677,-0.09 5.1818,2.26916 7.35602,4.34629 8.87717,6.20817 7.34822,4.25631 7.0159,3.56013 10.99326,4.48366 3.19125,1.26376 3.95364,2.73835 2.99945,2.18671 5.47104,3.51295 5.65875,3.58725 -5.27987,-0.26673 -4.70109,0.13608 -8.1978,1.61796 -9.08923,-0.2986 -6.23409,-0.81836 -6.21064,-0.54846 -9.48436,0.37014 c 0,0 -0.76033,0.41999 -0.8371,0.7977 -0.0948,0.46636 0.5669,1.31029 0.5669,1.31029 0,0 -0.77891,0.28584 -0.94267,0.62561 -0.22206,0.46093 -0.15697,1.10747 0.13267,1.52927 0.29805,0.434 2.06641,1.14275 2.06641,1.14275 0,0 -1.46359,0.42786 -1.51919,0.98494 -0.0465,0.46493 0.16189,0.973 0.47697,1.31807 0.44548,0.48803 1.79504,0.84116 1.79504,0.84116 l 5.12337,0.55221 3.72721,0.1297 -6.43774,1.01199 c 0,0 -1.75833,0.17738 -2.19416,0.82489 -0.28589,0.42544 -0.28478,1.14286 0.0429,1.53706 0.52329,0.62967 2.4013,0.5166 2.4013,0.5166 l 5.5107,-0.20636 3.5083,-0.30454 c 0,0 0.58909,1.13044 0.58466,1.74338 -0.005,0.56829 0.0432,0.44134 0.0432,0.44134 0,0 -2.59207,0.48452 -3.70782,1.13753 -0.66532,0.3894 -1.40157,0.87439 -1.67416,1.59545 -0.15968,0.42231 -0.20807,1.03613 0.11718,1.34935 0.92797,0.89382 3.57658,-0.13928 3.57658,-0.13928 1.98527,0.13854 4.65702,-0.40919 4.65702,-0.40919 0,0 2.77173,-1.22104 3.81187,-1.97687 1.1384,-0.82725 1.49053,-1.35918 2.38701,-2.44387 0.53035,-0.64169 0.84743,-0.86266 0.84743,-0.86266 0,0 1.55503,-0.65502 2.38198,-0.75055 1.48446,-0.17147 4.47027,0.33702 4.47027,0.33702 l 8.26777,1.27626 5.94082,0.57189 5.60845,-0.12431 5.17835,-0.90268 3.19124,1.26375 2.38944,1.42393 -5.551,8.09508 -3.21963,5.71749 -3.86528,7.67682 -3.52075,5.38105 -4.53962,2.41479 -7.77479,2.94037 c 0,0 -7.11716,0.5066 -9.668,2.74383 -1.687,1.47954 2.09644,4.37039 0.94482,5.69501 -0.51598,0.59346 -6.02131,4.72701 -6.02131,4.72701 l -0.51561,-0.57334 c 0,0 -1.472,1.34946 -1.92467,1.70671 -1.66783,1.31626 -3.24102,2.79118 -4.54589,4.4679 -2.40077,3.08494 -3.08113,5.20024 -4.6438,8.78333 -1.19121,2.73137 -2.14436,5.60979 -2.58982,8.55615 -0.27474,1.81756 -0.10784,3.67774 -0.0339,5.51445 0.1027,2.55182 -0.16755,5.21775 0.6626,7.63298 0.73642,2.14294 2.12777,4.07077 3.69944,5.70305 2.19996,2.28492 4.98584,3.97833 7.78136,5.47695 2.71791,1.45701 5.66488,2.47959 8.62242,3.3531 2.8543,0.84304 5.79844,1.38101 8.74434,1.80442 2.00866,0.28875 6.06749,0.49871 6.06749,0.49871 0,0 4.49128,1.51653 6.82506,1.84288 3.06064,0.42799 9.27037,0.13118 9.27037,0.13118 z"
       style="fill:#ffffff;fill-opacity:1;stroke:none"
       inkscape:export-filename="C:\Users\Evan\Code\Lemma\Lemma\Content\Images\logo.png" />
  </g>
</svg>
