<?xml version="1.0" encoding="UTF-8" standalone="no"?>
<!-- Created with Inkscape (http://www.inkscape.org/) -->

<svg
   xmlns:dc="http://purl.org/dc/elements/1.1/"
   xmlns:cc="http://creativecommons.org/ns#"
   xmlns:rdf="http://www.w3.org/1999/02/22-rdf-syntax-ns#"
   xmlns:svg="http://www.w3.org/2000/svg"
   xmlns="http://www.w3.org/2000/svg"
   xmlns:sodipodi="http://sodipodi.sourceforge.net/DTD/sodipodi-0.dtd"
   xmlns:inkscape="http://www.inkscape.org/namespaces/inkscape"
   width="512"
   height="512"
   id="svg2"
   version="1.1"
   inkscape:version="0.48.4 r9939"
   sodipodi:docname="lemma.svg"
   inkscape:export-filename="C:\Users\et1337\Desktop\lemma.png"
   inkscape:export-xdpi="180"
   inkscape:export-ydpi="180">
  <defs
     id="defs4">
    <clipPath
       clipPathUnits="userSpaceOnUse"
       id="clipPath3878">
      <rect
         y="357.18866"
         x="185.88991"
         height="289.60812"
         width="338.60083"
         id="rect3880"
         style="fill:#ff0000;fill-opacity:1;stroke:none" />
    </clipPath>
  </defs>
  <sodipodi:namedview
     id="base"
     pagecolor="#ffffff"
     bordercolor="#666666"
     borderopacity="1.0"
     inkscape:pageopacity="0.0"
     inkscape:pageshadow="2"
     inkscape:zoom="1"
     inkscape:cx="167.46847"
     inkscape:cy="216.48433"
     inkscape:document-units="px"
     inkscape:current-layer="layer1"
     showgrid="true"
     fit-margin-top="0"
     fit-margin-left="0"
     fit-margin-right="0"
     fit-margin-bottom="0"
     inkscape:window-width="1920"
     inkscape:window-height="1057"
     inkscape:window-x="-8"
     inkscape:window-y="-8"
     inkscape:window-maximized="1"
     showguides="true"
     inkscape:guide-bbox="true" />
  <metadata
     id="metadata7">
    <rdf:RDF>
      <cc:Work
         rdf:about="">
        <dc:format>image/svg+xml</dc:format>
        <dc:type
           rdf:resource="http://purl.org/dc/dcmitype/StillImage" />
        <dc:title />
      </cc:Work>
    </rdf:RDF>
  </metadata>
  <g
     inkscape:label="Layer 1"
     inkscape:groupmode="layer"
     id="layer1"
     transform="translate(-99.190315,-313.61072)">
    <rect
       style="fill:#000000;fill-opacity:1;stroke:none"
       id="rect3858"
       width="512"
       height="512"
       x="99.190315"
       y="313.61072" />
    <g
       style="font-size:50.40459823999999900px;font-style:normal;font-variant:normal;font-weight:normal;font-stretch:normal;text-align:end;line-height:125%;letter-spacing:0px;word-spacing:0px;text-anchor:end;fill:#ffffff;fill-opacity:1;stroke:none;font-family:Signika;-inkscape-font-specification:Signika"
       id="text3038" />
    <g
       id="g3825"
       clip-path="url(#clipPath3878)">
      <rect
         transform="matrix(-0.70710678,0.70710678,-0.70710678,-0.70710678,0,0)"
         y="-632.52484"
         x="46.482937"
         height="81.923599"
         width="81.923599"
         id="use3102"
         style="fill:#5bafcd;fill-opacity:1;stroke:none"
         inkscape:tile-x0="34.441723"
         inkscape:tile-y0="316.09942" />
      <rect
         transform="matrix(-0.70710678,0.70710678,-0.70710678,-0.70710678,0,0)"
         y="-632.52484"
         x="140.69513"
         height="81.923599"
         width="81.923599"
         id="use3104"
         style="fill:#5bafcd;fill-opacity:1;stroke:none"
         inkscape:tile-x0="34.441723"
         inkscape:tile-y0="316.09942" />
      <rect
         transform="matrix(-0.70710678,0.70710678,-0.70710678,-0.70710678,0,0)"
         y="-726.737"
         x="46.482937"
         height="81.923599"
         width="81.923599"
         id="use3106"
         style="fill:#5bafcd;fill-opacity:1;stroke:none"
         inkscape:tile-x0="34.441723"
         inkscape:tile-y0="316.09942" />
      <rect
         transform="matrix(-0.70710678,0.70710678,-0.70710678,-0.70710678,0,0)"
         y="-726.737"
         x="140.69513"
         height="81.923599"
         width="81.923599"
         id="use3108"
         style="fill:#5bafcd;fill-opacity:1;stroke:none"
         inkscape:tile-x0="34.441723"
         inkscape:tile-y0="316.09942" />
      <path
         inkscape:export-filename="C:\Users\Evan\Code\Lemma\Lemma\Content\Images\logo.png"
         style="fill:#ffffff;fill-opacity:1;stroke:none"
         d="m 344.01701,585.79174 -9.50925,12.6744 0.9973,1.74472 c 0,0 -3.48662,0.9385 -4.5987,1.77549 0,0 -1.31111,1.09419 -3.07655,2.8187 l -3.70404,2.2656 c -3.63145,2.22124 -2.55848,3.72951 -2.55848,3.72951 l 0.18744,2.88041 3.80781,5.4674 8.93425,5.46012 -2.14348,2.91034 0.92889,3.26678 8.63332,4.15451 c 0,0 3.5426,2.4564 5.53248,3.82655 2.12721,1.46472 6.69252,3.34145 7.80491,4.22732 1.8619,1.4827 6.11204,2.64444 10.51195,5.01539 3.19647,1.72247 10.35054,2.2447 10.35054,2.2447 0.50169,-1.49295 1.7423,-1.54085 1.86447,-2.60042 0.26401,-2.28992 -0.41031,-4.61761 -1.79161,-6.46344 -1.17851,-1.57584 -3.51687,-5.09877 -3.51687,-5.09877 l -6.24724,-4.86654 -0.0999,-1.44642 -0.99641,-1.41849 -0.24932,-2.29372 -1.34251,-1.26365 0.26944,-1.82905 -1.70541,-3.40267 1.23496,-0.83237 c 0,0 -0.20607,-7.50583 1.16382,-11.40115 2.65623,-7.55236 12.87122,-20.27745 12.87122,-20.27745 0,0 9.89188,-6.72587 14.9298,-9.94791 2.38851,-1.52758 4.76304,-3.08653 7.25023,-4.44748 2.91876,-1.59711 6.25665,-2.44438 8.98289,-4.3516 1.85818,-1.29993 3.87143,-2.70629 4.88517,-4.73486 0.95389,-1.90888 1.18825,-4.25229 0.80345,-6.35128 -0.32048,-1.74852 -1.14159,-3.56577 -2.5026,-4.70939 -1.36103,-1.14357 -3.33775,-1.25521 -5.0702,-1.65368 -0.8993,-0.20678 -2.74247,-0.37775 -2.74247,-0.37775 0,0 0.67535,-2.15247 0.74451,-2.77431 0.0691,-0.62182 0.22662,-3.9004 -0.72201,-5.47979 -1.13528,-1.89017 -3.33386,-3.03069 -5.38346,-3.8435 -2.76717,-1.09739 -5.87256,-1.16696 -8.84919,-1.20251 l -7.49097,-1.43665 -18.37149,1.46466 c 0,0 4.21832,-2.93153 5.82312,-3.14283 1.29886,-0.17114 2.73545,-0.42249 3.68157,-0.773 1.9726,-0.73059 3.91201,-1.79234 5.37918,-3.29974 2.54046,-2.61007 4.41462,-5.4145 6.0291,-8.67943 2.23004,-4.50982 2.66321,-6.46792 4.30701,-10.61887 l 1.7875,-4.25564 1.88531,-4.01227 0.42549,-1.16581 c 0,0 5.47689,-1.05983 7.52359,-0.56945 2.20077,0.5273 6.13466,8.20695 8.02627,9.15477 1.54043,0.77187 3.37477,0.75216 3.37477,0.75216 l 2.03703,-0.61227 1.71021,-1.36773 c 0,0 0.76043,0.25599 1.15373,0.2482 0.35178,-0.008 0.7246,-0.0749 1.0223,-0.26266 0.20749,-0.13078 0.47362,-0.56367 0.47362,-0.56367 0,0 0.90803,0.0805 1.2966,-0.11254 0.49492,-0.24581 1.11264,-1.22881 1.11264,-1.22881 l 0.55255,-0.65759 c 0,0 0.94836,0.61211 1.46559,0.83077 0.51447,0.21764 1.0548,0.54407 1.60846,0.46999 0.51279,-0.0687 0.9949,-0.41152 1.323,-0.81155 0.68916,-0.84031 0.71329,-2.05443 1.12792,-3.05902 0.46945,-1.13736 0.86485,-2.32561 1.53764,-3.35587 0.3915,-0.59954 0.85894,-1.17035 1.42834,-1.60455 1.13601,-0.86629 2.6944,-1.04914 3.84121,-1.90108 1.52896,-1.13582 2.79113,-2.62629 3.90541,-4.17106 1.13563,-1.57435 2.77811,-5.11829 2.77811,-5.11829 l 0.47779,-3.52514 c 0,0 0.17492,-4.98805 -0.46494,-7.36242 -0.73634,-2.7329 -2.23897,-5.2315 -3.79466,-7.59597 -1.18648,-1.80317 -2.56136,-3.51618 -4.17468,-4.95016 -1.3234,-1.17633 -6.37411,-4.13218 -7.95861,-4.92242 -1.99203,-0.99345 -6.065,-2.05099 -6.065,-2.05099 0,0 -0.29566,-1.23314 -1.31353,-2.49462 -1.60564,-1.98992 -1.15449,-3.49008 -3.54586,-4.39515 -2.07435,-0.78508 -6.57593,-1.01493 -6.57593,-1.01493 l -6.70828,-2.52812 c 0,0 -29.88697,-14.60036 -31.47168,-13.97735 -1.71091,0.6726 -2.76888,2.70566 -4.56589,3.09336 -2.77253,0.59815 -8.38565,-1.44362 -8.38565,-1.44362 l 5.22405,5.00563 c 0,0 -1.07469,4.59973 0.39475,4.6296 10.48751,0.21387 28.32125,7.04447 28.32125,7.04447 l 7.17273,3.57403 c 0,0 1.97015,2.5359 4.83261,2.60346 3.93318,0.0927 4.8274,2.30802 4.8274,2.30802 l 2.0949,1.34433 c 0,0 -2.47054,1.99658 -4.52779,4.83676 -1.5304,2.11283 -1.68102,4.66356 -2.35223,6.18752 -0.57882,1.31412 -1.17029,3.34746 -2.14565,5.02512 -0.97538,1.67772 -0.84255,2.28561 -2.37253,3.66082 l -3.1842,1.62868 -0.0559,-0.69887 c 0,0 -12.15362,-7.75714 -14.18889,-8.06257 -2.19528,-0.32946 -8.07054,-0.66926 -8.07054,-0.66926 0,0 -1.33158,-1.3711 -2.16072,-1.81555 -3.85787,-2.06803 -11.53039,-4.97006 -11.53039,-4.97006 l -5.79703,-3.01575 -1.30306,1.83878 -5.69645,-2.28446 -14.22161,-7.75658 -9.86365,-5.79475 -11.36242,-6.03416 -11.421,-5.29004 -8.38653,-2.967 -13.05265,-5.64109 -8.16835,-4.71025 -10.14547,-4.78497 -7.66366,-3.15292 -7.04735,-1.72842 -1.17999,0.59513 -1.37898,0.28863 -0.32716,1.24769 1.12735,0.94723 1.43553,0.48505 -0.74793,0.41329 0.0562,1.64985 0.8755,1.05621 2.29607,1.36832 5.71587,2.63915 3.37835,1.7969 2.23964,1.72162 0.87555,1.05621 0.40939,1.70627 -1.86029,-0.36108 -4.68246,-1.77081 -2.63073,-0.20702 -1.12765,1.05584 0.0115,1.13126 0.838,0.624 2.32999,0.75574 2.55541,1.34581 4.49068,2.57133 5.34397,1.36499 3.39371,-0.0332 2.69856,-1.01807 1.99558,-0.0864 4.97935,2.18051 7.06859,4.17646 8.5303,5.96558 7.06108,4.09 6.74177,3.421 10.56371,4.30848 3.06653,1.21437 3.79915,2.63134 2.88226,2.10127 5.25726,3.37569 5.43763,3.44706 -5.07356,-0.2563 -4.51741,0.13077 -7.87745,1.55474 -8.73408,-0.28693 -5.99051,-0.78639 -5.96797,-0.52702 -9.11376,0.35567 c 0,0 -0.73059,0.40359 -0.80436,0.76653 -0.0911,0.44813 0.54475,1.25909 0.54475,1.25909 0,0 -0.74848,0.27467 -0.90583,0.60116 -0.2134,0.44293 -0.15084,1.0642 0.12749,1.46952 0.28641,0.41704 1.98568,1.0981 1.98568,1.0981 0,0 -1.40642,0.41113 -1.45984,0.94644 -0.0446,0.44678 0.15557,0.93499 0.45831,1.26657 0.4281,0.46896 1.7249,0.80829 1.7249,0.80829 l 4.92319,0.53064 3.58157,0.12468 -6.18619,0.97245 c 0,0 -1.68962,0.17042 -2.10845,0.79265 -0.2747,0.40881 -0.27362,1.09819 0.0413,1.477 0.50285,0.60506 2.30747,0.49641 2.30747,0.49641 l 5.29537,-0.19829 3.37121,-0.29265 c 0,0 0.56607,1.08627 0.56179,1.67526 -0.005,0.54608 0.0415,0.42409 0.0415,0.42409 0,0 -2.49079,0.4656 -3.56296,1.09309 -0.6393,0.37418 -1.3468,0.84023 -1.60875,1.5331 -0.15343,0.40582 -0.19994,0.99565 0.11254,1.29663 0.89171,0.8589 3.43682,-0.13385 3.43682,-0.13385 1.9077,0.13313 4.47506,-0.39317 4.47506,-0.39317 0,0 2.66342,-1.17333 3.66292,-1.89965 1.09392,-0.79493 1.43228,-1.30606 2.29373,-2.34837 0.50963,-0.61661 0.81433,-0.82895 0.81433,-0.82895 0,0 1.49425,-0.62943 2.2889,-0.72123 1.42645,-0.16476 4.2956,0.32385 4.2956,0.32385 l 7.94469,1.22639 5.70871,0.54955 5.38928,-0.11945 4.97602,-0.86742 3.06653,1.21438 2.29608,1.36829 -5.3341,7.77876 -3.09382,5.49409 -3.71424,7.37684 -3.38318,5.1708 -4.36224,2.32042 -7.47099,2.82548 c 0,0 -6.83907,0.4868 -9.29022,2.63662 -1.62109,1.42173 2.01451,4.19961 0.9079,5.47247 -0.49582,0.57027 -5.78603,4.54231 -5.78603,4.54231 l -0.49547,-0.55095 c 0,0 -1.41448,1.29675 -1.84946,1.64002 -1.60265,1.26483 -3.11438,2.68213 -4.36826,4.29332 -2.30696,2.9644 -2.96073,4.99705 -4.46234,8.44013 -1.14467,2.62464 -2.06057,5.39058 -2.48862,8.22183 -0.26401,1.74652 -0.1036,3.53403 -0.0326,5.29897 0.0986,2.4521 -0.161,5.01385 0.63669,7.33471 0.70765,2.05921 2.04464,3.9117 3.5549,5.48022 2.114,2.19563 4.79102,3.82287 7.4773,5.26292 2.6117,1.40009 5.44352,2.38271 8.28551,3.22208 2.74275,0.81011 5.57185,1.32705 8.40264,1.73392 1.93017,0.27747 5.83041,0.47923 5.83041,0.47923 0,0 4.31578,1.45725 6.55837,1.77085 2.94105,0.41128 8.90813,0.12609 8.90813,0.12609 z"
         id="path3110"
         inkscape:connector-curvature="0"
         sodipodi:nodetypes="cccccscccccccsssssscccccccccscssssssscssscccssssccccsscccsscsccssssssssccsssscssccssccsccsccsszcccscscccccccccccccccccccccccccccccccccccccccccccccccccccccccccccscsscssccccsscccscsssscsscscccccccccccccssccsssssssssscscc"
         inkscape:export-xdpi="400.17322"
         inkscape:export-ydpi="400.17322" />
    </g>
    <g
       id="g3860"
       transform="matrix(0.72306227,0,0,0.72306227,38.05012,276.22397)">
      <path
         d="m 284.30581,604.94839 c -0.61084,2.24671 -0.91622,3.57416 -0.91612,3.98236 -10e-5,0.51104 0.1012,1.07349 0.3038,1.68736 l -0.91612,0.91612 c -1.94141,0.10283 -4.95464,0.15425 -9.03975,0.15424 -5.10421,10e-6 -12.83832,-0.20409 -23.20235,-0.6123 -10.36412,-0.4082 -18.14965,-0.6123 -23.35659,-0.61231 -2.34954,1e-5 -5.87227,0.10283 -10.56819,0.30849 -0.61388,-7.45366 -0.92082,-16.69439 -0.92081,-27.72222 -1e-5,-4.59618 0.0771,-11.48894 0.23137,-20.67833 0.15424,-9.18926 0.23135,-16.08202 0.23137,-20.67831 -2e-5,-6.53433 -0.15426,-13.06875 -0.46274,-19.60328 2.24669,-0.8163 4.34068,-1.22451 6.28202,-1.2246 1.02206,9e-5 1.99117,0.15278 2.90731,0.45804 l 0.76656,1.22464 1.37886,76.12274 c 1.22461,1.32749 3.52271,1.9912 6.89433,1.99118 l 49.31668,0 c 0.81633,0.81644 1.22454,1.73569 1.22461,2.75775 -7e-5,0.61076 -0.0515,1.12024 -0.15424,1.52843 z"
         style="font-size:144px;font-style:normal;font-variant:normal;font-weight:normal;font-stretch:normal;line-height:125%;letter-spacing:0px;word-spacing:0px;fill:#ffffff;fill-opacity:1;stroke:none;font-family:NeoRetroFill;-inkscape-font-specification:NeoRetroFill"
         id="path2990-3"
         inkscape:connector-curvature="0" />
      <path
         d="m 378.10312,607.55187 c -8e-5,0.71671 0.0514,1.27917 0.15425,1.68737 l -0.92079,0.92079 c -1.32754,10e-6 -3.36857,10e-6 -6.1231,0 -2.75781,0.0998 -4.85183,0.14959 -6.28202,0.14958 -5.10422,10e-6 -12.73628,-0.10201 -22.8962,-0.30615 -10.16002,-0.2041 -17.79208,-0.30615 -22.8962,-0.30617 -6.43472,2e-5 -12.9707,0.15426 -19.60794,0.46274 -0.61075,-2.3495 -0.91613,-4.69902 -0.91612,-7.04856 -1e-5,-2.04103 0.25473,-5.10413 0.76421,-9.18933 0.50948,-4.08516 0.76421,-7.14825 0.76423,-9.18933 -2e-5,-1.63279 -0.10213,-4.03218 -0.30615,-7.19816 -0.20412,-3.16589 -0.30618,-5.56526 -0.30617,-7.19814 -10e-6,-2.96022 0.12775,-7.42711 0.38329,-13.40072 0.25551,-5.97345 0.38327,-10.44191 0.38328,-13.40537 -10e-6,-4.28764 -0.25554,-8.4227 -0.76657,-12.40513 -0.61075,-4.79866 -0.91613,-6.68702 -0.91612,-5.66502 -1e-5,-1.73556 0.91767,-2.60339 2.75305,-2.6035 0.41132,1.1e-4 1.0509,0.0507 1.91873,0.15192 0.86782,0.10131 1.5557,0.152 2.06363,0.15191 1.02206,9e-5 1.84003,-0.25543 2.45391,-0.76656 5.71799,0.81962 13.27292,1.22939 22.66483,1.22929 3.57411,10e-5 8.93531,-0.077 16.08365,-0.23137 7.14822,-0.15415 12.50944,-0.23127 16.08366,-0.23136 1.01889,9e-5 2.49902,9e-5 4.44042,0 2.04096,0.10294 3.52109,0.15434 4.4404,0.15423 0.71663,-0.20245 1.02356,-0.30371 0.92081,-0.30381 0.30529,-0.3084 0.66209,-0.46263 1.07037,-0.46273 0.61378,1e-4 1.07342,0.2556 1.37887,0.76654 l -1.22461,8.73128 c -7.25121,0.8165 -16.69603,1.2247 -28.33454,1.22461 -2.65495,9e-5 -6.6373,-0.0513 -11.94706,-0.15426 -5.30983,1e-4 -9.29218,1e-4 -11.94705,0 -3.36851,1e-4 -5.87073,0.0515 -7.50665,0.15426 l -2.29499,2.44925 c 0.30534,1.53319 0.45805,3.11614 0.45807,4.7489 -2e-5,1.32753 -0.20414,3.44646 -0.6123,6.3568 -0.40825,2.9105 -0.56093,5.18212 -0.45808,6.81487 l 0.15425,1.99118 1.68268,1.68736 c 2.55204,0.61081 5.81926,0.91619 9.80163,0.91612 9.29212,7e-5 12.76343,-0.0514 10.41395,-0.15423 4.08514,0.10282 7.50659,0.66533 10.26437,1.68735 l 0,7.50664 c -3.36853,0.30544 -6.68716,0.45812 -9.95588,0.45806 -10.92502,6e-5 -18.0733,0.40827 -21.44488,1.22462 l -0.76187,0.92081 0.45806,27.41372 1.99118,1.99118 c 2.34949,-0.10282 5.8208,-0.15421 10.41394,-0.15424 4.79872,3e-5 11.97194,0.1792 21.51966,0.53752 9.54761,0.35836 16.72083,0.53755 21.51967,0.53752 4.69585,3e-5 8.21858,-0.0514 10.56819,-0.15424 0.61379,0.71361 0.92071,1.63285 0.92079,2.75774 -8e-5,0.61077 -0.0772,1.42718 -0.23137,2.44923 -0.15433,1.0221 -0.23145,1.78709 -0.23137,2.29499 z"
         style="font-size:144px;font-style:normal;font-variant:normal;font-weight:normal;font-stretch:normal;line-height:125%;letter-spacing:0px;word-spacing:0px;fill:#ffffff;fill-opacity:1;stroke:none;font-family:NeoRetroFill;-inkscape-font-specification:NeoRetroFill"
         id="path2992-3"
         inkscape:connector-curvature="0" />
      <path
         sodipodi:nodetypes="ccccccccccccccccccccccccccssscccccccccccccccccccccccccccccccccccccccccccccccccccccccc"
         inkscape:connector-curvature="0"
         d="m 472.44228,593.71249 -0.45807,-1.52844 c -0.20575,-0.4082 -0.36,-0.8164 -0.46273,-1.22461 -10e-5,-1.02207 0.0513,-2.55362 0.15424,-4.59467 -9e-5,-2.04414 -9e-5,-3.57569 0,-4.59466 -9e-5,-3.67695 -0.10213,1.06915 -0.30615,-6.23187 -0.43894,-2.84056 -0.30625,-6.79511 -0.30617,-8.72601 -8e-5,-4.90154 0.1526,-9.70031 0.45808,-14.39631 -0.20264,-0.81633 -0.66226,-1.22455 -1.37887,-1.22461 l -0.6123,0 c -2.55217,4.79883 -6.73862,11.79286 -12.55938,20.98213 -0.51112,0.61392 -0.46652,2.34432 -1.38569,3.67172 -0.30545,0.71363 -1.52324,1.02581 -2.13392,2.45606 -1.22781,2.65494 -3.78144,7.09691 -7.66089,13.32592 -3.47138,5.51237 -5.51494,9.73271 -7.35239,9.53881 -2.31162,0.16591 -3.21429,-0.65639 -4.74423,-4.02801 -1.22779,-2.85743 -2.45397,-5.71643 -3.67854,-8.57703 -6.12625,-12.25239 -12.45658,-22.92184 -18.99096,-32.00838 -1.43031,-0.40815 -2.75776,-1.32739 -3.98236,-2.75773 -0.20568,1.02213 -0.30851,1.78714 -0.30849,2.29499 -2e-5,0.9193 0.15344,2.27247 0.4604,4.05948 0.30691,1.78712 0.46038,3.14028 0.46041,4.05948 -3e-5,-0.10271 -0.45966,15.46826 -1.37887,46.71317 -1.53001,0.81955 -3.26567,1.2293 -5.20697,1.22929 -1.4303,10e-6 -3.57417,-0.20566 -6.4316,-0.61698 -0.91925,-7.45365 -1.37886,-16.18334 -1.37885,-26.1891 -10e-6,-5.0044 1.29226,-12.58582 1.59765,-22.74428 0.30536,-10.15837 -0.68155,-17.7912 -0.68154,-22.89854 -10e-6,-7.35074 -0.1527,-12.9145 -0.45807,-16.69129 1.22462,10e-5 3.01169,-0.0513 5.36123,-0.15425 2.3495,1.1e-4 4.08516,1.1e-4 5.20698,0 1.32743,1.1e-4 2.34871,0.63812 3.06387,1.91405 0.71513,1.27614 1.3025,2.45012 1.76216,3.52196 0.4596,1.07203 1.40298,2.78274 2.83018,5.13217 2.65486,4.39066 6.84131,12.09984 12.55936,23.12758 5.30975,9.90296 9.65046,17.50931 13.02211,22.81905 1.83843,-0.51098 3.98228,-2.96177 6.43159,-7.35238 1.22456,-2.24665 5.21216,-8.20919 13.48232,-21.68631 5.92359,-9.59746 11.02402,-19.66557 13.78184,-26.40574 1.01887,-1.12169 2.39618,-1.68259 4.13192,-1.68269 0.71661,10e-5 1.76438,0.12786 3.14335,0.38329 l 4.29044,0.22902 c 1.32742,1.1e-4 2.3487,0.63812 3.06389,1.91405 0.7151,1.27614 1.30248,2.45012 1.76213,3.52196 0.4596,1.07203 1.40298,2.78274 2.83019,5.13217 2.65487,4.39066 6.84132,12.09984 12.55936,23.12758 5.30976,9.90296 9.65045,17.50931 13.02211,22.81905 1.83844,-0.51098 3.98229,-2.96177 6.43159,-7.35238 1.22456,-2.24665 5.59204,-11.24811 13.86219,-24.72523 5.92358,-9.59745 10.64415,-16.62665 13.40196,-23.36682 1.01888,-1.12169 2.39618,-1.68259 4.13192,-1.68269 0.71661,10e-5 1.7644,0.12786 3.14337,0.38329 1.37875,0.25561 2.42498,0.38337 3.13866,0.38327 l 1.22463,0 c 0.61377,4.185 0.9207,9.44337 0.92079,15.77516 -9e-5,6.63732 0.63188,16.18685 0.37646,29.40832 -0.25562,13.22158 -1.14311,23.53083 -1.14302,30.16806 -9e-5,1.53312 0.0513,3.83122 0.15426,6.89432 -10e-5,3.06313 -10e-5,5.36124 0,6.89433 -1.02218,0.50794 -2.29978,0.76189 -3.83278,0.76188 -1.83547,10e-6 -4.13203,-0.45961 -6.88965,-1.37886 l -0.45808,-1.52843 c -0.20575,-0.40821 -0.35999,-0.8164 -0.46275,-1.22463 -8e-5,-1.02206 0.0514,-2.55361 0.15426,-4.59466 -8e-5,-2.04414 -8e-5,-3.57569 0,-4.59466 -8e-5,-3.67694 -0.10213,-9.16593 -0.30616,-16.46695 -0.20419,-7.30092 -0.30622,-12.73847 -0.30614,-16.31267 -8e-5,-4.90154 0.15259,-9.70031 0.45804,-14.39631 -0.20262,-0.81633 -0.66224,-1.22455 -1.37885,-1.22461 l -0.61232,0 c -2.55214,4.79883 -6.73859,11.79286 -12.55935,20.98213 -0.51111,0.61392 -1.22626,1.58458 -2.14543,2.91199 -0.30545,0.71362 -0.76352,1.78554 -1.37419,3.21579 -1.22781,2.65494 -3.78143,7.09691 -7.66089,13.32592 -3.47138,5.51237 -5.24344,9.80058 -7.42026,10.0818 -2.31163,0.16591 -3.14642,-1.19938 -4.67637,-4.571 -1.22779,-2.85743 -9.6714,-16.35266 -10.89596,-19.21326 -5.55648,-9.21346 -2.20023,-5.2581 -8.73461,-14.34466 -1.43032,-0.40814 -5.79668,-8.35488 -7.02127,-9.78522 -0.20569,1.02213 -0.30853,1.78714 -0.3085,2.29499 -3e-5,0.9193 0.15344,2.27247 0.4604,4.05948 0.30691,1.78712 0.46038,3.14028 0.4604,4.05948 -2e-5,-0.10271 -1.37887,28.89144 -1.37887,28.89144 -1.53002,0.81953 -3.26567,1.22929 -5.20698,1.22928 z"
         style="font-size:144px;font-style:normal;font-variant:normal;font-weight:normal;font-stretch:normal;line-height:125%;letter-spacing:0px;word-spacing:0px;fill:#5bafcd;fill-opacity:1;stroke:none;font-family:NeoRetroFill;-inkscape-font-specification:NeoRetroFill"
         id="path2996-5" />
      <path
         d="m 658.07821,611.38465 c -0.61396,1e-5 -1.58462,-0.0514 -2.91197,-0.15424 -1.22472,2e-5 -2.19382,2e-5 -2.90731,0 -1.43037,-1.83848 -2.86066,-4.7489 -4.29084,-8.73126 -1.12188,-3.06308 -2.19381,-6.17761 -3.21581,-9.34357 -2.96034,-7.45363 -7.555,-11.18047 -13.78398,-11.1805 -0.20572,3e-5 -0.61394,3e-5 -1.22462,0 -0.5111,0.10282 -0.91931,0.15428 -1.22462,0.15424 -1.73573,4e-5 -4.39062,-0.12771 -7.96471,-0.38327 -3.5742,-0.25548 -6.28051,-0.38324 -8.11894,-0.38328 -1.02212,4e-5 -2.52875,0.15351 -4.51989,0.4604 -1.99122,0.30697 -3.395,0.46043 -4.21138,0.46041 -0.71362,2e-5 -1.58145,-0.15422 -2.60348,-0.46274 -1.3275,-0.30535 -2.19532,-0.45803 -2.6035,-0.45807 -1.63286,2.45239 -4.44044,7.45526 -8.42278,15.00861 -3.3716,6.33189 -6.43471,11.18207 -9.1893,14.55054 -1.94133,0.30851 -3.8811,0.46274 -5.81929,0.46273 -2.2467,1e-5 -4.08519,-0.4596 -5.51546,-1.37885 6.33186,-12.76347 16.28774,-31.75595 29.86764,-56.97756 0.81638,-1.32739 1.98958,-3.31856 3.51961,-5.97353 0.61384,-1.43021 1.58449,-3.52344 2.91199,-6.27969 1.32741,-2.75609 2.65486,-5.46163 3.98235,-8.1166 1.63278,-3.26869 2.75612,-6.12769 3.37004,-8.57703 0.81637,-1.1248 2.04098,-1.68726 3.67386,-1.68735 0.81636,9e-5 1.96541,0.15356 3.44716,0.4604 1.48165,0.30703 2.57929,0.4605 3.29292,0.46039 l 0.45806,0 c 1.3274,2.34963 3.2173,5.87236 5.66972,10.5682 -7e-5,9e-5 1.02044,2.55216 3.06155,7.65621 3.47124,8.68147 8.57694,20.22032 15.3171,34.61656 7.86177,16.64302 13.12017,28.07903 15.77516,34.30806 -1.63293,0.61386 -3.57268,0.9208 -5.81928,0.92079 z m -30.6342,-52.38288 c -0.40826,-1.22457 -1.072,-3.1129 -1.99118,-5.66504 -1.43034,-2.65482 -3.47293,-6.63718 -6.12777,-11.94707 -0.2026,-0.1027 -0.50798,-0.15415 -0.91613,-0.15424 -0.51108,9e-5 -0.86788,0.0515 -1.07036,0.15424 -0.71676,1.63291 -3.27039,6.27898 -7.6609,13.93825 -3.2657,5.71807 -5.20545,10.61811 -5.81928,14.70011 3.06306,-0.0997 7.1981,-0.0483 12.40512,0.15426 6.02333,0.30541 10.15836,0.4581 12.40512,0.45805 1.53305,5e-5 2.70782,-0.0498 3.5243,-0.14956 -0.40829,-1.12486 -1.99125,-4.95453 -4.74892,-11.489 z"
         style="font-size:144px;font-style:normal;font-variant:normal;font-weight:normal;font-stretch:normal;line-height:125%;letter-spacing:0px;word-spacing:0px;fill:#ffffff;fill-opacity:1;stroke:none;font-family:NeoRetroFill;-inkscape-font-specification:NeoRetroFill"
         id="path2998-3"
         inkscape:connector-curvature="0" />
    </g>
  </g>
</svg>
