<?xml version="1.0" encoding="UTF-8" standalone="no"?>
<!-- Created with Inkscape (http://www.inkscape.org/) -->

<svg
   xmlns:dc="http://purl.org/dc/elements/1.1/"
   xmlns:cc="http://creativecommons.org/ns#"
   xmlns:rdf="http://www.w3.org/1999/02/22-rdf-syntax-ns#"
   xmlns:svg="http://www.w3.org/2000/svg"
   xmlns="http://www.w3.org/2000/svg"
   xmlns:sodipodi="http://sodipodi.sourceforge.net/DTD/sodipodi-0.dtd"
   xmlns:inkscape="http://www.inkscape.org/namespaces/inkscape"
   width="1280"
   height="720"
   id="svg2"
   version="1.1"
   inkscape:version="0.48.0 r9654"
   sodipodi:docname="lemma-video-title.svg"
   inkscape:export-filename="C:\Users\et1337\Desktop\lemma-video-title.png"
   inkscape:export-xdpi="90"
   inkscape:export-ydpi="90">
  <defs
     id="defs4" />
  <sodipodi:namedview
     id="base"
     pagecolor="#ffffff"
     bordercolor="#666666"
     borderopacity="1.0"
     inkscape:pageopacity="0.0"
     inkscape:pageshadow="2"
     inkscape:zoom="1.1125"
     inkscape:cx="640"
     inkscape:cy="360"
     inkscape:document-units="px"
     inkscape:current-layer="layer1"
     showgrid="true"
     fit-margin-top="0"
     fit-margin-left="0"
     fit-margin-right="0"
     fit-margin-bottom="0"
     inkscape:window-width="1680"
     inkscape:window-height="998"
     inkscape:window-x="-8"
     inkscape:window-y="-8"
     inkscape:window-maximized="1" />
  <metadata
     id="metadata7">
    <rdf:RDF>
      <cc:Work
         rdf:about="">
        <dc:format>image/svg+xml</dc:format>
        <dc:type
           rdf:resource="http://purl.org/dc/dcmitype/StillImage" />
        <dc:title></dc:title>
      </cc:Work>
    </rdf:RDF>
  </metadata>
  <g
     inkscape:label="Layer 1"
     inkscape:groupmode="layer"
     id="layer1"
     transform="translate(-99.190315,-105.61072)">
    <rect
       style="fill:#000000;fill-opacity:1;stroke:none"
       id="rect3858"
       width="1280"
       height="720"
       x="99.190315"
       y="105.61072" />
    <g
       id="g3860"
       transform="matrix(2.1397579,0,0,2.1397579,-84.516285,-776.94859)">
      <path
         d="m 284.30581,604.94839 c -0.61084,2.24671 -0.91622,3.57416 -0.91612,3.98236 -10e-5,0.51104 0.1012,1.07349 0.3038,1.68736 l -0.91612,0.91612 c -1.94141,0.10283 -4.95464,0.15425 -9.03975,0.15424 -5.10421,10e-6 -12.83832,-0.20409 -23.20235,-0.6123 -10.36412,-0.4082 -18.14965,-0.6123 -23.35659,-0.61231 -2.34954,1e-5 -5.87227,0.10283 -10.56819,0.30849 -0.61388,-7.45366 -0.92082,-16.69439 -0.92081,-27.72222 -1e-5,-4.59618 0.0771,-11.48894 0.23137,-20.67833 0.15424,-9.18926 0.23135,-16.08202 0.23137,-20.67831 -2e-5,-6.53433 -0.15426,-13.06875 -0.46274,-19.60328 2.24669,-0.8163 4.34068,-1.22451 6.28202,-1.2246 1.02206,9e-5 1.99117,0.15278 2.90731,0.45804 l 0.76656,1.22464 1.37886,76.12274 c 1.22461,1.32749 3.52271,1.9912 6.89433,1.99118 l 49.31668,0 c 0.81633,0.81644 1.22454,1.73569 1.22461,2.75775 -7e-5,0.61076 -0.0515,1.12024 -0.15424,1.52843 z"
         style="font-size:144px;font-style:normal;font-variant:normal;font-weight:normal;font-stretch:normal;line-height:125%;letter-spacing:0px;word-spacing:0px;fill:#ffffff;fill-opacity:1;stroke:none;font-family:NeoRetroFill;-inkscape-font-specification:NeoRetroFill"
         id="path2990-3"
         inkscape:connector-curvature="0" />
      <path
         d="m 378.10312,607.55187 c -8e-5,0.71671 0.0514,1.27917 0.15425,1.68737 l -0.92079,0.92079 c -1.32754,10e-6 -3.36857,10e-6 -6.1231,0 -2.75781,0.0998 -4.85183,0.14959 -6.28202,0.14958 -5.10422,10e-6 -12.73628,-0.10201 -22.8962,-0.30615 -10.16002,-0.2041 -17.79208,-0.30615 -22.8962,-0.30617 -6.43472,2e-5 -12.9707,0.15426 -19.60794,0.46274 -0.61075,-2.3495 -0.91613,-4.69902 -0.91612,-7.04856 -1e-5,-2.04103 0.25473,-5.10413 0.76421,-9.18933 0.50948,-4.08516 0.76421,-7.14825 0.76423,-9.18933 -2e-5,-1.63279 -0.10213,-4.03218 -0.30615,-7.19816 -0.20412,-3.16589 -0.30618,-5.56526 -0.30617,-7.19814 -10e-6,-2.96022 0.12775,-7.42711 0.38329,-13.40072 0.25551,-5.97345 0.38327,-10.44191 0.38328,-13.40537 -10e-6,-4.28764 -0.25554,-8.4227 -0.76657,-12.40513 -0.61075,-4.79866 -0.91613,-6.68702 -0.91612,-5.66502 -1e-5,-1.73556 0.91767,-2.60339 2.75305,-2.6035 0.41132,1.1e-4 1.0509,0.0507 1.91873,0.15192 0.86782,0.10131 1.5557,0.152 2.06363,0.15191 1.02206,9e-5 1.84003,-0.25543 2.45391,-0.76656 5.71799,0.81962 13.27292,1.22939 22.66483,1.22929 3.57411,10e-5 8.93531,-0.077 16.08365,-0.23137 7.14822,-0.15415 12.50944,-0.23127 16.08366,-0.23136 1.01889,9e-5 2.49902,9e-5 4.44042,0 2.04096,0.10294 3.52109,0.15434 4.4404,0.15423 0.71663,-0.20245 1.02356,-0.30371 0.92081,-0.30381 0.30529,-0.3084 0.66209,-0.46263 1.07037,-0.46273 0.61378,1e-4 1.07342,0.2556 1.37887,0.76654 l -1.22461,8.73128 c -7.25121,0.8165 -16.69603,1.2247 -28.33454,1.22461 -2.65495,9e-5 -6.6373,-0.0513 -11.94706,-0.15426 -5.30983,1e-4 -9.29218,1e-4 -11.94705,0 -3.36851,1e-4 -5.87073,0.0515 -7.50665,0.15426 l -2.29499,2.44925 c 0.30534,1.53319 0.45805,3.11614 0.45807,4.7489 -2e-5,1.32753 -0.20414,3.44646 -0.6123,6.3568 -0.40825,2.9105 -0.56093,5.18212 -0.45808,6.81487 l 0.15425,1.99118 1.68268,1.68736 c 2.55204,0.61081 5.81926,0.91619 9.80163,0.91612 9.29212,7e-5 12.76343,-0.0514 10.41395,-0.15423 4.08514,0.10282 7.50659,0.66533 10.26437,1.68735 l 0,7.50664 c -3.36853,0.30544 -6.68716,0.45812 -9.95588,0.45806 -10.92502,6e-5 -18.0733,0.40827 -21.44488,1.22462 l -0.76187,0.92081 0.45806,27.41372 1.99118,1.99118 c 2.34949,-0.10282 5.8208,-0.15421 10.41394,-0.15424 4.79872,3e-5 11.97194,0.1792 21.51966,0.53752 9.54761,0.35836 16.72083,0.53755 21.51967,0.53752 4.69585,3e-5 8.21858,-0.0514 10.56819,-0.15424 0.61379,0.71361 0.92071,1.63285 0.92079,2.75774 -8e-5,0.61077 -0.0772,1.42718 -0.23137,2.44923 -0.15433,1.0221 -0.23145,1.78709 -0.23137,2.29499 z"
         style="font-size:144px;font-style:normal;font-variant:normal;font-weight:normal;font-stretch:normal;line-height:125%;letter-spacing:0px;word-spacing:0px;fill:#ffffff;fill-opacity:1;stroke:none;font-family:NeoRetroFill;-inkscape-font-specification:NeoRetroFill"
         id="path2992-3"
         inkscape:connector-curvature="0" />
      <path
         sodipodi:nodetypes="ccccccccccccccccccccccccccssscccccccccccccccccccccccccccccccccccccccccccccccccccccccc"
         inkscape:connector-curvature="0"
         d="m 472.44228,593.71249 -0.45807,-1.52844 c -0.20575,-0.4082 -0.36,-0.8164 -0.46273,-1.22461 -10e-5,-1.02207 0.0513,-2.55362 0.15424,-4.59467 -9e-5,-2.04414 -9e-5,-3.57569 0,-4.59466 -9e-5,-3.67695 -0.10213,1.06915 -0.30615,-6.23187 -0.43894,-2.84056 -0.30625,-6.79511 -0.30617,-8.72601 -8e-5,-4.90154 0.1526,-9.70031 0.45808,-14.39631 -0.20264,-0.81633 -0.66226,-1.22455 -1.37887,-1.22461 l -0.6123,0 c -2.55217,4.79883 -6.73862,11.79286 -12.55938,20.98213 -0.51112,0.61392 -0.46652,2.34432 -1.38569,3.67172 -0.30545,0.71363 -1.52324,1.02581 -2.13392,2.45606 -1.22781,2.65494 -3.78144,7.09691 -7.66089,13.32592 -3.47138,5.51237 -5.51494,9.73271 -7.35239,9.53881 -2.31162,0.16591 -3.21429,-0.65639 -4.74423,-4.02801 -1.22779,-2.85743 -2.45397,-5.71643 -3.67854,-8.57703 -6.12625,-12.25239 -12.45658,-22.92184 -18.99096,-32.00838 -1.43031,-0.40815 -2.75776,-1.32739 -3.98236,-2.75773 -0.20568,1.02213 -0.30851,1.78714 -0.30849,2.29499 -2e-5,0.9193 0.15344,2.27247 0.4604,4.05948 0.30691,1.78712 0.46038,3.14028 0.46041,4.05948 -3e-5,-0.10271 -0.45966,15.46826 -1.37887,46.71317 -1.53001,0.81955 -3.26567,1.2293 -5.20697,1.22929 -1.4303,10e-6 -3.57417,-0.20566 -6.4316,-0.61698 -0.91925,-7.45365 -1.37886,-16.18334 -1.37885,-26.1891 -10e-6,-5.0044 1.29226,-12.58582 1.59765,-22.74428 0.30536,-10.15837 -0.68155,-17.7912 -0.68154,-22.89854 -10e-6,-7.35074 -0.1527,-12.9145 -0.45807,-16.69129 1.22462,10e-5 3.01169,-0.0513 5.36123,-0.15425 2.3495,1.1e-4 4.08516,1.1e-4 5.20698,0 1.32743,1.1e-4 2.34871,0.63812 3.06387,1.91405 0.71513,1.27614 1.3025,2.45012 1.76216,3.52196 0.4596,1.07203 1.40298,2.78274 2.83018,5.13217 2.65486,4.39066 6.84131,12.09984 12.55936,23.12758 5.30975,9.90296 9.65046,17.50931 13.02211,22.81905 1.83843,-0.51098 3.98228,-2.96177 6.43159,-7.35238 1.22456,-2.24665 5.21216,-8.20919 13.48232,-21.68631 5.92359,-9.59746 11.02402,-19.66557 13.78184,-26.40574 1.01887,-1.12169 2.39618,-1.68259 4.13192,-1.68269 0.71661,10e-5 1.76438,0.12786 3.14335,0.38329 l 4.29044,0.22902 c 1.32742,1.1e-4 2.3487,0.63812 3.06389,1.91405 0.7151,1.27614 1.30248,2.45012 1.76213,3.52196 0.4596,1.07203 1.40298,2.78274 2.83019,5.13217 2.65487,4.39066 6.84132,12.09984 12.55936,23.12758 5.30976,9.90296 9.65045,17.50931 13.02211,22.81905 1.83844,-0.51098 3.98229,-2.96177 6.43159,-7.35238 1.22456,-2.24665 5.59204,-11.24811 13.86219,-24.72523 5.92358,-9.59745 10.64415,-16.62665 13.40196,-23.36682 1.01888,-1.12169 2.39618,-1.68259 4.13192,-1.68269 0.71661,10e-5 1.7644,0.12786 3.14337,0.38329 1.37875,0.25561 2.42498,0.38337 3.13866,0.38327 l 1.22463,0 c 0.61377,4.185 0.9207,9.44337 0.92079,15.77516 -9e-5,6.63732 0.63188,16.18685 0.37646,29.40832 -0.25562,13.22158 -1.14311,23.53083 -1.14302,30.16806 -9e-5,1.53312 0.0513,3.83122 0.15426,6.89432 -10e-5,3.06313 -10e-5,5.36124 0,6.89433 -1.02218,0.50794 -2.29978,0.76189 -3.83278,0.76188 -1.83547,10e-6 -4.13203,-0.45961 -6.88965,-1.37886 l -0.45808,-1.52843 c -0.20575,-0.40821 -0.35999,-0.8164 -0.46275,-1.22463 -8e-5,-1.02206 0.0514,-2.55361 0.15426,-4.59466 -8e-5,-2.04414 -8e-5,-3.57569 0,-4.59466 -8e-5,-3.67694 -0.10213,-9.16593 -0.30616,-16.46695 -0.20419,-7.30092 -0.30622,-12.73847 -0.30614,-16.31267 -8e-5,-4.90154 0.15259,-9.70031 0.45804,-14.39631 -0.20262,-0.81633 -0.66224,-1.22455 -1.37885,-1.22461 l -0.61232,0 c -2.55214,4.79883 -6.73859,11.79286 -12.55935,20.98213 -0.51111,0.61392 -1.22626,1.58458 -2.14543,2.91199 -0.30545,0.71362 -0.76352,1.78554 -1.37419,3.21579 -1.22781,2.65494 -3.78143,7.09691 -7.66089,13.32592 -3.47138,5.51237 -5.24344,9.80058 -7.42026,10.0818 -2.31163,0.16591 -3.14642,-1.19938 -4.67637,-4.571 -1.22779,-2.85743 -9.6714,-16.35266 -10.89596,-19.21326 -5.55648,-9.21346 -2.20023,-5.2581 -8.73461,-14.34466 -1.43032,-0.40814 -5.79668,-8.35488 -7.02127,-9.78522 -0.20569,1.02213 -0.30853,1.78714 -0.3085,2.29499 -3e-5,0.9193 0.15344,2.27247 0.4604,4.05948 0.30691,1.78712 0.46038,3.14028 0.4604,4.05948 -2e-5,-0.10271 -1.37887,28.89144 -1.37887,28.89144 -1.53002,0.81953 -3.26567,1.22929 -5.20698,1.22928 z"
         style="font-size:144px;font-style:normal;font-variant:normal;font-weight:normal;font-stretch:normal;line-height:125%;letter-spacing:0px;word-spacing:0px;fill:#5bafcd;fill-opacity:1;stroke:none;font-family:NeoRetroFill;-inkscape-font-specification:NeoRetroFill"
         id="path2996-5" />
      <path
         d="m 658.07821,611.38465 c -0.61396,1e-5 -1.58462,-0.0514 -2.91197,-0.15424 -1.22472,2e-5 -2.19382,2e-5 -2.90731,0 -1.43037,-1.83848 -2.86066,-4.7489 -4.29084,-8.73126 -1.12188,-3.06308 -2.19381,-6.17761 -3.21581,-9.34357 -2.96034,-7.45363 -7.555,-11.18047 -13.78398,-11.1805 -0.20572,3e-5 -0.61394,3e-5 -1.22462,0 -0.5111,0.10282 -0.91931,0.15428 -1.22462,0.15424 -1.73573,4e-5 -4.39062,-0.12771 -7.96471,-0.38327 -3.5742,-0.25548 -6.28051,-0.38324 -8.11894,-0.38328 -1.02212,4e-5 -2.52875,0.15351 -4.51989,0.4604 -1.99122,0.30697 -3.395,0.46043 -4.21138,0.46041 -0.71362,2e-5 -1.58145,-0.15422 -2.60348,-0.46274 -1.3275,-0.30535 -2.19532,-0.45803 -2.6035,-0.45807 -1.63286,2.45239 -4.44044,7.45526 -8.42278,15.00861 -3.3716,6.33189 -6.43471,11.18207 -9.1893,14.55054 -1.94133,0.30851 -3.8811,0.46274 -5.81929,0.46273 -2.2467,1e-5 -4.08519,-0.4596 -5.51546,-1.37885 6.33186,-12.76347 16.28774,-31.75595 29.86764,-56.97756 0.81638,-1.32739 1.98958,-3.31856 3.51961,-5.97353 0.61384,-1.43021 1.58449,-3.52344 2.91199,-6.27969 1.32741,-2.75609 2.65486,-5.46163 3.98235,-8.1166 1.63278,-3.26869 2.75612,-6.12769 3.37004,-8.57703 0.81637,-1.1248 2.04098,-1.68726 3.67386,-1.68735 0.81636,9e-5 1.96541,0.15356 3.44716,0.4604 1.48165,0.30703 2.57929,0.4605 3.29292,0.46039 l 0.45806,0 c 1.3274,2.34963 3.2173,5.87236 5.66972,10.5682 -7e-5,9e-5 1.02044,2.55216 3.06155,7.65621 3.47124,8.68147 8.57694,20.22032 15.3171,34.61656 7.86177,16.64302 13.12017,28.07903 15.77516,34.30806 -1.63293,0.61386 -3.57268,0.9208 -5.81928,0.92079 z m -30.6342,-52.38288 c -0.40826,-1.22457 -1.072,-3.1129 -1.99118,-5.66504 -1.43034,-2.65482 -3.47293,-6.63718 -6.12777,-11.94707 -0.2026,-0.1027 -0.50798,-0.15415 -0.91613,-0.15424 -0.51108,9e-5 -0.86788,0.0515 -1.07036,0.15424 -0.71676,1.63291 -3.27039,6.27898 -7.6609,13.93825 -3.2657,5.71807 -5.20545,10.61811 -5.81928,14.70011 3.06306,-0.0997 7.1981,-0.0483 12.40512,0.15426 6.02333,0.30541 10.15836,0.4581 12.40512,0.45805 1.53305,5e-5 2.70782,-0.0498 3.5243,-0.14956 -0.40829,-1.12486 -1.99125,-4.95453 -4.74892,-11.489 z"
         style="font-size:144px;font-style:normal;font-variant:normal;font-weight:normal;font-stretch:normal;line-height:125%;letter-spacing:0px;word-spacing:0px;fill:#ffffff;fill-opacity:1;stroke:none;font-family:NeoRetroFill;-inkscape-font-specification:NeoRetroFill"
         id="path2998-3"
         inkscape:connector-curvature="0" />
      <path
         style="fill:#5bafcd;fill-opacity:1;stroke:none"
         d="m 163.88226,568.9989 15.91087,0 2.55612,0.46475 2.43992,-0.46475 5.38321,0 c 1.3802,0 2.21066,0.46717 3.33685,1.08511 0.87423,0.47969 2.11136,1.00406 2.7426,1.76619 -0.4967,1.01565 1.80758,3.11792 1.80758,5.03574 l -0.58093,16.54203 0.58093,9.74808 c 0.11557,1.93924 -0.56698,3.71316 -1.74482,5.08542 -0.64838,0.75541 -2.66723,1.31685 -2.3456,1.8379 -1.14017,0.58759 -2.44052,0.92295 -3.79661,0.96371 l -19.32564,0.58093 -6.96448,-0.58093 c -1.61028,-0.13432 -3.22439,-0.99893 -4.35665,-1.46844 -2.34948,-0.97424 -3.57247,-3.66569 -3.53038,-6.41859 l 0.21477,-14.04686 0.59854,-2.90481 -0.81331,-9.33844 c -0.25573,-2.9363 0.32255,-5.04249 2.70551,-6.39648 1.14968,-0.65324 3.75952,-1.49056 5.18152,-1.49056 z"
         id="rect2992"
         inkscape:connector-curvature="0"
         sodipodi:nodetypes="scccsscscsscscsssccscs" />
      <path
         style="fill:#5bafcd;fill-opacity:1;stroke:none"
         d="m 163.88226,520.6908 12.43116,1.13941 9.75381,-0.79085 4.10515,-0.34856 c 1.65576,-0.14059 3.17924,0.30092 4.43037,1.14244 0.90728,0.61024 1.09039,1.19846 1.6578,2.15997 0.70757,1.19903 1.69028,2.84958 1.68267,4.35225 l -0.0778,15.35539 0.50309,2.0907 -0.43452,1.85645 0.12541,7.21994 c 0.0759,4.36876 -3.51762,7.88704 -7.88703,7.88704 l -12.70299,-0.58093 -13.58713,0.58093 c -2.1377,0.0914 -3.67823,-2.14472 -5.17471,-2.14647 -1.31734,-1.45479 -2.02606,-3.514 -2.13139,-5.74057 l -0.45144,-9.54298 -0.46931,-8.59432 0.3978,-3.14584 -0.058,-5.00697 c -0.0506,-4.36912 3.51762,-7.88703 7.88703,-7.88703 z"
         id="rect2994"
         inkscape:connector-curvature="0"
         sodipodi:nodetypes="cccsssscccsscscscccssc" />
      <path
         style="fill:#5bafcd;fill-opacity:1;stroke:none"
         d="m 115.90279,568.9989 12.41951,1.04568 13.87061,-1.04568 c 4.35705,-0.32847 7.88703,3.51762 7.88703,7.88704 l 0,7.24707 0.58093,2.78848 -0.58093,2.43993 0,13.81463 c 0,1.72681 -0.5494,3.32058 -1.48366,4.61677 -0.74094,1.02797 -1.95631,3.61157 -2.86691,2.44031 -1.06255,0.53132 -3.65812,1.21509 -4.9307,1.17851 l -12.12781,-0.34856 -3.02086,-0.46475 -3.48561,0.46475 -6.2616,0 c -2.50609,0 -5.66147,-1.50573 -6.17466,-2.96852 -0.56999,-1.62466 -1.71237,-3.05519 -1.71237,-4.91851 l 0,-7.30815 0.58093,-1.859 -0.58093,-2.55611 0.8322,-8.02036 -0.13508,-6.31412 c -0.029,-1.35729 -0.2968,-3.09576 0.73732,-3.79907 0.86461,-0.58803 1.28659,-2.17758 2.26197,-2.92559 1.14245,-0.87614 2.56592,-1.39475 4.19062,-1.39475 z"
         id="rect2998"
         inkscape:connector-curvature="0"
         sodipodi:nodetypes="scsscccsscscccsssccccssss" />
      <path
         style="fill:#5bafcd;fill-opacity:1;stroke:none"
         d="m 130.64604,520.6908 3.71798,0.46475 4.19856,-0.54262 3.63033,0.0779 c 1.29051,0.0277 2.50686,0.346 3.58024,0.89347 0.70103,2.23523 4.50356,0.54853 4.30679,6.99356 l -0.55048,5.59661 0.72334,7.20282 -0.98617,13.83924 c -0.16632,2.33407 -0.54411,3.39 -2.15237,4.83195 -1.39481,1.25057 -2.90058,2.83881 -4.92135,2.70653 l -8.87457,-0.58093 -10.57005,0.78761 -6.8455,-0.20668 c -1.49737,-0.0452 -3.24364,0.34041 -4.08546,-1.19158 -2.28164,-1.37752 -3.80157,-3.82409 -3.80157,-6.69546 l 0,-26.29011 c 0,-4.36942 2.20043,-6.13722 6.3766,-7.42228 1.62178,-0.35321 4.56439,0.28137 6.2492,0.20285 3.74326,-0.17447 6.30842,-0.66763 10.00448,-0.66763 z"
         id="rect3000"
         inkscape:connector-curvature="0"
         sodipodi:nodetypes="cccscsccsssccscsscsc" />
      <path
         style="fill:#ffffff;fill-opacity:1;stroke:none"
         d="m 145.21437,620.16486 c 0,0 0.0621,1.55051 1.42647,1.98465 1.36446,0.43414 7.69057,0.74425 10.29544,-0.80626 2.60487,-1.55052 1.79859,-2.97701 3.16305,-3.90732 1.36445,-0.93031 3.34913,-1.11636 5.33378,-2.60487 1.98467,-1.48849 2.6669,-2.17071 2.17074,-3.59719 -0.49617,-1.42649 -1.30244,-2.29477 -1.30244,-2.29477 0,0 0.24808,-1.11637 0.68222,-1.55052 0.43415,-0.43414 0.99234,-0.93031 0.99234,-0.93031 l 1.86062,0.68222 c 0,0 1.98466,-2.85295 2.17071,-3.65921 0.18608,-0.80628 1.55054,-2.91498 1.55054,-2.91498 0,0 -0.49618,-5.27176 -0.8683,-6.07803 -0.37213,-0.80627 -0.86829,-0.68222 -0.80627,-1.30243 0.0621,-0.62022 0.31011,-1.30244 0.12403,-1.67457 -0.18605,-0.3721 -3.84526,-2.977 -4.09335,-3.2871 -0.24808,-0.31009 -0.0621,-0.74426 -0.80627,-0.80625 -0.74425,-0.0621 -1.73659,0.55817 -1.73659,0.55817 0,0 0.18606,-1.36445 0.3101,-2.54285 0.12405,-1.17839 -0.68223,-2.23274 -0.68223,-2.23274 0,0 1.05436,-1.61255 1.73659,-1.79862 0.68223,-0.18605 2.97699,0.0621 4.34145,-0.86827 1.36445,-0.93032 6.88431,-4.27943 9.42715,-8.00068 2.54285,-3.72125 2.17073,-5.51984 2.17073,-5.51984 0,0 -0.0621,-5.45782 -0.93032,-6.94632 -0.86828,-1.48849 -1.55051,-1.61255 -1.73659,-2.977 -0.18604,-1.36446 0.37214,-1.24042 0,-2.17072 -0.3721,-0.93031 -0.93029,-2.0467 -2.79091,-3.10104 -1.86063,-1.05434 -2.3568,-2.17073 -3.34911,-2.35678 -0.99234,-0.18606 -1.7366,-0.37213 -3.03902,-1.55052 -1.30244,-1.17839 -3.8453,-3.03903 -3.8453,-3.03903 0,0 7.75259,-6.88428 8.74492,-7.69056 0.99234,-0.80627 8.00067,-6.51217 9.05503,-7.31845 1.05437,-0.80627 2.10872,-1.42646 3.47316,-2.48083 1.36446,-1.05435 2.72892,-1.24042 4.52752,-2.6669 1.7986,-1.42647 1.98467,-2.66689 1.98467,-2.66689 0,0 0.68222,0 1.17837,-0.24807 0.49617,-0.24809 0.62022,-0.68223 0.62022,-0.68223 0,0 0.74424,0.49617 1.4885,-0.0621 0.74423,-0.55818 0.68222,-1.1784 0.68222,-1.1784 l 3.84528,-0.74424 0.2481,-0.24809 c 0,0 0.86829,0.18606 1.24041,0.12405 0.37212,-0.0621 0.74424,-0.37212 0.99233,-0.37212 0.24809,0 1.11637,0.18605 1.86063,0 0.74424,-0.18606 1.24041,-0.49617 1.24041,-0.49617 0,0 1.67456,0.12403 2.35679,-0.37213 0.68223,-0.49617 0.9303,-0.80626 0.55817,-1.42649 -0.37211,-0.62018 -0.9303,-0.49617 -1.98465,-0.49617 -1.05436,0 -4.27944,0.68224 -4.52751,-0.68221 -0.2481,-1.36446 -0.2481,-1.24041 1.17838,-1.98465 1.42648,-0.74427 6.32612,-3.41117 6.82229,-3.72125 0.49617,-0.3101 0.80627,-0.99234 0.43415,-1.42648 -0.37212,-0.43416 -1.36447,-0.68223 -2.29477,0 -0.93031,0.68222 -3.53519,2.60487 -4.27943,1.86061 -0.74426,-0.74423 3.96931,-3.28709 4.46548,-3.59718 0.49618,-0.31013 1.36446,-1.11638 0.80628,-1.67457 -0.55819,-0.55819 -1.86062,-0.49616 -1.86062,-0.49616 0,0 0.0621,-0.49617 -0.43415,-0.80628 -0.49616,-0.3101 -4.46548,1.73658 -4.46548,1.73658 0,0 0.55818,-0.99233 -0.18607,-1.30243 -0.74426,-0.31011 -1.42647,0.12402 -2.10871,0.68224 -0.68223,0.55818 -1.98466,1.36444 -1.98466,1.36444 l -1.67456,2.79093 -1.05436,1.61255 -0.31009,-0.37213 -3.10105,3.10104 c 0,0 -0.49616,-0.37213 -1.24041,0.12403 -0.74425,0.49617 -1.05435,1.1784 -1.05435,1.1784 l -5.14771,3.10103 -5.6439,3.53518 c 0,0 -4.27944,2.4188 -4.89962,3.16307 -0.62022,0.74423 -1.05437,1.05435 -1.86064,1.55051 -0.80625,0.49617 -0.6202,0.93031 -1.36444,1.36445 -0.74426,0.43416 -1.11638,-0.3101 -2.29478,0.49617 -1.17839,0.80628 -2.41881,2.54285 -2.91497,2.91498 -0.49616,0.37213 -1.42647,0.86829 -2.29477,1.7986 -0.86829,0.9303 -0.74424,1.11637 -1.55051,1.73658 -0.80627,0.6202 -0.93032,-0.18608 -1.73659,0.55818 -0.80627,0.74425 -1.42648,0.99234 -1.42648,0.99234 0,0 0.0621,-0.55819 -0.6202,-0.55819 -0.68222,0 -1.24041,0.3101 -1.24041,-0.37213 0,-0.68222 1.24041,-1.67456 1.55051,-1.92265 0.3101,-0.24808 0.55819,-0.86828 0.12404,-1.17838 -0.43414,-0.3101 -2.48082,1.55052 -3.039,1.11638 -0.5582,-0.43416 0.68222,-1.98467 0.99233,-2.41881 0.3101,-0.43415 0.37212,-0.8683 -0.0621,-1.05436 -0.43414,-0.18605 -2.85296,3.16305 -2.85296,3.16305 l -1.30242,0.55819 c 0,0 -0.18608,-0.74424 -0.62021,-1.05435 -0.43415,-0.3101 -0.68223,-0.3101 -0.68223,-0.3101 0,0 -0.62021,-2.35679 -2.1087,-2.1087 -1.4885,0.24808 -4.58954,1.7986 -4.58954,1.7986 0,0 -2.6669,0.55818 -3.78326,1.11636 -1.11639,0.55819 -2.54285,0.93032 -3.5352,1.30244 -0.99232,0.37213 -2.85294,0.68222 -4.40345,1.73658 -1.55053,1.05437 -2.85295,2.41881 -2.85295,2.41881 0,0 -1.61255,0.74425 -2.41882,1.73659 -0.80626,0.99233 -1.11637,1.98465 -1.11637,1.98465 0,0 -3.86392,-2.20503 -8.46383,-2.0255 -3.52919,0.13773 -9.70825,9.7781 -8.15772,13.62338 1.5505,3.84529 2.29476,3.22507 3.41113,4.40348 1.11637,1.17838 1.42648,2.10869 2.10871,2.54283 0.68223,0.43416 1.92265,0.62021 1.92265,0.62021 0,0 1.42647,3.78328 2.48082,3.8453 1.05435,0.0621 1.24042,-1.1784 1.24042,-1.1784 0,0 1.11638,1.11638 1.61254,1.11638 0.49616,0 0.6202,-0.12405 0.6202,-0.12405 0,0 0,0.62021 0.62021,0.55818 0.6202,-0.0621 1.73657,-0.74424 2.23274,-0.74424 0.49618,0 1.98467,0.55818 2.91497,0.43415 0.93032,-0.12404 2.48083,0.31009 3.8453,0.0621 1.36445,-0.24808 2.85294,-0.86829 2.85294,-0.86829 l -3.84528,3.5972 c 0,0 -2.17073,1.7366 -3.34912,2.6669 -1.17839,0.93032 -3.65923,4.27943 -3.53519,5.27176 0.12405,0.99233 1.30245,4.09337 2.29478,5.51985 0.99231,1.42647 7.5045,9.17906 9.48916,11.03968 1.98467,1.86063 7.7526,9.11706 7.7526,9.11706 0,0 0.86829,1.61253 0.86829,2.54283 0,0.93032 -0.37212,2.10871 -0.37212,2.10871 l 1.42647,0.74425 0.37213,1.05435 0.86828,0.24809 c 0,0 -1.30243,2.48083 -1.79859,3.96934 -0.49617,1.48849 -1.36446,2.66688 -1.98468,3.59719 -0.6202,0.9303 -3.34912,3.9073 -2.35679,4.71357 0.99234,0.80627 1.61255,0.31012 1.61255,0.31012 z"
         id="path3777"
         inkscape:connector-curvature="0"
         sodipodi:nodetypes="csssssccccccscccccsccssccccscscscssccccccccsccssscscccscscccsscccccscccccssscsscsscccscccccccssscscsssccccsccsscccsssscsccccscscc" />
    </g>
    <text
       xml:space="preserve"
       style="font-size:78.19712067px;font-style:normal;font-variant:normal;font-weight:normal;font-stretch:normal;text-align:center;line-height:125%;letter-spacing:0px;word-spacing:0px;writing-mode:lr-tb;text-anchor:middle;fill:#ff0000;fill-opacity:1;stroke:none;font-family:Calibri;-inkscape-font-specification:Calibri"
       x="739.20941"
       y="681.52258"
       id="text2993"
       sodipodi:linespacing="125%"><tspan
         sodipodi:role="line"
         id="tspan2995"
         x="739.20941"
         y="681.52258">LEMMAGAME.COM</tspan></text>
  </g>
</svg>
