<?xml version="1.0" encoding="UTF-8" standalone="no"?>
<!-- Created with Inkscape (http://www.inkscape.org/) -->

<svg
   xmlns:dc="http://purl.org/dc/elements/1.1/"
   xmlns:cc="http://creativecommons.org/ns#"
   xmlns:rdf="http://www.w3.org/1999/02/22-rdf-syntax-ns#"
   xmlns:svg="http://www.w3.org/2000/svg"
   xmlns="http://www.w3.org/2000/svg"
   xmlns:sodipodi="http://sodipodi.sourceforge.net/DTD/sodipodi-0.dtd"
   xmlns:inkscape="http://www.inkscape.org/namespaces/inkscape"
   width="512"
   height="512"
   id="svg2"
   version="1.1"
   inkscape:version="0.48.4 r9939"
   sodipodi:docname="lemma.svg"
   inkscape:export-filename="C:\Users\et1337\Desktop\lemma.png"
   inkscape:export-xdpi="180"
   inkscape:export-ydpi="180">
  <defs
     id="defs4" />
  <sodipodi:namedview
     id="base"
     pagecolor="#ffffff"
     bordercolor="#666666"
     borderopacity="1.0"
     inkscape:pageopacity="0.0"
     inkscape:pageshadow="2"
     inkscape:zoom="1.7734375"
     inkscape:cx="345.23273"
     inkscape:cy="288.6669"
     inkscape:document-units="px"
     inkscape:current-layer="layer1"
     showgrid="true"
     fit-margin-top="0"
     fit-margin-left="0"
     fit-margin-right="0"
     fit-margin-bottom="0"
     inkscape:window-width="1920"
     inkscape:window-height="1057"
     inkscape:window-x="-8"
     inkscape:window-y="-8"
     inkscape:window-maximized="1" />
  <metadata
     id="metadata7">
    <rdf:RDF>
      <cc:Work
         rdf:about="">
        <dc:format>image/svg+xml</dc:format>
        <dc:type
           rdf:resource="http://purl.org/dc/dcmitype/StillImage" />
        <dc:title></dc:title>
      </cc:Work>
    </rdf:RDF>
  </metadata>
  <g
     inkscape:label="Layer 1"
     inkscape:groupmode="layer"
     id="layer1"
     transform="translate(-99.190315,-313.61072)">
    <rect
       style="fill:#000000;fill-opacity:1;stroke:none"
       id="rect3858"
       width="512"
       height="512"
       x="99.190315"
       y="313.61072" />
    <path
       inkscape:export-ydpi="400.17322"
       inkscape:export-xdpi="400.17322"
       inkscape:export-filename="C:\Users\Evan\Code\Lemma\Lemma\Content\Images\logo.png"
       inkscape:connector-curvature="0"
       id="path2990-3"
       style="font-size:144px;font-style:normal;font-variant:normal;font-weight:normal;font-stretch:normal;line-height:125%;letter-spacing:0px;word-spacing:0px;fill:#ffffff;fill-opacity:1;stroke:none;font-family:NeoRetroFill;-inkscape-font-specification:NeoRetroFill"
       d="m 269.04591,594.14255 c -0.52282,1.92296 -0.7842,3.05913 -0.78411,3.40851 -9e-5,0.4374 0.0866,0.9188 0.26002,1.44422 l -0.78411,0.78411 c -1.66166,0.088 -4.24069,0.13202 -7.73715,0.13201 -4.36871,1e-5 -10.98835,-0.17468 -19.85896,-0.52407 -8.87068,-0.34938 -15.53434,-0.52407 -19.99098,-0.52408 -2.01098,10e-6 -5.02609,0.088 -9.04535,0.26404 -0.52542,-6.37961 -0.78813,-14.28878 -0.78812,-23.72753 -1e-5,-3.93389 0.066,-9.83342 0.19803,-17.69865 0.13201,-7.86512 0.19801,-13.76465 0.19803,-17.69863 -2e-5,-5.59276 -0.13203,-11.18559 -0.39606,-16.77851 1.92295,-0.69867 3.7152,-1.04806 5.3768,-1.04814 0.87478,8e-5 1.70425,0.13076 2.48838,0.39204 l 0.6561,1.04817 1.18017,65.15369 c 1.04815,1.13621 3.0151,1.70428 5.90088,1.70426 l 42.2103,0 c 0.6987,0.69879 1.04809,1.48558 1.04814,2.36037 -5e-5,0.52275 -0.0441,0.95881 -0.13201,1.30819 z" />
    <path
       inkscape:export-ydpi="400.17322"
       inkscape:export-xdpi="400.17322"
       inkscape:export-filename="C:\Users\Evan\Code\Lemma\Lemma\Content\Images\logo.png"
       inkscape:connector-curvature="0"
       id="path2992-3"
       style="font-size:144px;font-style:normal;font-variant:normal;font-weight:normal;font-stretch:normal;line-height:125%;letter-spacing:0px;word-spacing:0px;fill:#ffffff;fill-opacity:1;stroke:none;font-family:NeoRetroFill;-inkscape-font-specification:NeoRetroFill"
       d="m 349.32732,596.37087 c -7e-5,0.61344 0.044,1.09485 0.13203,1.44423 l -0.78811,0.7881 c -1.13625,10e-6 -2.88317,10e-6 -5.24078,0 -2.36042,0.0854 -4.1527,0.12804 -5.3768,0.12803 -4.36872,10e-6 -10.90102,-0.0873 -19.59693,-0.26203 -8.69599,-0.17469 -15.2283,-0.26204 -19.59693,-0.26206 -5.5075,2e-5 -11.10166,0.13204 -16.7825,0.39606 -0.52274,-2.01094 -0.78412,-4.0219 -0.78411,-6.03288 -10e-6,-1.74692 0.21803,-4.36864 0.65409,-7.86518 0.43607,-3.4965 0.65409,-6.11821 0.65411,-7.86517 -2e-5,-1.39751 -0.0874,-3.45116 -0.26204,-6.16093 -0.1747,-2.7097 -0.26206,-4.76332 -0.26205,-6.16091 -10e-6,-2.53366 0.10934,-6.35689 0.32806,-11.46972 0.21869,-5.11269 0.32804,-8.93726 0.32805,-11.4737 -10e-6,-3.6698 -0.21872,-7.20901 -0.65611,-10.61759 -0.52274,-4.10719 -0.78412,-5.72344 -0.78411,-4.84871 -10e-6,-1.48547 0.78544,-2.22825 2.35635,-2.22834 0.35205,9e-5 0.89946,0.0434 1.64224,0.13003 0.74277,0.0867 1.33153,0.1301 1.76627,0.13002 0.87478,8e-5 1.57489,-0.21862 2.10031,-0.6561 4.89404,0.70151 11.36033,1.05224 19.3989,1.05215 3.05909,9e-5 7.64776,-0.0659 13.76604,-0.19803 6.11819,-0.13194 10.70687,-0.19794 13.76606,-0.19802 0.87207,8e-5 2.13892,8e-5 3.80057,0 1.74686,0.0881 3.01371,0.1321 3.80055,0.13201 0.61337,-0.17328 0.87607,-0.25995 0.78813,-0.26004 0.26129,-0.26396 0.56668,-0.39596 0.91613,-0.39605 0.52533,9e-5 0.91874,0.21877 1.18018,0.65609 l -1.04815,7.47313 c -6.20633,0.69884 -14.29018,1.04822 -24.25162,1.04814 -2.27238,8e-5 -5.68089,-0.0439 -10.22553,-0.13203 -4.5447,9e-5 -7.9532,9e-5 -10.22552,0 -2.88311,9e-5 -5.02477,0.0441 -6.42496,0.13203 l -1.96429,2.09632 c 0.26134,1.31227 0.39205,2.66712 0.39206,4.0646 -10e-6,1.13624 -0.17472,2.94984 -0.52407,5.44081 -0.34942,2.4911 -0.4801,4.43539 -0.39207,5.83287 l 0.13203,1.70425 1.44021,1.44422 c 2.1843,0.52279 4.98072,0.78417 8.38924,0.78411 7.95316,6e-5 10.92426,-0.044 8.91333,-0.13201 3.49649,0.088 6.42492,0.56946 8.78531,1.44421 l 0,6.42496 c -2.88313,0.26143 -5.72356,0.3921 -8.52127,0.39205 -9.35076,5e-5 -15.46899,0.34944 -18.35474,1.04816 l -0.65208,0.78812 0.39205,23.46349 1.70426,1.70426 c 2.01093,-0.088 4.98204,-0.13199 8.91332,-0.13201 4.10724,2e-5 10.24682,0.15337 18.41875,0.46006 8.17183,0.30672 14.31141,0.46009 18.41875,0.46007 4.01919,2e-5 7.03431,-0.044 9.04535,-0.13202 0.52534,0.61078 0.78803,1.39756 0.7881,2.36036 -7e-5,0.52276 -0.0661,1.22153 -0.19803,2.0963 -0.13209,0.87482 -0.1981,1.52958 -0.19803,1.96429 z" />
    <path
       inkscape:export-ydpi="400.17322"
       inkscape:export-xdpi="400.17322"
       inkscape:export-filename="C:\Users\Evan\Code\Lemma\Lemma\Content\Images\logo.png"
       id="path2996-5"
       style="font-size:144px;font-style:normal;font-variant:normal;font-weight:normal;font-stretch:normal;line-height:125%;letter-spacing:0px;word-spacing:0px;fill:#5bafcd;fill-opacity:1;stroke:none;font-family:NeoRetroFill;-inkscape-font-specification:NeoRetroFill"
       d="m 430.07251,584.5257 -0.39207,-1.30819 c -0.1761,-0.34938 -0.30812,-0.69876 -0.39605,-1.04815 -9e-5,-0.87479 0.0439,-2.18565 0.13201,-3.93259 -7e-5,-1.74959 -7e-5,-3.06045 0,-3.93259 -7e-5,-3.14711 -0.0874,0.91509 -0.26203,-5.33387 -0.37569,-2.43125 -0.26212,-5.81596 -0.26205,-7.46862 -7e-5,-4.19525 0.13061,-8.30253 0.39207,-12.32185 -0.17344,-0.6987 -0.56683,-1.0481 -1.18018,-1.04815 l -0.52407,0 c -2.18441,4.10734 -5.7676,10.09355 -10.74961,17.95867 -0.43747,0.52546 -0.3993,2.00651 -1.18602,3.14264 -0.26143,0.6108 -1.30374,0.87799 -1.82643,2.10215 -1.05088,2.27237 -3.23654,6.07427 -6.55698,11.4057 -2.97116,4.71805 -4.72025,8.33025 -6.29293,8.16429 -1.97852,0.14201 -2.75112,-0.5618 -4.0606,-3.44758 -1.05087,-2.44569 -2.10036,-4.89271 -3.14848,-7.34111 -5.24347,-10.48686 -10.66162,-19.61887 -16.25442,-27.39607 -1.2242,-0.34934 -2.36037,-1.13612 -3.40851,-2.36035 -0.17604,0.87484 -0.26406,1.52962 -0.26404,1.96429 -2e-5,0.78683 0.13133,1.94501 0.39406,3.47452 0.26268,1.5296 0.39404,2.68777 0.39406,3.47452 -2e-5,-0.0879 -0.39342,13.23933 -1.18017,39.98195 -1.30954,0.70145 -2.7951,1.05216 -4.45667,1.05215 -1.22419,10e-6 -3.05914,-0.17602 -5.50482,-0.52807 -0.78679,-6.37961 -1.18017,-13.85137 -1.18017,-22.41534 0,-4.28328 1.10605,-10.77224 1.36744,-19.4669 0.26136,-8.69458 -0.58334,-15.22754 -0.58333,-19.59893 -10e-6,-6.29152 -0.1307,-11.05356 -0.39207,-14.28613 1.04816,9e-5 2.57772,-0.0439 4.5887,-0.13202 2.01094,9e-5 3.4965,9e-5 4.45667,0 1.13615,9e-5 2.01027,0.54617 2.62237,1.63824 0.61208,1.09225 1.11482,2.09707 1.50824,3.01446 0.39337,0.91755 1.20082,2.38175 2.42236,4.39264 2.2723,3.75798 5.8555,10.35629 10.7496,19.79497 4.54463,8.47597 8.25986,14.98627 11.14566,19.53089 1.57352,-0.43735 3.40845,-2.53498 5.50482,-6.29292 1.0481,-1.92292 4.4611,-7.02627 11.53956,-18.56138 5.07002,-8.2145 9.43549,-16.83183 11.79592,-22.60076 0.87205,-0.96006 2.0509,-1.44013 3.53652,-1.44022 0.61335,9e-5 1.51014,0.10944 2.69041,0.32806 l 3.6722,0.19602 c 1.13614,9e-5 2.01026,0.54617 2.62239,1.63824 0.61206,1.09225 1.1148,2.09707 1.50821,3.01446 0.39338,0.91755 1.20082,2.38175 2.42237,4.39264 2.27231,3.75798 5.85551,10.35629 10.7496,19.79497 4.54464,8.47597 8.25985,14.98627 11.14566,19.53089 1.57353,-0.43735 3.40846,-2.53498 5.50482,-6.29292 1.0481,-1.92292 4.78624,-9.62729 11.86469,-21.1624 5.07001,-8.21449 9.11036,-14.23081 11.47078,-19.99974 0.87206,-0.96006 2.0509,-1.44013 3.53652,-1.44022 0.61335,9e-5 1.51016,0.10944 2.69043,0.32806 1.18007,0.21878 2.07554,0.32813 2.68638,0.32804 l 1.04817,0 c 0.52533,3.58196 0.78803,8.08261 0.78811,13.50201 -8e-5,5.68091 0.54082,13.85438 0.32221,25.17068 -0.21879,11.31639 -0.97839,20.14011 -0.97832,25.82093 -7e-5,1.31221 0.0439,3.27916 0.13204,5.90087 -9e-5,2.62175 -9e-5,4.58871 0,5.90088 -0.87489,0.43475 -1.96839,0.65211 -3.28049,0.6521 -1.57099,10e-6 -3.53662,-0.39338 -5.89688,-1.18017 l -0.39207,-1.30819 c -0.1761,-0.34939 -0.30811,-0.69876 -0.39607,-1.04817 -6e-5,-0.87478 0.044,-2.18564 0.13204,-3.93258 -7e-5,-1.74959 -7e-5,-3.06044 0,-3.93258 -7e-5,-3.14711 -0.0874,-7.84515 -0.26205,-14.09412 -0.17476,-6.24888 -0.26209,-10.90289 -0.26202,-13.96206 -7e-5,-4.19525 0.1306,-8.30253 0.39203,-12.32185 -0.17342,-0.6987 -0.56681,-1.0481 -1.18016,-1.04815 l -0.52409,0 c -2.18438,4.10734 -5.76758,10.09355 -10.74958,17.95867 -0.43746,0.52546 -1.04956,1.35625 -1.83628,2.49238 -0.26144,0.61079 -0.6535,1.52825 -1.17618,2.75241 -1.05088,2.27237 -3.23653,6.07427 -6.55698,11.4057 -2.97116,4.71805 -4.48787,8.38834 -6.35102,8.62904 -1.97853,0.142 -2.69303,-1.02655 -4.00252,-3.91233 -1.05087,-2.44569 -8.27778,-13.9963 -9.32589,-16.44469 -4.7558,-7.88583 -1.88318,-4.50043 -7.47598,-12.27764 -1.22421,-0.34933 -4.96139,-7.15097 -6.00952,-8.3752 -0.17605,0.87484 -0.26407,1.52962 -0.26405,1.96429 -2e-5,0.78683 0.13133,1.94501 0.39406,3.47452 0.26268,1.5296 0.39404,2.68777 0.39406,3.47452 -2e-5,-0.0879 -1.18018,24.72827 -1.18018,24.72827 -1.30955,0.70144 -2.7951,1.05216 -4.45667,1.05215 z"
       inkscape:connector-curvature="0"
       sodipodi:nodetypes="ccccccccccccccccccccccccccssscccccccccccccccccccccccccccccccccccccccccccccccccccccccc" />
    <path
       inkscape:export-ydpi="400.17322"
       inkscape:export-xdpi="400.17322"
       inkscape:export-filename="C:\Users\Evan\Code\Lemma\Lemma\Content\Images\logo.png"
       inkscape:connector-curvature="0"
       id="path2998-3"
       style="font-size:144px;font-style:normal;font-variant:normal;font-weight:normal;font-stretch:normal;line-height:125%;letter-spacing:0px;word-spacing:0px;fill:#ffffff;fill-opacity:1;stroke:none;font-family:NeoRetroFill;-inkscape-font-specification:NeoRetroFill"
       d="m 588.95888,599.65136 c -0.52549,1e-5 -1.35628,-0.044 -2.49236,-0.13201 -1.04824,10e-6 -1.8777,10e-6 -2.48838,0 -1.22426,-1.57356 -2.44845,-4.0646 -3.67254,-7.47312 -0.96022,-2.6217 -1.87769,-5.28743 -2.75242,-7.99719 -2.53377,-6.37958 -6.46635,-9.5694 -11.79776,-9.56942 -0.17607,2e-5 -0.52547,2e-5 -1.04815,0 -0.43745,0.088 -0.78684,0.13205 -1.04816,0.13201 -1.48561,4e-5 -3.75794,-0.10931 -6.81702,-0.32804 -3.05917,-0.21867 -5.37551,-0.32802 -6.94902,-0.32805 -0.87484,3e-5 -2.16437,0.13139 -3.86859,0.39406 -1.70429,0.26273 -2.90579,0.39408 -3.60454,0.39406 -0.61079,2e-5 -1.35356,-0.13199 -2.22832,-0.39606 -1.13621,-0.26135 -1.87898,-0.39203 -2.22835,-0.39206 -1.39757,2.09901 -3.80058,6.38098 -7.20908,12.84592 -2.88576,5.41948 -5.50749,9.57076 -7.86515,12.45385 -1.66159,0.26405 -3.32185,0.39606 -4.98075,0.39605 -1.92296,1e-5 -3.49653,-0.39337 -4.7207,-1.18016 5.41946,-10.9243 13.94073,-27.18002 25.56381,-48.76727 0.69874,-1.13612 1.70289,-2.84037 3.01244,-5.11277 0.52539,-1.22412 1.35617,-3.01572 2.49238,-5.3748 1.13614,-2.35895 2.27231,-4.67463 3.40851,-6.94703 1.3975,-2.79768 2.35897,-5.24471 2.88443,-7.3411 0.69873,-0.96272 1.74688,-1.44413 3.14447,-1.44421 0.69872,8e-5 1.6822,0.13143 2.95043,0.39406 1.26815,0.26278 2.20762,0.39414 2.81842,0.39405 l 0.39206,0 c 1.13612,2.01105 2.75369,5.02617 4.85273,9.04535 -6e-5,8e-5 0.8734,2.1844 2.62039,6.55297 2.97104,7.4305 7.34103,17.30664 13.10995,29.62843 6.72892,14.24481 11.2296,24.03293 13.50201,29.36437 -1.39763,0.52541 -3.05787,0.78812 -4.98074,0.78811 z m -26.21991,-44.83467 c -0.34943,-1.04811 -0.91752,-2.66434 -1.70425,-4.84873 -1.22424,-2.27227 -2.9725,-5.68078 -5.24478,-10.22553 -0.17341,-0.0879 -0.43478,-0.13194 -0.78412,-0.13202 -0.43743,8e-5 -0.74282,0.0441 -0.91612,0.13202 -0.61348,1.39761 -2.79914,5.3742 -6.55699,11.92979 -2.79513,4.89411 -4.45536,9.08807 -4.98074,12.58187 2.62168,-0.0853 6.16087,-0.0413 10.61758,0.13203 5.15539,0.2614 8.69457,0.39209 10.61758,0.39205 1.31214,4e-5 2.31763,-0.0426 3.01646,-0.12801 -0.34946,-0.96277 -1.70432,-4.2406 -4.06462,-9.83347 z" />
    <path
       inkscape:export-ydpi="400.17322"
       inkscape:export-xdpi="400.17322"
       inkscape:export-filename="C:\Users\Evan\Code\Lemma\Lemma\Content\Images\logo.png"
       sodipodi:nodetypes="scccsscscsscscsssccscs"
       inkscape:connector-curvature="0"
       id="rect2992"
       d="m 153.3527,563.37326 -13.61816,0 -2.18779,0.39779 -2.08834,-0.39779 -4.6075,0 c -1.18132,0 -1.89211,0.39986 -2.85602,0.92875 -0.74826,0.41057 -1.80712,0.85938 -2.3474,1.51169 0.42512,0.8693 -1.54712,2.66864 -1.54712,4.31011 l 0.49722,14.15837 -0.49722,8.34341 c -0.0989,1.65981 0.48528,3.17811 1.4934,4.35263 0.55495,0.64656 2.28289,1.1271 2.00761,1.57307 0.97587,0.50292 2.08885,0.78995 3.24953,0.82484 l 16.54087,0.49722 5.96092,-0.49722 c 1.37825,-0.11497 2.75977,-0.85499 3.72887,-1.25684 2.01093,-0.83386 3.05769,-3.13748 3.02167,-5.4937 l -0.18382,-12.02275 -0.5123,-2.48623 0.69612,-7.9928 c 0.21888,-2.51319 -0.27607,-4.31589 -2.31566,-5.47477 -0.98401,-0.55911 -3.21778,-1.27578 -4.43488,-1.27578 z"
       style="fill:#5bafcd;fill-opacity:1;stroke:none" />
    <path
       inkscape:export-ydpi="400.17322"
       inkscape:export-xdpi="400.17322"
       inkscape:export-filename="C:\Users\Evan\Code\Lemma\Lemma\Content\Images\logo.png"
       sodipodi:nodetypes="cccsssscccsscscscccssc"
       inkscape:connector-curvature="0"
       id="rect2994"
       d="m 153.3527,522.02621 -10.63986,0.97522 -8.34832,-0.67689 -3.51361,-0.29833 c -1.41717,-0.12033 -2.72112,0.25756 -3.79197,0.97782 -0.77654,0.5223 -0.93327,1.02576 -1.41892,1.84872 -0.60561,1.02626 -1.44671,2.43897 -1.4402,3.72511 l 0.0666,13.14272 -0.4306,1.78944 0.37191,1.58894 -0.10734,6.17957 c -0.065,3.73924 3.01074,6.75054 6.75054,6.75054 l 10.87253,-0.49722 11.62926,0.49722 c 1.82967,0.0782 3.14821,-1.83567 4.42905,-1.83717 1.12752,-1.24516 1.73411,-3.00764 1.82427,-4.91337 l 0.38639,-8.16787 0.40168,-7.3559 -0.34048,-2.69254 0.0496,-4.28548 c 0.0433,-3.73954 -3.01074,-6.75053 -6.75053,-6.75053 z"
       style="fill:#5bafcd;fill-opacity:1;stroke:none" />
    <path
       inkscape:export-ydpi="400.17322"
       inkscape:export-xdpi="400.17322"
       inkscape:export-filename="C:\Users\Evan\Code\Lemma\Lemma\Content\Images\logo.png"
       sodipodi:nodetypes="scsscccsscscccsssccccssss"
       inkscape:connector-curvature="0"
       id="rect2998"
       d="m 194.41848,563.37326 -10.62989,0.895 -11.8719,-0.895 c -3.72922,-0.28113 -6.75054,3.01075 -6.75054,6.75055 l 0,6.20279 -0.49722,2.38667 0.49722,2.08834 0,11.82398 c 0,1.47799 0.47024,2.8421 1.26987,3.95151 0.63418,0.87984 1.67441,3.09116 2.4538,2.08867 0.90944,0.45476 3.131,1.04 4.2202,1.00869 l 10.38023,-0.29833 2.58557,-0.39778 2.98334,0.39778 5.35932,0 c 2.14497,0 4.84567,-1.28876 5.28491,-2.54077 0.48786,-1.39055 1.46563,-2.61494 1.46563,-4.20977 l 0,-6.25506 -0.49722,-1.59113 0.49722,-2.18778 -0.71229,-6.86465 0.11562,-5.40428 c 0.0248,-1.16171 0.25403,-2.64967 -0.63107,-3.25163 -0.74003,-0.5033 -1.1012,-1.8638 -1.93603,-2.50402 -0.97783,-0.7499 -2.19618,-1.19378 -3.58677,-1.19378 z"
       style="fill:#5bafcd;fill-opacity:1;stroke:none" />
    <path
       inkscape:export-ydpi="400.17322"
       inkscape:export-xdpi="400.17322"
       inkscape:export-filename="C:\Users\Evan\Code\Lemma\Lemma\Content\Images\logo.png"
       sodipodi:nodetypes="cccscsccsssccscsscsc"
       inkscape:connector-curvature="0"
       id="rect3000"
       d="m 181.79969,522.02621 -3.18223,0.39778 -3.59356,-0.46443 -3.10721,0.0667 c -1.10455,0.0237 -2.14563,0.29614 -3.06434,0.76472 -0.60002,1.91314 -3.85461,0.46949 -3.6862,5.98581 l 0.47116,4.79016 -0.61911,6.16491 0.84407,11.84505 c 0.14235,1.99774 0.4657,2.90151 1.84222,4.13568 1.19382,1.07037 2.48261,2.42975 4.2122,2.31653 l 7.59577,-0.49722 9.04694,0.67412 5.85908,-0.1769 c 1.28161,-0.0387 2.77624,0.29136 3.49676,-1.01988 1.95286,-1.17902 3.25378,-3.27305 3.25378,-5.73066 l 0,-22.50179 c 0,-3.7398 -1.88336,-5.25287 -5.45776,-6.35275 -1.38808,-0.30232 -3.90667,0.24082 -5.34871,0.17362 -3.20386,-0.14933 -5.39939,-0.57143 -8.56286,-0.57143 z"
       style="fill:#5bafcd;fill-opacity:1;stroke:none" />
    <path
       inkscape:export-ydpi="400.17322"
       inkscape:export-xdpi="400.17322"
       sodipodi:nodetypes="cccccscccccccsssssscccccccccscssssssscssscccssssccccsscccsscsccssssssssccsssscssccssccsccsccsszcccscscccccccccccccccccccccccccccccccccccccccccccccccccccccccccccscsscssccccsscccscsssscsscscccccccccccccssccsssssssssscscc"
       inkscape:connector-curvature="0"
       id="path3012"
       d="m 157.35337,584.06013 -4.02834,5.36918 0.42248,0.7391 c 0,0 -1.47702,0.39757 -1.94812,0.75214 0,0 -0.55542,0.46353 -1.3033,1.19407 l -1.56912,0.95976 c -1.53837,0.94097 -1.08383,1.57991 -1.08383,1.57991 l 0.0794,1.22021 1.61308,2.31612 3.78476,2.31304 -0.90803,1.23289 0.3935,1.38388 3.65728,1.75995 c 0,0 1.50073,1.04059 2.34369,1.62102 0.90114,0.62049 2.83511,1.41552 3.30635,1.79079 0.78874,0.62811 2.5892,1.12025 4.45311,2.12464 1.3541,0.72968 4.38473,0.95091 4.38473,0.95091 0.21253,-0.63245 0.73808,-0.65274 0.78984,-1.1016 0.11184,-0.97006 -0.17382,-1.95613 -0.75897,-2.73807 -0.49925,-0.66756 -1.48983,-2.15996 -1.48983,-2.15996 l -2.64648,-2.06158 -0.0423,-0.61274 -0.4221,-0.6009 -0.10562,-0.97168 -0.56872,-0.53531 0.11414,-0.77483 -0.72245,-1.44145 0.52316,-0.35261 c 0,0 -0.0873,-3.17965 0.49302,-4.8298 1.12524,-3.19936 5.45255,-8.59001 5.45255,-8.59001 0,0 4.19044,-2.84924 6.32462,-4.21417 1.01183,-0.64712 2.01774,-1.30753 3.07137,-1.88406 1.23646,-0.67657 2.65047,-1.0355 3.80537,-1.84344 0.78717,-0.55068 1.64003,-1.14645 2.06947,-2.0058 0.40409,-0.80865 0.50337,-1.80137 0.34036,-2.69055 -0.13576,-0.74072 -0.4836,-1.51055 -1.06016,-1.99501 -0.57656,-0.48445 -1.41395,-0.53174 -2.14786,-0.70054 -0.38096,-0.0876 -1.16177,-0.16003 -1.16177,-0.16003 0,0 0.28609,-0.91183 0.31539,-1.17526 0.0293,-0.26342 0.096,-1.6523 -0.30586,-2.32137 -0.48093,-0.80072 -1.4123,-1.28387 -2.28056,-1.6282 -1.17224,-0.46488 -2.48776,-0.49435 -3.74873,-0.50941 l -3.17335,-0.6086 -7.7826,0.62047 c 0,0 1.78698,-1.24187 2.46681,-1.33138 0.55023,-0.0725 1.1588,-0.17898 1.5596,-0.32746 0.83564,-0.3095 1.65722,-0.75928 2.27875,-1.39785 1.0762,-1.10569 1.87014,-2.29371 2.55407,-3.67681 0.9447,-1.91047 1.1282,-2.73997 1.82455,-4.49841 l 0.75723,-1.80279 0.79866,-1.69969 0.18025,-0.49387 c 0,0 2.32014,-0.44897 3.18717,-0.24123 0.9323,0.22338 2.59879,3.47666 3.40012,3.87818 0.65256,0.32698 1.42963,0.31863 1.42963,0.31863 l 0.86294,-0.25937 0.72448,-0.5794 c 0,0 0.32214,0.10844 0.48875,0.10514 0.14902,-0.003 0.30696,-0.0317 0.43307,-0.11127 0.0879,-0.0554 0.20064,-0.23878 0.20064,-0.23878 0,0 0.38466,0.0341 0.54927,-0.0477 0.20966,-0.10413 0.47134,-0.52055 0.47134,-0.52055 l 0.23407,-0.27857 c 0,0 0.40175,0.2593 0.62086,0.35193 0.21794,0.0922 0.44684,0.23048 0.68138,0.1991 0.21723,-0.0291 0.42147,-0.17433 0.56046,-0.34379 0.29194,-0.35598 0.30216,-0.87031 0.47781,-1.29588 0.19887,-0.48181 0.36637,-0.98518 0.65138,-1.42162 0.16585,-0.25398 0.36387,-0.49579 0.60508,-0.67973 0.48124,-0.36698 1.14141,-0.44444 1.62723,-0.80534 0.6477,-0.48116 1.18239,-1.11256 1.65442,-1.76696 0.48108,-0.66693 1.17688,-2.16823 1.17688,-2.16823 l 0.2024,-1.49333 c 0,0 0.0741,-2.11306 -0.19696,-3.1189 -0.31193,-1.15772 -0.94848,-2.21619 -1.60751,-3.21783 -0.50262,-0.76387 -1.08505,-1.48954 -1.76849,-2.09701 -0.56063,-0.49832 -2.70023,-1.75049 -3.37146,-2.08525 -0.84387,-0.42085 -2.56928,-0.86885 -2.56928,-0.86885 0,0 -0.12525,-0.52239 -0.55644,-1.05678 -0.68019,-0.84298 -0.48907,-1.47848 -1.50211,-1.86189 -0.87874,-0.33258 -2.78572,-0.42995 -2.78572,-0.42995 l -2.84179,-1.07097 c 0,0 -12.66083,-6.18506 -13.33215,-5.92114 -0.72478,0.28493 -1.17296,1.14618 -1.93422,1.31042 -1.17451,0.25339 -3.55236,-0.61155 -3.55236,-0.61155 l 2.21303,2.1205 c 0,0 -0.45526,1.94856 0.16723,1.96121 4.44276,0.0906 11.99755,2.98421 11.99755,2.98421 l 3.03854,1.51404 c 0,0 0.8346,1.07427 2.04721,1.10289 1.66619,0.0393 2.045,0.97773 2.045,0.97773 l 0.88745,0.56949 c 0,0 -1.04658,0.8458 -1.91808,2.04897 -0.64831,0.89504 -0.71212,1.97559 -0.99646,2.62118 -0.2452,0.55669 -0.49576,1.41806 -0.90895,2.12876 -0.41319,0.71072 -0.35692,0.96824 -1.00506,1.55081 l -1.3489,0.68995 -0.0237,-0.29606 c 0,0 -5.14856,-3.28611 -6.01075,-3.4155 -0.92997,-0.13956 -3.41887,-0.28351 -3.41887,-0.28351 0,0 -0.56409,-0.58083 -0.91533,-0.76911 -1.63429,-0.87607 -4.88455,-2.10544 -4.88455,-2.10544 l -2.45576,-1.27754 -0.55201,0.77895 -2.41315,-0.96775 -6.02461,-3.28587 -4.17848,-2.4548 -4.81339,-2.55621 -4.83821,-2.24099 -3.55273,-1.25689 -5.52941,-2.3897 -3.46031,-1.99537 -4.29786,-2.02703 -3.24651,-1.33565 -2.98543,-0.7322 -0.49987,0.25211 -0.58417,0.12227 -0.13859,0.52855 0.47757,0.40127 0.60813,0.20548 -0.31684,0.17508 0.0238,0.69891 0.37088,0.44744 0.97267,0.57965 2.42138,1.11801 1.43115,0.76121 0.94876,0.72932 0.37091,0.44743 0.17342,0.72282 -0.78806,-0.15296 -1.9836,-0.75016 -1.11444,-0.0877 -0.4777,0.44728 0.005,0.47923 0.355,0.26434 0.98704,0.32015 1.08253,0.57012 1.90236,1.08927 2.26383,0.57825 1.43766,-0.0141 1.14317,-0.43128 0.84538,-0.0366 2.10937,0.92371 2.99442,1.76925 3.61364,2.52716 2.99124,1.73262 2.85597,1.44922 4.47504,1.82517 1.29906,0.51444 1.60941,1.1147 1.22099,0.89015 2.2271,1.43002 2.30351,1.46026 -2.14928,-0.10858 -1.91368,0.0554 -3.33708,0.65862 -3.69996,-0.12155 -2.53772,-0.33313 -2.52818,-0.22326 -3.8608,0.15067 c 0,0 -0.3095,0.17097 -0.34075,0.32472 -0.0386,0.18984 0.23077,0.53338 0.23077,0.53338 0,0 -0.31707,0.11636 -0.38373,0.25467 -0.0904,0.18763 -0.0639,0.45082 0.054,0.62252 0.12133,0.17667 0.84118,0.46518 0.84118,0.46518 0,0 -0.59579,0.17417 -0.61842,0.40094 -0.0189,0.18926 0.0659,0.39608 0.19415,0.53655 0.18135,0.19866 0.73071,0.34241 0.73071,0.34241 l 2.08558,0.22479 1.51724,0.0528 -2.62062,0.41195 c 0,0 -0.71576,0.0722 -0.89319,0.33579 -0.11637,0.17318 -0.11591,0.46522 0.0175,0.62569 0.21302,0.25632 0.9775,0.21029 0.9775,0.21029 l 2.24325,-0.084 1.42812,-0.12397 c 0,0 0.2398,0.46017 0.23799,0.70968 -0.002,0.23133 0.0176,0.17965 0.0176,0.17965 0,0 -1.05516,0.19724 -1.50936,0.46306 -0.27082,0.15851 -0.57053,0.35594 -0.6815,0.64946 -0.065,0.17191 -0.0847,0.42178 0.0477,0.54928 0.37775,0.36385 1.45592,-0.0567 1.45592,-0.0567 0.80815,0.0564 1.89574,-0.16656 1.89574,-0.16656 0,0 1.12829,-0.49705 1.5517,-0.80473 0.46341,-0.33675 0.60675,-0.55328 0.97168,-0.99483 0.21589,-0.26121 0.34497,-0.35116 0.34497,-0.35116 0,0 0.633,-0.26664 0.96963,-0.30553 0.60428,-0.0698 1.81972,0.13719 1.81972,0.13719 l 3.36556,0.51953 2.41834,0.2328 2.28303,-0.0506 2.10796,-0.36746 1.29906,0.51444 0.97267,0.57964 -2.25965,3.29527 -1.31062,2.32742 -1.57344,3.12501 -1.43319,2.19047 -1.84795,0.98299 -3.16489,1.19694 c 0,0 -2.89719,0.20622 -3.93556,1.11693 -0.68673,0.60228 0.8534,1.77906 0.38461,2.31827 -0.21004,0.24158 -2.4511,1.92423 -2.4511,1.92423 l -0.20989,-0.23339 c 0,0 -0.59921,0.54933 -0.78348,0.69475 -0.67892,0.53581 -1.31932,1.13621 -1.8505,1.81875 -0.97728,1.25579 -1.25423,2.11687 -1.89035,3.57544 -0.48491,1.11186 -0.87291,2.28358 -1.05424,3.48296 -0.11184,0.73987 -0.0439,1.4971 -0.0138,2.24477 0.0418,1.03877 -0.0682,2.12399 0.26972,3.10716 0.29978,0.87233 0.86616,1.65709 1.50594,2.32155 0.89554,0.93012 2.02959,1.61946 3.16756,2.2295 1.10638,0.59311 2.30601,1.00937 3.50994,1.36495 1.1619,0.34318 2.36037,0.56217 3.55956,0.73453 0.81767,0.11754 2.4699,0.20301 2.4699,0.20301 0,0 1.82827,0.61733 2.77828,0.75018 1.2459,0.17422 3.7737,0.0534 3.7737,0.0534 z"
       style="fill:#ffffff;fill-opacity:1;stroke:none"
       inkscape:export-filename="C:\Users\Evan\Code\Lemma\Lemma\Content\Images\logo.png" />
  </g>
</svg>
