<?xml version="1.0" encoding="UTF-8" standalone="no"?>
<!-- Created with Inkscape (http://www.inkscape.org/) -->

<svg
   xmlns:dc="http://purl.org/dc/elements/1.1/"
   xmlns:cc="http://creativecommons.org/ns#"
   xmlns:rdf="http://www.w3.org/1999/02/22-rdf-syntax-ns#"
   xmlns:svg="http://www.w3.org/2000/svg"
   xmlns="http://www.w3.org/2000/svg"
   xmlns:sodipodi="http://sodipodi.sourceforge.net/DTD/sodipodi-0.dtd"
   xmlns:inkscape="http://www.inkscape.org/namespaces/inkscape"
   width="512"
   height="512"
   id="svg3008"
   version="1.1"
   inkscape:version="0.48.4 r9939"
   sodipodi:docname="logo.svg"
   inkscape:export-filename="C:\Users\Evan\Code\Lemma\Assets\logo.png"
   inkscape:export-xdpi="90"
   inkscape:export-ydpi="90">
  <defs
     id="defs3010" />
  <sodipodi:namedview
     id="base"
     pagecolor="#ffffff"
     bordercolor="#666666"
     borderopacity="1.0"
     inkscape:pageopacity="0.0"
     inkscape:pageshadow="2"
     inkscape:zoom="0.60905094"
     inkscape:cx="796.17891"
     inkscape:cy="80.126172"
     inkscape:document-units="px"
     inkscape:current-layer="layer1"
     showgrid="false"
     fit-margin-top="0"
     fit-margin-left="0"
     fit-margin-right="0"
     fit-margin-bottom="0"
     inkscape:window-width="1680"
     inkscape:window-height="1027"
     inkscape:window-x="1912"
     inkscape:window-y="359"
     inkscape:window-maximized="1" />
  <metadata
     id="metadata3013">
    <rdf:RDF>
      <cc:Work
         rdf:about="">
        <dc:format>image/svg+xml</dc:format>
        <dc:type
           rdf:resource="http://purl.org/dc/dcmitype/StillImage" />
        <dc:title />
      </cc:Work>
    </rdf:RDF>
  </metadata>
  <g
     inkscape:label="Layer 1"
     inkscape:groupmode="layer"
     id="layer1"
     transform="translate(-313.92856,-76.612228)">
    <rect
       style="fill:#000000;fill-opacity:1;stroke:none"
       id="rect3031"
       width="512"
       height="512"
       x="313.92856"
       y="76.612228" />
    <path
       inkscape:export-ydpi="400.17322"
       inkscape:export-xdpi="400.17322"
       inkscape:export-filename="C:\Users\Evan\Code\Lemma\Assets\path3012.png"
       sodipodi:nodetypes="scccsscscsscscsssccscs"
       inkscape:connector-curvature="0"
       id="rect2992"
       d="m 523.20825,347.1093 -67.12013,0 -10.78302,1.9606 -10.29285,-1.9606 -22.70909,0 c -5.8224,0 -9.32568,1.9708 -14.07653,4.57756 -3.68796,2.02357 -8.90678,4.23563 -11.56968,7.4507 2.0953,4.28454 -7.62533,13.15298 -7.62533,21.24333 l 2.45066,69.78269 -2.45066,41.12235 c -0.48745,8.18075 2.39182,15.66403 7.36056,21.45292 2.73519,3.18671 11.25173,5.55516 9.89496,7.75321 4.80978,2.47876 10.29536,3.89345 16.01602,4.06541 l 81.52538,2.45067 29.37971,-2.45067 c 6.79302,-0.56665 13.60216,-4.214 18.37858,-6.19461 9.91131,-4.10986 15.0705,-15.46377 14.89297,-27.07693 l -0.906,-59.25681 -2.52498,-12.25393 3.43098,-39.3943 c 1.0788,-12.38682 -1.36067,-21.27182 -11.41324,-26.98363 -4.84992,-2.75569 -15.85955,-6.28796 -21.85831,-6.28796 z"
       style="fill:#5bafcd;fill-opacity:1;stroke:none" />
    <path
       inkscape:export-ydpi="400.17322"
       inkscape:export-xdpi="400.17322"
       inkscape:export-filename="C:\Users\Evan\Code\Lemma\Assets\path3012.png"
       sodipodi:nodetypes="cccsssscccsscscscccssc"
       inkscape:connector-curvature="0"
       id="rect2994"
       d="m 523.20825,143.32114 -52.44092,4.80659 -41.14656,-3.3362 -17.31761,-1.47039 c -6.98483,-0.59307 -13.41164,1.26944 -18.68957,4.81941 -3.82735,2.57427 -4.59983,5.05568 -6.99345,9.11183 -2.9849,5.05815 -7.13044,12.02101 -7.09836,18.36003 l 0.32826,64.77683 -2.12232,8.81966 1.83305,7.83145 -0.52905,30.45738 c -0.32037,18.42967 14.83911,33.27154 33.27154,33.27154 l 53.58769,-2.45067 57.3174,2.45067 c 9.01795,0.38543 15.51666,-9.04751 21.82957,-9.0549 5.55723,-6.13705 8.54695,-14.82382 8.99132,-24.21664 l 1.9044,-40.25717 1.97978,-36.2552 -1.67813,-13.27078 0.24446,-21.12194 c 0.21341,-18.43116 -14.83911,-33.2715 -33.2715,-33.2715 z"
       style="fill:#5bafcd;fill-opacity:1;stroke:none" />
    <path
       inkscape:export-ydpi="400.17322"
       inkscape:export-xdpi="400.17322"
       inkscape:export-filename="C:\Users\Evan\Code\Lemma\Assets\path3012.png"
       sodipodi:nodetypes="scsscccsscscccsssccccssss"
       inkscape:connector-curvature="0"
       id="rect2998"
       d="m 725.61012,347.1093 -52.39178,4.4112 -58.51332,-4.4112 c -18.38029,-1.38561 -33.27154,14.83916 -33.27154,33.27159 l 0,30.57184 -2.45065,11.76323 2.45065,10.29285 0,58.27712 c 0,7.28461 2.31768,14.00793 6.25884,19.4759 3.1257,4.33649 8.2527,15.23548 12.0941,10.29448 4.48238,2.24139 15.43184,5.12588 20.8002,4.97155 l 51.16128,-1.47039 12.74355,-1.96054 14.70406,1.96054 26.41461,0 c 10.57196,0 23.88297,-6.35194 26.04785,-12.52275 2.40453,-6.85364 7.22369,-12.88831 7.22369,-20.74879 l 0,-30.82946 -2.45067,-7.84224 2.45067,-10.78296 -3.51068,-33.83395 0.56986,-26.6362 c 0.12223,-5.72575 1.25205,-13.0595 -3.11037,-16.02639 -3.64741,-2.48062 -5.42751,-9.18615 -9.54215,-12.34162 -4.81946,-3.69605 -10.82437,-5.88381 -17.6782,-5.88381 z"
       style="fill:#5bafcd;fill-opacity:1;stroke:none" />
    <path
       inkscape:export-ydpi="400.17322"
       inkscape:export-xdpi="400.17322"
       inkscape:export-filename="C:\Users\Evan\Code\Lemma\Assets\path3012.png"
       sodipodi:nodetypes="cccscsccsssccscsscsc"
       inkscape:connector-curvature="0"
       id="rect3000"
       d="m 663.41559,143.32114 -15.68433,1.96055 -17.71166,-2.28904 -15.31458,0.32874 c -5.44401,0.11682 -10.57521,1.45959 -15.10327,3.7691 -2.95734,9.42934 -18.99832,2.31398 -18.16827,29.50239 l 2.32222,23.60938 -3.05143,30.38513 4.16019,58.38097 c 0.70161,9.8463 2.29532,14.30074 9.0798,20.38362 5.884,5.27556 12.23609,11.97556 20.76076,11.41753 l 37.43745,-2.45065 44.58986,3.32255 28.87779,-0.8719 c 6.3167,-0.19074 13.68331,1.43604 17.23456,-5.0267 9.6251,-5.81107 16.03698,-16.13196 16.03698,-28.24484 l 0,-110.90509 c 0,-18.43243 -9.28256,-25.88993 -26.89979,-31.31094 -6.84146,-1.49005 -19.25489,1.18694 -26.36231,0.85572 -15.79094,-0.73601 -26.61209,-2.81642 -42.20397,-2.81642 z"
       style="fill:#5bafcd;fill-opacity:1;stroke:none" />
    <path
       inkscape:export-ydpi="400.17322"
       inkscape:export-xdpi="400.17322"
       sodipodi:nodetypes="cccccscccccccsssssscccccccccscssssssscssscccssssccccsscccsscsccssssssssccsssscssccssccsccsccsszcccscscccccccccccccccccccccccccccccccccccccccccccccccccccccccccccscsscssccccsscccscsssscsscscccccccccccccssccsssssssssscscc"
       inkscape:connector-curvature="0"
       id="path3012"
       d="m 542.92646,449.06916 -19.85458,26.46319 2.08229,3.64283 c 0,0 -7.27983,1.9595 -9.60175,3.70709 0,0 -2.7375,2.28461 -6.4236,5.88523 l -7.73375,4.73039 c -7.58221,4.63779 -5.34191,7.78694 -5.34191,7.78694 l 0.39135,6.01408 7.95042,11.41552 18.65403,11.40032 -4.47543,6.07658 1.93945,6.82076 18.02573,8.67431 c 0,0 7.39668,5.12878 11.5514,7.98956 4.44146,3.05822 13.97347,6.97671 16.29608,8.82631 3.88748,3.09578 12.76145,5.5214 21.94814,10.47176 6.67399,3.59639 21.61112,4.68678 21.61112,4.68678 1.0475,-3.11717 3.63779,-3.21718 3.89291,-5.42949 0.55123,-4.78116 -0.85671,-9.64122 -3.74076,-13.49519 -2.46066,-3.29022 -7.34295,-10.64584 -7.34295,-10.64584 l -13.04377,-10.16095 -0.20849,-3.02003 -2.08041,-2.96167 -0.52058,-4.78914 -2.80306,-2.6384 0.56257,-3.81893 -3.56076,-7.1045 2.57851,-1.73792 c 0,0 -0.43027,-15.67161 2.42996,-23.80475 5.54599,-15.76875 26.87411,-42.33778 26.87411,-42.33778 0,0 20.65352,-14.04312 31.1723,-20.77047 4.98704,-3.18948 9.94488,-6.44445 15.13793,-9.28601 6.09417,-3.33463 13.06344,-5.1037 18.75562,-9.08581 3.87974,-2.71415 8.08326,-5.65054 10.19985,-9.88603 1.99164,-3.98561 2.48096,-8.87845 1.67753,-13.26098 -0.66912,-3.6508 -2.38353,-7.44508 -5.22523,-9.83285 -2.84171,-2.38772 -6.96897,-2.6208 -10.58621,-3.45277 -1.87765,-0.43175 -5.72604,-0.78875 -5.72604,-0.78875 0,0 1.41006,-4.49415 1.55447,-5.79252 0.14441,-1.29832 0.47315,-8.14373 -1.50751,-11.44139 -2.37036,-3.94652 -6.96083,-6.32784 -11.24024,-8.02495 -5.77764,-2.29126 -12.26148,-2.43651 -18.47645,-2.51073 l -15.64057,-2.99963 -38.35827,3.05812 c 0,0 8.80752,-6.12083 12.15822,-6.56199 2.71193,-0.35734 5.7114,-0.88215 7.68684,-1.61397 4.11864,-1.52544 8.16797,-3.74228 11.23132,-6.88962 5.3043,-5.44963 9.2174,-11.30506 12.58831,-18.12197 4.65616,-9.41618 5.56058,-13.50456 8.9927,-22.17142 l 3.73217,-8.88545 3.93638,-8.3773 0.88841,-2.43415 c 0,0 11.43532,-2.21285 15.70867,-1.18895 4.59505,1.10097 12.80872,17.13549 16.75826,19.11447 3.21627,1.61159 7.04624,1.57044 7.04624,1.57044 l 4.2532,-1.27837 3.57076,-2.8557 c 0,0 1.58773,0.53447 2.4089,0.51821 0.73449,-0.0148 1.51293,-0.15624 2.13449,-0.54843 0.43323,-0.27304 0.9889,-1.17687 0.9889,-1.17687 0,0 1.89588,0.16807 2.70719,-0.2351 1.03336,-0.51324 2.32311,-2.56565 2.32311,-2.56565 l 1.15367,-1.37299 c 0,0 1.98012,1.27802 3.06005,1.73456 1.07417,0.45443 2.20235,1.13597 3.35833,0.98131 1.07067,-0.14343 2.0773,-0.85922 2.76236,-1.69445 1.43888,-1.75453 1.48925,-4.28951 2.35499,-6.38703 0.98017,-2.3747 1.80573,-4.85568 3.21047,-7.00677 0.81743,-1.2518 1.79341,-2.44361 2.98226,-3.3502 2.37191,-1.80874 5.6257,-2.19051 8.02017,-3.96929 3.19233,-2.37151 5.82768,-5.4835 8.15419,-8.70886 2.3711,-3.28712 5.80051,-10.68661 5.80051,-10.68661 l 0.99758,-7.3602 c 0,0 0.36521,-10.4147 -0.97077,-15.3722 -1.53742,-5.70609 -4.67479,-10.92299 -7.92297,-15.8598 -2.47728,-3.7649 -5.34791,-7.34152 -8.7164,-10.33558 -2.76319,-2.45607 -13.30869,-8.62768 -16.617,-10.27762 -4.15919,-2.07425 -12.66326,-4.28232 -12.66326,-4.28232 0,0 -0.61733,-2.57471 -2.74254,-5.20858 -3.35247,-4.15481 -2.41049,-7.28701 -7.40349,-9.17673 -4.33106,-1.6392 -13.73004,-2.11911 -13.73004,-2.11911 l -14.00639,-5.27851 c 0,0 -62.40173,-30.48445 -65.71048,-29.18366 -3.57224,1.40434 -5.78119,5.64921 -9.53323,6.4587 -5.78883,1.24889 -17.50861,-3.01416 -17.50861,-3.01416 l 10.90742,10.45136 c 0,0 -2.24385,9.60391 0.82423,9.66626 21.89713,0.44654 59.1326,14.70834 59.1326,14.70834 l 14.97612,7.46228 c 0,0 4.11352,5.29478 10.09014,5.43584 8.21218,0.1937 10.07923,4.81896 10.07923,4.81896 l 4.374,2.80686 c 0,0 -5.1583,4.16871 -9.45369,10.0988 -3.19534,4.41141 -3.50984,9.73714 -4.91127,12.91908 -1.20852,2.74376 -2.44347,6.98923 -4.47996,10.49207 -2.0365,3.50294 -1.75917,4.77218 -4.95366,7.64351 l -6.64836,3.40057 -0.11682,-1.4592 c 0,0 -25.37582,-16.19632 -29.62531,-16.83405 -4.58357,-0.68785 -16.85067,-1.39735 -16.85067,-1.39735 0,0 -2.78024,-2.86275 -4.5114,-3.79072 -8.05497,-4.31791 -24.0746,-10.37713 -24.0746,-10.37713 l -12.10376,-6.29664 -2.72071,3.83922 -11.89374,-4.76977 -29.69364,-16.19514 -20.59456,-12.09903 -23.72387,-12.59885 -23.84621,-11.04522 -17.51041,-6.19487 -27.25294,-11.77816 -17.0549,-9.83463 -21.18297,-9.99066 -16.00115,-6.583049 -14.71435,-3.608807 -2.46372,1.242575 -2.87922,0.602638 -0.68307,2.605071 2.35381,1.977756 2.9973,1.01275 -1.56161,0.862908 0.11731,3.444738 1.82796,2.20531 4.79402,2.85694 11.93431,5.51036 7.05374,3.75178 4.67617,3.59462 1.82812,2.20526 0.85474,3.56259 -3.88413,-0.7539 -9.77662,-3.69734 -5.49276,-0.43224 -2.35445,2.20451 0.0246,2.362 1.74969,1.30286 4.86486,1.57793 5.33548,2.80996 9.37621,5.36871 11.15779,2.85003 7.08583,-0.0694 5.63437,-2.12566 4.16664,-0.18038 10.3965,4.5527 14.75867,8.72014 17.81063,12.45567 14.74299,8.53962 14.07629,7.14279 22.05623,8.99576 6.4027,2.53553 7.93235,5.49405 6.01791,4.38731 10.97677,7.04816 11.35335,7.19723 -10.5932,-0.53517 -9.432,0.27306 -16.44754,3.24615 -18.23607,-0.59909 -12.50773,-1.6419 -12.46069,-1.10038 -19.02882,0.7426 c 0,0 -1.52544,0.84267 -1.67946,1.60045 -0.19025,0.93568 1.1374,2.62889 1.1374,2.62889 0,0 -1.56275,0.5735 -1.8913,1.2552 -0.44556,0.92477 -0.31495,2.22196 0.26615,3.06823 0.598,0.87075 4.14595,2.29274 4.14595,2.29274 0,0 -2.93649,0.85844 -3.04803,1.97612 -0.0932,0.93282 0.32481,1.95218 0.95692,2.6445 0.89382,0.97915 3.60146,1.68765 3.60146,1.68765 l 10.27925,1.10793 7.47806,0.26024 -12.91632,2.03039 c 0,0 -3.52778,0.35585 -4.40228,1.65501 -0.57356,0.85356 -0.5713,2.29294 0.0862,3.08386 1.04991,1.26333 4.81783,1.03646 4.81783,1.03646 l 11.05636,-0.41402 7.0388,-0.61102 c 0,0 1.18191,2.26805 1.17298,3.49782 -0.01,1.14017 0.0868,0.88545 0.0868,0.88545 0,0 -5.20059,0.97214 -7.43922,2.28229 -1.3348,0.78126 -2.81199,1.75433 -3.35892,3.20101 -0.32037,0.8473 -0.41747,2.07884 0.2351,2.70725 1.86181,1.79332 7.17582,-0.27946 7.17582,-0.27946 3.98315,0.27798 9.34358,-0.82092 9.34358,-0.82092 0,0 5.56102,-2.44983 7.6479,-3.9663 2.28402,-1.65975 2.9905,-2.72696 4.78914,-4.90323 1.06406,-1.28744 1.70026,-1.73078 1.70026,-1.73078 0,0 3.11989,-1.31419 4.77904,-1.50587 2.97833,-0.34403 8.9689,0.67617 8.9689,0.67617 l 16.58791,2.56062 11.91933,1.14741 11.25241,-0.2494 10.38957,-1.8111 6.4027,2.53553 4.79402,2.85688 -11.13719,16.24148 -6.45969,11.4712 -7.75505,15.40231 -7.06379,10.79622 -9.10803,4.84489 -15.59887,5.89938 c 0,0 -14.27945,1.0164 -19.39729,5.50503 -3.38469,2.96848 4.20618,8.76851 1.89564,11.42612 -1.03522,1.19069 -12.0808,9.48399 -12.0808,9.48399 l -1.03448,-1.15031 c 0,0 -2.95334,2.7075 -3.86156,3.42424 -3.34621,2.64086 -6.50256,5.60005 -9.1206,8.96411 -4.81674,6.18944 -6.18175,10.43346 -9.31701,17.62235 -2.38999,5.48005 -4.30233,11.25513 -5.19606,17.16655 -0.55123,3.64661 -0.21637,7.37879 -0.068,11.06385 0.20603,5.11981 -0.33614,10.46856 1.32938,15.31433 1.47754,4.29947 4.26907,8.16734 7.42236,11.44228 4.41386,4.5843 10.00329,7.98187 15.61202,10.98859 5.45305,2.92327 11.36569,4.9749 17.29953,6.72745 5.72669,1.69144 11.63361,2.77079 17.54409,3.6203 4.03006,0.57932 12.17345,1.00058 12.17345,1.00058 0,0 9.01103,3.04265 13.69337,3.69743 6.14069,0.85868 18.59952,0.2632 18.59952,0.2632 z"
       style="fill:#ffffff;fill-opacity:1;stroke:none" />
  </g>
</svg>
