<?xml version="1.0" encoding="UTF-8" standalone="no"?>
<!-- Created with Inkscape (http://www.inkscape.org/) -->

<svg
   xmlns:dc="http://purl.org/dc/elements/1.1/"
   xmlns:cc="http://creativecommons.org/ns#"
   xmlns:rdf="http://www.w3.org/1999/02/22-rdf-syntax-ns#"
   xmlns:svg="http://www.w3.org/2000/svg"
   xmlns="http://www.w3.org/2000/svg"
   xmlns:sodipodi="http://sodipodi.sourceforge.net/DTD/sodipodi-0.dtd"
   xmlns:inkscape="http://www.inkscape.org/namespaces/inkscape"
   width="512"
   height="512"
   id="svg3008"
   version="1.1"
   inkscape:version="0.48.4 r9939"
   sodipodi:docname="logo.svg"
   inkscape:export-filename="C:\Users\Evan\Code\Lemma\Assets\logo.png"
   inkscape:export-xdpi="90"
   inkscape:export-ydpi="90">
  <defs
     id="defs3010" />
  <sodipodi:namedview
     id="base"
     pagecolor="#ffffff"
     bordercolor="#666666"
     borderopacity="1.0"
     inkscape:pageopacity="0.0"
     inkscape:pageshadow="2"
     inkscape:zoom="1.7226562"
     inkscape:cx="256"
     inkscape:cy="256"
     inkscape:document-units="px"
     inkscape:current-layer="layer1"
     showgrid="false"
     fit-margin-top="0"
     fit-margin-left="0"
     fit-margin-right="0"
     fit-margin-bottom="0"
     inkscape:window-width="1680"
     inkscape:window-height="1031"
     inkscape:window-x="-8"
     inkscape:window-y="-8"
     inkscape:window-maximized="1" />
  <metadata
     id="metadata3013">
    <rdf:RDF>
      <cc:Work
         rdf:about="">
        <dc:format>image/svg+xml</dc:format>
        <dc:type
           rdf:resource="http://purl.org/dc/dcmitype/StillImage" />
        <dc:title></dc:title>
      </cc:Work>
    </rdf:RDF>
  </metadata>
  <g
     inkscape:label="Layer 1"
     inkscape:groupmode="layer"
     id="layer1"
     transform="translate(-313.92856,-76.612228)">
    <rect
       style="fill:#000000;fill-opacity:1;stroke:none"
       id="rect3031"
       width="512"
       height="512"
       x="313.92856"
       y="76.612228" />
    <g
       id="g3003">
      <path
         inkscape:export-ydpi="400.17322"
         inkscape:export-xdpi="400.17322"
         inkscape:export-filename="C:\Users\Evan\Code\Lemma\Assets\path3012.png"
         sodipodi:nodetypes="scccsscscsscscsssccscs"
         inkscape:connector-curvature="0"
         id="rect2992-1"
         d="m 609.89138,352.12077 62.43226,0 10.02988,1.82361 9.57392,-1.82361 21.12305,0 c 5.41573,0 8.67434,1.83311 13.09337,4.25784 3.43038,1.88226 8.28471,3.93981 10.76161,6.93032 -1.949,3.98524 7.0927,12.23428 7.0927,19.75957 l -2.27949,64.90885 2.27949,38.25021 c 0.4534,7.60933 -2.22476,14.56995 -6.84642,19.95456 -2.54421,2.9641 -10.46591,5.16713 -9.20385,7.21167 -4.4739,2.30562 -9.5763,3.62155 -14.89741,3.78146 l -75.83137,2.27949 -27.32774,-2.27949 c -6.31851,-0.52703 -12.65207,-3.91964 -17.09494,-5.76196 -9.21902,-3.82278 -14.01793,-14.38372 -13.85275,-25.18573 l 0.84272,-55.11808 2.34858,-11.39813 -3.1913,-36.64285 c -1.00345,-11.52167 1.26565,-19.78608 10.61606,-25.09899 4.51122,-2.56323 14.7519,-5.84874 20.33163,-5.84874 z"
         style="fill:#5bafcd;fill-opacity:1;stroke:none" />
      <path
         inkscape:export-ydpi="400.17322"
         inkscape:export-xdpi="400.17322"
         inkscape:export-filename="C:\Users\Evan\Code\Lemma\Assets\path3012.png"
         sodipodi:nodetypes="cccsssscccsscscscccssc"
         inkscape:connector-curvature="0"
         id="rect2994-7"
         d="m 609.89138,162.5659 48.7783,4.47093 38.27272,-3.1032 16.10809,-1.36773 c 6.49698,-0.55165 12.47492,1.18078 17.38421,4.4828 3.56003,2.39452 4.27852,4.70262 6.50497,8.47547 2.77641,4.70482 6.63247,11.18137 6.60258,17.07765 l -0.30533,60.25262 1.97407,8.20366 -1.70501,7.28447 0.4921,28.33013 c 0.29799,17.14243 -13.80268,30.94772 -30.94768,30.94772 l -49.84493,-2.27949 -53.31418,2.27949 c -8.38805,0.35852 -14.43287,-8.41559 -20.3049,-8.42247 -5.16906,-5.70842 -7.95,-13.78852 -8.36329,-22.52525 l -1.7714,-37.44546 -1.8415,-33.72304 1.56093,-12.34386 -0.22739,-19.64671 c -0.19851,-17.1439 13.80268,-30.94773 30.94768,-30.94773 z"
         style="fill:#5bafcd;fill-opacity:1;stroke:none" />
      <path
         inkscape:export-ydpi="400.17322"
         inkscape:export-xdpi="400.17322"
         inkscape:export-filename="C:\Users\Evan\Code\Lemma\Assets\path3012.png"
         sodipodi:nodetypes="scsscccsscscccsssccccssss"
         inkscape:connector-curvature="0"
         id="rect2998-4"
         d="m 421.62603,352.12077 48.73259,4.10311 54.42652,-4.10311 c 17.09649,-1.28888 30.94768,13.80269 30.94768,30.94773 l 0,28.43659 2.2795,10.94164 -2.2795,9.57396 0,54.20687 c 0,6.77578 -2.15576,13.02951 -5.82169,18.11563 -2.90734,4.03362 -7.6763,14.17132 -11.24936,9.57548 -4.16931,2.08479 -14.35401,4.76785 -19.34743,4.62432 l -47.58803,-1.36774 -11.85346,-1.82361 -13.67707,1.82361 -24.56975,0 c -9.83358,0 -22.21488,-5.9083 -24.22857,-11.64806 -2.23654,-6.37496 -6.71911,-11.9882 -6.71911,-19.29963 l 0,-28.67625 2.27949,-7.29446 -2.27949,-10.02989 3.26543,-31.47087 -0.53001,-24.77578 c -0.11369,-5.32584 -1.1646,-12.14736 2.89313,-14.90709 3.39261,-2.30736 5.04843,-8.54455 8.87569,-11.47963 4.48285,-3.43786 10.06835,-5.47282 16.44344,-5.47282 z"
         style="fill:#5bafcd;fill-opacity:1;stroke:none" />
      <path
         inkscape:export-ydpi="400.17322"
         inkscape:export-xdpi="400.17322"
         inkscape:export-filename="C:\Users\Evan\Code\Lemma\Assets\path3012.png"
         sodipodi:nodetypes="cccscsccsssccscsscsc"
         inkscape:connector-curvature="0"
         id="rect3000-0"
         d="m 479.47669,162.5659 14.58889,1.82362 16.47461,-2.12917 14.24495,0.30578 c 5.06379,0.10865 9.8366,1.35769 14.04841,3.5059 2.75074,8.77075 17.6714,2.15236 16.89927,27.44184 l -2.15998,21.96039 2.83831,28.26293 -3.86963,54.30342 c -0.6526,9.1586 -2.13503,13.30192 -8.44563,18.95995 -5.47304,4.90709 -11.38152,11.13915 -19.31075,10.6201 l -34.82268,-2.2795 -41.47553,3.09049 -26.8609,-0.81099 c -5.87547,-0.17742 -12.72762,1.33569 -16.03079,-4.67563 -8.95289,-5.40524 -14.91689,-15.00523 -14.91689,-26.27215 l 0,-103.15906 c 0,-17.14505 8.63418,-24.08165 25.02096,-29.12408 6.36367,-1.38593 17.9101,1.10404 24.52106,0.79596 14.68808,-0.6846 24.75346,-2.61971 39.25632,-2.61971 z"
         style="fill:#5bafcd;fill-opacity:1;stroke:none" />
      <path
         inkscape:export-ydpi="400.17322"
         inkscape:export-xdpi="400.17322"
         sodipodi:nodetypes="ccsccccsssscccscssssssscsssccsssccccccccsscsccssssssssccsssscssccssccsccsccsssscccccscccccccccccccccccccccccccccccccccccccccccccccccccccccccccscsscssccccsscccscsssscsscscccccccccccccssssssssssscsc"
         inkscape:connector-curvature="0"
         id="path3012"
         d="m 601.04851,445.83415 18.19874,23.59092 c 0,0 15.06626,7.55004 21.5688,12.80648 6.42937,5.19733 16.85072,18.1987 16.85072,18.1987 l -14.31216,10.83464 -17.36715,10.73425 4.71825,8.08835 c 0,0 -27.10915,20.08907 -41.78971,28.30909 -13.77431,7.71256 -43.13765,19.54686 -43.13765,19.54686 -1.88679,0.85492 -3.62989,-2.68867 -4.0442,-4.71822 -0.89539,-4.3862 1.87428,-8.89095 4.0442,-12.80657 4.86661,-8.78189 19.54672,-22.9169 19.54672,-22.9169 l 6.02186,-23.24104 -2.52921,-1.40303 c 0,0 -0.86166,-14.55706 -4.16665,-21.86377 -6.40778,-14.16632 -28.30914,-37.07145 -28.30914,-37.07145 0,0 -20.26864,-11.35196 -30.55727,-16.73987 -4.87789,-2.55443 -9.73401,-5.17194 -14.77487,-7.38739 -5.91554,-2.59982 -12.51605,-3.67854 -18.11113,-6.91079 -3.81356,-2.20307 -7.9451,-4.58604 -10.24715,-8.34068 -2.16626,-3.53312 -3.01324,-8.02779 -2.62132,-12.15356 0.32642,-3.43694 1.60993,-7.09095 4.05118,-9.53219 2.44124,-2.44123 6.24713,-2.98922 9.53219,-4.05117 1.70525,-0.55124 5.24268,-1.19146 5.24268,-1.19146 0,0 -1.66812,-4.05122 -1.90646,-5.24273 -0.23793,-1.1915 -1.09354,-7.50855 0.47665,-10.72369 1.87913,-3.84776 5.94135,-6.42379 9.77049,-8.34064 5.16969,-2.588 11.16634,-3.24417 16.91963,-3.81292 l 50.04389,-4.28942 c 0,0 -8.88285,0.20721 -13.10676,-0.95325 -3.93935,-1.08231 -7.87004,-2.81089 -10.96196,-5.48098 -5.35376,-4.62332 -8.48148,-11.35031 -12.15355,-17.39623 -5.07218,-8.35114 -13.58332,-25.97523 -13.58332,-25.97523 l -5.78897,-7.93367 -6.14948,-4.7045 -20.8417,2.82468 -8.82159,14.21391 -6.40324,2.02207 -4.04416,-0.84248 -3.53862,-2.35913 c 0,0 -1.42835,0.62308 -2.19061,0.67406 -0.6818,0.0458 -1.41449,-0.0229 -2.02212,-0.3365 -0.42407,-0.21823 -1.01102,-1.01107 -1.01102,-1.01107 0,0 -1.74338,0.30808 -2.52761,0 -0.99886,-0.39243 -2.35908,-2.1906 -2.35908,-2.1906 l -1.17959,-1.17954 c 0,0 -1.73206,1.34358 -2.69608,1.85355 -0.95885,0.50732 -1.94951,1.22983 -3.0331,1.17954 -1.00368,-0.0467 -1.99411,-0.62917 -2.69608,-1.34806 -1.47456,-1.51008 -1.72515,-3.85514 -2.69609,-5.72918 -1.09937,-2.12175 -2.06394,-4.35444 -3.53868,-6.23472 -0.85826,-1.09432 -1.8585,-2.12019 -3.03314,-2.86465 -2.34349,-1.48538 -5.38933,-1.57735 -7.7513,-3.0331 -3.14903,-1.94084 -5.8415,-4.61268 -8.25684,-7.4143 -2.46168,-2.85541 -6.23476,-9.43638 -6.23476,-9.43638 l -1.51655,-6.74029 c 0,0 -1.176,-9.62164 -0.33695,-14.32306 0.96567,-5.41135 3.45331,-10.49806 6.06623,-15.33409 1.99269,-3.68813 4.36516,-7.23344 7.24578,-10.27892 2.36302,-2.49822 5.15533,-4.60818 8.08835,-6.40324 3.6874,-2.25676 11.79546,-5.39217 11.79546,-5.39217 0,0 0.77011,-6.48774 2.52761,-9.09942 2.77242,-4.11984 7.32055,-6.9466 11.79546,-9.09937 3.88163,-1.8674 12.55272,-3.06816 12.55272,-3.06816 l 12.55475,-6.0181 c 0,0 55.37372,-33.26867 58.54449,-32.3295 3.42327,1.01404 5.8117,4.76997 9.35371,5.21825 5.46484,0.69166 15.98224,-4.20155 15.98224,-4.20155 l -9.26689,10.56237 c 0,0 2.85187,8.71919 0.0138,9.02374 -20.25535,2.17543 -53.61323,18.38651 -53.61323,18.38651 l -13.27767,8.11972 c 0,0 -3.38596,5.23745 -8.91297,5.84893 -7.59438,0.84011 -17.86725,4.46593 -17.86725,4.46593 l 5.89776,9.43638 c 0,0 6.21899,3.95237 8.76237,6.57171 2.25295,2.32025 4.03571,5.09382 5.59036,7.92969 1.34055,2.44536 2.20183,5.12697 3.17196,7.7415 0.37088,0.99919 0.42131,2.14549 1.01102,3.03309 1.47606,2.22118 6.01768,5.27229 6.01768,5.27229 l 14.66008,-6.06623 17.86169,-7.91978 8.93089,-2.02209 6.57181,-3.37014 c 0,0 2.34602,-2.87649 3.87558,-3.87563 7.117,-4.64926 23.75945,-9.26789 23.75945,-9.26789 l 21.89279,-11.13131 26.21347,-17.39619 18.11109,-12.86846 20.97084,-13.58336 21.20911,-12.15346 15.72806,-7.14919 24.30707,-13.10675 15.01321,-10.48536 18.826,-10.96205 14.29827,-7.38743 13.34506,-4.527763 2.38302,0.953208 2.71653,0.32687 0.84253,2.359075 -2.02212,2.02208 -2.69609,1.17954 1.51655,0.67402 0.16825,3.20165 -1.51655,2.19056 -4.21263,3.03314 -10.61596,6.06628 -6.23468,4.04412 -4.04415,3.70709 -1.51669,2.19065 -0.50544,3.3701 3.53868,-1.01102 8.76228,-4.21268 5.05521,-0.84248 2.35913,1.8535 0.16825,2.19061 -1.5166,1.34811 -4.38115,1.85355 -4.71822,3.03309 -8.25679,5.72927 -10.11038,3.53859 -6.57182,0.50553 -5.39217,-1.51655 -3.87563,0.16825 -9.26789,5.05517 -12.97501,9.2679 -15.50266,12.975 -12.97496,9.09938 -12.46951,7.7513 -19.71529,10.11034 -5.72923,2.86467 -6.90872,5.72922 -5.22375,4.54969 -9.60485,7.41425 -9.94192,7.58278 9.77339,-1.34802 8.76232,-0.50548 15.50261,1.68507 16.85068,-2.02208 11.45846,-2.52761 11.4584,-2.02212 17.69322,-0.84254 c 0,0 1.48138,0.65819 1.68507,1.34807 0.25169,0.85175 -0.84253,2.52761 -0.84253,2.52761 0,0 1.4943,0.40572 1.85359,1.01101 0.48742,0.82113 0.47046,2.03373 0,2.86462 -0.48412,0.855 -3.6575,2.45815 -3.6575,2.45815 0,0 2.79021,0.55926 2.98349,1.58605 0.16138,0.85693 -0.14395,1.83517 -0.67406,2.52756 -0.74952,0.97925 -3.20161,1.8536 -3.20161,1.8536 l -9.43634,1.85355 -6.90881,0.84253 12.13251,0.84254 c 0,0 3.29771,0.0458 4.21264,1.17949 0.60016,0.74485 0.71381,2.07889 0.16825,2.86467 -0.87128,1.25514 -4.38117,1.34802 -4.38117,1.34802 l -10.27891,0.50558 -6.5718,0 c 0,0 -0.91282,2.19683 -0.80564,3.33567 0.0995,1.05594 -0.009,0.82749 -0.009,0.82749 0,0 4.89747,0.48252 7.0773,1.51655 1.29983,0.61657 2.74693,1.39946 3.37014,2.69609 0.36493,0.75938 0.55399,1.89279 0,2.52761 -1.58105,1.8116 -6.67207,0.31816 -6.67207,0.31816 -3.66873,0.57787 -8.72455,-0.009 -8.72455,-0.009 0,0 -5.35027,-1.82284 -7.40608,-3.06028 -2.25007,-1.3543 -2.99055,-2.28642 -4.83237,-4.1584 -1.08959,-1.10743 -1.71488,-1.46708 -1.71488,-1.46708 0,0 -2.99678,-0.96691 -4.54968,-1.01106 -2.78759,-0.0794 -8.25684,1.34807 -8.25684,1.34807 l -15.16561,3.7072 -10.95297,2.02203 -10.44734,0.67405 -9.77343,-0.84259 -5.72918,2.86467 -4.21268,3.03309 11.62693,14.15459 6.90878,10.11039 8.42535,13.6491 7.41425,9.43629 8.25684,6.90881 15.50266,7.0773 c 0,0 11.50379,5.29782 17.18769,8.08826 4.87068,2.39122 9.9574,4.43375 14.49154,7.41431 3.31326,2.17804 6.47618,4.66635 9.17286,7.57315 4.96142,5.34808 9.14651,11.46331 12.63011,17.87283 2.65557,4.886 4.89224,10.0838 6.19594,15.48982 0.80421,3.33484 0.79416,6.82033 0.95319,10.24705 0.22098,4.76099 1.15342,9.67386 0,14.29831 -1.02334,4.10303 -3.29903,7.91182 -5.95762,11.20031 -3.7215,4.60314 -8.62777,8.20118 -13.58331,11.4386 -4.81807,3.14762 -10.13212,5.52435 -15.48982,7.62574 -5.17066,2.02808 -10.55765,3.50347 -15.96638,4.76612 -3.68798,0.86097 -11.2003,1.90646 -11.2003,1.90646 0,0 -8.1055,3.54435 -12.39186,4.52772 -5.62131,1.28971 -17.21446,1.74014 -17.21446,1.74014 z"
         style="fill:#ffffff;fill-opacity:1;stroke:none" />
    </g>
  </g>
</svg>
