<?xml version="1.0" encoding="UTF-8" standalone="no"?>
<!-- Created with Inkscape (http://www.inkscape.org/) -->

<svg
   xmlns:dc="http://purl.org/dc/elements/1.1/"
   xmlns:cc="http://creativecommons.org/ns#"
   xmlns:rdf="http://www.w3.org/1999/02/22-rdf-syntax-ns#"
   xmlns:svg="http://www.w3.org/2000/svg"
   xmlns="http://www.w3.org/2000/svg"
   xmlns:sodipodi="http://sodipodi.sourceforge.net/DTD/sodipodi-0.dtd"
   xmlns:inkscape="http://www.inkscape.org/namespaces/inkscape"
   width="512"
   height="512"
   id="svg3008"
   version="1.1"
   inkscape:version="0.48.0 r9654"
   sodipodi:docname="logo.svg"
   inkscape:export-filename="C:\Users\et1337\Lemma\Assets\logo.png"
   inkscape:export-xdpi="90"
   inkscape:export-ydpi="90">
  <defs
     id="defs3010" />
  <sodipodi:namedview
     id="base"
     pagecolor="#ffffff"
     bordercolor="#666666"
     borderopacity="1.0"
     inkscape:pageopacity="0.0"
     inkscape:pageshadow="2"
     inkscape:zoom="0.39111328"
     inkscape:cx="-399.60292"
     inkscape:cy="437.63436"
     inkscape:document-units="px"
     inkscape:current-layer="layer1"
     showgrid="false"
     fit-margin-top="0"
     fit-margin-left="0"
     fit-margin-right="0"
     fit-margin-bottom="0"
     inkscape:window-width="1680"
     inkscape:window-height="998"
     inkscape:window-x="-8"
     inkscape:window-y="-8"
     inkscape:window-maximized="1" />
  <metadata
     id="metadata3013">
    <rdf:RDF>
      <cc:Work
         rdf:about="">
        <dc:format>image/svg+xml</dc:format>
        <dc:type
           rdf:resource="http://purl.org/dc/dcmitype/StillImage" />
        <dc:title></dc:title>
      </cc:Work>
    </rdf:RDF>
  </metadata>
  <g
     inkscape:label="Layer 1"
     inkscape:groupmode="layer"
     id="layer1"
     transform="translate(-313.92856,-76.612228)">
    <rect
       style="fill:#000000;fill-opacity:1;stroke:none"
       id="rect3031"
       width="512"
       height="512"
       x="313.92856"
       y="76.612228" />
    <path
       style="fill:#5bafcd;fill-opacity:1;stroke:none"
       d="m 608.08123,351.28056 62.27429,0 10.00451,1.819 9.54974,-1.819 21.06958,0 c 5.40204,0 8.65244,1.82851 13.06025,4.24706 3.42171,1.87749 8.26375,3.92985 10.73439,6.91279 -1.94402,3.97521 7.0748,12.20339 7.0748,19.70964 l -2.27373,64.74461 2.27373,38.15346 c 0.45226,7.59008 -2.21913,14.53313 -6.82914,19.90408 -2.53773,2.95664 -10.4394,5.1541 -9.18057,7.19342 -4.46255,2.2998 -9.55203,3.6124 -14.85973,3.77195 l -75.63951,2.27373 -27.25861,-2.27373 c -6.30258,-0.52575 -12.62011,-3.90977 -17.0517,-5.74743 -9.19575,-3.8131 -13.98246,-14.3473 -13.81775,-25.12202 l 0.84064,-54.97866 2.34264,-11.36925 -3.18328,-36.55016 c -1.00091,-11.49253 1.26248,-19.73607 10.58925,-25.0355 4.49977,-2.55674 14.71454,-5.83399 20.2802,-5.83399 z"
       id="rect2992"
       inkscape:connector-curvature="0"
       sodipodi:nodetypes="scccsscscsscscsssccscs" />
    <path
       style="fill:#5bafcd;fill-opacity:1;stroke:none"
       d="m 608.08123,162.20522 48.65491,4.45957 38.17587,-3.09534 16.06734,-1.36423 c 6.48055,-0.55026 12.44341,1.17779 17.34024,4.47146 3.55108,2.38842 4.26774,4.69068 6.48856,8.45398 2.76939,4.69297 6.61564,11.15313 6.58587,17.03451 l -0.30455,60.10015 1.96908,8.18291 -1.7007,7.26604 0.49085,28.25847 c 0.29724,17.09911 -13.76777,30.86945 -30.86945,30.86945 l -49.71879,-2.27373 -53.17932,2.27373 c -8.36687,0.35759 -14.39641,-8.39431 -20.25354,-8.40117 -5.15602,-5.69398 -7.92989,-13.7536 -8.34218,-22.46828 l -1.76687,-37.35074 -1.83688,-33.63769 1.55697,-12.31268 -0.22681,-19.59701 c -0.19801,-17.10049 13.76777,-30.8694 30.8694,-30.8694 z"
       id="rect2994"
       inkscape:connector-curvature="0"
       sodipodi:nodetypes="cccsssscccsscscscccssc" />
    <path
       style="fill:#5bafcd;fill-opacity:1;stroke:none"
       d="m 420.29211,351.28056 48.60932,4.09273 54.28884,-4.09273 c 17.05325,-1.28563 30.8694,13.76781 30.8694,30.86949 l 0,28.36465 2.27373,10.91392 -2.27373,9.54979 0,54.06971 c 0,6.75868 -2.15031,12.9966 -5.80697,18.0698 -2.89999,4.02341 -7.65688,14.13553 -11.22095,9.55125 -4.15876,2.07957 -14.31765,4.7558 -19.29849,4.61263 l -47.4676,-1.36423 -11.82347,-1.819 -13.64252,1.819 -24.50756,0 c -9.8087,0 -22.1587,-5.89335 -24.16729,-11.61865 -2.23093,-6.35883 -6.70211,-11.95787 -6.70211,-19.2508 l 0,-28.60372 2.27368,-7.27601 -2.27368,-10.00447 3.25717,-31.39126 -0.52872,-24.71315 c -0.1134,-5.31237 -1.16165,-12.11664 2.88586,-14.86934 3.38403,-2.30153 5.03562,-8.52294 8.8532,-11.45064 4.4715,-3.42916 10.04288,-5.45897 16.40189,-5.45897 z"
       id="rect2998"
       inkscape:connector-curvature="0"
       sodipodi:nodetypes="scsscccsscscccsssccccssss" />
    <path
       style="fill:#5bafcd;fill-opacity:1;stroke:none"
       d="m 477.99639,162.20522 14.55198,1.819 16.43294,-2.12378 14.20896,0.30501 c 5.05098,0.10837 9.81167,1.35421 14.01283,3.49697 2.74382,8.74858 17.62674,2.14693 16.85657,27.37243 l -2.15456,21.90485 2.83112,28.19148 -3.85983,54.16601 c -0.65096,9.13544 -2.1296,13.26832 -8.42427,18.91204 -5.4592,4.89464 -11.35269,11.11093 -19.26186,10.59318 l -34.73463,-2.27373 -41.37063,3.08268 -26.7929,-0.80895 c -5.86061,-0.17697 -12.69543,1.33236 -15.99029,-4.66379 -8.9302,-5.39152 -14.87911,-14.96728 -14.87911,-26.20565 l 0,-102.89812 c 0,-17.10168 8.61234,-24.02077 24.95766,-29.0504 6.34753,-1.38248 17.86476,1.10124 24.45904,0.79394 14.65093,-0.68286 24.6908,-2.61308 39.15698,-2.61308 z"
       id="rect3000"
       inkscape:connector-curvature="0"
       sodipodi:nodetypes="cccscsccsssccscsscsc" />
    <path
       style="fill:#ffffff;fill-opacity:1;stroke:none"
       d="m 535.01607,551.54145 c 0,0 0.24328,6.06863 5.58313,7.76782 5.34044,1.69919 30.10052,2.91297 40.29581,-3.15566 10.19534,-6.06867 7.03959,-11.65189 12.38004,-15.29305 5.34035,-3.64121 13.10831,-4.3694 20.87614,-10.19534 7.76787,-5.82586 10.43807,-8.49601 8.49614,-14.07919 -1.94196,-5.58322 -5.09767,-8.9816 -5.09767,-8.9816 0,0 0.97097,-4.36944 2.67016,-6.06868 1.69924,-1.69919 3.88398,-3.64116 3.88398,-3.64116 l 7.28236,2.67015 c 0,0 7.76783,-11.1663 8.49606,-14.32195 0.72828,-3.15575 6.06872,-11.40908 6.06872,-11.40908 0,0 -1.94201,-20.63341 -3.39847,-23.78911 -1.45651,-3.15566 -3.39848,-2.67016 -3.15571,-5.09763 0.24328,-2.42751 1.21374,-5.09767 0.48546,-6.55418 -0.72823,-1.45637 -15.05014,-11.6518 -16.0212,-12.86554 -0.97096,-1.21364 -0.24282,-2.91297 -3.15565,-3.15561 -2.91298,-0.24282 -6.79696,2.18465 -6.79696,2.18465 0,0 0.72823,-5.3404 1.21374,-9.95256 0.4855,-4.61217 -2.6702,-8.73883 -2.6702,-8.73883 0,0 4.12671,-6.31145 6.79691,-7.03973 2.6702,-0.72819 11.65176,0.24282 16.9922,-3.39834 5.3404,-3.64125 26.94482,-16.74948 36.89738,-31.31426 9.95257,-14.56477 8.4961,-21.60437 8.4961,-21.60437 0,0 -0.24327,-21.36159 -3.6412,-27.18749 -3.39843,-5.82591 -6.06863,-6.31145 -6.79696,-11.65185 -0.72814,-5.3404 1.45656,-4.85494 0,-8.49606 -1.45637,-3.64121 -3.64107,-8.01069 -10.92343,-12.13731 -7.28241,-4.12666 -9.22443,-8.49614 -13.10827,-9.22433 -3.88398,-0.72823 -6.79696,-1.45651 -11.89458,-6.06863 -5.09767,-4.61217 -15.05028,-11.89463 -15.05028,-11.89463 0,0 30.34324,-26.94472 34.22718,-30.10042 3.88393,-3.15571 31.31416,-25.48831 35.44087,-28.64406 4.12676,-3.1557 8.25342,-5.58308 13.59377,-9.70983 5.34045,-4.12667 10.68085,-4.85494 17.72048,-10.43812 7.03964,-5.58313 7.76792,-10.43807 7.76792,-10.43807 0,0 2.67015,0 4.61207,-0.97091 1.94197,-0.97101 2.42747,-2.6702 2.42747,-2.6702 0,0 2.91293,1.94197 5.82595,-0.24328 2.91289,-2.1847 2.67016,-4.61221 2.67016,-4.61221 l 15.05023,-2.91293 0.97105,-0.97101 c 0,0 3.39844,0.72824 4.8549,0.48555 1.45646,-0.24328 2.91293,-1.45646 3.88394,-1.45646 0.971,0 4.36939,0.72818 7.28241,0 2.91288,-0.72823 4.85489,-1.94201 4.85489,-1.94201 0,0 6.55414,0.48545 9.22434,-1.45647 2.6702,-1.94201 3.64116,-3.15566 2.18465,-5.58322 -1.45642,-2.42733 -3.64116,-1.94197 -7.76783,-1.94197 -4.12671,0 -16.74947,2.67025 -17.72043,-2.67015 -0.97105,-5.3404 -0.97105,-4.85489 4.61212,-7.76782 5.58317,-2.91302 24.76012,-13.35114 26.70208,-14.56478 1.94197,-1.21369 3.15571,-3.88394 1.69924,-5.58313 -1.45646,-1.69928 -5.34044,-2.67024 -8.9816,0 -3.64121,2.67015 -13.83655,10.1953 -16.74948,7.28232 -2.91297,-2.91288 15.5357,-12.86549 17.47766,-14.07918 1.94202,-1.21383 5.34045,-4.36944 3.15575,-6.55418 -2.18474,-2.18474 -7.28236,-1.94197 -7.28236,-1.94197 0,0 0.24327,-1.941967 -1.69924,-3.155703 -1.94197,-1.213735 -17.47766,6.796863 -17.47766,6.796863 0,0 2.18469,-3.88393 -0.72828,-5.097624 -2.91297,-1.213781 -5.58313,0.485364 -8.25337,2.670244 -2.6702,2.18465 -7.76787,5.34035 -7.76787,5.34035 l -6.55414,10.92353 -4.12671,6.31145 -1.21369,-1.45651 -12.1373,12.13731 c 0,0 -1.94197,-1.45651 -4.8549,0.48546 -2.91297,1.94197 -4.12671,4.61216 -4.12671,4.61216 l -20.14786,12.13731 -22.08992,13.8365 c 0,0 -16.74947,9.46707 -19.17685,12.38009 -2.42752,2.91288 -4.12676,4.12666 -7.28246,6.06858 -3.15561,1.94201 -2.42742,3.64121 -5.34031,5.3404 -2.91302,1.69928 -4.36948,-1.21369 -8.98165,1.94201 -4.61217,3.15571 -9.46711,9.95257 -11.40907,11.40908 -1.94193,1.45646 -5.58313,3.39843 -8.98161,7.03959 -3.39843,3.64116 -2.91288,4.36944 -6.06858,6.79691 -3.15571,2.42742 -3.64126,-0.72832 -6.79696,2.18469 -3.1557,2.91293 -5.58317,3.88394 -5.58317,3.88394 0,0 0.24328,-2.1847 -2.42743,-2.1847 -2.67015,0 -4.85489,1.21369 -4.85489,-1.45651 0,-2.6702 4.85489,-6.55413 6.06863,-7.52514 1.21369,-0.971 2.18474,-3.39843 0.4855,-4.61212 -1.69924,-1.21373 -9.70984,6.06863 -11.89449,4.36944 -2.18478,-1.69928 2.67016,-7.76787 3.88389,-9.46711 1.21374,-1.69924 1.45647,-3.39848 -0.24327,-4.12671 -1.6992,-0.72818 -11.16631,12.38004 -11.16631,12.38004 l -5.09762,2.18469 c 0,0 -0.72828,-2.91288 -2.42747,-4.12666 -1.69924,-1.21369 -2.6702,-1.21369 -2.6702,-1.21369 0,0 -2.42747,-9.22438 -8.25333,-8.25337 -5.82595,0.97101 -17.96325,7.03964 -17.96325,7.03964 0,0 -10.43807,2.18469 -14.80746,4.36939 -4.36949,2.18469 -9.95257,3.6412 -13.8366,5.09767 -3.88389,1.45651 -11.16625,2.67015 -17.23484,6.79686 -6.06872,4.12676 -11.1663,9.46711 -11.1663,9.46711 0,0 -6.31145,2.91297 -9.46715,6.79691 -3.15566,3.88393 -4.36939,7.76782 -4.36939,7.76782 0,0 -15.12322,-8.63036 -33.127,-7.92769 -13.81308,0.53905 -37.99757,38.27099 -31.92889,53.32118 6.06859,15.05028 8.98156,12.62276 13.351,17.23502 4.36939,4.61212 5.58313,8.25328 8.25337,9.95247 2.6702,1.69929 7.52514,2.42747 7.52514,2.42747 0,0 5.58313,14.80756 9.70979,15.05033 4.12667,0.24282 4.85494,-4.61221 4.85494,-4.61221 0,0 4.36944,4.36944 6.31141,4.36944 1.94192,0 2.42742,-0.48551 2.42742,-0.48551 0,0 0,2.42747 2.42748,2.1847 2.42742,-0.24328 6.79686,-2.91293 8.73883,-2.91293 1.94201,0 7.76787,2.1847 11.40903,1.69924 3.6412,-0.4855 9.70983,1.21369 15.05032,0.24282 5.34036,-0.97096 11.16626,-3.39843 11.16626,-3.39843 l -15.05024,14.07923 c 0,0 -8.49614,6.797 -13.10827,10.43811 -4.61216,3.64125 -14.32205,16.74948 -13.83654,20.63341 0.4855,3.88394 5.09771,16.02124 8.98165,21.60437 3.88384,5.58313 29.37219,35.92638 37.14006,43.20874 7.76787,7.28242 30.34325,35.68369 30.34325,35.68369 0,0 3.39843,6.31136 3.39843,9.95252 0,3.64121 -1.45642,8.25338 -1.45642,8.25338 l 5.58313,2.91297 1.45646,4.12666 3.39843,0.97101 c 0,0 -5.09767,9.70984 -7.03959,15.53579 -1.94201,5.82585 -5.34044,10.43802 -7.76796,14.07918 -2.42742,3.64116 -13.10827,15.29296 -9.22433,18.44867 3.88398,3.15575 6.31145,1.21382 6.31145,1.21382 z"
       id="path3777"
       inkscape:connector-curvature="0"
       sodipodi:nodetypes="csssssccccccscccccsccssccccscscscssccccccccsccssscscccscscccsscccccscccccssscsscsscccscccccccssscscsssccccsccsscccsssscsccccscscc" />
  </g>
</svg>
